<?xml version="1.0" encoding="UTF-8" standalone="no"?><svg xmlns="http://www.w3.org/2000/svg" xmlns:xlink="http://www.w3.org/1999/xlink" fill="#000000" height="502" preserveAspectRatio="xMidYMid meet" version="1" viewBox="0.0 -1.1 425.0 502.0" width="425" zoomAndPan="magnify"><g><g id="change1_1"><path d="M370,11v233.8c0,8.3-5,17.9-11.2,21.4l-346.4,200c-6.2,3.6-11.2-0.2-11.2-8.5V223.9 c0-8.3,5-17.9,11.2-21.4l346.4-200C364.9-1.1,370,2.7,370,11z" fill="#f0abc1"/></g><g id="change2_1"><path d="M366.6,0.9c-2.4-1.4-5.4-1.2-8.5,0.6l-346.4,200C5.3,205.2,0,215.3,0,223.9v233.8 c0,4.8,1.6,8.4,4.4,10.1c1,0.6,2.2,0.9,3.4,0.9c1.6,0,3.3-0.5,5-1.5l346.4-200c6.5-3.8,11.8-13.8,11.8-22.4V11 C371.1,6.2,369.5,2.5,366.6,0.9z M358.2,265.2l-346.4,200c-2.3,1.3-4.5,1.6-6.2,0.6c-2.1-1.2-3.3-4.2-3.3-8.1V232.4L368.8,20.8v224 C368.8,252.6,364,261.8,358.2,265.2z" fill="#2b4b82"/></g><g id="change1_2"><path d="M10.6,216.1c0,1.4,0.4,2.4,1.2,2.9c0.8,0.4,1.9,0.3,3.1-0.4c2.9-1.7,5.4-6,5.4-9.3 c0-1.4-0.4-2.4-1.2-2.9c-0.3-0.2-0.6-0.2-1-0.2c-0.6,0-1.4,0.2-2.1,0.7C13.1,208.4,10.6,212.7,10.6,216.1z" fill="#f0abc1"/></g><g id="change3_1"><path d="M26.9,206.6c0,1.4,0.4,2.4,1.2,2.9c0.8,0.4,1.9,0.3,3.1-0.4c2.9-1.7,5.4-6,5.4-9.3 c0-1.4-0.4-2.4-1.2-2.9c-0.3-0.2-0.6-0.2-1-0.2c-0.6,0-1.4,0.2-2.1,0.7C29.4,199,26.9,203.3,26.9,206.6z" fill="#94ddde"/></g><g id="change4_1"><path d="M43.6,197c0,1.4,0.4,2.4,1.2,2.9c0.8,0.4,1.9,0.3,3.1-0.4c2.9-1.7,5.4-6,5.4-9.3 c0-1.4-0.4-2.4-1.2-2.9c-0.3-0.2-0.6-0.2-1-0.2c-0.6,0-1.4,0.2-2.1,0.7C46.1,189.3,43.6,193.6,43.6,197z" fill="#fefefe"/></g></g><g><g id="change3_2"><path d="M396.9,26.2v233.8c0,8.3-5,17.9-11.2,21.4l-346.4,200c-6.2,3.6-11.2-0.2-11.2-8.5V239.1 c0-8.3,5-17.9,11.2-21.4l346.4-200C391.9,14.1,396.9,17.9,396.9,26.2z" fill="#94ddde"/></g><g id="change2_2"><path d="M393.6,16.1c-2.4-1.4-5.4-1.2-8.5,0.6l-346.4,200c-6.5,3.8-11.8,13.8-11.8,22.4v233.8 c0,4.8,1.6,8.4,4.4,10.1c1,0.6,2.2,0.9,3.4,0.9c1.6,0,3.3-0.5,5-1.5l346.4-200c6.5-3.8,11.8-13.8,11.8-22.4V26.2 C398.1,21.4,396.4,17.8,393.6,16.1z M395.8,36v2.6l-22.9,22.9l0,0l-27.3,27.3l-54.6,54.6l0,0l-27.3,27.3L209,225.4l0,0l-27.3,27.3 L127,307.4l0,0l-27.3,27.3l-54.6,54.6l0,0l-15.9,15.9v-6.3l22.9-22.9l0,0l34.1-34.1l0,0l47.8-47.8l0,0l34.1-34.1l0,0L216,212l0,0 l34.1-34.1l0,0l12.6-12.6l1.1-1.1l34.1-34.1l0,0L332.1,96l0,0l47.8-47.8l0,0L387,41L395.8,36z M366,143.5L345.5,164l-61.4,61.4l0,0 l-20.5,20.5l-61.4,61.4l0,0l-20.5,20.5l-61.4,61.4l0,0l-20.5,20.5l-61.4,61.4l0,0l-7.7,7.7c-0.8-1.3-1.2-3-1.3-5l16.1-16.1l0,0 l41-41l0,0l41-41l0,0l41-41l0,0l41-41l0,0l41-41l0,0l12.3-12.3l1.4-1.4l27.3-27.3l0,0l41-41v0l41-41l0,0l22.7-22.7v6.3L366,143.5 L366,143.5z M359.2,143.5L359.2,143.5l-13.7,13.7l-68.3,68.3l0,0l-13.7,13.7l-68.3,68.3l0,0L181.7,321l-68.3,68.3l0,0L99.7,403 l-68.3,68.3l0,0l-2.2,2.2c0-0.2,0-0.4,0-0.6v-5.8l9.3-9.3l0,0L86.3,410l0,0l34.1-34.1l0,0l47.8-47.8l0,0l34.1-34.1l0,0l47.8-47.8 l0,0l11.9-11.9l1.7-1.7l20.5-20.5l0,0l47.8-47.8v0l34.1-34.1l0,0l29.5-29.5v6.3L359.2,143.5z M352.4,143.5L352.4,143.5l-6.8,6.8 l-75.1,75.1l0,0l-6.8,6.8l-75.1,75.1l0,0l-6.8,6.8l-75.1,75.1l0,0l-6.8,6.8l-70.5,70.5v-6.3l2.5-2.5l0,0l54.6-54.6l0,0l27.3-27.3 l0,0l54.6-54.6l0,0l27.3-27.3l0,0l54.6-54.6l0,0l27.3-27.3l0,0l54.6-54.6v0l27.3-27.3l0,0l36.4-36.4v6.3L352.4,143.5z M345.5,143.5 L345.5,143.5L345.5,143.5l-81.9,81.9l0,0l0,0l-81.9,81.9l0,0l0,0l-81.9,81.9l0,0l0,0l-70.5,70.5v-6.3l57.1-57.1l0,0l20.5-20.5l0,0 l61.4-61.4l0,0l20.5-20.5l0,0l61.4-61.4l0,0l20.5-20.5l0,0l61.4-61.4v0l20.5-20.5l0,0l43.2-43.2v6.3L345.5,143.5z M338.7,143.5 L338.7,143.5L338.7,143.5l-81.9,81.9l0,0l-81.9,81.9l0,0l-81.9,81.9l0,0L29.2,453v-6.3l70.7-70.7l0,0l81.9-81.9l0,0l81.9-81.9l0,0 l81.9-81.9l0,0l50-50v6.3L338.7,143.5z M331.9,143.5L331.9,143.5L331.9,143.5l-81.9,81.9l0,0L168,307.4l0,0l-81.9,81.9l0,0 l-56.8,56.8v-6.3l57.1-57.1l81.9-81.9l6.8-6.8l75.1-75.1v0l81.9-81.9l63.7-63.7v6.3L331.9,143.5z M345.5,123L325,143.5l0,0 L263.6,205l-20.5,20.5l0,0l-61.4,61.4l-20.5,20.5l0,0l-61.4,61.4l-20.5,20.5l0,0l-50,50V433l57.1-57.1v0l81.9-81.9l81.9-81.9 l13.4-13.4l0.3-0.3l68.3-68.3l63.7-63.7v6.3L345.5,123z M345.5,116.2l-27.3,27.3l0,0l-54.6,54.6l-27.3,27.3l0,0l-54.6,54.6 l-27.3,27.3l0,0L99.7,362l-27.3,27.3l0,0l-43.2,43.2v-6.3l50.3-50.3l0,0l6.8-6.8l0,0l75.1-75.1l0,0l6.8-6.8l0,0l75.1-75.1l0,0 l6.8-6.8l0,0l13.3-13.3l0.4-0.4l61.4-61.4l0,0l6.8-6.8l0,0l63.7-63.7V66L345.5,116.2z M393.3,61.6l-47.8,47.8l-34.1,34.1l0,0 l-47.8,47.8l-34.1,34.1l0,0l-47.8,47.8l-34.1,34.1l0,0l-47.8,47.8l-34.1,34.1l0,0l-36.4,36.4v-6.3l43.4-43.4l0,0l13.7-13.7l0,0 l68.3-68.3l0,0l13.7-13.7l0,0l68.3-68.3l0,0l13.7-13.7l0,0l13.1-13.1l0.5-0.5l54.6-54.6l0,0l13.7-13.7l0,0l63.7-63.7v6.3 L393.3,61.6L393.3,61.6z M386.5,61.6l-41,41l-41,41l0,0l-41,41l-41,41l0,0l-41,41l-41,41l0,0l-41,41l-41,41l0,0l-29.5,29.5v-6.3 l36.6-36.6l0,0l20.5-20.5l0,0l61.4-61.4l0,0l20.5-20.5l0,0l61.4-61.4l0,0l20.5-20.5l0,0l13-13l0.7-0.7l47.8-47.8l0,0l20.5-20.5l0,0 l61.4-61.4l0,0l2.2-2.2v6.3L386.5,61.6L386.5,61.6z M379.7,61.6L379.7,61.6l-34.1,34.1l-47.8,47.8l0,0l-34.1,34.1l-47.8,47.8l0,0 l-34.1,34.1l-47.8,47.8l0,0l-34.1,34.1l-47.8,47.8l0,0L29.2,412v-6.3L59,375.9l0,0l27.3-27.3l0,0l54.6-54.6l0,0l27.3-27.3l0,0 l54.6-54.6l0,0l27.3-27.3l0,0l12.8-12.8l0.9-0.9l41-41l0,0l27.3-27.3l0,0l54.6-54.6l0,0l9-9v6.3L379.7,61.6z M366,61.6L366,61.6 l-20.5,20.5l-61.4,61.4l0,0L263.6,164l-61.4,61.4l0,0l-20.5,20.5l-61.4,61.4l0,0l-20.5,20.5l-61.4,61.4l0,0l-9,9V392l16.1-16.1l0,0 l41-41l0,0l41-41l0,0l41-41l0,0l41-41l0,0l41-41l0,0l12.3-12.3l1.4-1.4l27.3-27.3l0,0l41-41v0l38.8-38.8l15-8.7L366,61.6z M30.5,246.9l-1.3,1.3v-0.5L30.5,246.9z M31.6,246.2l15-8.7L29.2,255v-6.3L31.6,246.2z M47.8,236.9l15-8.7l-33.6,33.6v-6.3 L47.8,236.9z M64,227.6l15-8.7l-6.5,6.5l0,0l-43.2,43.2v-6.3L64,227.6z M80.1,218.2l15-8.7l-15.9,15.9l0,0l-50,50v-6.3L80.1,218.2z M86.3,218.9L86.3,218.9l9.9-9.9l15-8.7l-25.2,25.2l0,0l-56.8,56.8v-6.3L86.3,218.9z M100,212L100,212l12.4-12.4l15-8.7l-34.5,34.5 l0,0l-63.7,63.7v-6.3L100,212z M86.3,232.5L86.3,232.5l20.5-20.5l0,0l21.8-21.8l15-8.7l-43.8,43.8l0,0l0,0l-70.5,70.5v-6.3 L86.3,232.5z M31.7,294l54.6-54.6l0,0l27.3-27.3l0,0l31.1-31.1l15-8.7l-53.2,53.2l0,0l-6.8,6.8l-70.5,70.5v-6.3L31.7,294L31.7,294z M38.5,294l47.8-47.8l0,0l34.1-34.1l0,0l40.4-40.4l15-8.7l-62.5,62.5l0,0l-13.7,13.7l-68.3,68.3l0,0l-2.2,2.2v-6.3L38.5,294 L38.5,294z M45.4,294L45.4,294l41-41l0,0l41-41l0,0l41-41l0,0l8.8-8.8l15-8.7L181.7,164l-61.4,61.4l0,0l-20.5,20.5l-61.4,61.4l0,0 l-9,9v-6.3L45.4,294z M52.2,294L52.2,294l34.1-34.1l0,0l47.8-47.8l0,0l34.1-34.1l0,0l24.9-24.9l15-8.7l-26.5,26.5L127,225.4l0,0 l-27.3,27.3l-54.6,54.6l0,0l-15.9,15.9v-6.3L52.2,294z M59,294L59,294l27.3-27.3l0,0l54.6-54.6l0,0l27.3-27.3l0,0l41.1-41.1l15-8.7 l-8.5,8.5l0,0l-34.1,34.1l-47.8,47.8l0,0l-34.1,34.1l-47.8,47.8l0,0l-22.7,22.7v-6.3L59,294z M65.8,294L65.8,294l20.5-20.5l0,0 l61.4-61.4l0,0l20.5-20.5l0,0l57.2-57.2l15-8.7l-17.9,17.9l0,0l-41,41l-41,41l0,0l-41,41l-41,41l0,0l-29.5,29.5v-6.3L65.8,294z M72.7,294L72.7,294l13.7-13.7l0,0l68.3-68.3l0,0l13.7-13.7l0,0l68.3-68.3l0,0l5.1-5.1l15-8.7l-27.2,27.2l0,0l-47.8,47.8 l-34.1,34.1l0,0l-47.8,47.8l-34.1,34.1l0,0l-36.4,36.4v-6.3L72.7,294z M79.5,294L79.5,294l6.8-6.8l0,0l75.1-75.1l0,0l6.8-6.8l0,0 l75.1-75.1l0,0l6.8-6.8l0,0l7.6-7.6l15-8.7l-9.2,9.2l-27.3,27.3l0,0l-54.6,54.6l-27.3,27.3l0,0l-54.6,54.6l-27.3,27.3l0,0 l-43.2,43.2v-6.3L79.5,294z M86.3,294l81.9-81.9l81.9-81.9l13.4-13.4l0.3-0.3l10.1-10.1l15-8.7L263.6,123l-20.5,20.5l0,0L181.7,205 l-20.5,20.5l0,0l-61.4,61.4l-20.5,20.5l0,0l-50,50V351L86.3,294z M86.3,300.8l6.8-6.8l75.1-75.1v0l81.9-81.9L290.1,97l15-8.7 l-55.2,55.2v0l0,0L168,225.4l0,0l-81.9,81.9l0,0l-56.8,56.8v-6.3L86.3,300.8z M100,294L100,294l81.9-81.9l0,0l81.9-81.9l0,0 l42.4-42.4l15-8.7l-64.5,64.5v0l0,0l-81.9,81.9l0,0l-81.9,81.9l0,0L29.2,371v-6.3L100,294z M86.3,314.4L86.3,314.4l20.5-20.5l0,0 l61.4-61.4l0,0l20.5-20.5l0,0l61.4-61.4l0,0l20.5-20.5l0,0l51.8-51.8l15-8.7l-73.8,73.8l0,0l0,0l-81.9,81.9l0,0l0,0l-81.9,81.9l0,0 l0,0l-70.5,70.5v-6.3L86.3,314.4z M31.7,375.9l54.6-54.6l0,0l27.3-27.3l0,0l54.6-54.6l0,0l27.3-27.3l0,0l54.6-54.6l0,0l27.3-27.3 l0,0l54.6-54.6v0l6.5-6.5l15-8.7l-1.2,1.2l0,0l-6.8,6.8l-75.1,75.1l0,0l-6.8,6.8l-75.1,75.1l0,0l-6.8,6.8l-75.1,75.1l0,0l-6.8,6.8 l-70.5,70.5v-6.3L31.7,375.9L31.7,375.9z M38.5,375.9l47.8-47.8l0,0l34.1-34.1l0,0l47.8-47.8l0,0l34.1-34.1l0,0l47.8-47.8l0,0 l11.9-11.9l1.7-1.7l20.5-20.5l0,0l47.8-47.8v0l22.6-22.6l15-8.7l-10.6,10.6l0,0l-13.7,13.7l-68.3,68.3l0,0l-13.7,13.7l-68.3,68.3 l0,0l-13.7,13.7l-68.3,68.3l0,0L99.7,321l-68.3,68.3l0,0l-2.2,2.2v-6.3L38.5,375.9L38.5,375.9z M30.8,479.2l21.4-21.4l0,0 l34.1-34.1l0,0l47.8-47.8l0,0l34.1-34.1l0,0L216,294l0,0l34.1-34.1l0,0l12.6-12.6l1.1-1.1L298,212l0,0l34.1-34.1l0,0l47.8-47.8l0,0 l15.9-15.9v6.3l-22.9,22.9l0,0l-27.3,27.3l-54.6,54.6l0,0l-27.3,27.3L209,307.4l0,0l-27.3,27.3L127,389.3l0,0l-27.3,27.3 l-54.6,54.6l0,0l-10.3,10.3c-0.8,0-1.6-0.2-2.2-0.6C31.9,480.6,31.3,480,30.8,479.2z M38.8,480.4c-1.2,0.7-2.4,1.1-3.5,1.2 L59,457.8l0,0l27.3-27.3l0,0l54.6-54.6l0,0l27.3-27.3l0,0l54.6-54.6l0,0l27.3-27.3l0,0l12.8-12.8l0.9-0.9l41-41l0,0l27.3-27.3l0,0 l54.6-54.6l0,0l9-9v6.3l-16.1,16.1l0,0l-34.1,34.1l-47.8,47.8l0,0l-34.1,34.1l-47.8,47.8l0,0l-34.1,34.1l-47.8,47.8l0,0l-34.1,34.1 l-47.8,47.8l0,0l-3.6,3.6L38.8,480.4z M395.3,264.4l-23.9,23.9l-15,8.7l3-3l0,0l36.4-36.4v2.3C395.8,261.4,395.6,262.9,395.3,264.4 z M385.1,280.4l-12.6,7.3l22.6-22.6C393.7,271.5,389.8,277.7,385.1,280.4z M355.3,297.6l-15,8.7l12.3-12.3l0,0l43.2-43.2v6.3 L355.3,297.6z M339.1,307l-15,8.7l21.7-21.7l0,0l50-50v6.3L339.1,307z M331.9,307.4L331.9,307.4l-8.9,8.9l-15,8.7l31-31l56.8-56.8 v6.3L331.9,307.4z M345.5,286.9L325,307.4l0,0l-18.2,18.2l-15,8.7l40.3-40.3l63.7-63.7v6.3L345.5,286.9z M345.5,280.1l-27.3,27.3 l0,0L290.6,335l-15,8.7l49.7-49.7l0,0l6.8-6.8l0,0l63.7-63.7v6.3L345.5,280.1z M393.3,225.4l-47.8,47.8l-34.1,34.1l0,0l-36.9,36.9 l-15,8.7l3.8-3.8l0.5-0.5l54.6-54.6l0,0l13.7-13.7l0,0l63.7-63.7v6.3L393.3,225.4L393.3,225.4z M386.5,225.4l-41,41l-41,41l0,0 l-41,41l-5.3,5.3l-15,8.7l6.9-6.9l0,0l13-13l0.7-0.7l47.8-47.8l0,0l20.5-20.5l0,0l61.4-61.4l0,0l2.2-2.2v6.3L386.5,225.4 L386.5,225.4z M379.7,225.4L379.7,225.4l-34.1,34.1l-47.8,47.8l0,0l-34.1,34.1l-21.4,21.4l-15,8.7l23-23l0,0l12.8-12.8l0.9-0.9 l41-41l0,0l27.3-27.3l0,0l54.6-54.6l0,0l9-9v6.3L379.7,225.4z M372.8,225.4L372.8,225.4l-27.3,27.3l-54.6,54.6l0,0l-27.3,27.3 L226,372.3l-15,8.7l5-5l0,0l34.1-34.1l0,0l12.6-12.6l1.1-1.1L298,294l0,0l34.1-34.1l0,0l47.8-47.8l0,0l15.9-15.9v6.3L372.8,225.4z M366,225.4L366,225.4l-20.5,20.5l-61.4,61.4l0,0l-20.5,20.5l-53.7,53.7l-15,8.7l14.4-14.4l0,0l41-41l0,0l12.3-12.3l1.4-1.4 l27.3-27.3l0,0l41-41v0l41-41l0,0l22.7-22.7v6.3L366,225.4z M359.2,225.4L359.2,225.4l-13.7,13.7l-68.3,68.3l0,0L263.6,321 l-68.3,68.3l0,0l-1.6,1.6l-15,8.7l23.7-23.7l0,0l47.8-47.8l0,0l11.9-11.9l1.7-1.7l20.5-20.5l0,0l47.8-47.8v0l34.1-34.1l0,0 l29.5-29.5v6.3L359.2,225.4z M352.4,225.4L352.4,225.4l-6.8,6.8l-75.1,75.1l0,0l-6.8,6.8l-75.1,75.1l0,0l-6.8,6.8l-4.1,4.1l-15,8.7 l5.7-5.7l0,0l27.3-27.3l0,0l54.6-54.6l0,0l27.3-27.3l0,0l54.6-54.6v0l27.3-27.3l0,0l36.4-36.4v6.3L352.4,225.4z M345.5,225.4 L345.5,225.4L345.5,225.4l-81.9,81.9l0,0l0,0l-81.9,81.9l0,0l0,0l-20.3,20.3l-15,8.7l21.9-21.9l0,0l20.5-20.5l0,0l61.4-61.4l0,0 l20.5-20.5l0,0l61.4-61.4v0l20.5-20.5l0,0l43.2-43.2v6.3L345.5,225.4z M338.7,225.4L338.7,225.4l-81.9,81.9l0,0l-81.9,81.9l0,0 l-29.6,29.6l-15,8.7l51.7-51.7l0,0l81.9-81.9l0,0l81.9-81.9l0,0l50-50v6.3L338.7,225.4z M331.9,225.4L331.9,225.4l-81.9,81.9l0,0 L168,389.3l0,0l-38.9,38.9l-15,8.7l54.2-54.2L257,294l6.6-6.6l0.2-0.2l68.3-68.3l63.7-63.7v6.3L331.9,225.4z M345.5,205L325,225.4 l0,0l-61.4,61.4l-20.5,20.5l0,0l-61.4,61.4l-20.5,20.5l0,0l-48.2,48.2l-15,8.7l70.3-70.3v0l81.9-81.9l13.4-13.4l0.3-0.3l68.3-68.3 l63.7-63.7v6.3L345.5,205z M345.5,198.1l-27.3,27.3l0,0l-54.6,54.6l-27.3,27.3l0,0L181.7,362l-27.3,27.3l0,0l-54.6,54.6l-2.9,2.9 l-15,8.7l4.5-4.5l0,0l75.1-75.1l0,0l6.8-6.8l0,0l75.1-75.1l0,0l6.8-6.8l0,0l13.3-13.3l0.4-0.4l61.4-61.4l0,0l6.8-6.8l0,0l63.7-63.7 v6.3L345.5,198.1z M393.3,143.5l-47.8,47.8l-34.1,34.1l0,0l-47.8,47.8l-34.1,34.1l0,0l-47.8,47.8l-34.1,34.1l0,0l-47.8,47.8 l-19.1,19.1l-15,8.7l7-7l0,0l13.7-13.7l0,0l68.3-68.3l0,0l13.7-13.7l0,0l68.3-68.3l0,0l13.7-13.7l0,0l13.1-13.1l0.5-0.5l54.6-54.6 l0,0l13.7-13.7l0,0l63.7-63.7v6.3L393.3,143.5L393.3,143.5z M386.5,143.5l-41,41l-41,41l0,0l-41,41l-41,41l0,0l-41,41l-41,41l0,0 l-41,41l-35.3,35.2l-15,8.7l16.4-16.4l0,0l20.5-20.5l0,0l61.4-61.4l0,0l20.5-20.5l0,0l61.4-61.4l0,0l20.5-20.5l0,0l13-13l0.7-0.7 l47.8-47.8l0,0l20.5-20.5l0,0l61.4-61.4l0,0l2.2-2.2v6.3L386.5,143.5L386.5,143.5z" fill="#2b4b82"/></g><g id="change1_3"><path d="M37.6,231.3c0,1.4,0.4,2.4,1.2,2.9c0.8,0.4,1.9,0.3,3.1-0.4c2.9-1.7,5.4-6,5.4-9.3 c0-1.4-0.4-2.4-1.2-2.9c-0.3-0.2-0.6-0.2-1-0.2c-0.6,0-1.4,0.2-2.1,0.7C40,223.6,37.6,227.9,37.6,231.3z" fill="#f0abc1"/></g><g id="change3_3"><path d="M53.9,221.9c0,1.4,0.4,2.4,1.2,2.9c0.8,0.4,1.9,0.3,3.1-0.4c2.9-1.7,5.4-6,5.4-9.3 c0-1.4-0.4-2.4-1.2-2.9c-0.3-0.2-0.6-0.2-1-0.2c-0.6,0-1.4,0.2-2.1,0.7C56.4,214.2,53.9,218.5,53.9,221.9z" fill="#94ddde"/></g><g id="change4_2"><path d="M70.6,212.2c0,1.4,0.4,2.4,1.2,2.9c0.8,0.4,1.9,0.3,3.1-0.4c2.9-1.7,5.4-6,5.4-9.3 c0-1.4-0.4-2.4-1.2-2.9c-0.3-0.2-0.6-0.2-1-0.2c-0.6,0-1.4,0.2-2.1,0.7C73.1,204.6,70.6,208.8,70.6,212.2z" fill="#fefefe"/></g></g><g><g id="change4_3"><path d="M412.7,33.6l-346.4,200c-6.2,3.6-11.2,13.2-11.2,21.4v233.8c0,8.3,5,12.1,11.2,8.5l346.4-200 c6.2-3.6,11.2-13.2,11.2-21.4V42.1C423.9,33.8,418.9,30,412.7,33.6z" fill="#fefefe"/></g><g id="change2_3"><path d="M420.6,32c-2.4-1.4-5.4-1.2-8.5,0.6l-346.4,200c-6.5,3.8-11.8,13.8-11.8,22.4v233.8 c0,4.8,1.6,8.4,4.4,10.1c1,0.6,2.2,0.9,3.4,0.9c1.6,0,3.3-0.5,5-1.5l346.4-200c6.5-3.8,11.8-13.8,11.8-22.4V42.1 C425,37.3,423.4,33.7,420.6,32z M412.1,296.3l-346.4,200c-2.3,1.3-4.5,1.6-6.2,0.6c-2.1-1.2-3.3-4.2-3.3-8.1V263.5L422.7,51.9v224 C422.7,283.7,418,292.9,412.1,296.3z" fill="#2b4b82"/></g><g id="change1_4"><path d="M64.5,247.2c0,1.4,0.4,2.4,1.2,2.9c0.8,0.4,1.9,0.3,3.1-0.4c2.9-1.7,5.4-6,5.4-9.3 c0-1.4-0.4-2.4-1.2-2.9c-0.3-0.2-0.6-0.2-1-0.2c-0.6,0-1.4,0.2-2.1,0.7C67,239.5,64.5,243.8,64.5,247.2z" fill="#f0abc1"/></g><g id="change3_4"><path d="M80.8,237.8c0,1.4,0.4,2.4,1.2,2.9c0.8,0.4,1.9,0.3,3.1-0.4c2.9-1.7,5.4-6,5.4-9.3 c0-1.4-0.4-2.4-1.2-2.9c-0.3-0.2-0.6-0.2-1-0.2c-0.6,0-1.4,0.2-2.1,0.7C83.3,230.1,80.8,234.4,80.8,237.8z" fill="#94ddde"/></g><g id="change4_4"><path d="M97.6,228.1c0,1.4,0.4,2.4,1.2,2.9c0.8,0.4,1.9,0.3,3.1-0.4c2.9-1.7,5.4-6,5.4-9.3 c0-1.4-0.4-2.4-1.2-2.9c-0.3-0.2-0.6-0.2-1-0.2c-0.6,0-1.4,0.2-2.1,0.7C100.1,220.5,97.6,224.7,97.6,228.1z" fill="#fefefe"/></g><g id="change1_5"><path d="M260.4,283.9l-146.2,84.4V261.7l146.2-84.4V283.9z" fill="#f0abc1"/></g><g id="change3_5"><path d="M364.8,161.4l-89.5,51.7v-44.4l89.5-51.7V161.4z M364.8,175.3l-89.5,51.7v48.4l89.5-51.7V175.3z" fill="#94ddde"/></g><g fill="#2b4b82" id="change2_4"><path d="M261.6,284.5V175.3l-147.9,85.4l-0.6,0.3v109.2L261,284.9L261.6,284.5z M259.3,283.2 l-143.9,83.1V262.4l143.9-83.1V283.2z" fill="inherit"/><path d="M274.7,167.7l-0.6,0.3v47l91.2-52.6l0.6-0.3v-47L274.7,167.7z M363.6,160.8l-87.2,50.3v-41.7 l87.2-50.3V160.8z" fill="inherit"/><path d="M274.1,226.3v51l91.2-52.6l0.6-0.3v-51L274.7,226L274.1,226.3z M276.4,227.6l87.2-50.3V223 l-87.2,50.3V227.6z" fill="inherit"/><path d="M114.2 397.9L288.2 297.4 288.2 291.3 114.2 391.7z" fill="inherit"/><path d="M114.2 429.5L288.2 329 288.2 322.9 114.2 423.4z" fill="inherit"/><path d="M114.2 445.3L288.2 344.9 288.2 338.7 114.2 439.2z" fill="inherit"/><path d="M114.2 413.7L288.2 313.2 288.2 307.1 114.2 407.6z" fill="inherit"/></g></g></svg>