<?xml version="1.0" encoding="UTF-8" standalone="no"?><svg xmlns="http://www.w3.org/2000/svg" xmlns:xlink="http://www.w3.org/1999/xlink" fill="#000000" height="389.4" preserveAspectRatio="xMidYMid meet" version="1" viewBox="0.0 56.6 499.5 389.4" width="499.5" zoomAndPan="magnify"><g id="change1_1"><path d="M493.4,325.9L306.6,433.8v-31L493.4,295L493.4,325.9L493.4,325.9z M475.5,234.6l-171.9,99.3v37.8 l171.9-99.3V234.6z" fill="#fefefe"/></g><g id="change2_1"><path d="M489,314.7l5.6-6.5v0.8l-5.2,6.1L489,314.7z M489.1,315.3l-0.4-0.3l0.3-0.4l-3.2-2.5l-0.3,0.4l9.1,7.1V319 l-5.2-4L489.1,315.3z M489.1,315.3l0.3-0.4l-0.4-0.3l-0.3,0.4L489.1,315.3z M374.2,393.1l3.2,0.1l0.8-0.5l-4-0.2L374.2,393.1z M376.3,388.5l8.8,0.3l0.8-0.5l-9.6-0.4L376.3,388.5z M381.2,383.4l12.4,0.4l0.8-0.5l-13.2-0.5L381.2,383.4z M361.6,382.5l2,2.7 l-0.4,0.3l6.5,9l0.4-0.3L361.6,382.5L361.6,382.5z M362.9,392.5l-1.8-4.4l0,0l4.8,11.8l0.4-0.3l-3-7.3L362.9,392.5z M308.6,413.2 l-0.8-0.4v0.6l0.6,0.3L308.6,413.2z M320.9,411.9l4.6,11.3l0.4-0.3l-4.5-11.3L320.9,411.9z M341.1,406.8l8.6,2.5l0.6-0.3l-9-2.6 L341.1,406.8z M337.6,407.6l7.2,4.5l0.5-0.3l-7.4-4.6L337.6,407.6z M333.4,408.8l7.5,5.5l0.5-0.3l-7.7-5.6L333.4,408.8z M328.8,410.1l7.9,6.7l0.5-0.3l-8-6.8L328.8,410.1z M328.5,413.2l4.5,5.7l0.4-0.3l-4.5-5.7L328.5,413.2z M324.7,413.6l4.6,7.4 l0.4-0.3l-4.6-7.4L324.7,413.6z M322,419.1l-14.2-3.1v0.5l14.1,3.1L322,419.1z M307.8,422.6l13.4,3.1l0.6-0.4l-14-3.2V422.6z M307.8,429.1l5.4,1.2l0.6-0.4l-6-1.4V429.1z M466.9,244.1l9.8-6.2v-0.6l-10.1,6.3L466.9,244.1z M474.9,249.1l1.8-1.2v-0.6l-2.1,1.4 L474.9,249.1z M378.2,386.1l0.4-0.4l-4.8-4.8l-0.4,0.4L378.2,386.1z M363.3,378.2L363.3,378.2l10.3,12.4l0.4-0.3l-8.3-9.9l-0.4,0.3 L363.3,378.2z M484.7,307.5l9.8-9.8v-0.7l-10.2,10.2L484.7,307.5z M482.4,323.6L482.4,323.6l0.2,0.2L482.4,323.6z M484.5,325.8 l-2.1-1.6l6.3,4.8l0.5-0.3l-4.3-3.3L484.5,325.8z M484.6,331.2l-2.7-1.6l0,0l2.8,1.7l0.5-0.3l-0.3-0.2L484.6,331.2z M482.4,315.8 l2.6,2.3l-0.3,0.4l8.7,7.7l0.5-0.3L482.4,315.8L482.4,315.8z M421.6,288.7l8,3.8l0.2-0.5l-8-3.8L421.6,288.7z M426.9,287l-5.5-3.8 l-0.3,0.4l5.5,3.8L426.9,287z M376.7,328.2l0,0.5l1.9,0l0.9-0.5L376.7,328.2z M368.2,315l30.3-35.6l-1.3,0.8l-29.4,34.5L368.2,315z M399.7,283.8l-0.5,0l-0.2,33.1l0.5-0.3L399.7,283.8z M415.4,273.1l-5.5-0.2l-0.8,0.5l6.3,0.3L415.4,273.1z M436.3,329.1l0.2-0.4 l-0.6-0.3l-0.5,0.3L436.3,329.1z M367.5,315l0.3-0.4l-3.2-2.5l-0.3,0.4l12.5,9.8l0.3-0.4l-8.9-7l-0.3,0.4L367.5,315z M367.5,315 l0.4,0.3l0.3-0.4l-0.4-0.3L367.5,315z M411.3,278.8l-0.5,0l-0.2,31.4l0.5-0.3L411.3,278.8z M416.3,278.8l-0.5,0l-0.1,28.5l0.5-0.3 L416.3,278.8z M404.2,278.2l-0.5,0l0.6,35.6l0.5-0.3L404.2,278.2z M394.6,288.9l-0.5,0l-0.2,31l0.5-0.3L394.6,288.9z M387.9,298.2 l-0.5,0l-1.8,23.5l0.5,0L387.9,298.2z M381.6,303.2l-0.5,0l-1.6,18.8l0.5,0L381.6,303.2z M374.4,317l0.5,0.1l1.3-6.7l-0.5-0.1 L374.4,317z M417.3,339.6v-0.5l-0.9,0.5H417.3z M449.8,319.8l-2.1,1.8l2.4-1.4l0,0L449.8,319.8z M434,333.3l0.3,0.4l15.8-13.5 l-2.4,1.4L434,333.3z M447.3,351.8l0.3-0.4L424.4,335l-0.5,0.3L447.3,351.8z M449.2,325L438,335.4l0.3,0.4l11.3-10.4L449.2,325z M437.1,339.2l0.3-0.4l-8-6.6l-0.5,0.3L437.1,339.2z M406.4,345.4l0.4-0.2l-0.1-0.1L406.4,345.4z M406.4,345.4L406.4,345.4l19.1,20 l0.4-0.3l-19.1-20L406.4,345.4z M413.6,345l17.5,17.2l0.5-0.3l-17.6-17.3L413.6,345z M419,343.3l13.9,14.3l0.4-0.4L419.4,343 L419,343.3z M435.9,352.6l0.3-0.4L420,337.6l-0.5,0.3L435.9,352.6z M442.1,290.7l0.4,1.1l0.4-0.3l-0.4-1L442.1,290.7z M463.2,319.5 l-3.1-5l-0.4,0.3l3.1,5L463.2,319.5z M366.5,369.1l0.3,0.4l9.2-6.5l-5,2.9L366.5,369.1z M390,358.1l-20.6,14.7l0.3,0.4l20.6-14.7 L390,358.1z M393,361.5l-20.2,15.2l0.3,0.4l20.2-15.2L393,361.5z M455.6,324.7l0.5-0.2l-2.4-6.4l-0.4,0.3L455.6,324.7z M439,339.8 l0.4,0.4l15-15.2l-0.4-0.4L439,339.8z M383,375l16.4,0.8l0-0.5l-16.4-0.8L383,375z M454.7,338.3l-0.3-0.4l-9.7,9.3l0.3,0.4 L454.7,338.3z M460.3,344.1l-1,1.8l0.8-0.5l0.6-1.1L460.3,344.1z M457.3,339.7l-6.2,11l0.9-0.5l5.8-10.3L457.3,339.7z M422.2,293.3 l-0.1,0.5l12.3,2.7l0.6-0.4L422.2,293.3z M423.5,299.6l-0.1,0.5l3.4,0.8l0.6-0.4L423.5,299.6z M385.5,372l11.8,0.4l0-0.5l-11.8-0.4 L385.5,372z M388.5,369.1l6.1,0.3l0-0.5l-6.1-0.3L388.5,369.1z M446.5,289.6l0.2-0.2L446.5,289.6L446.5,289.6z M446.7,289.3l0.1-0.1 l-23.8-24l-0.5,0.3l23.8,24L446.7,289.3z M437.5,272.3l-9.7-9.8l-0.5,0.3l9.7,9.9L437.5,272.3z M438.7,256.5L438.7,256.5l1.6,21.9 l0.5,0l-1.3-18.4l-0.5,0L438.7,256.5z M473.4,259.3l-0.8-2.8l0,0l4.1,14v-1.8l-2.8-9.6L473.4,259.3z M444.2,256.5L444.2,256.5 l2.5,28.2l0.5,0l-2.2-24.8l-0.5,0L444.2,256.5z M455.6,284.3l0.5-0.1l0-0.2L455.6,284.3L455.6,284.3z M452.6,256.5l0.4,3l-0.5,0.1 l3.1,24.7l0.5-0.3L452.6,256.5L452.6,256.5z M458.7,256.5l0.4,2.9l-0.5,0.1l3.1,21.1l0.5-0.3L458.7,256.5L458.7,256.5z M467.2,256.5 l0.7,2.8l-0.5,0.1l3.7,15.8l0.5-0.3L467.2,256.5L467.2,256.5z M434,259l-0.3,0.4l2.6,2.5l0.3-0.4L434,259L434,259L434,259z M434.5,292.4L416,269.3l-0.4,0.3l18.5,23.1L434.5,292.4z M390.7,354.5l19.6,19.7l0.4-0.3l-19.5-19.7L390.7,354.5z M395.6,351.7 l19.5,19.8l0.5-0.3l-19.5-19.8L395.6,351.7z M442.1,353.7l0.2,2l0.5-0.3l-0.2-1.8L442.1,353.7z M400.4,348.9l20.3,19.3l0.5-0.3 l-20.3-19.3L400.4,348.9z M397.1,367l-0.4,0.3l8.1,10.1l0.4-0.3L397.1,367z M464.4,315.6l6.5-7.4l-1.4,0.8l-5.5,6.2L464.4,315.6z M478.9,312.7l0.3,0.3l3.1-3.1l-0.4-0.4l-15.8,15.8l0.4,0.4l12.4-12.4l-0.3-0.3L478.9,312.7z M484.7,307.5l-0.4-0.4l-2.4,2.4 l0.4,0.4L484.7,307.5z M440.9,342.5l40.7-40.5l-1.7,1l-39.4,39.1L440.9,342.5z M459.6,340.9l6.6,1.1l0.7-0.4l-7.2-1.2L459.6,340.9z M459.5,330.4l17,5.6l0.6-0.3l-17.4-5.8L459.5,330.4z M456.6,335.4l15.1,3.3l0.6-0.4l-15.6-3.5L456.6,335.4z M482.4,323.6l-5-3.8 l-0.3,0.4l5.2,4l-0.2-0.2L482.4,323.6z M484.8,325.4l-2.1-1.6L484.8,325.4L484.8,325.4z M484.8,325.4l-2.1-1.6l-0.2-0.2l-0.3,0.4 l0.2,0.2l2.1,1.6L484.8,325.4z M484.9,330.7L484.9,330.7l-12.5-7.6l-0.3,0.4l9.9,6l0.3-0.4L484.9,330.7z M484.9,330.7l-2.7-1.6 l-0.3,0.4l2.7,1.6L484.9,330.7z M482.4,315.8l-3.2-2.8l-0.4,0.4l5.9,5.2l0,0l-2.6-2.3L482.4,315.8z M482.4,315.8l-0.3,0.4l2.6,2.3 l0.3-0.4L482.4,315.8z M478.9,312.7l-0.3,0.4l0.3,0.3l0.4-0.4L478.9,312.7z M468.7,327.4l11.2,6.6l0.5-0.3L469,327L468.7,327.4z M439.2,256.5l0.2,3.5l0,0l-0.3-4l-0.5,0.3l0,0.3L439.2,256.5z M438.7,256.5l0.2,3.5l0.5,0l-0.2-3.5L438.7,256.5z M473.9,259.2 L473.9,259.2l-2.7-9.1l-0.5,0.1l1.8,6.3l0.5-0.1L473.9,259.2z M473.9,259.2l-0.8-2.8l-0.5,0.1l0.8,2.8L473.9,259.2z M444.7,256.4 l0.3,3.4h0l-0.6-6.9l-0.5,0.3l0.3,3.3L444.7,256.4z M444.2,256.5l0.3,3.4l0.5,0l-0.3-3.4L444.2,256.5z M452.4,259.6l-0.4-3l0.5-0.1 l-1-7.8l-0.5,0.3L452.4,259.6L452.4,259.6z M452.6,256.5l-0.5,0.1l0.4,3l0.5-0.1L452.6,256.5z M458.6,259.6l-0.4-2.9l0.5-0.1 l-1.6-11l-0.5,0.3L458.6,259.6L458.6,259.6z M458.7,256.5l-0.5,0.1l0.4,2.9l0.5-0.1L458.7,256.5z M467.4,259.5l-0.7-2.8l0.5-0.1 l-3.5-14.8l-0.5,0.3L467.4,259.5L467.4,259.5z M467.2,256.5l-0.5,0.1l0.7,2.8l0.5-0.1L467.2,256.5z M433.7,259.4l-0.2-0.2l0,0 L433.7,259.4L433.7,259.4z M433.9,259l-0.5,0.3l0.2,0.2L433.9,259L433.9,259z M325.6,410.4l-11.6-11.7l-0.5,0.3l11.7,11.8 L325.6,410.4z M319.6,399.5l-0.3-3.8l-0.5,0.3l0.3,3.6L319.6,399.5z M352.2,380.5l-0.8-2.8l0,0l7.7,26.1l0.4-0.3l-6.8-23.2 L352.2,380.5z M325.5,405.9l0.5,0l-1.2-13.3l-0.5,0.3L325.5,405.9z M334.4,405.5l0.5-0.1l-2.2-17.4l-0.5,0.3L334.4,405.5z M340.8,403.8l0.5-0.1l-2.8-19.1l-0.5,0.3L340.8,403.8z M346.7,380.6l-0.5,0.1l6,25.4l0.5-0.1l-6.1-25.9h0L346.7,380.6z M313.2,413.6l-5.4-6.8v0.8l5,6.3L313.2,413.6z M361.6,382.5l-3.6-5l-0.4,0.3l5.6,7.8l0,0l-2-2.7L361.6,382.5z M361.6,382.5 l-0.4,0.3l2,2.7l0.4-0.3L361.6,382.5z M363.4,392.3L363.4,392.3l-6.2-15.3l0,0l1.5,3.6l-0.5,0.2l3,7.3l0.5-0.2L363.4,392.3z M363.4,392.3l-1.8-4.4l-0.5,0.2l1.8,4.4L363.4,392.3z M363.5,307.5l18.6-18.6l-1.7,1l-17.3,17.3L363.5,307.5z M361.4,301L361.4,301 l0.5-0.5l0,0L361.4,301z M360.4,337.7L360.4,337.7l1.6,0.5l0,0L360.4,337.7z M361.1,324.2l9.1,7l0.3-0.4l-7-5.3l-0.3,0.4 L361.1,324.2z M361.2,323.6L361.2,323.6l0.2,0.2L361.2,323.6z M369.3,334.1L369.3,334.1l-0.5,0.3l0.3,0.2L369.3,334.1z M363.7,330.7 l-0.3,0.4l-2.7-1.6l0,0l8,4.8l0.5-0.3L363.7,330.7z M363.5,318.5l10.1,8.9l0.3-0.4l-12.7-11.2l0,0l2.6,2.3L363.5,318.5z M360.7,334.6L360.7,334.6l2.7,1.6l-0.3,0.4l0.8,0.5l0.5-0.3L360.7,334.6z M369.2,377l0.4-0.4l-6.3-6.3l-0.5,0.3L369.2,377z M373.4,381.2l0.4-0.4l-4.2-4.2l-0.4,0.4L373.4,381.2z M363.7,377.8l2.1,2.5l0,0l-6.4-7.7l0,0L363.7,377.8z M363.3,378.2l2.1,2.5 l0.4-0.3l-2.1-2.5L363.3,378.2z M315.4,328.6l-1.1-0.6l-0.5,0.3l1.4,0.7L315.4,328.6z M328.6,319.8l-15.8,13.5l0.3,0.4l15.8-13.5 L328.6,319.8z M326.3,351.4l-21.5-15.2v0.6l21.2,15L326.3,351.4z M328,325l-11.3,10.4l0.3,0.4l11.3-10.4L328,325z M316.3,338.8 l-8.5-7l-0.5,0.3l8.6,7.1L316.3,338.8z M304.8,365.9l3.3,3.4l0.4-0.3l-3.7-3.9V365.9z M304.8,357.3l9,8.8l0.5-0.3l-9.5-9.3V357.3z M312.1,357.3l-7.3-7.5v0.7l6.9,7.1L312.1,357.3z M315,352.2l-10.2-9.2v0.7l9.9,8.9L315,352.2z M342,319.5l-3.4-5.5l-0.4,0.3 l3.4,5.5L342,319.5z M334.9,324.6l-2.6-6.9l-0.4,0.3l2.6,6.8L334.9,324.6z M332.9,324.7l-15,15.2l0.4,0.4l15-15.2L332.9,324.7z M333.2,337.9l-9.7,9.3l0.3,0.4l9.7-9.3L333.2,337.9z M334.8,353l4.7-8.6l-0.4-0.2l-4.7,8.6L334.8,353z M329.4,352.6l7.2-12.6 l-0.4-0.2l-7.2,12.6L329.4,352.6z M318.8,325.4l-0.5,0.3l0.3,0.1L318.8,325.4z M316.8,360l-0.5,0l0.3,4.5l0.5-0.3L316.8,360z M351.4,377.7l0.5-0.1l0.8,2.8l0,0l-1-3.3l-0.4,0.3L351.4,377.7z M351.4,377.7l0.8,2.8l0.5-0.1l-0.8-2.8L351.4,377.7z M321.4,353.7 l-0.5,0l0.7,7.9l0.5-0.3L321.4,353.7z M328.6,355.8l-0.5,0.1l0.2,1.9l0.5-0.3L328.6,355.8z M346.1,380.3l0.1,0.4h0L346.1,380.3 L346.1,380.3z M346.5,380l-0.5,0.3l0.1,0.4l0.5-0.1L346.5,380z M343.2,315.6l7.6-8.6l-1.4,0.8l-6.6,7.5L343.2,315.6z M345,325.3 l0.4,0.4l12.4-12.4l-0.3-0.3l0.3-0.4l0.3,0.3l3.1-3.1l-0.4-0.4L345,325.3z M360.7,309.5l0.4,0.4l2.4-2.4l-0.4-0.4L360.7,309.5z M319.6,342.5l41.7-41.5l-0.1-0.1l-1.1,0.6l-40.9,40.6L319.6,342.5z M361.3,300.9l0.1,0.1l0.5-0.5L361.3,300.9z M338.4,340.4 l-0.1,0.5l14.8,2.5l0.7-0.4L338.4,340.4z M363.4,338.1L363.4,338.1l-0.7-0.2l0,0L363.4,338.1z M362.7,337.9L362.7,337.9l-24.2-8 l-0.2,0.5l22.1,7.3l0.2-0.5L362.7,337.9z M362.7,337.9l-2.1-0.7l-0.2,0.5l1.6,0.5L362.7,337.9z M335.5,334.9l-0.1,0.5l22.8,5 l0.6-0.4L335.5,334.9z M363.6,325.4l-2.1-1.6L363.6,325.4L363.6,325.4z M360.9,324l0.3-0.4l-5-3.8l-0.3,0.4l5.2,4L360.9,324z M361.1,324.2l2.1,1.6l0.3-0.4l-2.1-1.6l-0.2-0.2l-0.3,0.4L361.1,324.2z M363.7,330.7L363.7,330.7l-12.5-7.6l-0.3,0.4l9.9,6l0.3-0.4 L363.7,330.7z M363.7,330.7l-2.7-1.6l-0.3,0.4l2.7,1.6L363.7,330.7z M363.5,318.5L363.5,318.5l-2.6-2.3l0.3-0.4L358,313l-0.4,0.4 L363.5,318.5z M363.5,318.5l0.3-0.4l-2.6-2.3l-0.3,0.4L363.5,318.5z M357.4,313.1l0.3,0.3l0.4-0.4l-0.3-0.3L357.4,313.1z M360.7,334.6l-12.9-7.7l-0.3,0.4l15.7,9.3l0,0l-2.7-1.6L360.7,334.6z M360.7,334.6l-0.3,0.4l2.7,1.6l0.3-0.4L360.7,334.6z M358.9,372.9L358.9,372.9l4.4,5.3l0,0L358.9,372.9z M363.3,378.2l0.4-0.3l-4.4-5.2l-0.4,0.3L363.3,378.2z M357.1,377l-0.8-2 l-0.5,0.2l2.3,5.6l0,0l-1.5-3.6L357.1,377z M357.1,377l-0.5,0.2l1.5,3.6l0.5-0.2L357.1,377z" fill="#2b4b82"/></g><g id="change3_1"><path d="M306.6,405.9v26.5L497.8,322v11.7L306.6,444.1L1.7,268v-48.1L306.6,396v-0.1L1.7,219.9l17.2-10 v1.6l284.5,164.2l0.2-0.2v0.2l175.2-101.1l17.5,10.1l1.5-0.9v11.7L306.6,405.9z" fill="#f7b4a7"/></g><g id="change4_1"><path d="M482,222.8v8.1l-178.4,103v-8.1L482,222.8z M303.6,375.7l178.4-103v-8.1l-178.4,103V375.7z M197.3,58.5L19.8,161l-0.9-0.5v51l284.5,164.2v-50l178.4-103L197.3,58.5z" fill="#94ddde"/></g><g id="change2_2"><path d="M499.5,298.1v-13.5l-16.1-9.3v-11.9l-6.2,3.6v-31.4l6.4-3.7V222L197.3,56.6l-180.1,104V209 L0,218.9V269l306.6,177l192.9-111.4V319l-4.4,2.6v-21L499.5,298.1z M480.1,269.2v4.2l-175,101v-4.2L480.1,269.2z M305.1,366.4V335 l168.8-97.4V269L305.1,366.4z M480.3,229.9l-175,101v-4.2l175-101V229.9z M197.3,60.5l281.1,162.3l-175,101L22.3,161.5L197.3,60.5z M20.6,164.4l281.1,162.3v41.6v5.5L20.6,211.6V164.4z M304.9,410.5v21v9.7L3.4,267v-44.2L305,396.9v13.6H304.9z M306.6,394 L5.1,219.9l12.2-7v0.7L304,379l178.7-103.2l-2.4,1.4l14.2,8.2L306.6,394z M308.3,408.5l183.4-105.9v21L308.3,429.5V408.5z M496.1,324.9v7.8L308.3,441.2v-7.8L496.1,324.9z M308.3,404.6v-7.7l187.8-108.5v7.7L308.3,404.6z" fill="#2b4b82"/></g></svg>