<?xml version="1.0" encoding="UTF-8" standalone="no"?><svg xmlns="http://www.w3.org/2000/svg" xmlns:xlink="http://www.w3.org/1999/xlink" fill="#000000" height="500.3" preserveAspectRatio="xMidYMid meet" version="1" viewBox="0.0 0.0 466.4 500.3" width="466.4" zoomAndPan="magnify"><g id="change1_1"><path d="M464.7,134.6v230.1L233.2,498.4L1.7,364.7V134.6l1,0.6L232.3,2.6l230.5,133.1L464.7,134.6z" fill="#fefefe"/></g><g fill="#2b4b82" id="change2_2"><path d="M106.7 326.3L96.7 336.3 43.9 389.1 44.3 389.4 77.1 356.6 77.1 356.6 127 306.7 127 306.7 190.2 243.5 189.8 243.2 106.7 326.3z" fill="inherit"/><path d="M116.7 326.3L96.7 346.3 50.2 392.8 50.7 393 77.1 366.6 77.1 366.6 137 306.7 137 306.7 196.6 247.1 196.1 246.9 116.7 326.3z" fill="inherit"/><path d="M126.7 326.3L96.7 356.2 56.5 396.4 57 396.7 77.1 376.5 77.1 376.5 147 306.7 147 306.7 196.8 256.8 196.8 256.8 202.9 250.8 202.4 250.5 126.7 326.3z" fill="inherit"/><path d="M136.6 326.3L96.7 366.2 62.9 400.1 63.3 400.3 77.1 386.5 77.1 386.5 156.9 306.7 156.9 306.7 196.8 266.8 196.8 266.8 209.2 254.4 208.8 254.2 136.6 326.3z" fill="inherit"/><path d="M146.6 326.3L96.7 376.2 69.2 403.7 69.6 404 77.1 396.5 77.1 396.5 166.9 306.7 166.9 306.7 196.8 276.8 196.8 276.8 215.5 258.1 215.1 257.8 146.6 326.3z" fill="inherit"/><path d="M156.6 326.3L156.6 326.3 96.7 386.2 75.5 407.4 76 407.6 77.1 406.5 77.1 406.5 176.9 306.7 176.9 306.7 196.8 286.8 196.8 286.8 221.9 261.7 221.4 261.5 216.4 266.4z" fill="inherit"/><path d="M166.6 326.3L166.6 326.3 96.7 396.1 81.8 411 82.3 411.3 186.9 306.7 186.9 306.7 196.8 296.7 196.8 296.7 228.2 265.4 227.7 265.1 216.4 276.4z" fill="inherit"/><path d="M176.5 326.3L176.5 326.3 96.7 406.1 88.2 414.7 88.6 414.9 196.8 306.7 233.2 270.4 233.2 269.7 216.4 286.4z" fill="inherit"/><path d="M86.8 326.3L86.8 326.3 31.2 381.8 31.7 382.1 77.1 336.6 77.1 336.6 107.1 306.7 107.1 306.7 177.6 236.2 177.1 235.9z" fill="inherit"/><path d="M77.1 226.9L108 196 107.6 195.8 96.7 206.6 96.7 206.6 96.7 206.6 1.7 301.7 1.7 302.4 77.1 226.9z" fill="inherit"/><path d="M7.3 306.7L77.1 236.9 77.1 236.9 114.3 199.7 113.9 199.4 106.7 206.6 106.7 206.6 96.7 216.6 1.7 311.6 1.7 312.3 7.3 306.7z" fill="inherit"/><path d="M17.3 306.7L77.1 246.8 77.1 246.8 120.7 203.3 120.2 203.1 116.7 206.6 116.7 206.6 96.7 226.5 1.7 321.6 1.7 322.3 17.3 306.7z" fill="inherit"/><path d="M27.2 306.7L77.1 256.8 77.1 256.8 127 207 126.5 206.7 96.7 236.5 6.9 326.3 6.9 326.3 1.7 331.6 1.7 332.3 27.2 306.7z" fill="inherit"/><path d="M37.2 306.7L77.1 266.8 77.1 266.8 133.3 210.6 132.9 210.4 96.7 246.5 16.9 326.3 16.9 326.3 1.7 341.6 1.7 342.3 37.2 306.7z" fill="inherit"/><path d="M47.2 306.7L77.1 276.8 77.1 276.8 139.6 214.3 139.2 214 96.7 256.5 26.9 326.3 26.9 326.3 1.7 351.5 1.7 352.2 47.2 306.7z" fill="inherit"/><path d="M57.2 306.7L77.1 286.8 77.1 286.8 146 217.9 145.5 217.7 96.7 266.4 36.9 326.3 36.9 326.3 1.7 361.5 1.7 362.2 57.2 306.7z" fill="inherit"/><path d="M67.2 306.7L77.1 296.7 77.1 296.7 152.3 221.6 151.8 221.3 96.7 276.4 46.8 326.3 46.8 326.3 5.9 367.2 6.4 367.5 67.2 306.7z" fill="inherit"/><path d="M158.6 225.2L158.2 225 96.7 286.4 56.8 326.3 56.8 326.3 12.3 370.9 12.7 371.1 77.1 306.7z" fill="inherit"/><path d="M87.1 306.7L164.9 228.9 164.5 228.6 96.7 296.4 66.8 326.3 66.8 326.3 18.6 374.5 19 374.8 77.1 316.7z" fill="inherit"/><path d="M196.5 326.3L100.8 422 101.3 422.2 216.8 306.7 216.8 306.7 233.2 290.3 233.2 289.6 196.5 326.3z" fill="inherit"/><path d="M206.5 326.3L107.1 425.6 107.6 425.9 196.8 336.6 196.8 336.6 226.8 306.7 226.8 306.7 233.2 300.3 233.2 299.6 206.5 326.3z" fill="inherit"/><path d="M196.5 446L176.7 465.8 177.2 466.1 216.8 426.4 216.8 426.4 233.2 410 233.2 409.3 196.5 446z" fill="inherit"/><path d="M206.5 446L183 469.5 183.5 469.7 196.8 456.4 196.8 456.4 226.8 426.4 226.8 426.4 233.2 420 233.2 419.3 206.5 446z" fill="inherit"/><path d="M77.1 216.9L101.7 192.4 101.2 192.1 86.8 206.6 86.8 206.6 1.7 291.7 1.7 292.4 77.1 216.9z" fill="inherit"/><path d="M31.7 151.9L1.7 181.9 1.7 182.6 32.1 152.2z" fill="inherit"/><path d="M7.3 187L38.4 155.8 38 155.6 1.7 191.9 1.7 192.6 7.3 187z" fill="inherit"/><path d="M17.3 187L44.8 159.5 44.3 159.2 1.7 201.9 1.7 202.6 17.3 187z" fill="inherit"/><path d="M27.2 187L51.1 163.1 50.6 162.9 6.9 206.6 6.9 206.6 1.7 211.9 1.7 212.6 27.2 187z" fill="inherit"/><path d="M37.2 187L57.4 166.8 57 166.5 16.9 206.6 16.9 206.6 1.7 221.8 1.7 222.6 37.2 187z" fill="inherit"/><path d="M47.2 187L63.7 170.4 63.3 170.2 26.9 206.6 26.9 206.6 1.7 231.8 1.7 232.5 47.2 187z" fill="inherit"/><path d="M57.2 187L70.1 174.1 69.6 173.8 36.9 206.6 36.9 206.6 1.7 241.8 1.7 242.5 57.2 187z" fill="inherit"/><path d="M67.2 187L76.4 177.8 75.9 177.5 46.8 206.6 46.8 206.6 1.7 251.8 1.7 252.5 67.2 187z" fill="inherit"/><path d="M82.7 181.4L82.3 181.1 56.8 206.6 56.8 206.6 1.7 261.8 1.7 262.5 77.1 187z" fill="inherit"/><path d="M87.1 187L89 185.1 88.6 184.8 66.8 206.6 66.8 206.6 1.7 271.7 1.7 272.4 77.1 197z" fill="inherit"/><path d="M25.3 148.3L1.7 172 1.7 172.7 25.8 148.5z" fill="inherit"/><path d="M6.4 137.3L1.7 142 1.7 142.7 6.8 137.6z" fill="inherit"/><path d="M12.7 141L1.7 152 1.7 152.7 13.1 141.2z" fill="inherit"/><path d="M19 144.6L1.7 162 1.7 162.7 19.5 144.9z" fill="inherit"/><path d="M216.4 446L216.4 446 189.4 473.1 189.8 473.4 196.8 466.3 196.8 466.3 233.2 430 233.2 429.3 216.4 446z" fill="inherit"/><path d="M226.4 446L216.4 456 195.7 476.8 196.1 477 196.8 476.3 196.8 476.3 233.2 440 233.2 439.3 226.4 446z" fill="inherit"/><path d="M202 480.4L202.5 480.7 233.2 450 233.2 449.2 216.4 466z" fill="inherit"/><path d="M208.3 484.1L208.8 484.3 233.2 459.9 233.2 459.2 216.4 476z" fill="inherit"/><path d="M214.7 487.7L215.1 488 233.2 469.9 233.2 469.2 216.4 485.9z" fill="inherit"/><path d="M221.4 491.6L233.2 479.9 233.2 479.2 221 491.4z" fill="inherit"/><path d="M227.8 495.3L233.2 489.9 233.2 489.2 227.3 495z" fill="inherit"/><path d="M216.4 326.3L216.4 326.3 113.5 429.3 113.9 429.5 117 426.4 117 426.4 196.8 346.6 196.8 346.6 233.2 310.3 233.2 309.6 216.4 326.3z" fill="inherit"/><path d="M226.4 326.3L216.4 336.3 119.8 432.9 120.2 433.2 127 426.4 127 426.4 196.8 356.6 196.8 356.6 233.2 320.3 233.2 319.6 226.4 326.3z" fill="inherit"/><path d="M126.1 436.6L126.6 436.9 137 426.4 137 426.4 196.8 366.6 196.8 366.6 233.2 330.2 233.2 329.5 216.4 346.3z" fill="inherit"/><path d="M132.4 440.2L132.9 440.5 147 426.4 147 426.4 196.8 376.5 196.8 376.5 233.2 340.2 233.2 339.5 216.4 356.2z" fill="inherit"/><path d="M138.8 443.9L139.2 444.2 156.9 426.4 156.9 426.4 196.8 386.5 196.8 386.5 233.2 350.2 233.2 349.5 216.4 366.2z" fill="inherit"/><path d="M146.6 446L146.6 446 145.1 447.5 145.5 447.8 166.9 426.4 166.9 426.4 196.8 396.5 196.8 396.5 233.2 360.2 233.2 359.5 216.4 376.2z" fill="inherit"/><path d="M156.6 446L156.6 446 151.4 451.2 151.9 451.5 176.9 426.4 176.9 426.4 196.8 406.5 196.8 406.5 233.2 370.1 233.2 369.4 216.4 386.2z" fill="inherit"/><path d="M166.6 446L166.6 446 157.7 454.9 158.2 455.1 186.9 426.4 186.9 426.4 196.8 416.4 196.8 416.4 233.2 380.1 233.2 379.4 216.4 396.1z" fill="inherit"/><path d="M176.5 446L176.5 446 164.1 458.5 164.5 458.8 196.8 426.4 233.2 390.1 233.2 389.4 216.4 406.1z" fill="inherit"/><path d="M186.5 446L186.5 446 170.4 462.2 170.8 462.4 196.8 436.4 206.8 426.4 233.2 400.1 233.2 399.4 216.4 416.1z" fill="inherit"/><path d="M97.1 306.7L171.3 232.5 170.8 232.3 76.8 326.3 76.8 326.3 24.9 378.2 25.4 378.4 97.1 306.7z" fill="inherit"/><path d="M96.7 326.3L96.7 326.3 37.6 385.5 38 385.7 77.1 346.6 77.1 346.6 117 306.7 117 306.7 183.9 239.8 183.5 239.6 96.7 326.3z" fill="inherit"/><path d="M186.5 326.3L186.5 326.3 96.7 416.1 94.5 418.3 94.9 418.6 196.8 316.7 206.8 306.7 233.2 280.4 233.2 279.7 216.4 296.4z" fill="inherit"/><path d="M94.9 188.4L76.8 206.6 76.8 206.6 1.7 281.7 1.7 282.4 95.4 188.7z" fill="inherit"/></g><g id="change3_1"><path d="M449.8,229.8l-94.9,54.8v-54.8l94.9-54.8V229.8z" fill="#fefefe"/></g><g id="change4_1"><path d="M148.6,219.6l-0.8-0.5v80.4l-9.8,10.5l-10.6-23.5l-10.6,11.3l-10.6-23.5l-10.6,11.3l-8.5-18.8 v-82.8l1,0.6L317.8,51.9l60.6,35L148.6,219.6z" fill="#f7b4a7"/></g><g id="change2_1"><path d="M449.8,351.5l-60.6,35v-35l60.6-35V351.5z M451.4,230.8v-58.6l-98.3,56.7v58.6L451.4,230.8z M448.1,177.9v51l-91.6,52.9v-51L448.1,177.9z M466.4,135.6L466.4,135.6l-0.1,230.1L233.2,500.3L0,365.7v-232L231.6,0L466.4,135.6 L466.4,135.6z M88.8,187v79.4l7.3,16.2l10.6-11.3l10.6,23.5l10.6-11.3l10.6,23.5l7.6-8.2v-78.8L88.8,187z M148.7,217.6L375.1,86.9 l-57.3-33.1L91.5,184.5L148.7,217.6z M5.1,134.6l83.1,48L314.6,51.8l-83.1-48L5.1,134.6z M231.5,269.2l-82.1-47.4v78.4l-12,12.8 l-10.6-23.5l-10.6,11.3l-10.6-23.5l-10.6,11.3l-9.6-21.4v-82v-0.2L3.3,137.5v226.3l228.2,131.7V269.2z M233.2,266.3l226.5-130.8 l-81.1-46.8L152.1,219.5L233.2,266.3z M463,137.5L234.8,269.3v226.2L463,363.8V137.5z M292.5,421.3l-17.3-21.5l-17.3,41.5l8.4-4.9 V453l17.8-10.2v-16.5L292.5,421.3z" fill="#2b4b82"/></g></svg>