<?xml version="1.0" encoding="UTF-8" standalone="no"?><svg xmlns="http://www.w3.org/2000/svg" xmlns:xlink="http://www.w3.org/1999/xlink" fill="#000000" height="498.4" preserveAspectRatio="xMidYMid meet" version="1" viewBox="-11.1 1.5 476.9 498.4" width="476.9" zoomAndPan="magnify"><g id="change1_1"><path d="M451.7,384.2c0,0.1,0,0.3,0,0.4v8.7c0.1,2.4-1.7,4.9-5.1,6.9L281,495.8 c-3.4,2-8,3.1-12.6,3.1c-3.7,0-7.1-0.8-9.5-2.2L-6.4,343.5c-2.2-1.3-3.4-2.9-3.5-4.8V330c0-0.3,0-0.6,0-0.9c0.2,1.2,1.2,2.4,2.9,3.4 l266.6,153.9c2.3,1.3,5.5,2,9,2c4.4,0,8.8-1.1,12.1-3l166.4-96.1C449.8,387.9,451.4,385.9,451.7,384.2z M453.9,157.1L188.6,3.9 c-1.5-0.9-2.9-1.3-4.3-1.3c-1,0-1.9,0.2-2.8,0.7L176,6.2c1.7-0.4,3.6-0.1,5.7,1.1l265.4,153.2c5.9,3.4,10.7,12.6,10.7,20.5v191.2 c0,4.4-1.5,7.5-3.8,8.8c0,0,0.1,0,0.1-0.1c0,0,0.1,0,6.8-3.4h0.1c2.4-1.4,3.7-4.5,3.7-8.7V177.6 C464.7,169.7,459.9,160.5,453.9,157.1z" fill="#f0abc1"/></g><g id="change2_1"><path d="M268.7,488.5c-3.5,0-6.7-0.7-9-2L-7,332.5c-1.9-1.1-2.9-2.5-2.9-3.9c0-1.9,1.7-4,4.6-5.7 l166.4-96.1c3.3-1.9,7.7-3,12.1-3c3.5,0,6.7,0.7,9,2l266.6,153.9c1.9,1.1,2.9,2.5,2.9,3.9c0,1.9-1.7,4-4.6,5.7l-166.4,96.2 C277.4,487.4,273,488.5,268.7,488.5z" fill="#f7b4a7"/></g><g id="change3_1"><path d="M73.8,293.4l91.8-53l259,149.6l-91.8,53 M447.6,175.5L181.2,21.7v190.4l266.3,153.8V175.5 H447.6z" fill="#94ddde"/></g><g id="change4_1"><path d="M230.2,323.1l14.3,8.2l-14.2,8.2l-14.3-8.2L230.2,323.1z M234.1,346.7l-14.3-8.2l-14.2,8.2l14.3,8.2 L234.1,346.7z M233.9,341.7l14.3,8.2l14.2-8.2l-14.3-8.2L233.9,341.7z M252.2,357.2l-14.3-8.2l-14.2,8.2l14.3,8.2L252.2,357.2z M162.1,300.2l14.3,8.2l14.2-8.2l-14.3-8.2L162.1,300.2z M198,320.9l14.3,8.2l14.2-8.2l-14.3-8.2L198,320.9z M165.7,323.6l14.2-8.2 l-14.3-8.2l-14.2,8.2L165.7,323.6z M180.1,310.6l14.3,8.2l14.2-8.2l-14.3-8.2L180.1,310.6z M334.2,383.2l-14.3-8.2l-14.2,8.2 l14.3,8.2L334.2,383.2z M251.9,352l14.3,8.2l14.2-8.2l-14.3-8.2L251.9,352z M216,336.3l-14.3-8.2l-14.2,8.2l14.3,8.2L216,336.3z M269.8,362.4l14.3,8.2l14.2-8.2l-14.3-8.2L269.8,362.4z M249.3,376.8L168,329.9l-15.6,9l81.3,46.9L249.3,376.8z M287.8,372.8 l14.3,8.2l14.2-8.2l-14.3-8.2L287.8,372.8z M169.5,325.8l14.3,8.2l14.2-8.2l-14.3-8.2L169.5,325.8z M115.3,294.5l14.3,8.2l14.2-8.2 l-14.3-8.2L115.3,294.5z M92.3,304.2l15.7,9.1l15.6-9l-15.7-9.1L92.3,304.2z M98.9,380.7l94.2,54.4l57-32.9l-94.2-54.4L98.9,380.7z M210.9,307l14.3,8.2l14.2-8.2l-14.3-8.2L210.9,307z M192.7,296.5l14.3,8.2l14.2-8.2l-14.3-8.2L192.7,296.5z M174.5,286l14.3,8.2 L203,286l-14.3-8.2L174.5,286z M247.2,328l14.3,8.2l14.2-8.2l-14.3-8.2L247.2,328z M229.1,317.5l14.3,8.2l14.2-8.2l-14.3-8.2 L229.1,317.5z M156.3,275.5l14.3,8.2l14.2-8.2l-14.3-8.2L156.3,275.5z M147.6,313.2l14.2-8.2l-14.3-8.2l-14.2,8.2L147.6,313.2z M158.4,298.1l14.2-8.2l-14.3-8.2l-14.2,8.2L158.4,298.1z M270.3,367.6l-14.3-8.2l-14.2,8.2l14.3,8.2L270.3,367.6z M265.4,338.5 l14.3,8.2l14.2-8.2l-14.3-8.2L265.4,338.5z M288.3,378l-14.3-8.2l-14.2,8.2l14.3,8.2L288.3,378z M324.5,398.9l-14.3-8.2l-14.2,8.2 l14.3,8.2L324.5,398.9z M306.4,388.5l-14.3-8.2l-14.2,8.2l14.3,8.2L306.4,388.5z M301.8,359.5l14.3,8.2l14.2-8.2l-14.3-8.2 L301.8,359.5z M352.1,393.5l-14.3-8.2l-14.2,8.2l14.3,8.2L352.1,393.5z M320,370l14.3,8.2l14.2-8.2l-14.3-8.2L320,370z M283.6,349 l14.3,8.2l14.2-8.2l-14.3-8.2L283.6,349z M338.2,380.5l14.3,8.2l14.2-8.2l-14.3-8.2L338.2,380.5z M164.6,327.9l-18.4-10.6l-15.6,9 l18.4,10.6L164.6,327.9z M165.6,239.1l261.2,150.8l-93.4,53.9l-0.9-1.5l-0.4,0.2l-15.7-9.1l15.6-9l15.3,8.8l4.3-2.5l-37.4-21.6 l13.8-7.9l37.4,21.6l4.9-2.8l-28.4-16.4l13.8-7.9l28.4,16.4l4.5-2.6l-13.9-8l14.2-8.2l13.9,8l4.3-2.5l-257-148.2l-4.5,2.6l20.8,12 l-13.8,7.9l-20.8-12l-4.7,2.7l27.3,15.8l-13.8,7.9l-27.3-15.8l-4.9,2.8l16.8,9.7l-13.8,7.9l-16.8-9.7l-4.3,2.5l14,8.1l-15.6,9 l-14-8.1l-0.5,0.3l-0.5-0.8L73,293l0.3-0.2l-0.3-0.5L165.6,239.1z M422.5,390L165.6,241.7l-3.6,2.1l256.9,148.3L422.5,390z M111.5,315.2l15.7,9.1l15.6-9l-15.7-9.1L111.5,315.2z M312.9,413.5l-15.6,9l15.7,9.1l15.6-9L312.9,413.5z M252.8,378.8l-15.6,9 l18.4,10.6l15.6-9L252.8,378.8z M274.6,391.4l-15.6,9l15.7,9.1l15.6-9L274.6,391.4z M465.8,177.6v191.2c0,4.6-1.6,8.1-4.3,9.6 c0,0-6.8,3.4-6.9,3.4c-0.6,0.4-1.3,0.6-2,0.7c0.1,0.4,0.2,0.7,0.2,1.1c0,0.2,0,0.3,0,0.5c0,0.1,0,0.3,0,0.4v8.7 c0.1,2.7-1.8,5.6-5.7,7.8l-165.6,95.6c-3.7,2.2-8.5,3.3-13.1,3.3c-3.8,0-7.4-0.8-10.1-2.3L-7,344.5c-2.6-1.5-3.9-3.6-4-5.7v-8.7 c0-0.3,0-0.6,0-0.9c0-0.2-0.1-0.4-0.1-0.6c0-2.3,1.9-4.8,5.1-6.6l166.4-96.1c3.5-2,8.1-3.1,12.6-3.1c0.8,0,1.6,0,2.3,0.1 c-3.4-4.5-5.6-10.7-5.6-16.2V15.4c0-4.1,1.2-7.3,3.4-9l7.7-4c1-0.6,2.1-0.9,3.3-0.9c1.5,0,3.2,0.5,4.8,1.4l265.4,153.2 C460.7,159.7,465.8,169.4,465.8,177.6z M450.6,388.2c-0.8,0.8-1.8,1.5-2.9,2.2l-166.4,96.1c-3.5,2-8.1,3.1-12.6,3.1 c-3.7,0-7.1-0.8-9.6-2.2l-266.6-154c-0.5-0.3-0.9-0.6-1.3-0.9v6.2c0,1.8,1.6,3,2.9,3.8l265.4,153.2c2.3,1.3,5.4,2,9,2 c4.3,0,8.7-1.1,12-3l165.6-95.6c2.9-1.6,4.6-3.8,4.5-5.7v-0.1V388.2z M450.6,383.7c0-0.3-0.1-0.7-0.3-1c-1.2-0.2-2.5-0.6-3.8-1.4 l-58.2-33.6c-4.8,2.7-12,3-16.2,0.6l-139.8-80.7c-4.1-2.4-3.7-6.5,1-9.3l-52.2-30.1c-1.2-0.7-2.4-1.7-3.5-2.8 c-1.4-0.3-2.9-0.4-4.5-0.4c-4.2,0-8.4,1-11.5,2.8l-166.4,96c-2.5,1.4-4.1,3.3-4.1,4.7c0,1,0.9,2.1,2.4,3l266.7,154 c2.1,1.2,5.1,1.9,8.5,1.9c4.2,0,8.4-1,11.5-2.8l166.4-96.1C449.1,387,450.6,385.2,450.6,383.7z M199.8,33.6v-0.3h1.5l-20-11.6v190.4 l19.9,11.5h0.2v-1.5h0.3v1.5h1.5v0.3h-1.4l39.3,22.7v-0.7h0.3v0.9l1,0.6h0.5v0.3l29.9,17.3v-1.3h-1.5v-0.3h1.5v-1.5h0.3v1.5h1.5v0.3 H273v1.5h-0.1l38,22h1.4v-1.5h0.3v1.5h1.5v0.3h-1.5v0.6l39.3,22.7v-1.4h0.3v1.5h1.5v0.3h-1.1l38.9,22.5v-0.5h0.3v0.7l1.4,0.8h0.1 v0.1l29.9,17.3v-1.1h-1.5v-0.3h1.5V349h0.3v1.5h1.5v0.3h-1.5v1.3l23.9,13.8v-7.2h-0.1v1.5h-0.1h-0.3v-1.5h-1.5v-0.3h1.5v-1.5h0.3 h0.1v1.5h0.1v-15.5h-0.1v1.5h-0.1h-0.3v-1.5h-1.5v-0.3h1.5V341h0.3h0.1v1.5h0.1V327h-0.1v1.5h-0.1h-0.3V327h-1.5v-0.3h1.5v-1.5h0.3 h0.1v1.5h0.1v-15.5h-0.1v1.5h-0.1h-0.3v-1.5h-1.5v-0.3h1.5v-1.5h0.3h0.1v1.5h0.1v-15.5h-0.1v1.5h-0.1h-0.3v-1.5h-1.5v-0.3h1.5v-1.5 h0.3h0.1v1.5h0.1v-15.5h-0.1v1.5h-0.1h-0.3v-1.5h-1.5v-0.3h1.5v-1.5h0.3h0.1v1.5h0.1v-15.5h-0.1v1.5h-0.1h-0.3v-1.5h-1.5v-0.3h1.5 v-1.5h0.3h0.1v1.5h0.1v-15.5h-0.1v1.5h-0.1h-0.3v-1.5h-1.5v-0.3h1.5v-1.5h0.3h0.1v1.5h0.1v-15.5h-0.1v1.5h-0.1h-0.3v-1.5h-1.5v-0.3 h1.5V230h0.3h0.1v1.5h0.1V216h-0.1v1.5h-0.1h-0.3V216h-1.5v-0.3h1.5v-1.5h0.3h0.1v1.5h0.1v-15.5h-0.1v1.5h-0.1h-0.3v-1.5h-1.5v-0.3 h1.5v-1.5h0.3h0.1v1.5h0.1v-15.5h-0.1v1.5h-0.1h-0.3v-1.5h-1.5v-0.3h1.5v-1.5h0.3h0.1v1.5h0.1v-8.4h0.1l-24-13.8v0.3h-0.3v-0.5 l-31.4-18.1v0.9h1.5v0.3h-1.5v1.5h-0.3v-1.5h-1.5v-0.3h1.5v-1.1l-38.7-22.3h-0.6v1.5h-0.3v-1.5h-1.5v-0.3h1.5v-0.2l-39.3-22.7v1 h-0.3v-1.1l-0.6-0.3h-0.9v-0.3h0.3l-38.2-22v0.1h-0.3v-0.2l-29.9-17.3v0.2h-1.5v1.5h-0.3v-1.5h-1.5v-0.3h1.5v-0.9l-39.1-22.6h-0.2 v1.5h-0.3v-1.5H199.8z M241.2,57.1h1.2l-1.2-0.7V57.1z M312.3,287.4h-0.8l0.8,0.5V287.4z M463.6,177.6c0-7.4-4.7-16.4-10.2-19.6 L188,4.8c-1.3-0.7-2.6-1.1-3.7-1.1c-0.8,0-1.5,0.2-2.2,0.6l-3.4,1.8c1,0.2,2.1,0.6,3.1,1.2l265.3,153.2c5.9,3.4,10.7,12.6,10.7,20.5 v191.2c0,2.6-0.5,4.8-1.5,6.3c0.9-0.5,2.2-1.1,3.9-1.9l0.2-0.1c2-1.2,3.1-4,3.1-7.7L463.6,177.6L463.6,177.6z M293.7,402.5l-15.6,9 l15.7,9.1l15.6-9L293.7,402.5z M384.8,391.1l-14.3-8.2l-14.2,8.2l14.3,8.2L384.8,391.1z M399.5,154h0.3v-1.5h1.5v-0.3h-1.5v-1.5 h-0.3v1.5H398v0.3h1.5V154z M407.4,162h0.3v-1.5h1.5v-0.3h-1.5v-1.5h-0.3v1.5h-1.5v0.3h1.5V162z M391.6,162h0.3v-1.5h1.5v-0.3h-1.5 v-1.5h-0.3v1.5h-1.5v0.3h1.5V162z M431.2,169.9h0.3v-1.5h1.5v-0.3h-1.5v-1.5h-0.3v1.5h-1.5v0.3h1.5V169.9z M415.4,169.9h0.3v-1.5 h1.5v-0.3h-1.5v-1.5h-0.3v1.5h-1.5v0.3h1.5V169.9z M399.5,169.9h0.3v-1.5h1.5v-0.3h-1.5v-1.5h-0.3v1.5H398v0.3h1.5V169.9z M439.2,177.8h0.3v-1.5h1.5V176h-1.5v-1.5h-0.3v1.5h-1.5v0.3h1.5V177.8z M423.3,177.8h0.3v-1.5h1.5V176h-1.5v-1.5h-0.3v1.5h-1.5v0.3 h1.5V177.8z M407.4,177.8h0.3v-1.5h1.5V176h-1.5v-1.5h-0.3v1.5h-1.5v0.3h1.5V177.8z M391.6,177.8h0.3v-1.5h1.5V176h-1.5v-1.5h-0.3 v1.5h-1.5v0.3h1.5V177.8z M431.2,185.7h0.3v-1.5h1.5v-0.3h-1.5v-1.5h-0.3v1.5h-1.5v0.3h1.5V185.7z M415.4,185.7h0.3v-1.5h1.5v-0.3 h-1.5v-1.5h-0.3v1.5h-1.5v0.3h1.5V185.7z M399.5,185.7h0.3v-1.5h1.5v-0.3h-1.5v-1.5h-0.3v1.5H398v0.3h1.5V185.7z M439.2,193.7h0.3 v-1.5h1.5v-0.3h-1.5v-1.5h-0.3v1.5h-1.5v0.3h1.5V193.7z M423.3,193.7h0.3v-1.5h1.5v-0.3h-1.5v-1.5h-0.3v1.5h-1.5v0.3h1.5V193.7z M407.4,193.7h0.3v-1.5h1.5v-0.3h-1.5v-1.5h-0.3v1.5h-1.5v0.3h1.5V193.7z M391.6,193.7h0.3v-1.5h1.5v-0.3h-1.5v-1.5h-0.3v1.5h-1.5 v0.3h1.5V193.7z M431.2,201.6h0.3v-1.5h1.5v-0.3h-1.5v-1.5h-0.3v1.5h-1.5v0.3h1.5V201.6z M415.4,201.6h0.3v-1.5h1.5v-0.3h-1.5v-1.5 h-0.3v1.5h-1.5v0.3h1.5V201.6z M399.5,201.6h0.3v-1.5h1.5v-0.3h-1.5v-1.5h-0.3v1.5H398v0.3h1.5V201.6z M439.2,209.5h0.3v-1.5h1.5 v-0.3h-1.5v-1.5h-0.3v1.5h-1.5v0.3h1.5V209.5z M423.3,209.5h0.3v-1.5h1.5v-0.3h-1.5v-1.5h-0.3v1.5h-1.5v0.3h1.5V209.5z M407.4,209.5 h0.3v-1.5h1.5v-0.3h-1.5v-1.5h-0.3v1.5h-1.5v0.3h1.5V209.5z M391.6,209.5h0.3v-1.5h1.5v-0.3h-1.5v-1.5h-0.3v1.5h-1.5v0.3h1.5V209.5z M431.2,217.5h0.3V216h1.5v-0.3h-1.5v-1.5h-0.3v1.5h-1.5v0.3h1.5V217.5z M415.4,217.5h0.3V216h1.5v-0.3h-1.5v-1.5h-0.3v1.5h-1.5v0.3 h1.5V217.5z M399.5,217.5h0.3V216h1.5v-0.3h-1.5v-1.5h-0.3v1.5H398v0.3h1.5V217.5z M439.2,225.4h0.3v-1.5h1.5v-0.3h-1.5v-1.5h-0.3 v1.5h-1.5v0.3h1.5V225.4z M423.3,225.4h0.3v-1.5h1.5v-0.3h-1.5v-1.5h-0.3v1.5h-1.5v0.3h1.5V225.4z M407.4,225.4h0.3v-1.5h1.5v-0.3 h-1.5v-1.5h-0.3v1.5h-1.5v0.3h1.5V225.4z M391.6,225.4h0.3v-1.5h1.5v-0.3h-1.5v-1.5h-0.3v1.5h-1.5v0.3h1.5V225.4z M431.2,233.3h0.3 v-1.5h1.5v-0.3h-1.5V230h-0.3v1.5h-1.5v0.3h1.5V233.3z M415.4,233.3h0.3v-1.5h1.5v-0.3h-1.5V230h-0.3v1.5h-1.5v0.3h1.5V233.3z M399.5,233.3h0.3v-1.5h1.5v-0.3h-1.5V230h-0.3v1.5H398v0.3h1.5V233.3z M439.2,241.3h0.3v-1.5h1.5v-0.3h-1.5V238h-0.3v1.5h-1.5v0.3 h1.5V241.3z M423.3,241.3h0.3v-1.5h1.5v-0.3h-1.5V238h-0.3v1.5h-1.5v0.3h1.5V241.3z M407.4,241.3h0.3v-1.5h1.5v-0.3h-1.5V238h-0.3 v1.5h-1.5v0.3h1.5V241.3z M391.6,241.3h0.3v-1.5h1.5v-0.3h-1.5V238h-0.3v1.5h-1.5v0.3h1.5V241.3z M431.2,249.2h0.3v-1.5h1.5v-0.3 h-1.5v-1.5h-0.3v1.5h-1.5v0.3h1.5V249.2z M415.4,249.2h0.3v-1.5h1.5v-0.3h-1.5v-1.5h-0.3v1.5h-1.5v0.3h1.5V249.2z M399.5,249.2h0.3 v-1.5h1.5v-0.3h-1.5v-1.5h-0.3v1.5H398v0.3h1.5V249.2z M439.2,257.1h0.3v-1.5h1.5v-0.3h-1.5v-1.5h-0.3v1.5h-1.5v0.3h1.5V257.1z M423.3,257.1h0.3v-1.5h1.5v-0.3h-1.5v-1.5h-0.3v1.5h-1.5v0.3h1.5V257.1z M407.4,257.1h0.3v-1.5h1.5v-0.3h-1.5v-1.5h-0.3v1.5h-1.5 v0.3h1.5V257.1z M391.6,257.1h0.3v-1.5h1.5v-0.3h-1.5v-1.5h-0.3v1.5h-1.5v0.3h1.5V257.1z M431.2,265h0.3v-1.5h1.5v-0.3h-1.5v-1.5 h-0.3v1.5h-1.5v0.3h1.5V265z M415.4,265h0.3v-1.5h1.5v-0.3h-1.5v-1.5h-0.3v1.5h-1.5v0.3h1.5V265z M399.5,265h0.3v-1.5h1.5v-0.3h-1.5 v-1.5h-0.3v1.5H398v0.3h1.5V265z M439.2,273h0.3v-1.5h1.5v-0.3h-1.5v-1.5h-0.3v1.5h-1.5v0.3h1.5V273z M423.3,273h0.3v-1.5h1.5v-0.3 h-1.5v-1.5h-0.3v1.5h-1.5v0.3h1.5V273z M407.4,273h0.3v-1.5h1.5v-0.3h-1.5v-1.5h-0.3v1.5h-1.5v0.3h1.5V273z M391.6,273h0.3v-1.5h1.5 v-0.3h-1.5v-1.5h-0.3v1.5h-1.5v0.3h1.5V273z M431.2,280.9h0.3v-1.5h1.5v-0.3h-1.5v-1.5h-0.3v1.5h-1.5v0.3h1.5V280.9z M415.4,280.9 h0.3v-1.5h1.5v-0.3h-1.5v-1.5h-0.3v1.5h-1.5v0.3h1.5V280.9z M399.5,280.9h0.3v-1.5h1.5v-0.3h-1.5v-1.5h-0.3v1.5H398v0.3h1.5V280.9z M439.2,288.8h0.3v-1.5h1.5V287h-1.5v-1.5h-0.3v1.5h-1.5v0.3h1.5V288.8z M423.3,288.8h0.3v-1.5h1.5V287h-1.5v-1.5h-0.3v1.5h-1.5v0.3 h1.5V288.8z M407.4,288.8h0.3v-1.5h1.5V287h-1.5v-1.5h-0.3v1.5h-1.5v0.3h1.5V288.8z M391.6,288.8h0.3v-1.5h1.5V287h-1.5v-1.5h-0.3 v1.5h-1.5v0.3h1.5V288.8z M431.2,296.8h0.3v-1.5h1.5v-0.3h-1.5v-1.5h-0.3v1.5h-1.5v0.3h1.5V296.8z M415.4,296.8h0.3v-1.5h1.5v-0.3 h-1.5v-1.5h-0.3v1.5h-1.5v0.3h1.5V296.8z M399.5,296.8h0.3v-1.5h1.5v-0.3h-1.5v-1.5h-0.3v1.5H398v0.3h1.5V296.8z M439.2,304.7h0.3 v-1.5h1.5v-0.3h-1.5v-1.5h-0.3v1.5h-1.5v0.3h1.5V304.7z M423.3,304.7h0.3v-1.5h1.5v-0.3h-1.5v-1.5h-0.3v1.5h-1.5v0.3h1.5V304.7z M407.4,304.7h0.3v-1.5h1.5v-0.3h-1.5v-1.5h-0.3v1.5h-1.5v0.3h1.5V304.7z M391.6,304.7h0.3v-1.5h1.5v-0.3h-1.5v-1.5h-0.3v1.5h-1.5 v0.3h1.5V304.7z M431.2,312.6h0.3v-1.5h1.5v-0.3h-1.5v-1.5h-0.3v1.5h-1.5v0.3h1.5V312.6z M415.4,312.6h0.3v-1.5h1.5v-0.3h-1.5v-1.5 h-0.3v1.5h-1.5v0.3h1.5V312.6z M399.5,312.6h0.3v-1.5h1.5v-0.3h-1.5v-1.5h-0.3v1.5H398v0.3h1.5V312.6z M439.2,320.6h0.3v-1.5h1.5 v-0.3h-1.5v-1.5h-0.3v1.5h-1.5v0.3h1.5V320.6z M423.3,320.6h0.3v-1.5h1.5v-0.3h-1.5v-1.5h-0.3v1.5h-1.5v0.3h1.5V320.6z M407.4,320.6 h0.3v-1.5h1.5v-0.3h-1.5v-1.5h-0.3v1.5h-1.5v0.3h1.5V320.6z M391.6,320.6h0.3v-1.5h1.5v-0.3h-1.5v-1.5h-0.3v1.5h-1.5v0.3h1.5V320.6z M431.2,328.5h0.3V327h1.5v-0.3h-1.5v-1.5h-0.3v1.5h-1.5v0.3h1.5V328.5z M415.4,328.5h0.3V327h1.5v-0.3h-1.5v-1.5h-0.3v1.5h-1.5v0.3 h1.5V328.5z M399.5,328.5h0.3V327h1.5v-0.3h-1.5v-1.5h-0.3v1.5H398v0.3h1.5V328.5z M439.2,336.4h0.3v-1.5h1.5v-0.3h-1.5v-1.5h-0.3 v1.5h-1.5v0.3h1.5V336.4z M423.3,336.4h0.3v-1.5h1.5v-0.3h-1.5v-1.5h-0.3v1.5h-1.5v0.3h1.5V336.4z M407.4,336.4h0.3v-1.5h1.5v-0.3 h-1.5v-1.5h-0.3v1.5h-1.5v0.3h1.5V336.4z M431.2,344.3h0.3v-1.5h1.5v-0.3h-1.5V341h-0.3v1.5h-1.5v0.3h1.5V344.3z M415.4,344.3h0.3 v-1.5h1.5v-0.3h-1.5V341h-0.3v1.5h-1.5v0.3h1.5V344.3z M439.2,352.3h0.3v-1.5h1.5v-0.3h-1.5V349h-0.3v1.5h-1.5v0.3h1.5V352.3z M328.1,114.4h0.3v-1.5h1.5v-0.3h-1.5v-1.5h-0.3v1.5h-1.5v0.3h1.5V114.4z M336.1,122.3h0.3v-1.5h1.5v-0.3h-1.5V119h-0.3v1.5h-1.5 v0.3h1.5V122.3z M359.9,130.2h0.3v-1.5h1.5v-0.3h-1.5v-1.5h-0.3v1.5h-1.5v0.3h1.5V130.2z M344,130.2h0.3v-1.5h1.5v-0.3h-1.5v-1.5 H344v1.5h-1.5v0.3h1.5V130.2z M328.1,130.2h0.3v-1.5h1.5v-0.3h-1.5v-1.5h-0.3v1.5h-1.5v0.3h1.5V130.2z M367.8,138.2h0.3v-1.5h1.5 v-0.3h-1.5v-1.5h-0.3v1.5h-1.5v0.3h1.5V138.2z M351.9,138.2h0.3v-1.5h1.5v-0.3h-1.5v-1.5h-0.3v1.5h-1.5v0.3h1.5V138.2z M336.1,138.2 h0.3v-1.5h1.5v-0.3h-1.5v-1.5h-0.3v1.5h-1.5v0.3h1.5V138.2z M375.7,146.1h0.3v-1.5h1.5v-0.3H376v-1.5h-0.3v1.5h-1.5v0.3h1.5V146.1z M359.9,146.1h0.3v-1.5h1.5v-0.3h-1.5v-1.5h-0.3v1.5h-1.5v0.3h1.5V146.1z M344,146.1h0.3v-1.5h1.5v-0.3h-1.5v-1.5H344v1.5h-1.5v0.3 h1.5V146.1z M328.1,146.1h0.3v-1.5h1.5v-0.3h-1.5v-1.5h-0.3v1.5h-1.5v0.3h1.5V146.1z M383.6,154h0.3v-1.5h1.5v-0.3H384v-1.5h-0.3 v1.5h-1.5v0.3h1.5V154z M367.8,154h0.3v-1.5h1.5v-0.3h-1.5v-1.5h-0.3v1.5h-1.5v0.3h1.5V154z M351.9,154h0.3v-1.5h1.5v-0.3h-1.5v-1.5 h-0.3v1.5h-1.5v0.3h1.5V154z M336.1,154h0.3v-1.5h1.5v-0.3h-1.5v-1.5h-0.3v1.5h-1.5v0.3h1.5V154z M375.7,162h0.3v-1.5h1.5v-0.3H376 v-1.5h-0.3v1.5h-1.5v0.3h1.5V162z M359.9,162h0.3v-1.5h1.5v-0.3h-1.5v-1.5h-0.3v1.5h-1.5v0.3h1.5V162z M344,162h0.3v-1.5h1.5v-0.3 h-1.5v-1.5H344v1.5h-1.5v0.3h1.5V162z M328.1,162h0.3v-1.5h1.5v-0.3h-1.5v-1.5h-0.3v1.5h-1.5v0.3h1.5V162z M383.6,169.9h0.3v-1.5 h1.5v-0.3H384v-1.5h-0.3v1.5h-1.5v0.3h1.5V169.9z M367.8,169.9h0.3v-1.5h1.5v-0.3h-1.5v-1.5h-0.3v1.5h-1.5v0.3h1.5V169.9z M351.9,169.9h0.3v-1.5h1.5v-0.3h-1.5v-1.5h-0.3v1.5h-1.5v0.3h1.5V169.9z M336.1,169.9h0.3v-1.5h1.5v-0.3h-1.5v-1.5h-0.3v1.5h-1.5 v0.3h1.5V169.9z M375.7,177.8h0.3v-1.5h1.5V176H376v-1.5h-0.3v1.5h-1.5v0.3h1.5V177.8z M359.9,177.8h0.3v-1.5h1.5V176h-1.5v-1.5 h-0.3v1.5h-1.5v0.3h1.5V177.8z M344,177.8h0.3v-1.5h1.5V176h-1.5v-1.5H344v1.5h-1.5v0.3h1.5V177.8z M328.1,177.8h0.3v-1.5h1.5V176 h-1.5v-1.5h-0.3v1.5h-1.5v0.3h1.5V177.8z M383.6,185.7h0.3v-1.5h1.5v-0.3H384v-1.5h-0.3v1.5h-1.5v0.3h1.5V185.7z M367.8,185.7h0.3 v-1.5h1.5v-0.3h-1.5v-1.5h-0.3v1.5h-1.5v0.3h1.5V185.7z M351.9,185.7h0.3v-1.5h1.5v-0.3h-1.5v-1.5h-0.3v1.5h-1.5v0.3h1.5V185.7z M336.1,185.7h0.3v-1.5h1.5v-0.3h-1.5v-1.5h-0.3v1.5h-1.5v0.3h1.5V185.7z M375.7,193.7h0.3v-1.5h1.5v-0.3H376v-1.5h-0.3v1.5h-1.5 v0.3h1.5V193.7z M359.9,193.7h0.3v-1.5h1.5v-0.3h-1.5v-1.5h-0.3v1.5h-1.5v0.3h1.5V193.7z M344,193.7h0.3v-1.5h1.5v-0.3h-1.5v-1.5 H344v1.5h-1.5v0.3h1.5V193.7z M328.1,193.7h0.3v-1.5h1.5v-0.3h-1.5v-1.5h-0.3v1.5h-1.5v0.3h1.5V193.7z M383.6,201.6h0.3v-1.5h1.5 v-0.3H384v-1.5h-0.3v1.5h-1.5v0.3h1.5V201.6z M367.8,201.6h0.3v-1.5h1.5v-0.3h-1.5v-1.5h-0.3v1.5h-1.5v0.3h1.5V201.6z M351.9,201.6 h0.3v-1.5h1.5v-0.3h-1.5v-1.5h-0.3v1.5h-1.5v0.3h1.5V201.6z M336.1,201.6h0.3v-1.5h1.5v-0.3h-1.5v-1.5h-0.3v1.5h-1.5v0.3h1.5V201.6z M375.7,209.5h0.3v-1.5h1.5v-0.3H376v-1.5h-0.3v1.5h-1.5v0.3h1.5V209.5z M359.9,209.5h0.3v-1.5h1.5v-0.3h-1.5v-1.5h-0.3v1.5h-1.5 v0.3h1.5V209.5z M344,209.5h0.3v-1.5h1.5v-0.3h-1.5v-1.5H344v1.5h-1.5v0.3h1.5V209.5z M328.1,209.5h0.3v-1.5h1.5v-0.3h-1.5v-1.5 h-0.3v1.5h-1.5v0.3h1.5V209.5z M383.6,217.5h0.3V216h1.5v-0.3H384v-1.5h-0.3v1.5h-1.5v0.3h1.5V217.5z M367.8,217.5h0.3V216h1.5v-0.3 h-1.5v-1.5h-0.3v1.5h-1.5v0.3h1.5V217.5z M351.9,217.5h0.3V216h1.5v-0.3h-1.5v-1.5h-0.3v1.5h-1.5v0.3h1.5V217.5z M336.1,217.5h0.3 V216h1.5v-0.3h-1.5v-1.5h-0.3v1.5h-1.5v0.3h1.5V217.5z M375.7,225.4h0.3v-1.5h1.5v-0.3H376v-1.5h-0.3v1.5h-1.5v0.3h1.5V225.4z M359.9,225.4h0.3v-1.5h1.5v-0.3h-1.5v-1.5h-0.3v1.5h-1.5v0.3h1.5V225.4z M344,225.4h0.3v-1.5h1.5v-0.3h-1.5v-1.5H344v1.5h-1.5v0.3 h1.5V225.4z M328.1,225.4h0.3v-1.5h1.5v-0.3h-1.5v-1.5h-0.3v1.5h-1.5v0.3h1.5V225.4z M383.6,233.3h0.3v-1.5h1.5v-0.3H384V230h-0.3 v1.5h-1.5v0.3h1.5V233.3z M367.8,233.3h0.3v-1.5h1.5v-0.3h-1.5V230h-0.3v1.5h-1.5v0.3h1.5V233.3z M351.9,233.3h0.3v-1.5h1.5v-0.3 h-1.5V230h-0.3v1.5h-1.5v0.3h1.5V233.3z M336.1,233.3h0.3v-1.5h1.5v-0.3h-1.5V230h-0.3v1.5h-1.5v0.3h1.5V233.3z M375.7,241.3h0.3 v-1.5h1.5v-0.3H376V238h-0.3v1.5h-1.5v0.3h1.5V241.3z M359.9,241.3h0.3v-1.5h1.5v-0.3h-1.5V238h-0.3v1.5h-1.5v0.3h1.5V241.3z M344,241.3h0.3v-1.5h1.5v-0.3h-1.5V238H344v1.5h-1.5v0.3h1.5V241.3z M328.1,241.3h0.3v-1.5h1.5v-0.3h-1.5V238h-0.3v1.5h-1.5v0.3 h1.5V241.3z M383.6,249.2h0.3v-1.5h1.5v-0.3H384v-1.5h-0.3v1.5h-1.5v0.3h1.5V249.2z M367.8,249.2h0.3v-1.5h1.5v-0.3h-1.5v-1.5h-0.3 v1.5h-1.5v0.3h1.5V249.2z M351.9,249.2h0.3v-1.5h1.5v-0.3h-1.5v-1.5h-0.3v1.5h-1.5v0.3h1.5V249.2z M336.1,249.2h0.3v-1.5h1.5v-0.3 h-1.5v-1.5h-0.3v1.5h-1.5v0.3h1.5V249.2z M375.7,257.1h0.3v-1.5h1.5v-0.3H376v-1.5h-0.3v1.5h-1.5v0.3h1.5V257.1z M359.9,257.1h0.3 v-1.5h1.5v-0.3h-1.5v-1.5h-0.3v1.5h-1.5v0.3h1.5V257.1z M344,257.1h0.3v-1.5h1.5v-0.3h-1.5v-1.5H344v1.5h-1.5v0.3h1.5V257.1z M328.1,257.1h0.3v-1.5h1.5v-0.3h-1.5v-1.5h-0.3v1.5h-1.5v0.3h1.5V257.1z M383.6,265h0.3v-1.5h1.5v-0.3H384v-1.5h-0.3v1.5h-1.5v0.3 h1.5V265z M367.8,265h0.3v-1.5h1.5v-0.3h-1.5v-1.5h-0.3v1.5h-1.5v0.3h1.5V265z M351.9,265h0.3v-1.5h1.5v-0.3h-1.5v-1.5h-0.3v1.5 h-1.5v0.3h1.5V265z M336.1,265h0.3v-1.5h1.5v-0.3h-1.5v-1.5h-0.3v1.5h-1.5v0.3h1.5V265z M375.7,273h0.3v-1.5h1.5v-0.3H376v-1.5h-0.3 v1.5h-1.5v0.3h1.5V273z M359.9,273h0.3v-1.5h1.5v-0.3h-1.5v-1.5h-0.3v1.5h-1.5v0.3h1.5V273z M344,273h0.3v-1.5h1.5v-0.3h-1.5v-1.5 H344v1.5h-1.5v0.3h1.5V273z M328.1,273h0.3v-1.5h1.5v-0.3h-1.5v-1.5h-0.3v1.5h-1.5v0.3h1.5V273z M383.6,280.9h0.3v-1.5h1.5v-0.3H384 v-1.5h-0.3v1.5h-1.5v0.3h1.5V280.9z M367.8,280.9h0.3v-1.5h1.5v-0.3h-1.5v-1.5h-0.3v1.5h-1.5v0.3h1.5V280.9z M351.9,280.9h0.3v-1.5 h1.5v-0.3h-1.5v-1.5h-0.3v1.5h-1.5v0.3h1.5V280.9z M336.1,280.9h0.3v-1.5h1.5v-0.3h-1.5v-1.5h-0.3v1.5h-1.5v0.3h1.5V280.9z M375.7,288.8h0.3v-1.5h1.5V287H376v-1.5h-0.3v1.5h-1.5v0.3h1.5V288.8z M359.9,288.8h0.3v-1.5h1.5V287h-1.5v-1.5h-0.3v1.5h-1.5v0.3 h1.5V288.8z M344,288.8h0.3v-1.5h1.5V287h-1.5v-1.5H344v1.5h-1.5v0.3h1.5V288.8z M328.1,288.8h0.3v-1.5h1.5V287h-1.5v-1.5h-0.3v1.5 h-1.5v0.3h1.5V288.8z M383.6,296.8h0.3v-1.5h1.5v-0.3H384v-1.5h-0.3v1.5h-1.5v0.3h1.5V296.8z M367.8,296.8h0.3v-1.5h1.5v-0.3h-1.5 v-1.5h-0.3v1.5h-1.5v0.3h1.5V296.8z M351.9,296.8h0.3v-1.5h1.5v-0.3h-1.5v-1.5h-0.3v1.5h-1.5v0.3h1.5V296.8z M336.1,296.8h0.3v-1.5 h1.5v-0.3h-1.5v-1.5h-0.3v1.5h-1.5v0.3h1.5V296.8z M375.7,304.7h0.3v-1.5h1.5v-0.3H376v-1.5h-0.3v1.5h-1.5v0.3h1.5V304.7z M359.9,304.7h0.3v-1.5h1.5v-0.3h-1.5v-1.5h-0.3v1.5h-1.5v0.3h1.5V304.7z M344,304.7h0.3v-1.5h1.5v-0.3h-1.5v-1.5H344v1.5h-1.5v0.3 h1.5V304.7z M383.6,312.6h0.3v-1.5h1.5v-0.3H384v-1.5h-0.3v1.5h-1.5v0.3h1.5V312.6z M367.8,312.6h0.3v-1.5h1.5v-0.3h-1.5v-1.5h-0.3 v1.5h-1.5v0.3h1.5V312.6z M375.7,320.6h0.3v-1.5h1.5v-0.3H376v-1.5h-0.3v1.5h-1.5v0.3h1.5V320.6z M383.6,328.5h0.3V327h1.5v-0.3H384 v-1.5h-0.3v1.5h-1.5v0.3h1.5V328.5z M280.6,82.7h0.3v-1.5h1.5v-0.3h-1.5v-1.5h-0.3v1.5h-1.5v0.3h1.5V82.7z M264.7,82.7h0.3v-1.5h1.5 v-0.3H265v-1.5h-0.3v1.5h-1.5v0.3h1.5V82.7z M288.5,90.6h0.3v-1.5h1.5v-0.3h-1.5v-1.5h-0.3v1.5H287v0.3h1.5V90.6z M272.6,90.6h0.3 v-1.5h1.5v-0.3H273v-1.5h-0.3v1.5h-1.5v0.3h1.5V90.6z M296.4,98.5h0.3V97h1.5v-0.3h-1.5v-1.5h-0.3v1.5h-1.5V97h1.5V98.5z M280.6,98.5h0.3V97h1.5v-0.3h-1.5v-1.5h-0.3v1.5h-1.5V97h1.5V98.5z M264.7,98.5h0.3V97h1.5v-0.3H265v-1.5h-0.3v1.5h-1.5V97h1.5 V98.5z M320.2,106.4h0.3V105h1.5v-0.3h-1.5v-1.5h-0.3v1.5h-1.5v0.3h1.5V106.4z M304.3,106.4h0.3V105h1.5v-0.3h-1.5v-1.5h-0.3v1.5 h-1.5v0.3h1.5V106.4z M288.5,106.4h0.3V105h1.5v-0.3h-1.5v-1.5h-0.3v1.5H287v0.3h1.5V106.4z M272.6,106.4h0.3V105h1.5v-0.3H273v-1.5 h-0.3v1.5h-1.5v0.3h1.5V106.4z M312.3,114.4h0.3v-1.5h1.5v-0.3h-1.5v-1.5h-0.3v1.5h-1.5v0.3h1.5V114.4z M296.4,114.4h0.3v-1.5h1.5 v-0.3h-1.5v-1.5h-0.3v1.5h-1.5v0.3h1.5V114.4z M280.6,114.4h0.3v-1.5h1.5v-0.3h-1.5v-1.5h-0.3v1.5h-1.5v0.3h1.5V114.4z M264.7,114.4 h0.3v-1.5h1.5v-0.3H265v-1.5h-0.3v1.5h-1.5v0.3h1.5V114.4z M320.2,122.3h0.3v-1.5h1.5v-0.3h-1.5V119h-0.3v1.5h-1.5v0.3h1.5V122.3z M304.3,122.3h0.3v-1.5h1.5v-0.3h-1.5V119h-0.3v1.5h-1.5v0.3h1.5V122.3z M288.5,122.3h0.3v-1.5h1.5v-0.3h-1.5V119h-0.3v1.5H287v0.3 h1.5V122.3z M272.6,122.3h0.3v-1.5h1.5v-0.3H273V119h-0.3v1.5h-1.5v0.3h1.5V122.3z M312.3,130.2h0.3v-1.5h1.5v-0.3h-1.5v-1.5h-0.3 v1.5h-1.5v0.3h1.5V130.2z M296.4,130.2h0.3v-1.5h1.5v-0.3h-1.5v-1.5h-0.3v1.5h-1.5v0.3h1.5V130.2z M280.6,130.2h0.3v-1.5h1.5v-0.3 h-1.5v-1.5h-0.3v1.5h-1.5v0.3h1.5V130.2z M264.7,130.2h0.3v-1.5h1.5v-0.3H265v-1.5h-0.3v1.5h-1.5v0.3h1.5V130.2z M320.2,138.2h0.3 v-1.5h1.5v-0.3h-1.5v-1.5h-0.3v1.5h-1.5v0.3h1.5V138.2z M304.3,138.2h0.3v-1.5h1.5v-0.3h-1.5v-1.5h-0.3v1.5h-1.5v0.3h1.5V138.2z M288.5,138.2h0.3v-1.5h1.5v-0.3h-1.5v-1.5h-0.3v1.5H287v0.3h1.5V138.2z M272.6,138.2h0.3v-1.5h1.5v-0.3H273v-1.5h-0.3v1.5h-1.5v0.3 h1.5V138.2z M312.3,146.1h0.3v-1.5h1.5v-0.3h-1.5v-1.5h-0.3v1.5h-1.5v0.3h1.5V146.1z M296.4,146.1h0.3v-1.5h1.5v-0.3h-1.5v-1.5h-0.3 v1.5h-1.5v0.3h1.5V146.1z M280.6,146.1h0.3v-1.5h1.5v-0.3h-1.5v-1.5h-0.3v1.5h-1.5v0.3h1.5V146.1z M264.7,146.1h0.3v-1.5h1.5v-0.3 H265v-1.5h-0.3v1.5h-1.5v0.3h1.5V146.1z M320.2,154h0.3v-1.5h1.5v-0.3h-1.5v-1.5h-0.3v1.5h-1.5v0.3h1.5V154z M304.3,154h0.3v-1.5 h1.5v-0.3h-1.5v-1.5h-0.3v1.5h-1.5v0.3h1.5V154z M288.5,154h0.3v-1.5h1.5v-0.3h-1.5v-1.5h-0.3v1.5H287v0.3h1.5V154z M272.6,154h0.3 v-1.5h1.5v-0.3H273v-1.5h-0.3v1.5h-1.5v0.3h1.5V154z M312.3,162h0.3v-1.5h1.5v-0.3h-1.5v-1.5h-0.3v1.5h-1.5v0.3h1.5V162z M296.4,162 h0.3v-1.5h1.5v-0.3h-1.5v-1.5h-0.3v1.5h-1.5v0.3h1.5V162z M280.6,162h0.3v-1.5h1.5v-0.3h-1.5v-1.5h-0.3v1.5h-1.5v0.3h1.5V162z M264.7,162h0.3v-1.5h1.5v-0.3H265v-1.5h-0.3v1.5h-1.5v0.3h1.5V162z M320.2,169.9h0.3v-1.5h1.5v-0.3h-1.5v-1.5h-0.3v1.5h-1.5v0.3 h1.5V169.9z M304.3,169.9h0.3v-1.5h1.5v-0.3h-1.5v-1.5h-0.3v1.5h-1.5v0.3h1.5V169.9z M288.5,169.9h0.3v-1.5h1.5v-0.3h-1.5v-1.5h-0.3 v1.5H287v0.3h1.5V169.9z M272.6,169.9h0.3v-1.5h1.5v-0.3H273v-1.5h-0.3v1.5h-1.5v0.3h1.5V169.9z M312.3,177.8h0.3v-1.5h1.5V176h-1.5 v-1.5h-0.3v1.5h-1.5v0.3h1.5V177.8z M296.4,177.8h0.3v-1.5h1.5V176h-1.5v-1.5h-0.3v1.5h-1.5v0.3h1.5V177.8z M280.6,177.8h0.3v-1.5 h1.5V176h-1.5v-1.5h-0.3v1.5h-1.5v0.3h1.5V177.8z M264.7,177.8h0.3v-1.5h1.5V176H265v-1.5h-0.3v1.5h-1.5v0.3h1.5V177.8z M320.2,185.7h0.3v-1.5h1.5v-0.3h-1.5v-1.5h-0.3v1.5h-1.5v0.3h1.5V185.7z M304.3,185.7h0.3v-1.5h1.5v-0.3h-1.5v-1.5h-0.3v1.5h-1.5 v0.3h1.5V185.7z M288.5,185.7h0.3v-1.5h1.5v-0.3h-1.5v-1.5h-0.3v1.5H287v0.3h1.5V185.7z M272.6,185.7h0.3v-1.5h1.5v-0.3H273v-1.5 h-0.3v1.5h-1.5v0.3h1.5V185.7z M312.3,193.7h0.3v-1.5h1.5v-0.3h-1.5v-1.5h-0.3v1.5h-1.5v0.3h1.5V193.7z M296.4,193.7h0.3v-1.5h1.5 v-0.3h-1.5v-1.5h-0.3v1.5h-1.5v0.3h1.5V193.7z M280.6,193.7h0.3v-1.5h1.5v-0.3h-1.5v-1.5h-0.3v1.5h-1.5v0.3h1.5V193.7z M264.7,193.7 h0.3v-1.5h1.5v-0.3H265v-1.5h-0.3v1.5h-1.5v0.3h1.5V193.7z M320.2,201.6h0.3v-1.5h1.5v-0.3h-1.5v-1.5h-0.3v1.5h-1.5v0.3h1.5V201.6z M304.3,201.6h0.3v-1.5h1.5v-0.3h-1.5v-1.5h-0.3v1.5h-1.5v0.3h1.5V201.6z M288.5,201.6h0.3v-1.5h1.5v-0.3h-1.5v-1.5h-0.3v1.5H287 v0.3h1.5V201.6z M272.6,201.6h0.3v-1.5h1.5v-0.3H273v-1.5h-0.3v1.5h-1.5v0.3h1.5V201.6z M312.3,209.5h0.3v-1.5h1.5v-0.3h-1.5v-1.5 h-0.3v1.5h-1.5v0.3h1.5V209.5z M296.4,209.5h0.3v-1.5h1.5v-0.3h-1.5v-1.5h-0.3v1.5h-1.5v0.3h1.5V209.5z M280.6,209.5h0.3v-1.5h1.5 v-0.3h-1.5v-1.5h-0.3v1.5h-1.5v0.3h1.5V209.5z M264.7,209.5h0.3v-1.5h1.5v-0.3H265v-1.5h-0.3v1.5h-1.5v0.3h1.5V209.5z M320.2,217.5 h0.3V216h1.5v-0.3h-1.5v-1.5h-0.3v1.5h-1.5v0.3h1.5V217.5z M304.3,217.5h0.3V216h1.5v-0.3h-1.5v-1.5h-0.3v1.5h-1.5v0.3h1.5V217.5z M288.5,217.5h0.3V216h1.5v-0.3h-1.5v-1.5h-0.3v1.5H287v0.3h1.5V217.5z M272.6,217.5h0.3V216h1.5v-0.3H273v-1.5h-0.3v1.5h-1.5v0.3 h1.5V217.5z M312.3,225.4h0.3v-1.5h1.5v-0.3h-1.5v-1.5h-0.3v1.5h-1.5v0.3h1.5V225.4z M296.4,225.4h0.3v-1.5h1.5v-0.3h-1.5v-1.5h-0.3 v1.5h-1.5v0.3h1.5V225.4z M280.6,225.4h0.3v-1.5h1.5v-0.3h-1.5v-1.5h-0.3v1.5h-1.5v0.3h1.5V225.4z M264.7,225.4h0.3v-1.5h1.5v-0.3 H265v-1.5h-0.3v1.5h-1.5v0.3h1.5V225.4z M320.2,233.3h0.3v-1.5h1.5v-0.3h-1.5V230h-0.3v1.5h-1.5v0.3h1.5V233.3z M304.3,233.3h0.3 v-1.5h1.5v-0.3h-1.5V230h-0.3v1.5h-1.5v0.3h1.5V233.3z M288.5,233.3h0.3v-1.5h1.5v-0.3h-1.5V230h-0.3v1.5H287v0.3h1.5V233.3z M272.6,233.3h0.3v-1.5h1.5v-0.3H273V230h-0.3v1.5h-1.5v0.3h1.5V233.3z M312.3,241.3h0.3v-1.5h1.5v-0.3h-1.5V238h-0.3v1.5h-1.5v0.3 h1.5V241.3z M296.4,241.3h0.3v-1.5h1.5v-0.3h-1.5V238h-0.3v1.5h-1.5v0.3h1.5V241.3z M280.6,241.3h0.3v-1.5h1.5v-0.3h-1.5V238h-0.3 v1.5h-1.5v0.3h1.5V241.3z M264.7,241.3h0.3v-1.5h1.5v-0.3H265V238h-0.3v1.5h-1.5v0.3h1.5V241.3z M320.2,249.2h0.3v-1.5h1.5v-0.3 h-1.5v-1.5h-0.3v1.5h-1.5v0.3h1.5V249.2z M304.3,249.2h0.3v-1.5h1.5v-0.3h-1.5v-1.5h-0.3v1.5h-1.5v0.3h1.5V249.2z M288.5,249.2h0.3 v-1.5h1.5v-0.3h-1.5v-1.5h-0.3v1.5H287v0.3h1.5V249.2z M272.6,249.2h0.3v-1.5h1.5v-0.3H273v-1.5h-0.3v1.5h-1.5v0.3h1.5V249.2z M312.3,257.1h0.3v-1.5h1.5v-0.3h-1.5v-1.5h-0.3v1.5h-1.5v0.3h1.5V257.1z M296.4,257.1h0.3v-1.5h1.5v-0.3h-1.5v-1.5h-0.3v1.5h-1.5 v0.3h1.5V257.1z M280.6,257.1h0.3v-1.5h1.5v-0.3h-1.5v-1.5h-0.3v1.5h-1.5v0.3h1.5V257.1z M264.7,257.1h0.3v-1.5h1.5v-0.3H265v-1.5 h-0.3v1.5h-1.5v0.3h1.5V257.1z M320.2,265h0.3v-1.5h1.5v-0.3h-1.5v-1.5h-0.3v1.5h-1.5v0.3h1.5V265z M304.3,265h0.3v-1.5h1.5v-0.3 h-1.5v-1.5h-0.3v1.5h-1.5v0.3h1.5V265z M288.5,265h0.3v-1.5h1.5v-0.3h-1.5v-1.5h-0.3v1.5H287v0.3h1.5V265z M312.3,273h0.3v-1.5h1.5 v-0.3h-1.5v-1.5h-0.3v1.5h-1.5v0.3h1.5V273z M296.4,273h0.3v-1.5h1.5v-0.3h-1.5v-1.5h-0.3v1.5h-1.5v0.3h1.5V273z M320.2,280.9h0.3 v-1.5h1.5v-0.3h-1.5v-1.5h-0.3v1.5h-1.5v0.3h1.5V280.9z M304.3,280.9h0.3v-1.5h1.5v-0.3h-1.5v-1.5h-0.3v1.5h-1.5v0.3h1.5V280.9z M209.2,43h0.3v-1.5h1.5v-0.3h-1.5v-1.5h-0.3v1.5h-1.5v0.3h1.5V43z M217.1,50.9h0.3v-1.5h1.5v-0.3h-1.5v-1.5h-0.3v1.5h-1.5v0.3h1.5 V50.9z M199.8,49.5h1.5v1.5h0.3v-1.5h1.5v-0.3h-1.5v-1.5h-0.3v1.5h-1.5V49.5z M225,58.9h0.3v-1.5h1.5v-0.3h-1.5v-1.5H225v1.5h-1.5 v0.3h1.5V58.9z M209.2,58.9h0.3v-1.5h1.5v-0.3h-1.5v-1.5h-0.3v1.5h-1.5v0.3h1.5V58.9z M248.8,66.8h0.3v-1.5h1.5V65h-1.5v-1.5h-0.3 V65h-1.5v0.3h1.5V66.8z M233,66.8h0.3v-1.5h1.5V65h-1.5v-1.5H233V65h-1.5v0.3h1.5V66.8z M217.1,66.8h0.3v-1.5h1.5V65h-1.5v-1.5h-0.3 V65h-1.5v0.3h1.5V66.8z M201.6,63.5h-0.3V65h-1.5v0.3h1.5v1.5h0.3v-1.5h1.5V65h-1.5V63.5z M256.8,74.7h0.3v-1.5h1.5v-0.3h-1.5v-1.5 h-0.3v1.5h-1.5v0.3h1.5V74.7z M240.9,74.7h0.3v-1.5h1.5v-0.3h-1.5v-1.5h-0.3v1.5h-1.5v0.3h1.5V74.7z M225,74.7h0.3v-1.5h1.5v-0.3 h-1.5v-1.5H225v1.5h-1.5v0.3h1.5V74.7z M209.2,74.7h0.3v-1.5h1.5v-0.3h-1.5v-1.5h-0.3v1.5h-1.5v0.3h1.5V74.7z M248.8,82.7h0.3v-1.5 h1.5v-0.3h-1.5v-1.5h-0.3v1.5h-1.5v0.3h1.5V82.7z M233,82.7h0.3v-1.5h1.5v-0.3h-1.5v-1.5H233v1.5h-1.5v0.3h1.5V82.7z M217.1,82.7 h0.3v-1.5h1.5v-0.3h-1.5v-1.5h-0.3v1.5h-1.5v0.3h1.5V82.7z M201.6,79.4h-0.3v1.5h-1.5v0.3h1.5v1.5h0.3v-1.5h1.5v-0.3h-1.5V79.4z M256.8,90.6h0.3v-1.5h1.5v-0.3h-1.5v-1.5h-0.3v1.5h-1.5v0.3h1.5V90.6z M240.9,90.6h0.3v-1.5h1.5v-0.3h-1.5v-1.5h-0.3v1.5h-1.5v0.3 h1.5V90.6z M225,90.6h0.3v-1.5h1.5v-0.3h-1.5v-1.5H225v1.5h-1.5v0.3h1.5V90.6z M209.2,90.6h0.3v-1.5h1.5v-0.3h-1.5v-1.5h-0.3v1.5 h-1.5v0.3h1.5V90.6z M248.8,98.5h0.3V97h1.5v-0.3h-1.5v-1.5h-0.3v1.5h-1.5V97h1.5V98.5z M233,98.5h0.3V97h1.5v-0.3h-1.5v-1.5H233 v1.5h-1.5V97h1.5V98.5z M217.1,98.5h0.3V97h1.5v-0.3h-1.5v-1.5h-0.3v1.5h-1.5V97h1.5V98.5z M201.6,95.2h-0.3v1.5h-1.5V97h1.5v1.5 h0.3V97h1.5v-0.3h-1.5V95.2z M256.8,106.4h0.3V105h1.5v-0.3h-1.5v-1.5h-0.3v1.5h-1.5v0.3h1.5V106.4z M240.9,106.4h0.3V105h1.5v-0.3 h-1.5v-1.5h-0.3v1.5h-1.5v0.3h1.5V106.4z M225,106.4h0.3V105h1.5v-0.3h-1.5v-1.5H225v1.5h-1.5v0.3h1.5V106.4z M209.2,106.4h0.3V105 h1.5v-0.3h-1.5v-1.5h-0.3v1.5h-1.5v0.3h1.5V106.4z M248.8,114.4h0.3v-1.5h1.5v-0.3h-1.5v-1.5h-0.3v1.5h-1.5v0.3h1.5V114.4z M233,114.4h0.3v-1.5h1.5v-0.3h-1.5v-1.5H233v1.5h-1.5v0.3h1.5V114.4z M217.1,114.4h0.3v-1.5h1.5v-0.3h-1.5v-1.5h-0.3v1.5h-1.5v0.3 h1.5V114.4z M201.6,111.1h-0.3v1.5h-1.5v0.3h1.5v1.5h0.3v-1.5h1.5v-0.3h-1.5V111.1z M256.8,122.3h0.3v-1.5h1.5v-0.3h-1.5V119h-0.3 v1.5h-1.5v0.3h1.5V122.3z M240.9,122.3h0.3v-1.5h1.5v-0.3h-1.5V119h-0.3v1.5h-1.5v0.3h1.5V122.3z M225,122.3h0.3v-1.5h1.5v-0.3h-1.5 V119H225v1.5h-1.5v0.3h1.5V122.3z M209.2,122.3h0.3v-1.5h1.5v-0.3h-1.5V119h-0.3v1.5h-1.5v0.3h1.5V122.3z M248.8,130.2h0.3v-1.5h1.5 v-0.3h-1.5v-1.5h-0.3v1.5h-1.5v0.3h1.5V130.2z M233,130.2h0.3v-1.5h1.5v-0.3h-1.5v-1.5H233v1.5h-1.5v0.3h1.5V130.2z M217.1,130.2 h0.3v-1.5h1.5v-0.3h-1.5v-1.5h-0.3v1.5h-1.5v0.3h1.5V130.2z M201.6,126.9h-0.3v1.5h-1.5v0.3h1.5v1.5h0.3v-1.5h1.5v-0.3h-1.5V126.9z M256.8,138.2h0.3v-1.5h1.5v-0.3h-1.5v-1.5h-0.3v1.5h-1.5v0.3h1.5V138.2z M240.9,138.2h0.3v-1.5h1.5v-0.3h-1.5v-1.5h-0.3v1.5h-1.5 v0.3h1.5V138.2z M225,138.2h0.3v-1.5h1.5v-0.3h-1.5v-1.5H225v1.5h-1.5v0.3h1.5V138.2z M209.2,138.2h0.3v-1.5h1.5v-0.3h-1.5v-1.5 h-0.3v1.5h-1.5v0.3h1.5V138.2z M248.8,146.1h0.3v-1.5h1.5v-0.3h-1.5v-1.5h-0.3v1.5h-1.5v0.3h1.5V146.1z M233,146.1h0.3v-1.5h1.5 v-0.3h-1.5v-1.5H233v1.5h-1.5v0.3h1.5V146.1z M217.1,146.1h0.3v-1.5h1.5v-0.3h-1.5v-1.5h-0.3v1.5h-1.5v0.3h1.5V146.1z M201.6,142.8 h-0.3v1.5h-1.5v0.3h1.5v1.5h0.3v-1.5h1.5v-0.3h-1.5V142.8z M256.8,154h0.3v-1.5h1.5v-0.3h-1.5v-1.5h-0.3v1.5h-1.5v0.3h1.5V154z M240.9,154h0.3v-1.5h1.5v-0.3h-1.5v-1.5h-0.3v1.5h-1.5v0.3h1.5V154z M225,154h0.3v-1.5h1.5v-0.3h-1.5v-1.5H225v1.5h-1.5v0.3h1.5 V154z M209.2,154h0.3v-1.5h1.5v-0.3h-1.5v-1.5h-0.3v1.5h-1.5v0.3h1.5V154z M248.8,162h0.3v-1.5h1.5v-0.3h-1.5v-1.5h-0.3v1.5h-1.5 v0.3h1.5V162z M233,162h0.3v-1.5h1.5v-0.3h-1.5v-1.5H233v1.5h-1.5v0.3h1.5V162z M217.1,162h0.3v-1.5h1.5v-0.3h-1.5v-1.5h-0.3v1.5 h-1.5v0.3h1.5V162z M201.6,158.7h-0.3v1.5h-1.5v0.3h1.5v1.5h0.3v-1.5h1.5v-0.3h-1.5V158.7z M256.8,169.9h0.3v-1.5h1.5v-0.3h-1.5 v-1.5h-0.3v1.5h-1.5v0.3h1.5V169.9z M240.9,169.9h0.3v-1.5h1.5v-0.3h-1.5v-1.5h-0.3v1.5h-1.5v0.3h1.5V169.9z M225,169.9h0.3v-1.5 h1.5v-0.3h-1.5v-1.5H225v1.5h-1.5v0.3h1.5V169.9z M209.2,169.9h0.3v-1.5h1.5v-0.3h-1.5v-1.5h-0.3v1.5h-1.5v0.3h1.5V169.9z M248.8,177.8h0.3v-1.5h1.5V176h-1.5v-1.5h-0.3v1.5h-1.5v0.3h1.5V177.8z M233,177.8h0.3v-1.5h1.5V176h-1.5v-1.5H233v1.5h-1.5v0.3 h1.5V177.8z M217.1,177.8h0.3v-1.5h1.5V176h-1.5v-1.5h-0.3v1.5h-1.5v0.3h1.5V177.8z M201.6,174.5h-0.3v1.5h-1.5v0.3h1.5v1.5h0.3 v-1.5h1.5V176h-1.5V174.5z M256.8,185.7h0.3v-1.5h1.5v-0.3h-1.5v-1.5h-0.3v1.5h-1.5v0.3h1.5V185.7z M240.9,185.7h0.3v-1.5h1.5v-0.3 h-1.5v-1.5h-0.3v1.5h-1.5v0.3h1.5V185.7z M225,185.7h0.3v-1.5h1.5v-0.3h-1.5v-1.5H225v1.5h-1.5v0.3h1.5V185.7z M209.2,185.7h0.3 v-1.5h1.5v-0.3h-1.5v-1.5h-0.3v1.5h-1.5v0.3h1.5V185.7z M248.8,193.7h0.3v-1.5h1.5v-0.3h-1.5v-1.5h-0.3v1.5h-1.5v0.3h1.5V193.7z M233,193.7h0.3v-1.5h1.5v-0.3h-1.5v-1.5H233v1.5h-1.5v0.3h1.5V193.7z M217.1,193.7h0.3v-1.5h1.5v-0.3h-1.5v-1.5h-0.3v1.5h-1.5v0.3 h1.5V193.7z M201.6,190.4h-0.3v1.5h-1.5v0.3h1.5v1.5h0.3v-1.5h1.5v-0.3h-1.5V190.4z M256.8,201.6h0.3v-1.5h1.5v-0.3h-1.5v-1.5h-0.3 v1.5h-1.5v0.3h1.5V201.6z M240.9,201.6h0.3v-1.5h1.5v-0.3h-1.5v-1.5h-0.3v1.5h-1.5v0.3h1.5V201.6z M225,201.6h0.3v-1.5h1.5v-0.3 h-1.5v-1.5H225v1.5h-1.5v0.3h1.5V201.6z M209.2,201.6h0.3v-1.5h1.5v-0.3h-1.5v-1.5h-0.3v1.5h-1.5v0.3h1.5V201.6z M248.8,209.5h0.3 v-1.5h1.5v-0.3h-1.5v-1.5h-0.3v1.5h-1.5v0.3h1.5V209.5z M233,209.5h0.3v-1.5h1.5v-0.3h-1.5v-1.5H233v1.5h-1.5v0.3h1.5V209.5z M217.1,209.5h0.3v-1.5h1.5v-0.3h-1.5v-1.5h-0.3v1.5h-1.5v0.3h1.5V209.5z M201.6,206.2h-0.3v1.5h-1.5v0.3h1.5v1.5h0.3v-1.5h1.5v-0.3 h-1.5V206.2z M256.8,217.5h0.3V216h1.5v-0.3h-1.5v-1.5h-0.3v1.5h-1.5v0.3h1.5V217.5z M240.9,217.5h0.3V216h1.5v-0.3h-1.5v-1.5h-0.3 v1.5h-1.5v0.3h1.5V217.5z M225,217.5h0.3V216h1.5v-0.3h-1.5v-1.5H225v1.5h-1.5v0.3h1.5V217.5z M209.2,217.5h0.3V216h1.5v-0.3h-1.5 v-1.5h-0.3v1.5h-1.5v0.3h1.5V217.5z M248.8,225.4h0.3v-1.5h1.5v-0.3h-1.5v-1.5h-0.3v1.5h-1.5v0.3h1.5V225.4z M233,225.4h0.3v-1.5 h1.5v-0.3h-1.5v-1.5H233v1.5h-1.5v0.3h1.5V225.4z M217.1,225.4h0.3v-1.5h1.5v-0.3h-1.5v-1.5h-0.3v1.5h-1.5v0.3h1.5V225.4z M256.8,233.3h0.3v-1.5h1.5v-0.3h-1.5V230h-0.3v1.5h-1.5v0.3h1.5V233.3z M240.9,233.3h0.3v-1.5h1.5v-0.3h-1.5V230h-0.3v1.5h-1.5v0.3 h1.5V233.3z M225,233.3h0.3v-1.5h1.5v-0.3h-1.5V230H225v1.5h-1.5v0.3h1.5V233.3z M248.8,241.3h0.3v-1.5h1.5v-0.3h-1.5V238h-0.3v1.5 h-1.5v0.3h1.5V241.3z M233,241.3h0.3v-1.5h1.5v-0.3h-1.5V238H233v1.5h-1.5v0.3h1.5V241.3z M256.8,249.2h0.3v-1.5h1.5v-0.3h-1.5v-1.5 h-0.3v1.5h-1.5v0.3h1.5V249.2z M185.7,31.8h-0.3v1.5h-1.5v0.3h1.5v1.5h0.3v-1.5h1.5v-0.3h-1.5V31.8z M193.7,39.7h-0.3v1.5h-1.5v0.3 h1.5V43h0.3v-1.5h1.5v-0.3h-1.5V39.7z M185.7,47.6h-0.3v1.5h-1.5v0.3h1.5v1.5h0.3v-1.5h1.5v-0.3h-1.5V47.6z M193.7,55.6h-0.3v1.5 h-1.5v0.3h1.5v1.5h0.3v-1.5h1.5v-0.3h-1.5V55.6z M185.7,63.5h-0.3V65h-1.5v0.3h1.5v1.5h0.3v-1.5h1.5V65h-1.5V63.5z M193.7,71.4h-0.3 v1.5h-1.5v0.3h1.5v1.5h0.3v-1.5h1.5v-0.3h-1.5V71.4z M185.7,79.4h-0.3v1.5h-1.5v0.3h1.5v1.5h0.3v-1.5h1.5v-0.3h-1.5V79.4z M193.7,87.3h-0.3v1.5h-1.5v0.3h1.5v1.5h0.3v-1.5h1.5v-0.3h-1.5V87.3z M185.7,95.2h-0.3v1.5h-1.5V97h1.5v1.5h0.3V97h1.5v-0.3h-1.5 V95.2z M193.7,103.1h-0.3v1.5h-1.5v0.3h1.5v1.5h0.3V105h1.5v-0.3h-1.5V103.1z M185.7,111.1h-0.3v1.5h-1.5v0.3h1.5v1.5h0.3v-1.5h1.5 v-0.3h-1.5V111.1z M193.7,119h-0.3v1.5h-1.5v0.3h1.5v1.5h0.3v-1.5h1.5v-0.3h-1.5V119z M185.7,126.9h-0.3v1.5h-1.5v0.3h1.5v1.5h0.3 v-1.5h1.5v-0.3h-1.5V126.9z M193.7,134.9h-0.3v1.5h-1.5v0.3h1.5v1.5h0.3v-1.5h1.5v-0.3h-1.5V134.9z M185.7,142.8h-0.3v1.5h-1.5v0.3 h1.5v1.5h0.3v-1.5h1.5v-0.3h-1.5V142.8z M193.7,150.7h-0.3v1.5h-1.5v0.3h1.5v1.5h0.3v-1.5h1.5v-0.3h-1.5V150.7z M185.7,158.7h-0.3 v1.5h-1.5v0.3h1.5v1.5h0.3v-1.5h1.5v-0.3h-1.5V158.7z M193.7,166.6h-0.3v1.5h-1.5v0.3h1.5v1.5h0.3v-1.5h1.5v-0.3h-1.5V166.6z M185.7,174.5h-0.3v1.5h-1.5v0.3h1.5v1.5h0.3v-1.5h1.5V176h-1.5V174.5z M193.7,182.4h-0.3v1.5h-1.5v0.3h1.5v1.5h0.3v-1.5h1.5v-0.3 h-1.5V182.4z M185.7,190.4h-0.3v1.5h-1.5v0.3h1.5v1.5h0.3v-1.5h1.5v-0.3h-1.5V190.4z M193.7,198.3h-0.3v1.5h-1.5v0.3h1.5v1.5h0.3 v-1.5h1.5v-0.3h-1.5V198.3z M185.7,206.2h-0.3v1.5h-1.5v0.3h1.5v1.5h0.3v-1.5h1.5v-0.3h-1.5V206.2z M193.7,214.2h-0.3v1.5h-1.5v0.3 h1.5v1.5h0.3V216h1.5v-0.3h-1.5V214.2z" fill="#2b4b82"/></g></svg>