<?xml version="1.0" encoding="UTF-8" standalone="no"?><svg xmlns="http://www.w3.org/2000/svg" xmlns:xlink="http://www.w3.org/1999/xlink" fill="#000000" height="307.7" preserveAspectRatio="xMidYMid meet" version="1" viewBox="0.0 97.3 500.5 307.7" width="500.5" zoomAndPan="magnify"><g id="change1_1"><path d="M497.7,290.6v18.8c-1,4.5-4.9,8.9-11,12.4l-128.3,74.1c-7.6,4.4-17.7,6.9-27.7,6.9 c-8.2,0-15.6-1.7-20.9-4.8L10.1,224.9c-4.9-2.8-7.5-6.4-7.6-10.4v-19.1c0,4,2.7,7.8,7.6,10.6l299.7,173.1c5.3,3.1,12.8,4.8,20.9,4.8 c10,0,20.1-2.5,27.7-6.9l128.3-74.1C492.9,299.4,496.7,295,497.7,290.6z" fill="#f0abc1"/></g><g id="change2_1"><path d="M471.3,299.3l-121.5,70.2c-9.7,5.6-24.3,6.2-32.7,1.4L24.8,202.1c-8.4-4.8-7.3-13.3,2.3-18.9 L148.6,113c9.7-5.6,24.3-6.2,32.7-1.4l292.3,168.7C482,285.3,481,293.8,471.3,299.3z" fill="#f7b4a7"/></g><g id="change3_1"><path d="M490.4,277.7L190.7,104.6c-5.3-3.1-12.8-4.8-20.9-4.8c-10,0-20.1,2.5-27.7,6.9L13.7,180.8 c-7.1,4.2-11.2,9.5-11.2,14.6c0,4.1,2.7,7.8,7.6,10.7l299.7,173.1c5.3,3.1,12.8,4.8,20.9,4.8c10,0,20.1-2.5,27.7-6.9L486.7,303 c7.2-4.1,11.3-9.4,11.3-14.5C498,284.3,495.3,280.5,490.4,277.7z M471.3,299.3l-121.5,70.2c-9.7,5.6-24.3,6.2-32.7,1.4L24.8,202.1 c-8.4-4.8-7.3-13.3,2.3-18.9L148.6,113c9.7-5.6,24.3-6.2,32.7-1.4l292.3,168.7C482,285.3,481,293.8,471.3,299.3z" fill="#94ddde"/></g><g id="change4_1"><path d="M500.1,285.8v-0.7H500c-1-3.6-3.7-7-8.4-9.7l-299.7-173c-5.9-3.4-13.9-5.1-22.2-5.1c-10,0-20.6,2.4-28.9,7.2 L12.5,178.6c-7,4-11,9-12.1,13.9H0v21.9c0.1,4.7,3,9.1,8.8,12.5l299.7,173c5.9,3.4,13.9,5.1,22.2,5.1c10,0,20.6-2.4,28.9-7.2 l128.3-74.1c7.1-4.1,11.2-9.2,12.2-14.2v-18.9C500.5,289.1,500.5,287.3,500.1,285.8z M495.2,309.1c-0.9,3.7-4.5,7.5-9.8,10.5 l-128.3,74.1c-7.2,4.2-16.8,6.6-26.4,6.6c-7.8,0-14.8-1.6-19.7-4.4l-299.7-173c-2.8-1.6-6.3-4.4-6.4-8.2v-9.2c1.1,1,2.4,2,3.9,2.8 l299.7,173c5.9,3.4,13.9,5.1,22.2,5.1c10,0,20.6-2.4,28.9-7.2l128.3-74.1c3-1.7,5.4-3.6,7.3-5.6L495.2,309.1L495.2,309.1z M485.5,300.6l-128.3,74.1c-7.2,4.2-16.8,6.6-26.4,6.6c-7.8,0-14.8-1.6-19.7-4.4l-299.7-173c-2.9-1.7-6.4-4.5-6.4-8.5 c-0.1-4.2,3.7-8.8,10-12.4l128.3-74.1c7.2-4.2,16.8-6.6,26.4-6.6c7.8,0,14.8,1.6,19.7,4.4l299.7,173c2.9,1.7,6.4,4.5,6.4,8.5 C495.5,292.3,491.7,296.9,485.5,300.6z M473.6,280.4L289.4,174l0,0h-0.1l-107.9-62.3c-3.8-2.2-8.9-3.3-14.2-3.3 c-6.4,0-13.2,1.6-18.5,4.6L27.2,183.1c-9.7,5.6-10.7,14-2.3,18.9l292.2,168.7c3.8,2.2,8.9,3.3,14.2,3.3c6.4,0,13.2-1.6,18.5-4.6 l121.5-70.2C480.9,293.6,482,285.3,473.6,280.4z M462.8,280l2.2,1.3h-2.2V280z M115.2,248.6l-2.1-1.2h2.1V248.6z M428.1,318.5v-1.8 h3.1L428.1,318.5z M468.8,295.1l-37.4,21.6v-0.6h-3.3v-3.3h-0.7v3.3h-3.3v0.7h3.3v2.2l-80.1,46.1c-1.8,1-3.8,1.8-5.9,2.5v-2.8h-0.7 v3.1c-0.2,0.1-0.5,0.1-0.7,0.2h-2.5v0.5c-2,0.4-4.1,0.6-6.1,0.6c-4.7,0-8.8-0.9-11.7-2.6l-27-15.6v-0.3h-0.5l-2.8-1.6v-1.6h-0.7v1.2 l-85.4-49.3h2.7v-0.7h-3.3v-3.3H202v3.2L116,249v-1.6h3.3v-0.7H116v-3.3h-0.7v3.3H112v0.1L46.6,209v-0.3h-0.4l-17.5-10.1h0.6v-3.3 h3.3v-0.7h-3.3v-3.3h-0.7v3.3h-3.3v0.7h3.3v3.2l-1.1-0.7c-1.2-0.7-3.2-2.1-3.2-3.9c0-1.6,1.5-4.1,5.5-6.4l16.2-9.4v3h0.7v-3.3h3.2 l6.9,1.7c4.9,1.2,10.5,0.6,14.2-1.5l27-15.6v1.3h0.7v-1.6l2.7-1.5h0.6v-0.3l37.8-21.8c3.7-2.1,4.8-5.4,2.7-8.2l-4.1-5.4l12.9-7.4 c4.4-2.5,10.2-4,16-4c4.7,0,8.8,0.9,11.7,2.6l40.4,23.4v3.1H216v0.7h3.3v3.3h0.7v-3.3h3.3v-0.7H220v-2.7l65.4,37.8v0.4h0.6l2.6,1.5 v1.7h0.7V180l85.6,49.4h-2.8v0.7h3.3v3.3h0.7v-3.3h0.1l85.9,49.6v1.7h-3.3v0.7h3.3v3.3h0.7v-3.3h3.3V282l4.9,2.8 c1.2,0.7,3.2,2.1,3.2,3.9C474.4,290.1,472.9,292.6,468.8,295.1z M439.5,293.8c1.4,2.4,0.6,5.4-1.8,6.7l-61.6,35.6v1.3h-0.7v-0.9 l-27.2,15.6c-0.8,0.4-1.6,0.7-2.5,0.7c-1.7,0-3.3-0.9-4.3-2.5c-1.4-2.4-0.6-5.4,1.8-6.7l46.6-26.9h-0.3V316h1.6l1.7-1v-2.3h0.7v1.9 l39.3-22.7C435.2,290.6,438.2,291.3,439.5,293.8z M427.4,282h-3.3v-0.7h3.3v-3.2h0.7v3.3h3.3v0.7h-3.3v3.3h-0.7V282z M445.5,298.7 h3.3v0.7h-3.3v3.3h-0.7v-3.3h-3.3v-0.7h3.3v-3.3h0.7V298.7z M306.7,194.6h3.3v0.7h-3.3v3.3H306v-3.3h-3.3v-0.7h3.3v-3.3h0.7V194.6z M324,211.9h3.3v0.7H324v3.3h-0.7v-3.3H320v-0.7h3.3v-3.3h0.7V211.9z M289.4,211.9h3.3v0.7h-3.3v3.3h-0.7v-3.3h-3.3v-0.7h3.3v-3.3 h0.7V211.9z M340.7,230h-3.3v-0.7h3.3V226h0.7v3.3h3.3v0.7h-3.3v3.3h-0.7V230z M306.7,229.3h3.3v0.7h-3.3v3.3H306V230h-3.3v-0.7h3.3 V226h0.7V229.3z M392.7,247.3h-3.3v-0.7h3.3v-3.3h0.7v3.3h3.3v0.7h-3.3v3.3h-0.7V247.3z M358,247.3h-3.3v-0.7h3.3v-3.3h0.7v3.3h3.3 v0.7h-3.3v3.3H358V247.3z M324,246.6h3.3v0.7H324v3.3h-0.7v-3.3H320v-0.7h3.3v-3.3h0.7V246.6z M289.4,246.6h3.3v0.7h-3.3v3.3h-0.7 v-3.3h-3.3v-0.7h3.3v-3.3h0.7V246.6z M410.1,264.7h-3.3V264h3.3v-3.3h0.7v3.3h3.3v0.7h-3.3v3.3h-0.7V264.7z M375.4,264.7h-3.3V264 h3.3v-3.3h0.7v3.3h3.3v0.7h-3.3v3.3h-0.7V264.7z M340.7,264.7h-3.3V264h3.3v-3.3h0.7v3.3h3.3v0.7h-3.3v3.3h-0.7V264.7z M306.7,264 h3.3v0.7h-3.3v3.3H306v-3.3h-3.3V264h3.3v-3.3h0.7V264z M392.7,282h-3.3v-0.7h3.3v-3.2h0.7v3.3h3.3v0.7h-3.3v3.3h-0.7V282z M358,282 h-3.3v-0.7h3.3v-3.2h0.7v3.3h3.3v0.7h-3.3v3.3H358V282z M324,281.3h3.3v0.7H324v3.3h-0.7V282H320v-0.7h3.3v-3.2h0.7V281.3z M289.4,281.3h3.3v0.7h-3.3v3.3h-0.7V282h-3.3v-0.7h3.3v-3.2h0.7V281.3z M410.1,299.4h-3.3v-0.7h3.3v-3.3h0.7v3.3h3.3v0.7h-3.3v3.3 h-0.7V299.4z M375.4,299.4h-3.3v-0.7h3.3v-3.3h0.7v3.3h3.3v0.7h-3.3v3.3h-0.7V299.4z M340.7,299.4h-3.3v-0.7h3.3v-3.3h0.7v3.3h3.3 v0.7h-3.3v3.3h-0.7V299.4z M306.7,298.7h3.3v0.7h-3.3v3.3H306v-3.3h-3.3v-0.7h3.3v-3.3h0.7V298.7z M358,316.7h-3.3V316h3.3v-3.3h0.7 v3.3h3.3v0.7h-3.3v3.3H358V316.7z M324,316h3.3v0.7H324v3.3h-0.7v-3.3H320V316h3.3v-3.3h0.7V316z M289.4,316h3.3v0.7h-3.3v3.3h-0.7 v-3.3h-3.3V316h3.3v-3.3h0.7V316z M340.7,337.3v-3.2h-3.3v-0.7h3.3v-3.3h0.7v3.3h3.3v0.7h-3.3v3.3L340.7,337.3L340.7,337.3z M306.7,333.4h3.3v0.7h-3.3v3.3H306v-3.3h-3.3v-0.7h3.3v-3.3h0.7V333.4z M358.7,350.7h3.3v0.7h-3.3v3.3H358v-3.3h-3.3v-0.7h3.3v-3.3 h0.7V350.7z M324,350.7h3.3v0.7H324v3.3h-0.7v-3.3H320v-0.7h3.3v-3.3h0.7V350.7z M167.9,125.2h3.3v0.7h-3.3v3.3h-0.7v-3.3h-3.3v-0.7 h3.3v-3.3h0.7V125.2z M185.3,142.5h3.3v0.7h-3.3v3.3h-0.7v-3.3h-3.3v-0.7h3.3v-3.3h0.7V142.5z M150.6,142.5h3.3v0.7h-3.3v3.3h-0.7 v-3.3h-3.3v-0.7h3.3v-3.3h0.7V142.5z M237.3,159.9h3.3v0.7h-3.3v3.3h-0.7v-3.3h-3.3v-0.7h3.3v-3.3h0.7V159.9z M202.6,159.9h3.3v0.7 h-3.3v3.3h-0.7v-3.3h-3.3v-0.7h3.3v-3.3h0.7V159.9z M167.9,159.9h3.3v0.7h-3.3v3.3h-0.7v-3.3h-3.3v-0.7h3.3v-3.3h0.7V159.9z M254.7,177.2h3.3v0.7h-3.3v3.3H254v-3.3h-3.3v-0.7h3.3v-3.3h0.7V177.2z M220,177.2h3.3v0.7H220v3.3h-0.7v-3.3H216v-0.7h3.3v-3.3 h0.7V177.2z M185.3,177.2h3.3v0.7h-3.3v3.3h-0.7v-3.3h-3.3v-0.7h3.3v-3.3h0.7V177.2z M150.6,177.2h3.3v0.7h-3.3v3.3h-0.7v-3.3h-3.3 v-0.7h3.3v-3.3h0.7V177.2z M272,194.6h3.3v0.7H272v3.3h-0.7v-3.3H268v-0.7h3.3v-3.3h0.7V194.6z M237.3,194.6h3.3v0.7h-3.3v3.3h-0.7 v-3.3h-3.3v-0.7h3.3v-3.3h0.7V194.6z M202.6,194.6h3.3v0.7h-3.3v3.3h-0.7v-3.3h-3.3v-0.7h3.3v-3.3h0.7V194.6z M167.9,194.6h3.3v0.7 h-3.3v3.3h-0.7v-3.3h-3.3v-0.7h3.3v-3.3h0.7V194.6z M254.7,211.9h3.3v0.7h-3.3v3.3H254v-3.3h-3.3v-0.7h3.3v-3.3h0.7V211.9z M220,211.9h3.3v0.7H220v3.3h-0.7v-3.3H216v-0.7h3.3v-3.3h0.7V211.9z M185.3,211.9h3.3v0.7h-3.3v3.3h-0.7v-3.3h-3.3v-0.7h3.3v-3.3 h0.7V211.9z M150.6,211.9h3.3v0.7h-3.3v3.3h-0.7v-3.3h-3.3v-0.7h3.3v-3.3h0.7V211.9z M272,229.3h3.3v0.7H272v3.3h-0.7V230H268v-0.7 h3.3V226h0.7V229.3z M237.3,229.3h3.3v0.7h-3.3v3.3h-0.7V230h-3.3v-0.7h3.3V226h0.7V229.3z M202.6,229.3h3.3v0.7h-3.3v3.3h-0.7V230 h-3.3v-0.7h3.3V226h0.7V229.3z M167.9,229.3h3.3v0.7h-3.3v3.3h-0.7V230h-3.3v-0.7h3.3V226h0.7V229.3z M254.7,246.6h3.3v0.7h-3.3v3.3 H254v-3.3h-3.3v-0.7h3.3v-3.3h0.7V246.6z M220,246.6h3.3v0.7H220v3.3h-0.7v-3.3H216v-0.7h3.3v-3.3h0.7V246.6z M185.3,246.6h3.3v0.7 h-3.3v3.3h-0.7v-3.3h-3.3v-0.7h3.3v-3.3h0.7V246.6z M150.6,246.6h3.3v0.7h-3.3v3.3h-0.7v-3.3h-3.3v-0.7h3.3v-3.3h0.7V246.6z M272,264h3.3v0.7H272v3.3h-0.7v-3.3H268V264h3.3v-3.3h0.7V264z M237.3,264h3.3v0.7h-3.3v3.3h-0.7v-3.3h-3.3V264h3.3v-3.3h0.7V264z M202.6,264h3.3v0.7h-3.3v3.3h-0.7v-3.3h-3.3V264h3.3v-3.3h0.7V264z M167.9,264h3.3v0.7h-3.3v3.3h-0.7v-3.3h-3.3V264h3.3v-3.3h0.7 V264z M254.7,281.3h3.3v0.7h-3.3v3.3H254V282h-3.3v-0.7h3.3v-3.2h0.7V281.3z M220,281.3h3.3v0.7H220v3.3h-0.7V282H216v-0.7h3.3v-3.2 h0.7V281.3z M185.3,281.3h3.3v0.7h-3.3v3.3h-0.7V282h-3.3v-0.7h3.3v-3.2h0.7V281.3z M272,298.7h3.3v0.7H272v3.3h-0.7v-3.3H268v-0.7 h3.3v-3.3h0.7V298.7z M237.3,298.7h3.3v0.7h-3.3v3.3h-0.7v-3.3h-3.3v-0.7h3.3v-3.3h0.7V298.7z M254.7,316h3.3v0.7h-3.3v3.3H254v-3.3 h-3.3V316h3.3v-3.3h0.7V316z M272,333.4h3.3v0.7H272v3.3h-0.7v-3.3H268v-0.7h3.3v-3.3h0.7V333.4z M133.2,159.9h3.3v0.7h-3.3v3.3 h-0.7v-3.3h-3.3v-0.7h3.3v-3.3h0.7V159.9z M115.9,177.2h3.3v0.7h-3.3v3.3h-0.7v-3.3h-3.3v-0.7h3.3v-3.3h0.7V177.2z M81.2,177.2h3.3 v0.7h-3.3v3.3h-0.7v-3.3h-3.3v-0.7h3.3v-3.3h0.7V177.2z M133.2,194.6h3.3v0.7h-3.3v3.3h-0.7v-3.3h-3.3v-0.7h3.3v-3.3h0.7V194.6z M98.5,194.6h3.3v0.7h-3.3v3.3h-0.7v-3.3h-3.3v-0.7h3.3v-3.3h0.7V194.6z M63.8,194.6h3.3v0.7h-3.3v3.3h-0.7v-3.3h-3.3v-0.7h3.3v-3.3 h0.7V194.6z M115.9,211.9h3.3v0.7h-3.3v3.3h-0.7v-3.3h-3.3v-0.7h3.3v-3.3h0.7V211.9z M81.2,211.9h3.3v0.7h-3.3v3.3h-0.7v-3.3h-3.3 v-0.7h3.3v-3.3h0.7V211.9z M133.2,229.3h3.3v0.7h-3.3v3.3h-0.7V230h-3.3v-0.7h3.3V226h0.7V229.3z M98.5,229.3h3.3v0.7h-3.3v3.3h-0.7 V230h-3.3v-0.7h3.3V226h0.7V229.3z" fill="#2b4b82"/></g></svg>