<?xml version="1.0" encoding="UTF-8" standalone="no"?><svg xmlns="http://www.w3.org/2000/svg" xmlns:xlink="http://www.w3.org/1999/xlink" fill="#000000" height="500.1" preserveAspectRatio="xMidYMid meet" version="1" viewBox="-152.6 -0.0 223.0 500.1" width="223" zoomAndPan="magnify"><g id="change1_1"><path d="M30.5,361.6c-39.4,22.7-103.5,22.6-143.2-0.3s-39.9-59.9-0.5-82.7c3-1.7,6.1-3.3,9.4-4.8 c1.9,2.9,3.9,5.7,6.1,8.5c-2.1,0.9-4.1,1.9-6.1,3c-16.6,9-25.7,21-25.7,33.7c0,12.9,9.3,25.1,26.2,34.2c17.3,9.4,40,14.1,62.7,14.1 c22.5,0,44.9-4.6,61.9-13.8c16.6-9,25.7-21,25.7-33.7c0-12.9-9.3-25.1-26.2-34.2c-1.4-0.7-2.8-1.4-4.2-2.1c2.2-2.6,4.4-5.3,6.5-8.2 c2.4,1.2,4.7,2.4,7,3.7C69.7,301.9,69.9,338.9,30.5,361.6z" fill="#94ddde"/></g><g id="change2_1"><path d="M59.2,327.3v25.2c0,15.3-10.3,29.6-29,40.4c-18.8,10.9-43.9,16.8-70.8,16.8 c-27.1,0-52.6-6.1-71.7-17.1s-29.6-25.6-29.6-41v-25.2c2.5,12.7,12.3,25.1,29.2,34.9c39.7,22.9,103.8,23,143.2,0.3 C47.2,352,56.7,339.8,59.2,327.3z" fill="#f0abc1"/></g><g id="change1_2"><path d="M45,237.7c-10.5,22.1-21.4,38.6-34.1,52.1c-14.4,15.2-31.3,26.5-51.6,34.4 c-0.5,1-7.4-1.2-7.4-1.2c-45.4-22.5-64.5-59.1-77.2-92.4c-16.1-42-17.3-90.6-3.5-125.7c6.2,29.9,14.1,52,22.7,70.5 c0-0.4-0.1-0.7-0.1-1.1c-5.1-57.8-4.1-116.1-3.1-174.3c-0.1,5.2,18.4,35.7,33.9,81.7c3.7,10.8,6.9,21.7,9.9,32.5 c6.3-36.1,20-70.6,44-97.9c3.6,28.7,7.2,57.5,9.5,86.4C1.3,68.4,20.2,36,49.5,13.5c-4,3-5.7,89.9-21.5,171.7 c10.8-18.6,21.3-41,30.5-72.6C69.4,148.7,64.4,197.1,45,237.7z" fill="#94ddde"/></g><g id="change3_1"><path d="M51.1,375.3l-11.7,76.5c0,12.6-8.4,24.3-23.6,33.1c-15.5,9-36,13.4-56.4,13.4 c-20.7,0-41.4-4.6-57.2-13.7c-15.5-8.9-24-20.8-24-33.5l-11.8-76.8c5,6.7,12.2,12.9,21.5,18.2c19.1,11.1,44.6,17.1,71.7,17.1 c26.8,0,52-6,70.8-16.8C39.2,387.8,46.2,381.8,51.1,375.3z M-43.5,323.2l0.4,1.1c-2.2-0.4-4.9-1.3-4.9-1.3 c-21.4-10.6-36.9-24.3-48.7-39.4c-2.2,1-4.3,2-6.3,3.1c-16,8.7-24.9,20.2-24.9,32.3c0,12.3,9,24,25.3,32.8 c16.5,8.9,38.5,13.9,62,13.9c23.2,0,44.9-4.8,61.1-13.6c16-8.7,24.9-20.2,24.9-32.3c0-5.5-1.9-11.5-5.3-16.5L-43.5,323.2z M-69.8,164.3c0-16.7,1.4-33.5,4.3-50.1c-3-10.8-6.2-21.7-9.9-32.5c-15.5-46-34-76.5-33.9-81.7c0,0.7,0,1.4,0,2.1 c16.4,71.1,30.7,142.8,42.8,214.8C-68.6,199.4-69.8,181.9-69.8,164.3z M-127.6,110.7c-1.4,19-0.5,37.8,2.5,51.6 c13.2,59.9,43.6,104.3,79.1,154.6c-9.6-49.8-24.6-76.2-40.4-104.1C-101.4,186.4-116.8,159.2-127.6,110.7z M7.7,216.8 c6.7-10,13.6-20.1,20.3-31.6C42.1,112.4,45,35.6,48.3,17.5C18.8,55.4,12.2,106.6,4,154.4c-6.1,35.6-13.8,71-23,105.9 C-10.6,243.9-1.6,230.5,7.7,216.8z M45,237.7c-10.5,22.1-21.4,38.6-34.1,52.1c-14.4,15.2-31.3,26.5-51.6,34.4c-2.9,0.7-3,1.5-3,1.5 c2.2-37.6-2.6-74.9-3-112.6C-47.1,150.7-35.1,79.9-22,16.9c0.2-0.2,0.3-0.4,0.5-0.6c6.5,52.3,13,104.8,12,157.5 c-0.6,29.2-3.5,58.5-9.9,87c-8.5,16.6-16.3,36.4-23.1,62.8c21.3-26.6,45.6-58.5,65-93.3c20.8-37.4,33.6-74.3,38-109.8 C70.4,161.9,59.4,207.6,45,237.7z" fill="#f7b4a7"/></g><g id="change4_1"><path d="M65.8,152.2c0-1,0-2,0-2.9c0-0.2,0-0.4,0-0.6c-0.4-14.6-2.8-28.7-7.3-41.5v0.1l0,0c-0.2,0.8-0.5,1.7-0.7,2.5 c-3.5,12.2-7.1,23-10.9,32.7c-4.9,12.6-10,23.5-15.3,33.2c8.5-49,16.9-145.6,17.2-149.1c0.4-3.8,2.3-16.2,2.3-16.2l0,0 c0-0.1,0-0.1,0-0.1l-2.4,1.8c-16.6,12.8-39.2,34.8-59.5,84c-2.3-26.9-5.7-53.7-8.9-80l-0.4-3.5l0,0v-0.1l-3.1,3.6 c-23.7,27.4-36.2,60.1-42.4,91c-2.5-8.6-5.1-17.3-8-25.9c-9.5-28.2-20-50.2-26.9-64.8c-3-6.3-6.9-16-6.9-16.1h-0.1l0,0 c0-0.1-2.1-0.2-2.9-0.2c-0.1,0-0.2,0-0.2,0l0,0c-0.1,0-0.1,0-0.1,0s-1.8,108.3,2.5,166c-7.4-17.6-14.2-38.5-19.6-65.9 c0-0.2-0.1-0.3-0.1-0.5c0,0,0,0.1-0.1,0.1l0,0c-17.7,39.5-13.6,92,1.5,131.7c5.6,14.7,12.2,28.9,20.7,42c-2.7,1.3-5.4,2.6-7.9,4.1 c-19.5,11-30.2,26.1-30.2,42.2c0,2.3,0.3,4.6,0.7,6.9v25c0,8.2,2.8,16.1,8.2,23.4l11.8,76.3c0.1,13.2,8.9,25.6,24.8,34.8 c15.5,9,36.1,13.9,58,13.9c21.6,0,42-4.8,57.2-13.7c15.7-9,24.3-21.2,24.4-34.3l11.6-76c5.4-7.3,8.3-15.2,8.3-23.5v-25 c0.4-2.3,0.7-4.6,0.7-6.9c0-16.3-10.9-31.5-30.7-43c-1.8-1-3.6-2-5.4-2.9c0.4-0.6,0.9-1.3,1.3-1.9c0.1-0.2,0.3-0.4,0.4-0.6 c4.4-6.3,8.5-12.9,12.2-19.7c2.5-4.6,4.9-9.3,7.2-14.1c0.6-1.2,1.1-2.4,1.6-3.6c0.2-0.4,0.4-0.8,0.6-1.3c0.3-0.8,0.7-1.6,1-2.4 c0.2-0.5,0.4-1,0.6-1.5c0.3-0.7,0.6-1.4,0.9-2.1c0.2-0.6,0.5-1.2,0.7-1.7c0.3-0.7,0.5-1.3,0.8-2c0.2-0.6,0.5-1.2,0.7-1.8 c0.2-0.7,0.5-1.3,0.7-2c0.2-0.6,0.4-1.3,0.7-1.9c0.2-0.6,0.4-1.3,0.7-1.9c0.2-0.7,0.4-1.4,0.7-2c0.2-0.6,0.4-1.3,0.6-1.9 c0.2-0.7,0.4-1.4,0.6-2.1c0.2-0.6,0.4-1.2,0.5-1.8c0.2-0.7,0.4-1.5,0.6-2.2c0.2-0.6,0.3-1.2,0.5-1.8c0.2-0.8,0.4-1.5,0.6-2.3 c0.1-0.6,0.3-1.2,0.4-1.7c0.2-0.8,0.4-1.6,0.6-2.4c0.1-0.5,0.3-1.1,0.4-1.6c0.2-0.8,0.4-1.7,0.5-2.5c0.1-0.5,0.2-1.1,0.3-1.6 c0.2-0.9,0.3-1.7,0.5-2.6c0.1-0.5,0.2-1,0.3-1.5c0.2-0.9,0.3-1.8,0.5-2.7c0.1-0.5,0.2-0.9,0.2-1.4c0.1-0.9,0.3-1.9,0.4-2.8 c0.1-0.4,0.1-0.9,0.2-1.3c0.1-1,0.3-1.9,0.4-2.9c0.1-0.4,0.1-0.8,0.1-1.2c0.1-1,0.2-2,0.3-3c0-0.1,0-0.1,0-0.2l0,0 c0-0.4,0.1-0.7,0.1-1.1c0-0.4,0.1-0.8,0.1-1.2c0.1-0.6,0.1-1.2,0.2-1.7c0-0.1,0-0.1,0-0.2v-0.1c0-0.1,0-0.2,0-0.3s0-0.2,0.1-0.3 c0.1-1.1,0.2-2.2,0.2-3.3c0,0,0-0.1,0-0.2v-0.1c0-0.2,0-0.5,0-0.7c0-0.8,0.1-1.6,0.1-2.5c0-0.2,0-0.5,0-0.7c0-0.1,0-0.1,0-0.2v-0.1 c0-0.2,0-0.3,0-0.5c0-0.8,0-1.7,0.1-2.5c0-0.3,0-0.6,0-0.9c0-0.1,0-0.1,0-0.2v-0.1c0-0.1,0-0.1,0-0.2 C65.9,154.4,65.8,153.3,65.8,152.2z M58.5,118.4c0.2,0.8,0.3,1.5,0.5,2.3c-4.8,38.2-19,75-37.8,108.8c-16.7,30.1-37.1,57.9-58.4,85 c-0.6,0.7-1.1,1.4-1.6,2.1c13.4-47.8,30.2-72.7,48-99C26.2,192.4,43.8,166.3,58.5,118.4z M45.6,25c-0.5,4.9-1.1,11.1-1.7,18.6 c-0.2,2-0.4,4.2-0.6,6.5c-2.8,32.3-7.2,84.4-17.1,134.8c-13.4,23-27.5,40.3-40.4,63.1c7.8-30.9,14.5-62.1,19.8-93.4 c0.6-3.8,1.3-7.5,1.9-11.3C14.6,101,21.9,57.4,45.8,23.5C45.7,24,45.7,24.4,45.6,25z M-5.1,90.6c11.3-25.7,27-51.5,49.6-70.9 C20.4,52.8,12.4,95,5.5,136.5c-0.4,2.1-0.7,4.2-1.1,6.3c-0.6,3.8-1.3,7.6-1.9,11.3c-3.8,22.4-8.3,44.8-13.5,67 c1.8-15.2,2.9-30.9,3.3-47.2c0.4-23.6-0.6-47.3-2.5-70.9C-8.6,98.8-6.9,94.7-5.1,90.6z M-22,25c0,0.2,0.1,0.4,0.1,0.7 c0.3,2.1,0.5,4.1,0.8,6.2c0.2,1.1,0.3,2.2,0.4,3.3c0,0.2,0,0.4,0.1,0.5c0,0.2,0,0.3,0.1,0.5c0.1,1,0.2,2,0.4,3 c0.1,0.7,0.2,1.3,0.2,2c0.2,1.4,0.3,2.7,0.5,4.1c0.2,1.7,0.4,3.5,0.6,5.3c0.2,1.4,0.3,2.9,0.5,4.3c0.2,1.7,0.4,3.4,0.6,5.1 c0.2,1.5,0.3,3,0.5,4.4c0.2,1.5,0.3,3,0.5,4.5c0,0.2,0,0.3,0,0.5c0.1,0.7,0.2,1.5,0.2,2.2c0.1,0.8,0.2,1.5,0.2,2.3 c0.2,1.6,0.3,3.3,0.5,4.9c0.2,1.5,0.3,3.1,0.5,4.6c0.2,1.6,0.3,3.2,0.5,4.8c0.1,1.6,0.3,3.1,0.4,4.7c0.1,1.6,0.3,3.2,0.4,4.8 c0.1,1.6,0.3,3.2,0.4,4.8c0.1,1.6,0.3,3.1,0.4,4.7c0.1,1.6,0.2,3.3,0.4,4.9c0.1,1.5,0.2,3.1,0.3,4.6c0.1,1.7,0.2,3.3,0.3,5 c0.1,1.5,0.2,3,0.3,4.5c0.1,1.7,0.2,3.4,0.3,5.2c0.1,1.4,0.1,2.9,0.2,4.3c0.1,1.8,0.1,3.5,0.2,5.3c0,1.4,0.1,2.8,0.1,4.2 c0.1,1.9,0.1,3.7,0.1,5.6c0,1.3,0.1,2.6,0.1,3.9c0,2.1,0,4.2,0,6.3c0,1.1,0,2.2,0,3.3c0,3.2,0,6.3-0.1,9.5c-0.6,31.1-4,60.1-10,86.9 c-7.4,14.6-14.3,31.7-20.5,53.5c0.4-19.1-0.6-38.3-1.6-57c-0.8-14.5-1.6-29.5-1.8-44.2c0-4.7,0-9.5,0.1-14.2 C-43.6,138.3-31.8,72.7-22,25z M-13.4,316.5c-0.1,0-0.2,0.1-0.3,0.2c-0.2,0.2-0.3,0.4-0.3,0.7c0,0.3,0.1,0.5,0.3,0.7 s0.5,0.3,0.7,0.3c0.3,0,0.5-0.1,0.7-0.3c0.2-0.2,0.3-0.5,0.3-0.7c0-0.3-0.1-0.5-0.3-0.7s-0.5-0.3-0.8-0.3c0.7-0.2,1.4-0.3,2-0.5 c-0.1,0.1-0.1,0.2-0.1,0.3c0,0.1,0.1,0.3,0.2,0.4c0.1,0.1,0.3,0.2,0.4,0.2c0.2,0,0.3-0.1,0.4-0.2c0.1-0.1,0.2-0.3,0.2-0.4 c0-0.2-0.1-0.3-0.2-0.4l-0.1-0.1c10.2-2.5,21.1-5.1,30.2-7.3c0,0.1,0.1,0.2,0.1,0.2c0.1,0.1,0.3,0.2,0.4,0.2s0.3-0.1,0.4-0.2 s0.2-0.3,0.2-0.4v-0.1c10.9-2.6,18.7-4.5,18.7-4.5c0.3,0.4,0.5,0.8,0.8,1.3c-0.2,0-0.4,0.1-0.6,0.3c-0.2,0.2-0.3,0.5-0.3,0.7 c0,0.3,0.1,0.5,0.3,0.7s0.5,0.3,0.7,0.3c0.3,0,0.5-0.1,0.7-0.3c0,0,0-0.1,0.1-0.1c2.2,4.1,3.4,8.4,3.4,12.8c0,7.1-3.1,14-8.8,20.2 c0-0.1-0.1-0.3-0.1-0.3c-0.2-0.2-0.6-0.2-0.8,0c-0.1,0.1-0.2,0.3-0.2,0.4s0.1,0.3,0.2,0.4c0.1,0.1,0.2,0.2,0.4,0.2 c-2.6,2.7-5.7,5.3-9.3,7.7c-0.1,0-0.2,0.1-0.2,0.1v0.1c-1.8,1.2-3.7,2.4-5.8,3.5c-12.9,7-29.3,11.4-47.1,13c-0.2-0.1-0.5,0-0.7,0.1 c-4.2,0.3-8.6,0.5-13,0.5c-23.3,0-45.1-4.9-61.6-13.8c-16.2-8.8-25.2-20.4-25.2-32.6c0-0.1,0-0.2,0-0.3h0.1c0.3,0,0.5-0.1,0.7-0.3 c0.2-0.2,0.3-0.5,0.3-0.7c0-0.3-0.1-0.5-0.3-0.7c-0.2-0.2-0.5-0.3-0.7-0.3c0.9-9.4,7-18.2,17.7-25.6l0,0c0,0.1,0.1,0.3,0.2,0.4 s0.3,0.2,0.4,0.2s0.3-0.1,0.4-0.2s0.2-0.3,0.2-0.4s-0.1-0.3-0.2-0.4s-0.1-0.1-0.2-0.1c1.9-1.3,4-2.5,6.2-3.7 c1.5-0.8,3.1-1.6,4.6-2.3c2.9,3.7,6,7.4,9.4,10.9c-0.4-0.2-0.9-0.2-1.3,0.1c-0.2,0.2-0.3,0.5-0.3,0.7c0,0.3,0.1,0.5,0.3,0.7 c0.2,0.2,0.4,0.3,0.7,0.3c0.3,0,0.5-0.1,0.7-0.3c0.2-0.2,0.3-0.4,0.3-0.7c0-0.2,0-0.3-0.1-0.4c11.2,11.7,25,21.9,42.3,30.1 c-0.1,0-0.2,0.1-0.3,0.1c-0.1,0.1-0.2,0.3-0.2,0.4s0.1,0.3,0.2,0.4c0.1,0.1,0.3,0.2,0.4,0.2c0.1,0,0.3-0.1,0.4-0.2 c0.1-0.1,0.2-0.3,0.2-0.4s0-0.2-0.1-0.3c0.1,0.1,0.2,0.1,0.3,0.2l0,0c0.1,0.1,9.8-2.3,13.1-3.8c1.8-0.8,3.6-1.7,5.3-2.6 C-22.6,318.7-18.1,317.6-13.4,316.5z M-24.9,22.9C-35.6,74.6-48.7,148-48.2,213.1c0.1,14.8,1,29.8,1.8,44.3 c1,18.6,2.1,37.8,1.6,56.8c0-0.2-0.1-0.3-0.1-0.5l0,0c-3.5-17.3-7.6-31.7-12.2-44.4c-5.9-34.6-11.1-69.9-11-105 C-67.9,93.1-45.5,48.7-24.9,22.9z M-104.4,16.1c0.2,0.5,0.4,0.9,0.7,1.4c1.8,3.8,3.9,8.2,6.1,13.1C-95,36.5-92,43.1-89,50.4 c3.9,9.4,8,20,11.9,31.6c1.1,3.2,2.2,6.5,3.2,9.8c2.2,6.9,4.4,14.2,6.6,22c-3.1,18-4.2,35.2-4.2,50.3c0,5.8,0.1,11.5,0.4,17.3 C-80.9,126-92.1,70.7-104.4,16.1C-104.5,16-104.4,16.1-104.4,16.1z M-107.9,15.7C-92.8,82.5-79.4,150.3-68,218.1 c1.4,12.3,3.3,24.4,5.1,36.6c-9.3-21.6-19.9-38.4-30.2-57.2c-0.1-0.2-0.2-0.3-0.3-0.5c-0.4-0.7-0.7-1.3-1.1-2 c-0.2-0.3-0.3-0.6-0.5-0.9c-0.3-0.6-0.6-1.1-0.9-1.7c-0.2-0.4-0.4-0.8-0.6-1.2c-0.3-0.5-0.5-1-0.8-1.5c-0.2-0.5-0.5-0.9-0.7-1.4 c-0.2-0.4-0.5-0.9-0.7-1.3c-0.3-0.5-0.6-1.1-0.8-1.6c-0.2-0.4-0.4-0.8-0.6-1.2c-0.3-0.6-0.6-1.2-0.9-1.8c-0.2-0.3-0.3-0.7-0.5-1 c-0.3-0.7-0.7-1.4-1-2c-0.1-0.3-0.3-0.6-0.4-0.9c-0.4-0.7-0.7-1.5-1.1-2.2c-0.1-0.2-0.2-0.5-0.3-0.7c-0.1-0.1-0.1-0.3-0.2-0.4 c0-0.3-0.1-0.5-0.1-0.8C-109.2,121.6-108.7,68-107.9,15.7z M-126.5,122.2C-126.5,122.2-126.4,122.2-126.5,122.2c0.2,1,0.5,2,0.7,2.9 c0.1,0.4,0.2,0.8,0.3,1.2c0.2,0.9,0.5,1.9,0.7,2.8c0.1,0.4,0.2,0.7,0.3,1c0.3,0.9,0.5,1.9,0.8,2.8c0.1,0.3,0.2,0.6,0.3,0.9 c0.3,1,0.6,1.9,0.8,2.9c0.1,0.2,0.1,0.3,0.2,0.5c1.7,5.7,3.5,11.1,5.4,16.2c0,0.1,0.1,0.2,0.1,0.3c0.3,0.9,0.6,1.7,1,2.6 c0.1,0.2,0.2,0.4,0.2,0.7c0.3,0.8,0.6,1.6,0.9,2.4c0.1,0.3,0.2,0.5,0.3,0.8c0.3,0.8,0.6,1.5,0.9,2.2c0.1,0.3,0.2,0.6,0.3,0.8 c0.3,0.7,0.6,1.4,0.9,2.1c0.1,0.3,0.2,0.6,0.4,0.9c0.3,0.7,0.6,1.4,0.9,2.1c0.1,0.3,0.3,0.6,0.4,0.9c0.3,0.7,0.6,1.4,0.9,2 c0.1,0.3,0.2,0.6,0.4,0.8c0.3,0.7,0.6,1.3,0.9,2c0.1,0.2,0.2,0.4,0.3,0.6c0.1,0.1,0.1,0.2,0.2,0.3c0.3,0.7,0.6,1.4,0.9,2 c0.1,0.2,0.2,0.4,0.3,0.6c0.3,0.7,0.6,1.3,0.9,1.9c0,0,0,0.1,0.1,0.1c1.1,2.3,2.2,4.5,3.4,6.8c0,0.1,0.1,0.1,0.1,0.2 c0.2,0.3,0.3,0.6,0.5,0.9c0.2,0.5,0.5,0.9,0.7,1.4c0.2,0.4,0.4,0.8,0.6,1.2c0.1,0.1,0.1,0.2,0.2,0.3c0.1,0.2,0.2,0.5,0.4,0.7 c0.2,0.3,0.3,0.5,0.4,0.8s0.3,0.5,0.4,0.8c0.2,0.3,0.4,0.7,0.5,1c0.3,0.5,0.6,1.1,0.9,1.6c0.2,0.3,0.3,0.6,0.5,0.9 c0.3,0.6,0.7,1.2,1,1.8c0.1,0.2,0.2,0.4,0.3,0.6c0.4,0.7,0.8,1.5,1.2,2.2c0,0.1,0.1,0.1,0.1,0.2c2.3,4.2,4.7,8.4,7,12.5 c14.9,26.3,29.1,51.3,38.7,96c-29.3-41.7-54.7-79.9-69-127c-2-6.7-3.8-13.5-5.4-20.6C-125.8,151-126.8,137-126.5,122.2z M-123.7,230 c-15.1-39.4-17-84.7-5.6-118.9c-1.5,20-0.3,38.3,2.6,51.5c13.3,60,44.2,105.3,79.1,154.9c0.3,1.4,0.6,2.9,0.8,4.3 C-92,299.5-111,263.1-123.7,230z M37.7,451.6v0.2c0,12-8.1,23.2-22.8,31.7c-14.8,8.5-34.5,13.2-55.6,13.2 c-21.3,0-41.3-4.8-56.4-13.5c-15-8.6-23.2-20.1-23.2-32.2l-11-71.4c4.8,5.2,10.9,9.9,18.2,14.2c20,11.6,46.3,17.3,72.5,17.3 c26,0,51.9-5.7,71.5-17c7.1-4.1,13-8.7,17.6-13.6L37.7,451.6z M29.4,391.6c-18.6,10.7-43.4,16.6-70,16.6c-26.8,0-52-6-70.9-16.9 c-18.6-10.7-28.8-24.8-28.8-39.6v-15.5c4.8,10,13.9,19.1,26.8,26.6c20.1,11.6,46.5,17.4,72.8,17.4c26.1,0,52.1-5.7,71.9-17.1 c12.7-7.3,21.6-16.3,26.3-26.1v15.5h0.2C57.7,367.1,47.7,381.1,29.4,391.6z M29.2,280.2C48,291,58.3,305.3,58.3,320.4 c0,14.9-10.2,29-28.6,39.7c-38.9,22.5-102.4,22.3-141.7-0.3c-18.8-10.8-29.1-25.1-29.1-40.2c0-14.9,10.2-29,28.6-39.7 c2.6-1.5,5.3-2.8,8.1-4.1c1.3,2,2.7,3.9,4.2,5.8c-1.5,0.7-3,1.4-4.5,2.2c-17.1,9.3-26.5,21.8-26.5,35.2c0,13.5,9.6,26.2,27,35.6 c17,9.2,39.5,14.3,63.5,14.3c23.7,0,45.9-5,62.6-14c17.1-9.3,26.5-21.7,26.5-35.1c0-13.5-9.6-26.2-27-35.6c-0.8-0.4-1.7-0.8-2.5-1.3 c1.5-1.9,3.1-3.8,4.5-5.7C25.5,278.2,27.4,279.2,29.2,280.2z M62.6,158.3L62.6,158.3c-0.1,5.9-0.6,11.9-1.3,17.9 c-2.6,21-8.7,42-17.6,60.7c-0.5,1-1,2-1.4,3c0,0,0,0,0,0.1l0,0c-0.1,0.2-0.2,0.4-0.3,0.7c-0.1,0.1-0.1,0.3-0.2,0.4 c-0.3,0.5-0.5,1.1-0.8,1.6c-0.1,0.1-0.1,0.2-0.1,0.3c-0.2,0.4-0.4,0.8-0.6,1.1c-0.3,0.6-0.6,1.3-1,1.9c-0.2,0.4-0.4,0.8-0.6,1.2 c-0.3,0.6-0.6,1.2-1,1.9c-0.2,0.4-0.4,0.8-0.6,1.1c-0.3,0.6-0.7,1.3-1,1.9c-0.2,0.4-0.4,0.8-0.7,1.2c-0.3,0.6-0.7,1.2-1,1.8 c-0.2,0.4-0.5,0.8-0.7,1.2c-0.4,0.6-0.7,1.2-1.1,1.8c-0.2,0.4-0.5,0.8-0.7,1.2c-0.4,0.6-0.7,1.2-1.1,1.8c-0.2,0.4-0.5,0.8-0.7,1.2 c-0.4,0.6-0.7,1.2-1.1,1.8c-0.3,0.4-0.5,0.8-0.8,1.2c-0.4,0.6-0.8,1.2-1.2,1.8c-0.3,0.4-0.6,0.8-0.8,1.2c-0.4,0.6-0.8,1.2-1.2,1.8 c-0.3,0.4-0.6,0.8-0.9,1.2c-0.4,0.6-0.8,1.2-1.2,1.7c-0.3,0.4-0.6,0.8-0.9,1.2c-0.4,0.6-0.8,1.1-1.3,1.7c-0.3,0.4-0.6,0.8-0.9,1.2 c-0.4,0.6-0.9,1.1-1.3,1.7c-0.3,0.4-0.6,0.8-1,1.2c-0.5,0.6-0.9,1.1-1.4,1.7c-0.3,0.4-0.7,0.8-1,1.2c-0.5,0.5-0.9,1.1-1.4,1.6 c-0.4,0.4-0.7,0.8-1.1,1.2c-0.5,0.5-1,1.1-1.4,1.6c-0.4,0.4-0.7,0.8-1.1,1.2c-0.5,0.5-1,1-1.5,1.6c-0.4,0.4-0.8,0.8-1.2,1.2 c-0.5,0.5-1,1-1.5,1.5c-0.4,0.4-0.8,0.8-1.2,1.2c-0.5,0.5-1.1,1-1.6,1.5c-0.4,0.4-0.8,0.8-1.3,1.1c-0.5,0.5-1.1,1-1.6,1.5 c-0.4,0.4-0.9,0.8-1.3,1.1c-0.6,0.5-1.1,0.9-1.7,1.4c-0.5,0.4-0.9,0.7-1.4,1.1c-0.6,0.5-1.1,0.9-1.7,1.4c-0.5,0.4-1,0.7-1.5,1.1 c-0.6,0.4-1.2,0.9-1.8,1.3c-0.5,0.4-1,0.7-1.5,1.1c-0.6,0.4-1.2,0.8-1.8,1.3c-0.1,0.1-0.2,0.2-0.4,0.3c-0.4,0.3-0.8,0.5-1.2,0.8 c-0.6,0.4-1.2,0.8-1.9,1.2l0,0l0,0c-0.6,0.3-1.1,0.7-1.7,1c-0.6,0.4-1.3,0.8-1.9,1.2c-0.6,0.3-1.2,0.7-1.8,1c-0.7,0.4-1.3,0.8-2,1.1 c-0.6,0.3-1.2,0.7-1.8,1c-0.6,0.3-1.1,0.6-1.6,0.9c-0.1,0-0.2,0.1-0.3,0.2c-0.3,0.1-0.5,0.3-0.8,0.4c-0.4,0.2-0.8,0.4-1.2,0.6 c-0.7,0.3-1.4,0.7-2.1,1s-1.3,0.6-2,0.9s-1.4,0.6-2.1,1c-0.7,0.3-1.4,0.6-2.1,0.9c-0.5,0.2-0.9,0.4-1.4,0.6 c20.8-26.1,44.2-57,63-90.8c19.1-34.3,31.4-68.1,36.8-100.9c0.6,3.6,1,7.3,1.3,11C62.6,146.7,62.7,152.5,62.6,158.3z M-20.1,342.4 c-0.1-0.1-0.2-0.3-0.2-0.4s0.1-0.3,0.2-0.4c0.2-0.2,0.6-0.2,0.8,0c0.1,0.1,0.2,0.3,0.2,0.4s-0.1,0.3-0.2,0.4s-0.3,0.2-0.4,0.2 C-19.9,342.6-20,342.5-20.1,342.4z M-18.9,345.2c0.1,0.1,0.2,0.3,0.2,0.4s-0.1,0.3-0.2,0.4s-0.3,0.2-0.4,0.2s-0.3-0.1-0.4-0.2 s-0.2-0.3-0.2-0.4s0.1-0.3,0.2-0.4C-19.5,345-19.2,345-18.9,345.2z M-26.9,345.2c0.1,0.1,0.2,0.3,0.2,0.4s-0.1,0.3-0.2,0.4 s-0.3,0.2-0.4,0.2s-0.3-0.1-0.4-0.2s-0.2-0.3-0.2-0.4s0.1-0.3,0.2-0.4C-27.5,345-27.1,345-26.9,345.2z M-15,360.3 c0.1,0.1,0.2,0.3,0.2,0.4s-0.1,0.3-0.2,0.4c-0.1,0.1-0.3,0.2-0.4,0.2c-0.1,0-0.3-0.1-0.4-0.2c-0.1-0.1-0.2-0.3-0.2-0.4 s0.1-0.3,0.2-0.4C-15.6,360.1-15.2,360.1-15,360.3z M-4.6,357.5c0.1,0.1,0.2,0.3,0.2,0.4s-0.1,0.3-0.2,0.4s-0.3,0.2-0.4,0.2 s-0.3-0.1-0.4-0.2s-0.2-0.3-0.2-0.4s0.1-0.3,0.2-0.4C-5.2,357.3-4.9,357.3-4.6,357.5z M0.5,350.4c0.1,0.1,0.2,0.2,0.2,0.4 c0,0.1-0.1,0.3-0.2,0.4s-0.3,0.2-0.4,0.2s-0.3-0.1-0.4-0.2s-0.2-0.3-0.2-0.4c0-0.2,0.1-0.3,0.2-0.4C-0.1,350.2,0.3,350.2,0.5,350.4z M-1.5,348c-0.1-0.1-0.2-0.3-0.2-0.4c0-0.2,0.1-0.3,0.2-0.4c0.2-0.2,0.6-0.2,0.8,0c0.1,0.1,0.2,0.2,0.2,0.4c0,0.1-0.1,0.3-0.2,0.4 s-0.3,0.2-0.4,0.2C-1.2,348.1-1.4,348.1-1.5,348z M-4.6,345.6c0.1,0.1,0.2,0.2,0.2,0.4c0,0.1-0.1,0.3-0.2,0.4s-0.3,0.2-0.4,0.2 s-0.3-0.1-0.4-0.2s-0.2-0.3-0.2-0.4c0-0.2,0.1-0.3,0.2-0.4C-5.2,345.4-4.9,345.4-4.6,345.6z M0.1,339.6c0.1,0.1,0.2,0.2,0.2,0.4 c0,0.1-0.1,0.3-0.2,0.4s-0.3,0.2-0.4,0.2s-0.3-0.1-0.4-0.2s-0.2-0.3-0.2-0.4c0-0.2,0.1-0.3,0.2-0.4C-0.5,339.4-0.1,339.4,0.1,339.6z M-1.1,334.1c-0.1-0.1-0.2-0.3-0.2-0.4s0.1-0.3,0.2-0.4c0.2-0.2,0.6-0.2,0.8,0c0.1,0.1,0.2,0.3,0.2,0.4s-0.1,0.3-0.2,0.4 s-0.3,0.2-0.4,0.2C-0.8,334.2-1,334.2-1.1,334.1z M-4.6,333.7c0.1,0.1,0.2,0.3,0.2,0.4s-0.1,0.3-0.2,0.4s-0.3,0.2-0.4,0.2 s-0.3-0.1-0.4-0.2s-0.2-0.3-0.2-0.4s0.1-0.3,0.2-0.4C-5.2,333.5-4.9,333.5-4.6,333.7z M20.4,340c-0.1-0.1-0.2-0.3-0.2-0.4 c0-0.2,0.1-0.3,0.2-0.4c0.2-0.2,0.6-0.2,0.8,0c0.1,0.1,0.2,0.2,0.2,0.4c0,0.1-0.1,0.3-0.2,0.4s-0.3,0.2-0.4,0.2 C20.6,340.2,20.5,340.1,20.4,340z M12,345.6c-0.1-0.1-0.2-0.3-0.2-0.4s0.1-0.3,0.2-0.4c0.2-0.2,0.6-0.2,0.8,0 c0.1,0.1,0.2,0.3,0.2,0.4s-0.1,0.3-0.2,0.4c-0.1,0.1-0.3,0.2-0.4,0.2C12.3,345.8,12.1,345.7,12,345.6z M19.6,347.2 c0.2-0.2,0.6-0.2,0.8,0c0.1,0.1,0.2,0.3,0.2,0.4s-0.1,0.3-0.2,0.4s-0.3,0.2-0.4,0.2s-0.3-0.1-0.4-0.2s-0.2-0.3-0.2-0.4 C19.4,347.4,19.5,347.3,19.6,347.2z M20.4,350c0.1,0.1,0.2,0.2,0.2,0.4c0,0.1-0.1,0.3-0.2,0.4S20.1,351,20,351s-0.3-0.1-0.4-0.2 s-0.2-0.3-0.2-0.4c0-0.2,0.1-0.3,0.2-0.4C19.8,349.8,20.1,349.8,20.4,350z M37.8,330.5c-0.1-0.1-0.2-0.2-0.2-0.4 c0-0.1,0.1-0.3,0.2-0.4c0.2-0.2,0.6-0.2,0.8,0c0.1,0.1,0.2,0.3,0.2,0.4s-0.1,0.3-0.2,0.4c-0.1,0.1-0.3,0.2-0.4,0.2 C38.1,330.7,37.9,330.6,37.8,330.5z M20.4,334.1c-0.1-0.1-0.2-0.3-0.2-0.4s0.1-0.3,0.2-0.4c0.2-0.2,0.6-0.2,0.8,0 c0.1,0.1,0.2,0.3,0.2,0.4s-0.1,0.3-0.2,0.4s-0.3,0.2-0.4,0.2C20.6,334.2,20.5,334.2,20.4,334.1z M10.4,319.4 c-0.1-0.1-0.2-0.3-0.2-0.4s0.1-0.3,0.2-0.4c0.2-0.2,0.6-0.2,0.8,0c0.1,0.1,0.2,0.3,0.2,0.4s-0.1,0.3-0.2,0.4 c-0.1,0.1-0.3,0.2-0.4,0.2C10.7,319.6,10.6,319.5,10.4,319.4z M16,315.8c-0.1-0.1-0.2-0.3-0.2-0.4c0-0.2,0.1-0.3,0.2-0.4 c0.2-0.2,0.6-0.2,0.8,0c0.1,0.1,0.2,0.2,0.2,0.4c0,0.1-0.1,0.3-0.2,0.4s-0.3,0.2-0.4,0.2S16.1,315.9,16,315.8z M-4.2,326.1 c-0.1-0.1-0.2-0.3-0.2-0.4c0-0.2,0.1-0.3,0.2-0.4c0.2-0.2,0.6-0.2,0.8,0c0.1,0.1,0.2,0.2,0.2,0.4c0,0.1-0.1,0.3-0.2,0.4 c-0.1,0.1-0.2,0.2-0.4,0.2C-4,326.3-4.1,326.2-4.2,326.1z M31.1,308.3c-0.1-0.1-0.2-0.3-0.2-0.4s0.1-0.3,0.2-0.4 c0.2-0.2,0.6-0.2,0.8,0c0.1,0.1,0.2,0.3,0.2,0.4s-0.1,0.3-0.2,0.4c-0.1,0.1-0.2,0.2-0.4,0.2C31.3,308.4,31.2,308.4,31.1,308.3z M29.5,311.5c-0.1-0.1-0.2-0.3-0.2-0.4s0.1-0.3,0.2-0.4c0.2-0.2,0.6-0.2,0.8,0c0.1,0.1,0.2,0.3,0.2,0.4s-0.1,0.3-0.2,0.4 s-0.3,0.2-0.4,0.2C29.7,311.6,29.6,311.6,29.5,311.5z M13.2,326.1c-0.1-0.1-0.2-0.3-0.2-0.4s0.1-0.3,0.2-0.4c0.2-0.2,0.6-0.2,0.8,0 c0.1,0.1,0.2,0.3,0.2,0.4s-0.1,0.3-0.2,0.4c-0.1,0.1-0.3,0.2-0.4,0.2C13.5,326.3,13.3,326.2,13.2,326.1z M2.5,318.2 c-0.1-0.1-0.2-0.3-0.2-0.4s0.1-0.3,0.2-0.4c0.2-0.2,0.6-0.2,0.8,0c0.1,0.1,0.2,0.3,0.2,0.4s-0.1,0.3-0.2,0.4 c-0.1,0.1-0.3,0.2-0.4,0.2C2.8,318.4,2.6,318.3,2.5,318.2z M-30.1,329.7c-0.1-0.1-0.2-0.3-0.2-0.4c0-0.2,0.1-0.3,0.2-0.4 c0.2-0.2,0.6-0.2,0.8,0c0.1,0.1,0.2,0.2,0.2,0.4c0,0.1-0.1,0.3-0.2,0.4s-0.3,0.2-0.4,0.2C-29.8,329.9-29.9,329.8-30.1,329.7z M-23.3,353.9c0.1,0.1,0.2,0.3,0.2,0.4s-0.1,0.3-0.2,0.4s-0.3,0.2-0.4,0.2s-0.3-0.1-0.4-0.2s-0.2-0.3-0.2-0.4s0.1-0.3,0.2-0.4 C-23.9,353.7-23.5,353.7-23.3,353.9z M11.6,353.1c0.1,0.1,0.2,0.3,0.2,0.4s-0.1,0.3-0.2,0.4c-0.1,0.1-0.3,0.2-0.4,0.2 c-0.1,0-0.3-0.1-0.4-0.2c-0.1-0.1-0.2-0.3-0.2-0.4s0.1-0.3,0.2-0.4C11.1,352.9,11.4,352.9,11.6,353.1z M28.7,335.7 c0.1,0.1,0.2,0.3,0.2,0.4s-0.1,0.3-0.2,0.4s-0.2,0.2-0.4,0.2c-0.1,0-0.3-0.1-0.4-0.2s-0.2-0.3-0.2-0.4c0-0.2,0.1-0.3,0.2-0.4 C28.1,335.5,28.5,335.5,28.7,335.7z M-17.3,323.4c-0.1-0.1-0.2-0.3-0.2-0.4s0.1-0.3,0.2-0.4c0.2-0.2,0.6-0.2,0.8,0 c0.1,0.1,0.2,0.3,0.2,0.4s-0.1,0.3-0.2,0.4s-0.3,0.2-0.4,0.2C-17.1,323.5-17.2,323.5-17.3,323.4z M32.3,319.4 c-0.1-0.1-0.2-0.3-0.2-0.4s0.1-0.3,0.2-0.4c0.2-0.2,0.6-0.2,0.8,0c0.1,0.1,0.2,0.3,0.2,0.4s-0.1,0.3-0.2,0.4 c-0.1,0.1-0.3,0.2-0.4,0.2C32.5,319.6,32.4,319.5,32.3,319.4z M-23.7,323.4c-0.1-0.1-0.2-0.3-0.2-0.4c0-0.2,0.1-0.3,0.2-0.4 c0.2-0.2,0.6-0.2,0.8,0c0.1,0.1,0.2,0.2,0.2,0.4c0,0.1-0.1,0.3-0.2,0.4s-0.3,0.2-0.4,0.2C-23.4,323.5-23.6,323.5-23.7,323.4z M-3.5,315.8c-0.1-0.1-0.2-0.3-0.2-0.4s0.1-0.3,0.2-0.4c0.2-0.2,0.6-0.2,0.8,0c0.1,0.1,0.2,0.3,0.2,0.4s-0.1,0.3-0.2,0.4 c-0.1,0.1-0.3,0.2-0.4,0.2C-3.2,316-3.3,315.9-3.5,315.8z M-5.8,321.4c-0.1-0.1-0.2-0.3-0.2-0.4c0-0.2,0.1-0.3,0.2-0.4 c0.2-0.2,0.6-0.2,0.8,0c0.1,0.1,0.2,0.2,0.2,0.4c0,0.1-0.1,0.3-0.2,0.4s-0.2,0.2-0.4,0.2C-5.6,321.5-5.7,321.5-5.8,321.4z M-11,325 c-0.1-0.1-0.2-0.3-0.2-0.4c0-0.2,0.1-0.3,0.2-0.4c0.2-0.2,0.6-0.2,0.8,0c0.1,0.1,0.2,0.2,0.2,0.4c0,0.1-0.1,0.3-0.2,0.4 c-0.1,0.1-0.3,0.2-0.4,0.2C-10.7,325.1-10.9,325-11,325z M-11,333.3c-0.1-0.1-0.2-0.3-0.2-0.4c0-0.2,0.1-0.3,0.2-0.4 c0.2-0.2,0.6-0.2,0.8,0c0.1,0.1,0.2,0.2,0.2,0.4c0,0.1-0.1,0.3-0.2,0.4c-0.1,0.1-0.3,0.2-0.4,0.2C-10.7,333.4-10.9,333.4-11,333.3z M-22.1,336.5c-0.1-0.1-0.2-0.3-0.2-0.4s0.1-0.3,0.2-0.4c0.2-0.2,0.6-0.2,0.8,0c0.1,0.1,0.2,0.3,0.2,0.4s-0.1,0.3-0.2,0.4 s-0.3,0.2-0.4,0.2C-21.9,336.6-22,336.6-22.1,336.5z M-13,345.2c0.1,0.1,0.2,0.3,0.2,0.4s-0.1,0.3-0.2,0.4c-0.1,0.1-0.3,0.2-0.4,0.2 c-0.1,0-0.3-0.1-0.4-0.2c-0.1-0.1-0.2-0.3-0.2-0.4s0.1-0.3,0.2-0.4C-13.6,345-13.2,345-13,345.2z M-6.6,352.3 c-0.1-0.1-0.2-0.3-0.2-0.4s0.1-0.3,0.2-0.4c0.2-0.2,0.6-0.2,0.8,0c0.1,0.1,0.2,0.3,0.2,0.4s-0.1,0.3-0.2,0.4s-0.3,0.2-0.4,0.2 C-6.4,352.5-6.5,352.4-6.6,352.3z M-20.9,359.5c0.1,0.1,0.2,0.2,0.2,0.4c0,0.1-0.1,0.3-0.2,0.4s-0.3,0.2-0.4,0.2s-0.3-0.1-0.4-0.2 s-0.2-0.3-0.2-0.4s0.1-0.3,0.2-0.4C-21.5,359.3-21.1,359.3-20.9,359.5z M-26.9,357.1c0.1,0.1,0.2,0.2,0.2,0.4c0,0.1-0.1,0.3-0.2,0.4 s-0.3,0.2-0.4,0.2s-0.3-0.1-0.4-0.2s-0.2-0.3-0.2-0.4s0.1-0.3,0.2-0.4C-27.5,356.9-27.1,356.9-26.9,357.1z M4.9,353.9 c0.1,0.1,0.2,0.3,0.2,0.4s-0.1,0.3-0.2,0.4s-0.2,0.2-0.4,0.2c-0.1,0-0.3-0.1-0.4-0.2s-0.2-0.3-0.2-0.4s0.1-0.3,0.2-0.4 C4.3,353.7,4.7,353.7,4.9,353.9z M7.3,350.8c-0.1-0.1-0.2-0.3-0.2-0.4c0-0.2,0.1-0.3,0.2-0.4c0.2-0.2,0.6-0.2,0.8,0 c0.1,0.1,0.2,0.2,0.2,0.4c0,0.1-0.1,0.3-0.2,0.4C8,350.9,7.9,351,7.7,351C7.5,350.9,7.4,350.9,7.3,350.8z M10.8,335.4 c-0.1,0-0.3-0.1-0.4-0.2c-0.1-0.1-0.2-0.3-0.2-0.4s0.1-0.3,0.2-0.4c0.2-0.2,0.6-0.2,0.8,0c0.1,0.1,0.2,0.3,0.2,0.4s-0.1,0.3-0.2,0.4 C11.1,335.4,11,335.4,10.8,335.4z M10.4,328.5c-0.1,0.1-0.3,0.2-0.4,0.2c-0.1,0-0.3-0.1-0.4-0.2c-0.1-0.1-0.2-0.3-0.2-0.4 s0.1-0.3,0.2-0.4c0.2-0.2,0.6-0.2,0.8,0c0.1,0.1,0.2,0.3,0.2,0.4C10.6,328.3,10.5,328.4,10.4,328.5z M39,321.8 c-0.1-0.1-0.2-0.2-0.2-0.4c0-0.1,0.1-0.3,0.2-0.4c0.2-0.2,0.6-0.2,0.8,0c0.1,0.1,0.2,0.2,0.2,0.4c0,0.2-0.1,0.3-0.2,0.4 c-0.1,0.1-0.2,0.2-0.4,0.2C39.3,321.9,39.1,321.9,39,321.8z M22.7,325.3c-0.1-0.1-0.2-0.3-0.2-0.4s0.1-0.3,0.2-0.4 c0.2-0.2,0.6-0.2,0.8,0c0.1,0.1,0.2,0.3,0.2,0.4s-0.1,0.3-0.2,0.4s-0.3,0.2-0.4,0.2C23,325.5,22.9,325.4,22.7,325.3z M33.5,335.7 c-0.1-0.1-0.2-0.3-0.2-0.4s0.1-0.3,0.2-0.4c0.2-0.2,0.6-0.2,0.8,0c0.1,0.1,0.2,0.3,0.2,0.4s-0.1,0.3-0.2,0.4 c-0.1,0.1-0.3,0.2-0.4,0.2C33.7,335.8,33.6,335.8,33.5,335.7z M26.7,343.2c-0.1-0.1-0.2-0.3-0.2-0.4s0.1-0.3,0.2-0.4 c0.2-0.2,0.6-0.2,0.8,0c0.1,0.1,0.2,0.2,0.2,0.4c0,0.1-0.1,0.3-0.2,0.4s-0.3,0.2-0.4,0.2C27,343.4,26.8,343.3,26.7,343.2z M-28.9,340.8c0.1,0.1,0.2,0.2,0.2,0.4c0,0.1-0.1,0.3-0.2,0.4s-0.3,0.2-0.4,0.2s-0.3-0.1-0.4-0.2s-0.2-0.3-0.2-0.4 c0-0.2,0.1-0.3,0.2-0.4C-29.5,340.6-29.1,340.6-28.9,340.8z M-29.7,350.4c0.1,0.1,0.2,0.3,0.2,0.4s-0.1,0.3-0.2,0.4 s-0.3,0.2-0.4,0.2s-0.3-0.1-0.4-0.2s-0.2-0.3-0.2-0.4s0.1-0.3,0.2-0.4C-30.3,350.2-29.9,350.2-29.7,350.4z M-18.9,334.4 c-0.2-0.2-0.3-0.5-0.3-0.7c0-0.3,0.1-0.5,0.3-0.7c0.4-0.4,1.1-0.4,1.5,0c0.2,0.2,0.3,0.5,0.3,0.7c0,0.3-0.1,0.5-0.3,0.7 c-0.2,0.2-0.4,0.3-0.7,0.3C-18.4,334.7-18.7,334.6-18.9,334.4z M-21.9,349.2c0,0.3-0.1,0.5-0.3,0.7c-0.2,0.2-0.4,0.3-0.7,0.3 c-0.3,0-0.5-0.1-0.7-0.3c-0.2-0.2-0.3-0.5-0.3-0.7c0-0.3,0.1-0.5,0.3-0.7c0.4-0.4,1.1-0.4,1.5,0C-22,348.6-21.9,348.9-21.9,349.2z M0.5,357.2c0.2,0.2,0.3,0.5,0.3,0.7c0,0.3-0.1,0.5-0.3,0.7s-0.5,0.3-0.7,0.3c-0.3,0-0.5-0.1-0.7-0.3c-0.2-0.2-0.3-0.5-0.3-0.7 c0-0.3,0.1-0.5,0.3-0.7C-0.6,356.8,0.1,356.8,0.5,357.2z M1.8,331.6c-0.2-0.2-0.3-0.5-0.3-0.7c0-0.3,0.1-0.5,0.3-0.7 c0.4-0.4,1.1-0.4,1.5,0c0.2,0.2,0.3,0.5,0.3,0.7c0,0.3-0.1,0.5-0.3,0.7s-0.4,0.3-0.7,0.3C2.2,331.9,2,331.8,1.8,331.6z M13.7,339.3 c0.4-0.4,1.1-0.4,1.5,0c0.2,0.2,0.3,0.5,0.3,0.7c0,0.3-0.1,0.5-0.3,0.7s-0.4,0.3-0.7,0.3s-0.5-0.1-0.7-0.3c-0.2-0.2-0.3-0.5-0.3-0.7 C13.4,339.8,13.5,339.5,13.7,339.3z M27.2,330.4c-0.2-0.2-0.3-0.5-0.3-0.7c0-0.3,0.1-0.5,0.3-0.7c0.4-0.4,1.1-0.4,1.5,0 c0.2,0.2,0.3,0.5,0.3,0.7c0,0.3-0.1,0.5-0.3,0.7c-0.2,0.2-0.5,0.3-0.7,0.3C27.6,330.7,27.4,330.6,27.2,330.4z M3.4,324.6 c0.4-0.4,1.1-0.4,1.5,0c0.2,0.2,0.3,0.5,0.3,0.7c0,0.3-0.1,0.5-0.3,0.7c-0.2,0.2-0.5,0.3-0.7,0.3c-0.3,0-0.5-0.1-0.7-0.3 c-0.2-0.2-0.3-0.4-0.3-0.7C3.1,325.1,3.2,324.8,3.4,324.6z M34.3,314.6c-0.2-0.2-0.3-0.5-0.3-0.7c0-0.3,0.1-0.5,0.3-0.7 c0.4-0.4,1.1-0.4,1.5,0c0.2,0.2,0.3,0.5,0.3,0.7c0,0.3-0.1,0.5-0.3,0.7s-0.5,0.3-0.7,0.3C34.8,314.9,34.5,314.8,34.3,314.6z M-25.2,334c-0.2-0.2-0.3-0.5-0.3-0.7c0-0.3,0.1-0.5,0.3-0.7c0.4-0.4,1.1-0.4,1.5,0c0.2,0.2,0.3,0.5,0.3,0.7c0,0.3-0.1,0.5-0.3,0.7 c-0.2,0.2-0.4,0.3-0.7,0.3C-24.8,334.3-25,334.2-25.2,334z M-14.1,340c-0.2-0.2-0.3-0.5-0.3-0.7c0-0.3,0.1-0.5,0.3-0.7 c0.4-0.4,1.1-0.4,1.5,0c0.2,0.2,0.3,0.5,0.3,0.7c0,0.3-0.1,0.5-0.3,0.7s-0.5,0.3-0.7,0.3C-13.6,340.3-13.9,340.2-14.1,340z M-15.7,354.7c-0.2-0.2-0.3-0.5-0.3-0.7c0-0.3,0.1-0.5,0.3-0.7c0.4-0.4,1.1-0.4,1.5,0c0.2,0.2,0.3,0.5,0.3,0.7 c0,0.3-0.1,0.5-0.3,0.7s-0.4,0.3-0.7,0.3C-15.3,355-15.5,354.9-15.7,354.7z M4.8,342.9c0.2,0.2,0.3,0.5,0.3,0.7 c0,0.3-0.1,0.5-0.3,0.7c-0.2,0.2-0.5,0.3-0.7,0.3c-0.3,0-0.5-0.1-0.7-0.3c-0.2-0.2-0.3-0.4-0.3-0.7c0-0.3,0.1-0.6,0.3-0.7 C3.7,342.5,4.4,342.5,4.8,342.9z M18,319.3c-0.2-0.2-0.3-0.5-0.3-0.7c0-0.3,0.1-0.5,0.3-0.7c0.4-0.4,1.1-0.4,1.5,0 c0.2,0.2,0.3,0.5,0.3,0.7c0,0.3-0.1,0.5-0.3,0.7c-0.2,0.2-0.5,0.3-0.7,0.3C18.5,319.6,18.2,319.5,18,319.3z M9.7,313.8 c-0.2-0.2-0.3-0.5-0.3-0.7c0-0.3,0.1-0.5,0.3-0.7c0.4-0.4,1.1-0.4,1.5,0c0.2,0.2,0.3,0.5,0.3,0.7c0,0.3-0.1,0.5-0.3,0.7 s-0.5,0.3-0.7,0.3C10.2,314.1,9.9,314,9.7,313.8z M-107.5,302.3c-0.1-0.1-0.2-0.3-0.2-0.4c0-0.2,0.1-0.3,0.2-0.4 c0.2-0.2,0.6-0.2,0.8,0c0.1,0.1,0.2,0.3,0.2,0.4s-0.1,0.3-0.2,0.4s-0.3,0.2-0.4,0.2S-107.3,302.4-107.5,302.3z M-96.3,300.5 c-0.1,0-0.3-0.1-0.4-0.2s-0.2-0.3-0.2-0.4s0.1-0.3,0.2-0.4c0.2-0.2,0.6-0.2,0.8,0c0.1,0.1,0.2,0.3,0.2,0.4s-0.1,0.3-0.2,0.4 C-96.1,300.4-96.2,300.5-96.3,300.5z M-95.9,296.4c-0.1-0.1-0.2-0.3-0.2-0.4c0-0.2,0.1-0.3,0.2-0.4c0.2-0.2,0.6-0.2,0.8,0 c0.1,0.1,0.2,0.2,0.2,0.4c0,0.1-0.1,0.3-0.2,0.4s-0.2,0.2-0.4,0.2C-95.7,296.5-95.8,296.5-95.9,296.4z M-98.3,288.4 c-0.1,0.1-0.3,0.2-0.4,0.2s-0.3-0.1-0.4-0.2s-0.2-0.3-0.2-0.4s0.1-0.3,0.2-0.4c0.2-0.2,0.6-0.2,0.8,0c0.1,0.1,0.2,0.3,0.2,0.4 C-98.2,288.2-98.2,288.3-98.3,288.4z M-114.2,339.6c0.1,0.1,0.2,0.2,0.2,0.4c0,0.1-0.1,0.3-0.2,0.4s-0.3,0.2-0.4,0.2 s-0.3-0.1-0.4-0.2s-0.2-0.3-0.2-0.4c0-0.2,0.1-0.3,0.2-0.4C-114.8,339.4-114.4,339.4-114.2,339.6z M-115,334.2 c-0.1,0-0.3-0.1-0.4-0.2s-0.2-0.3-0.2-0.4s0.1-0.3,0.2-0.4c0.2-0.2,0.6-0.2,0.8,0c0.1,0.1,0.2,0.3,0.2,0.4s-0.1,0.3-0.2,0.4 C-114.7,334.2-114.9,334.2-115,334.2z M-119,333.7c0.1,0.1,0.2,0.3,0.2,0.4s-0.1,0.3-0.2,0.4s-0.3,0.2-0.4,0.2s-0.3-0.1-0.4-0.2 s-0.2-0.3-0.2-0.4s0.1-0.3,0.2-0.4C-119.6,333.5-119.2,333.5-119,333.7z M-93.2,339.2c0.1,0.1,0.2,0.2,0.2,0.4 c0,0.1-0.1,0.3-0.2,0.4s-0.3,0.2-0.4,0.2s-0.3-0.1-0.4-0.2s-0.2-0.3-0.2-0.4c0-0.2,0.1-0.3,0.2-0.4C-93.8,339-93.4,339-93.2,339.2z M-101.5,344.8c0.1,0.1,0.2,0.3,0.2,0.4s-0.1,0.3-0.2,0.4s-0.3,0.2-0.4,0.2s-0.3-0.1-0.4-0.2s-0.2-0.3-0.2-0.4s0.1-0.3,0.2-0.4 C-102.1,344.6-101.7,344.6-101.5,344.8z M-94,347.2c0.1,0.1,0.2,0.3,0.2,0.4s-0.1,0.3-0.2,0.4s-0.3,0.2-0.4,0.2s-0.3-0.1-0.4-0.2 s-0.2-0.3-0.2-0.4s0.1-0.3,0.2-0.4C-94.5,347-94.2,347-94,347.2z M-94,350c0.1,0.1,0.2,0.2,0.2,0.4c0,0.1-0.1,0.3-0.2,0.4 s-0.3,0.2-0.4,0.2s-0.3-0.1-0.4-0.2s-0.2-0.3-0.2-0.4c0-0.2,0.1-0.3,0.2-0.4C-94.5,349.8-94.2,349.8-94,350z M-91.6,351.9 c-0.1-0.1-0.2-0.3-0.2-0.4s0.1-0.3,0.2-0.4c0.2-0.2,0.6-0.2,0.8,0c0.1,0.1,0.2,0.3,0.2,0.4s-0.1,0.3-0.2,0.4s-0.3,0.2-0.4,0.2 S-91.5,352-91.6,351.9z M-87.6,348c0.1,0.1,0.2,0.3,0.2,0.4s-0.1,0.3-0.2,0.4s-0.3,0.2-0.4,0.2s-0.3-0.1-0.4-0.2s-0.2-0.3-0.2-0.4 s0.1-0.3,0.2-0.4C-88.2,347.8-87.8,347.8-87.6,348z M-82.5,347.6c0.1,0.1,0.2,0.3,0.2,0.4s-0.1,0.3-0.2,0.4s-0.3,0.2-0.4,0.2 s-0.3-0.1-0.4-0.2s-0.2-0.3-0.2-0.4s0.1-0.3,0.2-0.4C-83,347.4-82.7,347.4-82.5,347.6z M-78.5,339.2c0.1,0.1,0.2,0.3,0.2,0.4 s-0.1,0.3-0.2,0.4s-0.3,0.2-0.4,0.2s-0.3-0.1-0.4-0.2s-0.2-0.3-0.2-0.4s0.1-0.3,0.2-0.4C-79.1,339-78.7,339-78.5,339.2z M-76.1,330.7c-0.1,0-0.3-0.1-0.4-0.2s-0.2-0.2-0.2-0.4c0-0.1,0.1-0.3,0.2-0.4c0.2-0.2,0.6-0.2,0.8,0c0.1,0.1,0.2,0.3,0.2,0.4 s-0.1,0.3-0.2,0.4S-76,330.7-76.1,330.7z M-64.6,339.6c-0.1-0.1-0.2-0.3-0.2-0.4s0.1-0.3,0.2-0.4c0.2-0.2,0.6-0.2,0.8,0 c0.1,0.1,0.2,0.3,0.2,0.4s-0.1,0.3-0.2,0.4c-0.1,0.1-0.3,0.2-0.4,0.2C-64.3,339.8-64.5,339.7-64.6,339.6z M-62.2,332.5 c0.1,0.1,0.2,0.2,0.2,0.4c0,0.1-0.1,0.3-0.2,0.4c-0.1,0.1-0.3,0.2-0.4,0.2c-0.1,0-0.3-0.1-0.4-0.2c-0.1-0.1-0.2-0.2-0.2-0.4 c0-0.2,0.1-0.3,0.2-0.4C-62.8,332.3-62.4,332.3-62.2,332.5z M-57.5,333.3c0.1,0.1,0.2,0.2,0.2,0.4c0,0.1-0.1,0.3-0.2,0.4 c-0.1,0.1-0.3,0.2-0.4,0.2c-0.2,0-0.3-0.1-0.4-0.2c-0.1-0.1-0.2-0.2-0.2-0.4c0-0.1,0.1-0.3,0.2-0.4C-58,333.1-57.7,333.1-57.5,333.3 z M-57.4,344.8c0.1,0.1,0.2,0.2,0.2,0.4c0,0.1-0.1,0.3-0.2,0.4c-0.1,0.1-0.3,0.2-0.4,0.2c-0.2,0-0.3-0.1-0.4-0.2 c-0.1-0.1-0.2-0.2-0.2-0.4c0-0.2,0.1-0.3,0.2-0.4C-58,344.6-57.7,344.6-57.4,344.8z M-63.2,348.4c0,0.1-0.1,0.3-0.2,0.4 c-0.1,0.1-0.2,0.2-0.4,0.2c-0.1,0-0.3-0.1-0.4-0.2s-0.2-0.3-0.2-0.4s0.1-0.3,0.2-0.4c0.2-0.2,0.6-0.2,0.8,0 C-63.3,348.1-63.2,348.2-63.2,348.4z M-63.8,359.9c0.1,0.1,0.2,0.3,0.2,0.4s-0.1,0.3-0.2,0.4c-0.1,0.1-0.2,0.2-0.4,0.2 c-0.1,0-0.3-0.1-0.4-0.2s-0.2-0.3-0.2-0.4s0-0.3,0.2-0.4C-64.3,359.7-64,359.7-63.8,359.9z M-60.2,359.9c0.1,0.1,0.2,0.2,0.2,0.4 c0,0.1-0.1,0.3-0.2,0.4c-0.1,0.1-0.3,0.2-0.4,0.2c-0.1,0-0.3-0.1-0.4-0.2c-0.1-0.1-0.2-0.3-0.2-0.4c0-0.2,0.1-0.3,0.2-0.4 C-60.8,359.7-60.4,359.7-60.2,359.9z M-55.9,358.7c0.1,0.1,0.2,0.3,0.2,0.4s-0.1,0.3-0.2,0.4c-0.1,0.1-0.3,0.2-0.4,0.2 c-0.1,0-0.3-0.1-0.4-0.2c-0.1-0.1-0.2-0.3-0.2-0.4s0.1-0.3,0.2-0.4C-56.4,358.5-56.1,358.5-55.9,358.7z M-52.3,356.3 c0.1,0.1,0.2,0.2,0.2,0.4c0,0.1-0.1,0.3-0.2,0.4c-0.1,0.1-0.3,0.2-0.4,0.2c-0.1,0-0.3-0.1-0.4-0.2c-0.1-0.1-0.2-0.2-0.2-0.4 c0-0.1,0.1-0.3,0.2-0.4C-52.9,356.1-52.5,356.1-52.3,356.3z M-112.2,302.3c-0.1-0.1-0.2-0.3-0.2-0.4s0.1-0.3,0.2-0.4 c0.2-0.2,0.6-0.2,0.8,0c0.1,0.1,0.2,0.3,0.2,0.4s-0.1,0.3-0.2,0.4s-0.3,0.2-0.4,0.2C-112,302.5-112.1,302.4-112.2,302.3z M-108.7,296.8c0.1,0.1,0.2,0.3,0.2,0.4s-0.1,0.3-0.2,0.4s-0.3,0.2-0.4,0.2s-0.3-0.1-0.4-0.2s-0.2-0.3-0.2-0.4s0.1-0.3,0.2-0.4 C-109.2,296.6-108.9,296.6-108.7,296.8z M-68.2,317.8c0.1,0.1,0.2,0.2,0.2,0.4c0,0.1-0.1,0.3-0.2,0.4s-0.3,0.2-0.4,0.2 s-0.3-0.1-0.4-0.2s-0.2-0.3-0.2-0.4s0.1-0.3,0.2-0.4C-68.8,317.6-68.4,317.6-68.2,317.8z M-68.6,324.2c0.1,0.1,0.2,0.3,0.2,0.4 s-0.1,0.3-0.2,0.4s-0.3,0.2-0.4,0.2c-0.2,0-0.3-0.1-0.4-0.2s-0.2-0.2-0.2-0.4c0-0.1,0.1-0.3,0.2-0.4 C-69.2,324-68.8,323.9-68.6,324.2z M-59.8,330.1c0.1,0.1,0.2,0.3,0.2,0.4s-0.1,0.3-0.2,0.4c-0.1,0.1-0.3,0.2-0.4,0.2 c-0.1,0-0.3-0.1-0.4-0.2c-0.1-0.1-0.2-0.2-0.2-0.4c0-0.2,0.1-0.3,0.2-0.4C-60.4,329.9-60,329.9-59.8,330.1z M-45.9,334.9 c0.1,0.1,0.2,0.2,0.2,0.4c0,0.1-0.1,0.3-0.2,0.4c-0.1,0.1-0.3,0.2-0.4,0.2c-0.1,0-0.3-0.1-0.4-0.2c-0.1-0.1-0.2-0.3-0.2-0.4 c0-0.2,0.1-0.3,0.2-0.4C-46.5,334.7-46.1,334.7-45.9,334.9z M-41.6,340.8c0.1,0.1,0.2,0.2,0.2,0.4c0,0.1-0.1,0.3-0.2,0.4 c-0.1,0.1-0.3,0.2-0.4,0.2c-0.1,0-0.3-0.1-0.4-0.2c-0.1-0.1-0.2-0.3-0.2-0.4c0-0.2,0.1-0.3,0.2-0.4 C-42.2,340.6-41.8,340.6-41.6,340.8z M-34.4,330.1c0.1,0.1,0.2,0.3,0.2,0.4s-0.1,0.3-0.2,0.4c-0.1,0.1-0.3,0.2-0.4,0.2 c-0.1,0-0.3-0.1-0.4-0.2c-0.1-0.1-0.2-0.3-0.2-0.4s0.1-0.3,0.2-0.4C-35,329.9-34.6,329.9-34.4,330.1z M-93.2,333.3 c0.1,0.1,0.2,0.3,0.2,0.4s-0.1,0.3-0.2,0.4s-0.3,0.2-0.4,0.2s-0.3-0.1-0.4-0.2s-0.2-0.3-0.2-0.4s0.1-0.3,0.2-0.4 C-93.7,333.1-93.4,333.1-93.2,333.3z M-103.1,318.6c0.1,0.1,0.2,0.3,0.2,0.4s-0.1,0.3-0.2,0.4s-0.3,0.2-0.4,0.2s-0.3-0.1-0.4-0.2 s-0.2-0.3-0.2-0.4s0.1-0.3,0.2-0.4C-103.7,318.4-103.3,318.4-103.1,318.6z M-97.5,315c0.1,0.1,0.2,0.2,0.2,0.4 c0,0.1-0.1,0.3-0.2,0.4s-0.3,0.2-0.4,0.2s-0.3-0.1-0.4-0.2s-0.2-0.3-0.2-0.4c0-0.2,0.1-0.3,0.2-0.4C-98.1,314.8-97.7,314.8-97.5,315 z M-117.8,325.3c0.1,0.1,0.2,0.2,0.2,0.4c0,0.1-0.1,0.3-0.2,0.4s-0.2,0.2-0.4,0.2c-0.1,0-0.3-0.1-0.4-0.2s-0.2-0.3-0.2-0.4 c0-0.2,0.1-0.3,0.2-0.4C-118.4,325.1-118,325.1-117.8,325.3z M-124.5,315.8c0.1,0.1,0.2,0.2,0.2,0.4c0,0.1-0.1,0.3-0.2,0.4 s-0.2,0.2-0.4,0.2c-0.1,0-0.3-0.1-0.4-0.2s-0.2-0.3-0.2-0.4c0-0.2,0.1-0.3,0.2-0.4C-125.1,315.6-124.8,315.6-124.5,315.8z M-102.7,306.7c0.1,0.1,0.2,0.3,0.2,0.4s-0.1,0.3-0.2,0.4s-0.3,0.2-0.4,0.2s-0.3-0.1-0.4-0.2s-0.2-0.3-0.2-0.4s0.1-0.3,0.2-0.4 C-103.3,306.5-102.9,306.5-102.7,306.7z M-82.5,307.5c0.1,0.1,0.2,0.3,0.2,0.4s-0.1,0.3-0.2,0.4s-0.2,0.2-0.4,0.2 c-0.1,0-0.3-0.1-0.4-0.2s-0.2-0.3-0.2-0.4s0.1-0.3,0.2-0.4C-83,307.3-82.7,307.3-82.5,307.5z M-84,310.7c0.1,0.1,0.2,0.3,0.2,0.4 s-0.1,0.3-0.2,0.4s-0.3,0.2-0.4,0.2s-0.3-0.1-0.4-0.2s-0.2-0.3-0.2-0.4s0.1-0.3,0.2-0.4C-84.6,310.5-84.2,310.5-84,310.7z M-100.7,326.3c-0.1,0-0.3-0.1-0.4-0.2s-0.2-0.3-0.2-0.4s0.1-0.3,0.2-0.4c0.2-0.2,0.6-0.2,0.8,0c0.1,0.1,0.2,0.3,0.2,0.4 s-0.1,0.3-0.2,0.4C-100.4,326.2-100.6,326.3-100.7,326.3z M-111,317.4c0.1,0.1,0.2,0.3,0.2,0.4s-0.1,0.3-0.2,0.4s-0.3,0.2-0.4,0.2 s-0.3-0.1-0.4-0.2s-0.2-0.3-0.2-0.4s0.1-0.3,0.2-0.4C-111.6,317.2-111.3,317.2-111,317.4z M-36.8,363.5c0.1,0.1,0.2,0.2,0.2,0.4 c0,0.1-0.1,0.3-0.2,0.4c-0.1,0.1-0.3,0.2-0.4,0.2c-0.1,0-0.3-0.1-0.4-0.2c-0.1-0.1-0.2-0.3-0.2-0.4c0-0.2,0.1-0.3,0.2-0.4 C-37.4,363.3-37,363.3-36.8,363.5z M-85.6,335.7c0.1,0.1,0.2,0.3,0.2,0.4s-0.1,0.3-0.2,0.4s-0.2,0.2-0.4,0.2c-0.1,0-0.3-0.1-0.4-0.2 s-0.2-0.3-0.2-0.4c0-0.2,0.1-0.3,0.2-0.4C-86.2,335.5-85.8,335.5-85.6,335.7z M-62.6,319.8c-0.1-0.1-0.2-0.2-0.2-0.4 c0-0.2,0.1-0.3,0.2-0.4c0.2-0.2,0.6-0.2,0.8,0c0.1,0.1,0.2,0.2,0.2,0.4c0,0.1-0.1,0.3-0.2,0.4c-0.1,0.1-0.3,0.2-0.4,0.2 C-62.3,319.9-62.5,319.9-62.6,319.8z M-49.1,332.5c-0.1-0.1-0.2-0.3-0.2-0.4c0-0.2,0.1-0.3,0.2-0.4c0.2-0.2,0.6-0.2,0.8,0 c0.1,0.1,0.2,0.2,0.2,0.4c0,0.1-0.1,0.3-0.2,0.4c-0.1,0.1-0.3,0.2-0.4,0.2C-48.9,332.7-49,332.6-49.1,332.5z M-81.3,318.6 c0.1,0.1,0.2,0.3,0.2,0.4s-0.1,0.3-0.2,0.4s-0.3,0.2-0.4,0.2s-0.3-0.1-0.4-0.2s-0.2-0.3-0.2-0.4s0.1-0.3,0.2-0.4 C-81.8,318.4-81.5,318.4-81.3,318.6z M-113.4,300.7c0.1,0.1,0.2,0.3,0.2,0.4s-0.1,0.3-0.2,0.4s-0.3,0.2-0.4,0.2s-0.3-0.1-0.4-0.2 s-0.2-0.3-0.2-0.4s0.1-0.3,0.2-0.4C-114,300.5-113.6,300.5-113.4,300.7z M-120.2,309.9c-0.1-0.1-0.2-0.3-0.2-0.4s0.1-0.3,0.2-0.4 c0.2-0.2,0.6-0.2,0.8,0c0.1,0.1,0.2,0.3,0.2,0.4s-0.1,0.3-0.2,0.4s-0.3,0.2-0.4,0.2C-119.9,310-120.1,310-120.2,309.9z M-112.6,308.4c-0.1,0-0.3-0.1-0.4-0.2s-0.2-0.3-0.2-0.4c0-0.2,0.1-0.3,0.2-0.4c0.2-0.2,0.6-0.2,0.8,0c0.1,0.1,0.2,0.2,0.2,0.4 c0,0.1-0.1,0.3-0.2,0.4C-112.3,308.4-112.5,308.4-112.6,308.4z M-117,315c0.1,0.1,0.2,0.3,0.2,0.4s-0.1,0.3-0.2,0.4 s-0.3,0.2-0.4,0.2s-0.3-0.1-0.4-0.2s-0.2-0.3-0.2-0.4s0.1-0.3,0.2-0.4C-117.6,314.8-117.2,314.8-117,315z M-119.8,321.5 c-0.1,0-0.3-0.1-0.4-0.2s-0.2-0.3-0.2-0.4c0-0.2,0.1-0.3,0.2-0.4c0.2-0.2,0.6-0.2,0.8,0c0.1,0.1,0.2,0.2,0.2,0.4 c0,0.1-0.1,0.3-0.2,0.4C-119.5,321.5-119.6,321.5-119.8,321.5z M-124.5,324.2c0.1,0.1,0.2,0.2,0.2,0.4c0,0.1-0.1,0.3-0.2,0.4 s-0.3,0.2-0.4,0.2s-0.3-0.1-0.4-0.2s-0.2-0.3-0.2-0.4c0-0.2,0.1-0.3,0.2-0.4C-125.1,324-124.8,323.9-124.5,324.2z M-103.1,334.5 c0.1,0.1,0.2,0.3,0.2,0.4s-0.1,0.3-0.2,0.4s-0.3,0.2-0.4,0.2s-0.3-0.1-0.4-0.2s-0.2-0.3-0.2-0.4s0.1-0.3,0.2-0.4 C-103.7,334.3-103.3,334.3-103.1,334.5z M-103.9,328.5c-0.1,0.1-0.3,0.2-0.4,0.2s-0.3-0.1-0.4-0.2s-0.2-0.3-0.2-0.4s0.1-0.3,0.2-0.4 c0.2-0.2,0.6-0.2,0.8,0c0.1,0.1,0.2,0.3,0.2,0.4C-103.7,328.3-103.8,328.4-103.9,328.5z M-94.4,308.7c-0.1-0.1-0.2-0.3-0.2-0.4 c0-0.2,0.1-0.3,0.2-0.4c0.2-0.2,0.6-0.2,0.8,0c0.1,0.1,0.2,0.2,0.2,0.4c0,0.1-0.1,0.3-0.2,0.4s-0.3,0.2-0.4,0.2 C-94.1,308.8-94.2,308.8-94.4,308.7z M-91.2,303.5c-0.1-0.1-0.2-0.3-0.2-0.4s0-0.3,0.2-0.4c0.2-0.2,0.6-0.2,0.8,0 c0.1,0.1,0.2,0.3,0.2,0.4s-0.1,0.3-0.2,0.4s-0.2,0.2-0.4,0.2C-90.9,303.7-91.1,303.6-91.2,303.5z M-101.5,294.8 c-0.1-0.1-0.2-0.3-0.2-0.4s0.1-0.3,0.2-0.4c0.2-0.2,0.6-0.2,0.8,0c0.1,0.1,0.2,0.3,0.2,0.4s-0.1,0.3-0.2,0.4s-0.3,0.2-0.4,0.2 C-101.3,294.9-101.4,294.9-101.5,294.8z M-70.1,313c-0.1-0.1-0.2-0.2-0.2-0.4c0-0.2,0.1-0.3,0.2-0.4c0.2-0.2,0.6-0.2,0.8,0 c0.1,0.1,0.2,0.2,0.2,0.4c0,0.1-0.1,0.3-0.2,0.4s-0.3,0.2-0.4,0.2C-69.9,313.2-70,313.1-70.1,313z M-75.3,321.8 c-0.1-0.1-0.2-0.2-0.2-0.4c0-0.1,0.1-0.3,0.2-0.4c0.2-0.2,0.6-0.2,0.8,0c0.1,0.1,0.2,0.2,0.2,0.4c0,0.2-0.1,0.3-0.2,0.4 s-0.2,0.2-0.4,0.2C-75.1,321.9-75.2,321.9-75.3,321.8z M-91.6,325.3c-0.1-0.1-0.2-0.3-0.2-0.4s0.1-0.3,0.2-0.4 c0.2-0.2,0.6-0.2,0.8,0c0.1,0.1,0.2,0.3,0.2,0.4s-0.1,0.3-0.2,0.4s-0.3,0.2-0.4,0.2S-91.5,325.4-91.6,325.3z M-79.9,335.3 c0,0.1-0.1,0.3-0.2,0.4s-0.3,0.2-0.4,0.2s-0.3-0.1-0.4-0.2s-0.2-0.3-0.2-0.4s0.1-0.3,0.2-0.4c0.2-0.2,0.6-0.2,0.8,0 C-80,335-79.9,335.1-79.9,335.3z M-72.1,341.6c0.1,0.1,0.2,0.2,0.2,0.4c0,0.1-0.1,0.3-0.2,0.4s-0.3,0.2-0.4,0.2s-0.3-0.1-0.4-0.2 s-0.2-0.3-0.2-0.4c0-0.2,0.1-0.3,0.2-0.4C-72.7,341.4-72.3,341.4-72.1,341.6z M-71,348.8c0.1,0.1,0.2,0.3,0.2,0.4s-0.1,0.3-0.2,0.4 s-0.3,0.2-0.4,0.2s-0.3-0.1-0.4-0.2s-0.2-0.3-0.2-0.4s0.1-0.3,0.2-0.4C-71.5,348.5-71.2,348.6-71,348.8z M-78.1,353.1 c0.1,0.1,0.2,0.3,0.2,0.4s-0.1,0.3-0.2,0.4s-0.3,0.2-0.4,0.2s-0.3-0.1-0.4-0.2s-0.2-0.3-0.2-0.4s0.1-0.3,0.2-0.4 C-78.7,352.9-78.3,352.9-78.1,353.1z M-81.3,358.3c0.1,0.1,0.2,0.3,0.2,0.4s-0.1,0.3-0.2,0.4s-0.2,0.2-0.4,0.2 c-0.1,0-0.3-0.1-0.4-0.2s-0.2-0.3-0.2-0.4s0.1-0.3,0.2-0.4C-81.8,358.1-81.5,358.1-81.3,358.3z M-86.8,342.4 c0.1,0.1,0.2,0.2,0.2,0.4c0,0.1-0.1,0.3-0.2,0.4s-0.3,0.2-0.4,0.2s-0.3-0.1-0.4-0.2s-0.2-0.3-0.2-0.4s0.1-0.3,0.2-0.4 C-87.4,342.2-87,342.2-86.8,342.4z M-44.7,350c-0.1,0.1-0.3,0.2-0.4,0.2c-0.1,0-0.3-0.1-0.4-0.2c-0.1-0.1-0.2-0.3-0.2-0.4 c0-0.2,0.1-0.3,0.2-0.4c0.2-0.2,0.6-0.2,0.8,0c0.1,0.1,0.2,0.2,0.2,0.4C-44.6,349.7-44.6,349.8-44.7,350z M-49.5,340 c-0.1,0.1-0.2,0.2-0.4,0.2s-0.3-0.1-0.4-0.2c-0.1-0.1-0.2-0.2-0.2-0.4c0-0.1,0.1-0.3,0.2-0.4c0.2-0.2,0.6-0.2,0.8,0 c0.1,0.1,0.2,0.3,0.2,0.4C-49.3,339.8-49.4,339.9-49.5,340z M-58.6,339.8c-0.1,0-0.3-0.1-0.4-0.2c-0.1-0.1-0.2-0.2-0.2-0.4 c0-0.2,0.1-0.3,0.2-0.4c0.2-0.2,0.6-0.2,0.8,0c0.1,0.1,0.2,0.3,0.2,0.4s-0.1,0.3-0.2,0.4C-58.3,339.7-58.5,339.8-58.6,339.8z M-58.6,325.7c-0.1-0.1-0.2-0.2-0.2-0.4c0-0.1,0.1-0.3,0.2-0.4c0.2-0.2,0.6-0.2,0.8,0c0.1,0.1,0.2,0.3,0.2,0.4s-0.1,0.3-0.2,0.4 c-0.1,0.1-0.2,0.2-0.4,0.2C-58.4,325.9-58.5,325.8-58.6,325.7z M-39.2,334.9c-0.1-0.1-0.2-0.3-0.2-0.4s0.1-0.3,0.2-0.4 c0.2-0.2,0.6-0.2,0.8,0c0.1,0.1,0.2,0.3,0.2,0.4s-0.1,0.3-0.2,0.4c-0.1,0.1-0.3,0.2-0.4,0.2C-38.9,335-39.1,335-39.2,334.9z M-34.4,344.8c0.1,0.1,0.2,0.3,0.2,0.4s-0.1,0.3-0.2,0.4c-0.1,0.1-0.3,0.2-0.4,0.2c-0.1,0-0.3-0.1-0.4-0.2c-0.1-0.1-0.2-0.3-0.2-0.4 s0.1-0.3,0.2-0.4C-35,344.6-34.6,344.6-34.4,344.8z M-44,356.7c0.1,0.1,0.2,0.3,0.2,0.4s-0.1,0.3-0.2,0.4c-0.1,0.1-0.3,0.2-0.4,0.2 c-0.1,0-0.3-0.1-0.4-0.2c-0.1-0.1-0.2-0.3-0.2-0.4s0.1-0.3,0.2-0.4C-44.5,356.5-44.2,356.5-44,356.7z M-33.2,355.5 c0.1,0.1,0.2,0.2,0.2,0.4c0,0.1-0.1,0.3-0.2,0.4c-0.1,0.1-0.3,0.2-0.4,0.2c-0.1,0-0.3-0.1-0.4-0.2c-0.1-0.1-0.2-0.3-0.2-0.4 c0-0.2,0.1-0.3,0.2-0.4C-33.8,355.3-33.4,355.3-33.2,355.5z M-42,362.7c0.1,0.1,0.2,0.2,0.2,0.4c0,0.1-0.1,0.3-0.2,0.4 c-0.1,0.1-0.3,0.2-0.4,0.2c-0.1,0-0.3-0.1-0.4-0.2c-0.1-0.1-0.2-0.3-0.2-0.4s0.1-0.3,0.2-0.4C-42.6,362.5-42.2,362.5-42,362.7z M-31.6,324.2c0.1,0.1,0.2,0.3,0.2,0.4s-0.1,0.3-0.2,0.4s-0.3,0.2-0.4,0.2c-0.1,0-0.3-0.1-0.4-0.2s-0.2-0.3-0.2-0.4s0.1-0.3,0.2-0.4 C-32.2,323.9-31.9,323.9-31.6,324.2z M-36,354.3c0.1,0.1,0.2,0.3,0.2,0.4s-0.1,0.3-0.2,0.4c-0.1,0.1-0.3,0.2-0.4,0.2 c-0.1,0-0.3-0.1-0.4-0.2c-0.1-0.1-0.2-0.3-0.2-0.4c0-0.2,0.1-0.3,0.2-0.4C-36.6,354.1-36.2,354.1-36,354.3z M-111.1,331.6 c-0.2,0.2-0.4,0.3-0.7,0.3c-0.3,0-0.5-0.1-0.7-0.3c-0.2-0.2-0.3-0.5-0.3-0.7c0-0.3,0.1-0.5,0.3-0.7c0.4-0.4,1.1-0.4,1.5,0 c0.2,0.2,0.3,0.5,0.3,0.7C-110.8,331.2-110.9,331.4-111.1,331.6z M-99.2,339.3c0.2,0.2,0.3,0.5,0.3,0.7c0,0.3-0.1,0.5-0.3,0.7 c-0.2,0.2-0.4,0.3-0.7,0.3c-0.3,0-0.5-0.1-0.7-0.3c-0.2-0.2-0.3-0.5-0.3-0.7c0-0.3,0.1-0.5,0.3-0.7 C-100.3,338.9-99.6,338.9-99.2,339.3z M-90.5,354c0.2,0.2,0.3,0.4,0.3,0.7c0,0.3-0.1,0.5-0.3,0.7c-0.2,0.2-0.5,0.3-0.7,0.3 c-0.3,0-0.5-0.1-0.7-0.3c-0.2-0.2-0.3-0.5-0.3-0.7c0-0.3,0.1-0.5,0.3-0.7C-91.5,353.6-90.8,353.6-90.5,354z M-78.1,345.7 c0.2,0.2,0.3,0.5,0.3,0.7c0,0.3-0.1,0.5-0.3,0.7c-0.2,0.2-0.5,0.3-0.7,0.3c-0.3,0-0.5-0.1-0.7-0.3c-0.2-0.2-0.3-0.5-0.3-0.7 c0-0.3,0.1-0.5,0.3-0.7C-79.2,345.3-78.5,345.3-78.1,345.7z M-61.2,353.9c0,0.3-0.1,0.5-0.3,0.7s-0.5,0.3-0.7,0.3 c-0.3,0-0.5-0.1-0.7-0.3c-0.2-0.2-0.3-0.5-0.3-0.7c0-0.3,0.1-0.5,0.3-0.7c0.4-0.4,1.1-0.4,1.5,0C-61.3,353.4-61.2,353.7-61.2,353.9z M-57.1,361.9c0.2,0.2,0.3,0.4,0.3,0.7c0,0.3-0.1,0.5-0.3,0.7s-0.5,0.3-0.7,0.3c-0.3,0-0.5-0.1-0.7-0.3c-0.2-0.2-0.3-0.5-0.3-0.7 c0-0.3,0.1-0.5,0.3-0.7C-58.2,361.6-57.5,361.6-57.1,361.9z M-104.3,298.7c-0.2,0.2-0.5,0.3-0.7,0.3c-0.3,0-0.5-0.1-0.7-0.3 c-0.2-0.2-0.3-0.5-0.3-0.7c0-0.3,0.1-0.5,0.3-0.7c0.4-0.4,1.1-0.4,1.5,0c0.2,0.2,0.3,0.5,0.3,0.7 C-104,298.2-104.2,298.5-104.3,298.7z M-63.3,328.1c-0.2-0.2-0.3-0.5-0.3-0.7c0-0.3,0.1-0.5,0.3-0.7c0.4-0.4,1.1-0.4,1.5,0 c0.2,0.2,0.3,0.4,0.3,0.7c0,0.3-0.1,0.5-0.3,0.7s-0.5,0.3-0.7,0.3C-62.9,328.4-63.1,328.3-63.3,328.1z M-38.8,342.3 c-0.3,0-0.5-0.1-0.7-0.3c-0.2-0.2-0.3-0.5-0.3-0.7c0-0.3,0.1-0.5,0.3-0.7c0.3-0.4,1.1-0.4,1.4,0c0.2,0.2,0.3,0.5,0.3,0.7 c0,0.3-0.1,0.5-0.3,0.7C-38.2,342.1-38.5,342.3-38.8,342.3z M-69.4,334.1c0.2,0.2,0.3,0.5,0.3,0.7c0,0.3-0.1,0.5-0.3,0.7 c-0.2,0.2-0.5,0.3-0.7,0.3c-0.3,0-0.5-0.1-0.7-0.3c-0.2-0.2-0.3-0.5-0.3-0.7c0-0.3,0.1-0.5,0.3-0.7 C-70.5,333.8-69.8,333.8-69.4,334.1z M-85.7,329c0.2,0.2,0.3,0.5,0.3,0.7c0,0.3-0.1,0.5-0.3,0.7c-0.2,0.2-0.5,0.3-0.7,0.3 c-0.3,0-0.5-0.1-0.7-0.3c-0.2-0.2-0.3-0.5-0.3-0.7c0-0.3,0.1-0.5,0.3-0.7C-86.8,328.6-86.1,328.6-85.7,329z M-118.9,305 c-0.2-0.2-0.3-0.5-0.3-0.7c0-0.3,0.1-0.5,0.3-0.7c0.4-0.4,1.1-0.4,1.5,0c0.2,0.2,0.3,0.5,0.3,0.7c0,0.3-0.1,0.5-0.3,0.7 c-0.2,0.2-0.4,0.3-0.7,0.3C-118.4,305.3-118.7,305.2-118.9,305z M-74.6,358.4c0.2,0.2,0.3,0.5,0.3,0.7s-0.1,0.5-0.3,0.7 c-0.2,0.2-0.5,0.3-0.7,0.3c-0.3,0-0.5-0.1-0.7-0.3c-0.2-0.2-0.3-0.5-0.3-0.7s0.1-0.5,0.3-0.7C-75.7,358-75,358-74.6,358.4z M-109.5,324.6c0.2,0.2,0.3,0.5,0.3,0.7c0,0.3-0.1,0.5-0.3,0.7c-0.2,0.2-0.5,0.3-0.7,0.3c-0.3,0-0.5-0.1-0.7-0.3 c-0.2-0.2-0.3-0.4-0.3-0.7c0-0.3,0.1-0.5,0.3-0.7C-110.6,324.2-109.9,324.2-109.5,324.6z M-106.3,304.4c0.2,0.2,0.3,0.4,0.3,0.7 c0,0.3-0.1,0.5-0.3,0.7c-0.2,0.2-0.5,0.3-0.7,0.3c-0.3,0-0.5-0.1-0.7-0.3c-0.2-0.2-0.3-0.5-0.3-0.7c0-0.3,0.1-0.5,0.3-0.7 C-107.4,304-106.7,304-106.3,304.4z M-80,314.6c-0.2-0.2-0.3-0.5-0.3-0.7c0-0.3,0.1-0.5,0.3-0.7c0.4-0.4,1.1-0.4,1.5,0 c0.2,0.2,0.3,0.5,0.3,0.7c0,0.3-0.1,0.5-0.3,0.7c-0.2,0.2-0.5,0.3-0.7,0.3C-79.5,314.9-79.8,314.8-80,314.6z M-38.7,329.3 c-0.2-0.2-0.3-0.5-0.3-0.7c0-0.3,0.1-0.5,0.3-0.7c0.4-0.4,1.1-0.4,1.5,0c0.2,0.2,0.3,0.4,0.3,0.7c0,0.3-0.1,0.5-0.3,0.7 s-0.5,0.3-0.7,0.3C-38.3,329.6-38.5,329.4-38.7,329.3z M-37.3,350.7c-0.2,0.2-0.5,0.3-0.7,0.3c-0.3,0-0.5-0.1-0.7-0.3 c-0.2-0.2-0.3-0.5-0.3-0.7c0-0.3,0.1-0.5,0.3-0.7c0.4-0.4,1.1-0.4,1.5,0c0.2,0.2,0.3,0.4,0.3,0.7C-37,350.2-37.1,350.5-37.3,350.7z M-109.5,342.9c0.2,0.2,0.3,0.5,0.3,0.7c0,0.3-0.1,0.5-0.3,0.7c-0.2,0.2-0.5,0.3-0.7,0.3c-0.3,0-0.5-0.1-0.7-0.3 c-0.2-0.2-0.3-0.4-0.3-0.7c0-0.3,0.1-0.6,0.3-0.7C-110.6,342.5-109.9,342.5-109.5,342.9z M-94.8,319.3c-0.2,0.2-0.5,0.3-0.7,0.3 c-0.3,0-0.5-0.1-0.7-0.3c-0.2-0.2-0.3-0.5-0.3-0.7c0-0.3,0.1-0.5,0.3-0.7c0.4-0.4,1.1-0.4,1.5,0c0.2,0.2,0.3,0.5,0.3,0.7 C-94.5,318.9-94.6,319.1-94.8,319.3z M-103.2,312.3c0.2,0.2,0.3,0.5,0.3,0.7c0,0.3-0.1,0.5-0.3,0.7c-0.2,0.2-0.5,0.3-0.7,0.3 c-0.3,0-0.5-0.1-0.7-0.3c-0.2-0.2-0.3-0.5-0.3-0.7c0-0.3,0.1-0.5,0.3-0.7C-104.2,311.9-103.5,311.9-103.2,312.3z M-85,304.3 c0,0.3-0.1,0.5-0.3,0.7c-0.2,0.2-0.5,0.3-0.7,0.3c-0.3,0-0.5-0.1-0.7-0.3c-0.2-0.2-0.3-0.5-0.3-0.7c0-0.3,0.1-0.5,0.3-0.7 c0.4-0.4,1.1-0.4,1.5,0C-85.1,303.8-85,304-85,304.3z M-51.2,348.8c0.2,0.2,0.3,0.5,0.3,0.7c0,0.3-0.1,0.5-0.3,0.7s-0.5,0.3-0.7,0.3 c-0.3,0-0.5-0.1-0.7-0.3c-0.2-0.2-0.3-0.5-0.3-0.7c0-0.3,0.1-0.5,0.3-0.7C-52.2,348.5-51.5,348.5-51.2,348.8z M-51.8,330 c-0.2-0.2-0.3-0.5-0.3-0.7c0-0.3,0.1-0.5,0.3-0.7c0.4-0.4,1.1-0.4,1.5,0c0.2,0.2,0.3,0.5,0.3,0.7c0,0.3-0.1,0.5-0.3,0.7 s-0.4,0.3-0.7,0.3C-51.4,330.4-51.6,330.2-51.8,330z M-48,362.7c0.2,0.2,0.3,0.4,0.3,0.7c0,0.3-0.1,0.5-0.3,0.7s-0.5,0.3-0.7,0.3 c-0.3,0-0.5-0.1-0.7-0.3c-0.2-0.2-0.3-0.5-0.3-0.7s0.1-0.5,0.3-0.7C-49.1,362.3-48.4,362.3-48,362.7z" fill="#2b4b82"/></g></svg>