<?xml version="1.0" encoding="UTF-8" standalone="no"?><svg xmlns="http://www.w3.org/2000/svg" xmlns:xlink="http://www.w3.org/1999/xlink" fill="#000000" height="358.2" preserveAspectRatio="xMidYMid meet" version="1" viewBox="0.0 -1.5 501.1 358.2" width="501.1" zoomAndPan="magnify"><g id="change1_1"><path d="M490.9,99.2L328.8,5.7c-9.2-5.3-23.1-5.9-31-1.3L6.4,172.6c-3.7,2.1-5.4,4.9-5.4,7.9l0,33.3 c0,3.5,2.6,7.2,7.6,10.1l162.1,93.6c9.2,5.3,23.1,5.9,31,1.3l98.2-56.7l18.7,10.8c9.8,5.7,25.8,5.6,35.8-0.1l115.2-66.5 c9.9-5.7,10-15,0.1-20.6l-18.7-10.8l42.2-24.3c3.4-2,5.2-4.6,5.4-7.4l0-33.7C498.5,105.9,495.9,102.1,490.9,99.2z M446.3,191 c6.8,3.9,6.8,10.3-0.1,14.3l-93.7,54.1c-6.8,3.9-17.9,4-24.7,0.1l-11.7-6.8l118.4-68.4L446.3,191z" fill="#f7b4a7"/></g><g id="change2_1"><path d="M170.7,283.8l-59.1-34.1L431.7,64.8L490.9,99c9.2,5.3,10.2,13.3,2.2,17.9L201.7,285.1 C193.7,289.7,179.9,289.1,170.7,283.8z M327.9,259.4c6.8,3.9,17.8,3.9,24.7-0.1l93.7-54.1c6.8-3.9,6.9-10.3,0.1-14.3l-11.7-6.8 l-118.4,68.4L327.9,259.4z M318.5,272.8L299.9,262l-98.2,56.7c-7.9,4.6-21.8,4-31-1.3L8.6,223.9c-5-2.9-7.6-6.6-7.6-10.1l0,33.4 c0,3.5,2.6,7.2,7.6,10l162.1,93.6c9.2,5.3,23.1,5.9,31,1.3L332,276.8C327.1,276.3,322.3,275,318.5,272.8z M493.1,150.5l-42.2,24.3 l18.7,10.8c3.8,2.2,6.1,4.9,7,7.8l16.5-9.5c3.8-2.2,5.6-5.2,5.3-8.3l0-32.4C498.3,145.9,496.5,148.5,493.1,150.5z" fill="#f0abc1"/></g><g id="change3_1"><path d="M499.5,109.1c0-4-3-8.1-8.1-11L329.3,4.5c-9.4-5.5-23.8-6-32-1.3L5.9,171.5 c-3.8,2.2-5.9,5.3-5.9,8.7c0,0.1,0,0.2,0,0.3c0,0,0,0.1,0,0.1l0,33.3l0,33.4c0,4,3,8,8.1,10.9l162.1,93.6c5.2,3,11.8,4.5,18.1,4.5 c5.2,0,10.2-1.1,14-3.2l121.6-70.2c3.9,1.2,8.2,1.8,12.5,1.8c6.7,0,13.4-1.5,18.5-4.4L470,213.7c5.2-3,8-7,8-11.4c0-1.1,0-5.3,0-6.4 c0,0,0,0,0,0c0,0,0,0,0,0c0-0.1,0-0.2,0-0.3c0-0.1,0-0.3,0-0.4c0-0.1,0-0.2,0-0.3c0-0.2,0-0.3-0.1-0.5c0-0.1,0-0.2-0.1-0.3 c0,0,0-0.1,0-0.1l15.8-9.1c4.1-2.3,6.1-5.7,5.9-9.3l0-32.4l0-33.7c0-0.1,0-0.1,0-0.2C499.5,109.2,499.5,109.1,499.5,109.1z M490.3,100.1c4.4,2.6,7,5.8,7.1,9.1c0,2.6-1.8,5-4.8,6.8L201.2,284.2c-7.6,4.4-21.1,3.8-30-1.3L118,252.2l51.3-29.6l0.1,0 c2.2,1.3,5.4,1.4,7.3,0.3l2.6-1.5l19.8,11.4c2.9,1.7,7.3,1.9,9.8,0.4l13.4-7.7c2.5-1.5,2.2-4-0.7-5.7l-19.8-11.4l2.6-1.5 c1.9-1.1,1.6-3-0.5-4.2l-0.1,0l156.9-90.6l0.5,0.3c2.2,1.3,5.4,1.4,7.3,0.3l2.6-1.5l19.8,11.4c2.9,1.7,7.3,1.9,9.8,0.4l13.4-7.7 c2.5-1.5,2.2-4-0.7-5.7l-19.8-11.4l2.6-1.5c1.9-1.1,1.6-3-0.5-4.2l-0.5-0.3l40.7-23.5L490.3,100.1z M6.9,173.5L298.3,5.3 c3.5-2,8.1-3,12.9-3c5.9,0,12.1,1.4,17,4.3l101.1,58.4l-40.7,23.5l-6-3.4c-2.2-1.3-5.4-1.4-7.3-0.3l-2.6,1.5l-13.9-8 c-2.9-1.7-7.3-1.9-9.8-0.4l-13.4,7.7c-2.5,1.5-2.2,4,0.7,5.7l13.9,8l-2.6,1.5c-1.9,1.1-1.6,3,0.5,4.2l6,3.4l-156.9,90.6l-6.4-3.7 c-2.2-1.3-5.4-1.4-7.3-0.3l-2.6,1.5l-13.9-8c-2.9-1.7-7.3-1.9-9.8-0.4l-13.4,7.7c-2.5,1.5-2.2,4,0.7,5.7l13.9,8l-2.6,1.5 c-1.9,1.1-1.6,3,0.5,4.2l6.4,3.7l-51.3,29.6L9.2,189.3c-4.4-2.5-6.9-5.8-7.1-9C2.2,177.7,3.8,175.3,6.9,173.5z M2.1,186 c1.4,1.9,3.4,3.7,6,5.2l162.1,93.6c5.2,3,11.8,4.5,18.1,4.5c4.6,0,9-0.8,12.5-2.5c0.5-0.2,1-0.5,1.5-0.8l291.4-168.2 c1.6-0.9,2.8-2,3.8-3.1l0,28.4c-0.1,2.2-1.4,4.2-3.8,5.8c-0.3,0.2-0.7,0.5-1.1,0.7l-41.7,24l-7.7-4.5l-17.4,10v7.7l1,0.6 l-110.7,63.9l-7.7-4.5l-17.4,10v0v7.7l1,0.6l-90.9,52.5c-7.6,4.4-21.1,3.8-30-1.3L9.2,222.9c-0.6-0.3-1.1-0.7-1.6-1 c-3.5-2.4-5.5-5.3-5.5-8.2L2.1,186z M475.4,189.1c0-0.1-0.1-0.1-0.1-0.2c-0.1-0.2-0.3-0.3-0.4-0.5c-0.1-0.1-0.2-0.2-0.2-0.2 c-0.1-0.1-0.3-0.3-0.4-0.4c-0.1-0.1-0.2-0.2-0.3-0.3c-0.1-0.1-0.2-0.2-0.4-0.3c-0.2-0.1-0.3-0.3-0.5-0.4c-0.1-0.1-0.2-0.2-0.3-0.2 c-0.1-0.1-0.2-0.2-0.3-0.2l15.8-15.8l0,0l9.1-9.1l0,5.8L475.4,189.1z M472.2,186C472.1,186,472.1,186,472.2,186 c-0.1-0.1-0.2-0.1-0.2-0.2c-0.3-0.2-0.5-0.4-0.8-0.5c0,0-0.1,0-0.1-0.1c-0.3-0.2-0.6-0.4-0.9-0.6l-1.6-0.9l19.7-19.7l0,0l9.1-9.1 l0,5.8L472.2,186z M468.3,183.6l-3.7-2.1l23.7-23.7v0l9.1-9.1l0,5.8L468.3,183.6z M464.3,181.3l-3.7-2.1l20.7-20.7l12.3-7.1 c0.4-0.2,0.8-0.5,1.2-0.8c0.1-0.1,0.2-0.2,0.3-0.3c0.2-0.1,0.4-0.3,0.5-0.4L464.3,181.3z M465.4,167.7l-9,9l-3.3-1.9L465.4,167.7z M466.4,167.1l13.8-8L460.3,179l-3.7-2.1L466.4,167.1z M449.2,201.3c-0.8,1.1-2,2.1-3.5,3l-9.5,5.5l10.7-10.7 C447.9,199.8,448.6,200.5,449.2,201.3z M437.8,207.9l-2.6,2.6l-13.8,8l21.6-21.6l2.8,1.6c0.3,0.2,0.6,0.4,0.8,0.5L437.8,207.9 L437.8,207.9z M431.5,207.9l-6.3,6.3l-4.9,4.9l-13.8,8l6.3-6.3v0l25.1-25.1l0,0l1-1l3.7,2.1L431.5,207.9L431.5,207.9z M425.2,207.9 L425.2,207.9L425.2,207.9l-19.7,19.7l-13.8,8l21.2-21.2v0l18.9-18.9l0,0l3.3-3.3l3.7,2.1L425.2,207.9z M418.9,207.9L418.9,207.9 l-28.3,28.3l-13.8,8l48.6-48.6l0,0l5.6-5.6l3.7,2.1L418.9,207.9z M412.6,207.9L412.6,207.9l-36.9,36.9l-13.8,8l50.9-50.9l6.3-6.3 l2.7-2.7l7.2-4.1l1.8,1L412.6,207.9z M331.5,245l-9.7,9.7l-3.6-2.1L331.5,245z M332.6,244.4l13.8-8L325.8,257l-3.7-2.1L332.6,244.4z M337.4,245.8L337.4,245.8l10-10l13.8-8l-11.5,11.5l-19.9,19.9c-0.5-0.2-1-0.5-1.4-0.7l-2.3-1.3L337.4,245.8z M337.4,252.1 L337.4,252.1l24.9-24.9l13.8-8l-26.4,26.4l-15.2,15.2c-1.6-0.3-3.1-0.8-4.5-1.4L337.4,252.1z M337.4,258.4L337.4,258.4l39.8-39.8 l13.8-8l-41.2,41.2l-9.4,9.4c-1.8,0-3.6-0.1-5.4-0.5L337.4,258.4z M392.1,210l13.8-8l-5.8,5.8l0,0l-50.3,50.3l-2.1,2.1 c-2.2,0.6-4.5,1-6.9,1L392.1,210z M406.9,201.4l13.8-8l-14.4,14.4l0,0l-45.5,45.5l-8.8,5.1c-1.1,0.7-2.4,1.2-3.7,1.6L406.9,201.4z M318.3,283.3l-0.5,0.5l-13.8,8l12.4-12.4l1.6,0.9c0.7,0.4,1.5,0.8,2.2,1.1L318.3,283.3L318.3,283.3z M312.1,283.3l-9.1,9.1l-13.8,8 l23.3-23.3l3.7,2.1L312.1,283.3L312.1,283.3z M305.8,283.3L288.1,301l-13.8,8l34.2-34.2l3.7,2.1L305.8,283.3L305.8,283.3z M299.5,283.3l-25.1,25.1l-1.1,1.1l-13.8,8l2.6-2.6l0,0l42.5-42.5l3.7,2.1L299.5,283.3L299.5,283.3z M293.2,283.3l-18.9,18.9l-16,16 l-13.8,8l17.5-17.5v0l37.7-37.7l0,0l0.8-0.8l3.7,2.1L293.2,283.3L293.2,283.3z M286.9,283.3L286.9,283.3l-12.6,12.6l-30.9,30.9 l-13.8,8l32.4-32.4v0l31.4-31.4l0,0l3.1-3.1l3.7,2.1L286.9,283.3z M280.6,283.3L280.6,283.3l-6.3,6.3l-45.8,45.8l-13.8,8l47.2-47.2 v0l25.1-25.1l0,0l0.8-0.8l6.3-3.6l2,1.2L280.6,283.3z M268.1,283.3l-68.8,68.8c-2.3,1-4.9,1.6-7.7,1.9l7.6-7.6l0,0l59.1-59.1l13.8-8 L268.1,283.3L268.1,283.3z M180.3,346.3l6.3-6.3l0,0l27-27l13.8-8l-28.5,28.5L179.4,353c-1.5-0.4-3-0.8-4.4-1.4L180.3,346.3 L180.3,346.3z M186.6,346.3l41.9-41.9l13.8-8l-43.4,43.4l-14.1,14.1c-1.7-0.2-3.4-0.4-5-0.8L186.6,346.3z M51.2,280.6l9.7-9.7l0,0 l10-10l3.7,2.1l-19.6,19.6L51.2,280.6z M34.7,240.1l-19.6,19.6l-3.7-2.1L31,238L34.7,240.1z M35,240.3l3.7,2.1L19.1,262l-3.7-2.1 L35,240.3z M35.7,245.8L35.7,245.8l3.2-3.2l3.7,2.1L23,264.3l-3.7-2.1L35.7,245.8z M35.7,252.1L35.7,252.1l7.2-7.2l3.7,2.1L27,266.6 l-3.7-2.1L35.7,252.1z M35.7,258.4L35.7,258.4l11.2-11.2l3.7,2.1l-2.5,2.5L31,268.9l-3.7-2.1L35.7,258.4z M35.7,264.6L35.7,264.6 l15.2-15.2l3.7,2.1l-6.5,6.5L35,271.2l-3.7-2.1L35.7,264.6z M35.7,270.9l19.2-19.2l3.7,2.1l-10.5,10.5l-9.1,9.1l-3.7-2.1L35.7,270.9 z M42,270.9l16.9-16.9l3.7,2.1L43,275.8l-3.7-2.1L42,270.9z M48.3,270.9l14.6-14.6l3.7,2.1L47,278.1l-3.7-2.1L48.3,270.9L48.3,270.9 z M54.6,270.9l12.3-12.3l3.7,2.1l-19.6,19.6l-3.7-2.1L54.6,270.9L54.6,270.9z M67.2,270.9l7.7-7.7l3.7,2.1l-17.9,17.9l0,0l-1.7,1.7 l-3.7-2.1L67.2,270.9L67.2,270.9z M73.4,270.9L73.4,270.9l5.4-5.4l3.7,2.1l-15.6,15.6l0,0l-4,4l-3.7-2.1L73.4,270.9z M79.7,270.9 L79.7,270.9l3.1-3.1l3.7,2.1l-13.3,13.3l0,0l-6.3,6.3l-3.7-2.1L79.7,270.9z M86,270.9L86,270.9l0.8-0.8l3.7,2.1l-11,11l0,0l-8.6,8.6 l-3.7-2.1L86,270.9z M90.8,272.5l3.7,2.1l-8.7,8.7l0,0l-10.9,10.9l-3.7-2.1L90.8,272.5z M94.7,274.8l3.7,2.1l-6.4,6.4l0,0 l-13.2,13.2l-3.7-2.1L94.7,274.8z M98.7,277.1l3.7,2.1l-4.1,4.1l0,0l-15.5,15.5l-3.7-2.1L98.7,277.1z M102.7,279.4l3.7,2.1l-1.8,1.8 l0,0l-17.8,17.8l-3.7-2.1L102.7,279.4z M106.7,281.7l3.7,2.1l-19.6,19.6l-3.7-2.1L106.7,281.7z M110.7,284l3.7,2.1l-19.6,19.6 l-3.7-2.1L110.7,284z M111.2,289.8L111.2,289.8l3.5-3.5l3.7,2.1L98.8,308l-3.7-2.1L111.2,289.8z M111.2,296.1L111.2,296.1l7.5-7.5 l3.7,2.1l-19.6,19.6l-3.7-2.1L111.2,296.1z M111.2,302.4L111.2,302.4l11.5-11.5l3.7,2.1l-2.8,2.8l-16.8,16.8l-3.7-2.1L111.2,302.4z M111.2,308.6L111.2,308.6l15.5-15.5l3.7,2.1l-6.8,6.8l-12.8,12.8l-3.7-2.1L111.2,308.6z M111.2,314.9L111.2,314.9l19.4-19.4 l3.7,2.1l-10.8,10.8l-8.8,8.8l-3.7-2.1L111.2,314.9z M134.6,297.8l3.7,2.1l-14.8,14.8l-4.8,4.8l-3.7-2.1L134.6,297.8z M138.6,300.1 l3.7,2.1L123.5,321l-0.8,0.8l-3.7-2.1L138.6,300.1z M142.6,302.4l3.7,2.1l-19.6,19.6l-3.7-2.1L142.6,302.4z M146.5,304.7l3.7,2.1 l-19.6,19.6l-3.7-2.1L146.5,304.7z M150.5,307l3.7,2.1l-19.6,19.6l-3.7-2.1L150.5,307z M154.5,309.3l3.7,2.1L138.6,331l-3.7-2.1 L154.5,309.3z M158.5,311.6l3.7,2.1l-19.6,19.6l-3.7-2.1L158.5,311.6z M162.5,313.9l3.7,2.1l-19.6,19.6l-3.7-2.1L162.5,313.9z M166.5,316.2l3.7,2.1l-19.6,19.6l-3.7-2.1L166.5,316.2z M170.5,318.5c0.5,0.3,1.1,0.6,1.6,0.9c0.2,0.1,0.4,0.2,0.7,0.3 c0.4,0.2,0.9,0.4,1.4,0.6c0.1,0,0.2,0.1,0.3,0.1l-19.9,19.9l-3.7-2.1L170.5,318.5z M174.8,320.4c0.1,0,0.1,0,0.2,0.1 c0.4,0.2,0.8,0.3,1.3,0.4c0.3,0.1,0.6,0.2,0.9,0.3c0.4,0.1,0.8,0.2,1.3,0.4c0.3,0.1,0.6,0.1,0.8,0.2l-20.7,20.7l-3.7-2.1 L174.8,320.4z M179.6,321.9c0.3,0.1,0.7,0.2,1,0.2c0.3,0.1,0.7,0.1,1,0.2c0.4,0.1,0.8,0.1,1.3,0.2c0.3,0,0.7,0.1,1,0.1 c0.2,0,0.5,0,0.7,0.1l-22.2,22.2l-3.7-2.1L179.6,321.9z M185.1,322.7c0,0,0.1,0,0.1,0c0.3,0,0.7,0.1,1,0.1c0.4,0,0.9,0,1.3,0 c0.2,0,0.5,0,0.7,0c0.1,0,0.2,0,0.3,0c0.3,0,0.5,0,0.8,0c0.4,0,0.8,0,1.2-0.1c0.1,0,0.2,0,0.3,0l-24.4,24.4l-3.7-2.1L185.1,322.7z M167.7,346.3l18.9-18.9l0,0l4.8-4.8c0,0,0,0,0.1,0c0.4,0,0.8-0.1,1.2-0.1c0.3,0,0.5-0.1,0.8-0.1c0.4-0.1,0.8-0.1,1.1-0.2 c0.3,0,0.5-0.1,0.8-0.2c0.4-0.1,0.7-0.2,1.1-0.3c0.3-0.1,0.5-0.1,0.8-0.2c0.4-0.1,0.7-0.2,1.1-0.3c0.1,0,0.3-0.1,0.4-0.1l-28.3,28.3 l-3.7-2.1L167.7,346.3L167.7,346.3z M2.1,247.2l0-5.5L15,228.8l3.7,2.1L2.1,247.5C2.1,247.4,2.1,247.3,2.1,247.2z M3.7,221.4 c0.1,0.1,0.2,0.2,0.3,0.3c0.2,0.1,0.3,0.3,0.5,0.4c0.1,0.1,0.2,0.1,0.2,0.2c0.2,0.2,0.4,0.3,0.6,0.5c0.1,0.1,0.1,0.1,0.2,0.2 c0.2,0.2,0.4,0.3,0.7,0.5c0.1,0,0.1,0.1,0.2,0.1c0.2,0.1,0.4,0.2,0.6,0.4l-4.7,4.7l0-5.8L3.7,221.4C3.6,221.4,3.7,221.4,3.7,221.4z M7.1,224.1C7.1,224.2,7.1,224.2,7.1,224.1c0.4,0.2,0.7,0.4,1,0.6l2.7,1.5L2.1,235l0-5.8L7.1,224.1z M11.1,226.5l3.7,2.1L2.1,241.3 l0-5.8L11.1,226.5z M19,231.1l3.7,2.1L4,252c-1-1.3-1.6-2.7-1.8-4.1L19,231.1z M2.1,219.6c0.1,0.1,0.2,0.3,0.3,0.4 c0.1,0.1,0.2,0.2,0.3,0.3c0.1,0.1,0.2,0.3,0.3,0.4c0.1,0.1,0.2,0.2,0.3,0.3c0,0,0.1,0.1,0.1,0.1l-1.3,1.3L2.1,219.6 C2.1,219.6,2.1,219.6,2.1,219.6z M4.2,252.2L23,233.4l3.7,2.1L7.2,255C6,254.1,5,253.2,4.2,252.2z M7.5,255.2L27,235.7l3.7,2.1 l-19.6,19.6l-1.9-1.1C8.6,255.9,8,255.6,7.5,255.2z M170.8,349.6l3.2-3.2l0,0l12.6-12.6l0,0l12.9-12.9c0.2-0.1,0.5-0.2,0.7-0.3 c0.2-0.1,0.4-0.1,0.5-0.2c0.5-0.2,1.1-0.5,1.5-0.8l10.3-6l-13.6,13.6l-24.3,24.3c-1.2-0.5-2.4-1-3.4-1.7L170.8,349.6z M185.2,354 l1.3-1.3l6.3-6.3l50.5-50.5l13.8-8L191.1,354C189.2,354.1,187.2,354.1,185.2,354z M201.2,351.1c-0.4,0.2-0.7,0.4-1.1,0.6l5.4-5.4 l0,0l56.6-56.6v0l11.1-11.1l13.8-8l-12.6,12.6l0,0l0,0l-60.6,60.6L201.2,351.1z M318.9,283.2l1.7-1.7c0.2,0.1,0.5,0.2,0.7,0.3 L318.9,283.2z M468.9,205.3l-115.2,66.5c-9.6,5.5-25.2,5.6-34.7,0.1l-24.8-14.3l14.2-8.2l18.9,10.9c7.1,4.1,18.6,4.1,25.7-0.1 l93.7-54.1c0.5-0.3,1-0.6,1.4-0.9c0.1-0.1,0.2-0.1,0.2-0.2c0.4-0.3,0.7-0.5,1-0.8c0.1,0,0.1-0.1,0.2-0.1c0.3-0.3,0.7-0.7,0.9-1 c0,0,0,0,0,0c0.4-0.5,0.8-1.1,1.1-1.7l0,0l0,0c0.5-1,0.8-2.1,0.8-3.3c0-3.1-2-5.9-5.6-8L429,179.8l14.2-8.2l25.9,15 c0.6,0.3,1.1,0.6,1.6,1c0.3,0.2,0.5,0.4,0.8,0.6c0.2,0.2,0.4,0.3,0.6,0.5c0.3,0.2,0.5,0.5,0.7,0.7c0.1,0.1,0.3,0.3,0.5,0.4 c0.2,0.2,0.4,0.5,0.6,0.7c0.1,0.1,0.2,0.3,0.3,0.4c0.2,0.3,0.3,0.5,0.5,0.8c0.1,0.1,0.2,0.3,0.3,0.4c0.1,0.2,0.2,0.5,0.3,0.8 c0.1,0.2,0.2,0.3,0.2,0.5c0.1,0.2,0.1,0.5,0.2,0.7c0,0.2,0.1,0.4,0.1,0.6c0,0.2,0,0.4,0.1,0.7c0,0.2,0.1,0.4,0.1,0.6 C475.9,199.4,473.4,202.8,468.9,205.3z M477.1,191.8C477.1,191.8,477.1,191.8,477.1,191.8c-0.1-0.2-0.2-0.4-0.3-0.6 c0-0.1-0.1-0.1-0.1-0.2c-0.1-0.2-0.2-0.4-0.3-0.5c0-0.1-0.1-0.1-0.1-0.2c-0.1-0.2-0.2-0.4-0.4-0.5c0-0.1-0.1-0.1-0.1-0.2 c-0.1-0.1-0.1-0.2-0.2-0.3l12.7-12.7l0,0l9.1-9.1l0,5.8l-16,16L477.1,191.8z M482.4,188.8l5.8-5.8l0,0l9.1-9.1l0,1.7 c0.2,2.8-1.5,5.4-4.8,7.4L482.4,188.8z" fill="#2b4b82"/></g></svg>