<?xml version="1.0" encoding="UTF-8" standalone="no"?><svg xmlns="http://www.w3.org/2000/svg" xmlns:xlink="http://www.w3.org/1999/xlink" fill="#000000" height="305.1" preserveAspectRatio="xMidYMid meet" version="1" viewBox="0.0 0.0 500.0 305.1" width="500" zoomAndPan="magnify"><g id="change1_1"><path d="M497,127.8l-100.3,29.8l-51.1,58.1l-115.9,20.8l-35.5,67L1.6,192.8l35.5-67L153,105l51.1-58.1 l100.3-29.8L497,127.8z" fill="#94ddde"/></g><g id="change2_1"><path d="M435.4,108.7H434v-0.4h0.8h0.8h0.4v0.4v0.3v1.3h-0.4v-1.5L435.4,108.7z M147.2,261.1v-1.5h-0.4 v1.3v0.3L147.2,261.1v0.4h0.8h0.8v-0.4h-1.5L147.2,261.1z M359.5,65v-0.8h-0.4v0.6v1h-1.6v0.4h1.6v1.6h0.4v-1.6h1.6V66v-0.1h-0.2 L359.5,65z M453,125.3v-1.6h-0.4v1.6H451v0.4h1.6v0.6l0.4-0.1v-0.5h1.6v-0.4H453z M393.1,82.8h-1.6v0.4h1.6V82.8z M393.1,84.8h0.4 v-0.2v-1.4h-0.4v1.2V84.8z M402,89.7h-0.4v1.6H400v0.4h1.6v1.6h0.4v-1.6h1.6v-0.4H402V89.7z M385,89.7h-0.4v1.6h-1.6v0.4h1.6v1.6 h0.4v-1.6h1.6v-0.4H385V89.7z M410.5,98.2h-0.4v1.6h-1.6v0.4h1.6v1.6h0.4v-1.6h1.6v-0.4h-1.6V98.2z M393.5,98.2h-0.4v1.6h-1.6v0.4 h1.6v1.6h0.4v-1.6h1.6v-0.4h-1.6V98.2z M419,106.7h-0.4v1.6H417v0.4h1.6v1.6h0.4v-1.6h1.6v-0.4H419V106.7z M402,106.7h-0.4v1.6H400 v0.4h1.6v1.6h0.4v-1.6h1.6v-0.4H402V106.7z M385,106.7h-0.4v1.6h-1.6v0.4h1.6v1.6h0.4v-1.6h1.6v-0.4H385V106.7z M444.5,115.2h-0.4 v1.6h-1.6v0.4h1.6v1.6h0.4v-1.6h1.6v-0.4h-1.6V115.2z M427.5,115.2h-0.4v1.6h-1.6v0.4h1.6v1.6h0.4v-1.6h1.6v-0.4h-1.6V115.2z M410.5,115.2h-0.4v1.6h-1.6v0.4h1.6v1.6h0.4v-1.6h1.6v-0.4h-1.6V115.2z M393.5,115.2h-0.4v1.6h-1.6v0.4h1.6v1.6h0.4v-1.6h1.6v-0.4 h-1.6V115.2z M436,123.7h-0.4v1.6H434v0.4h1.6v1.6h0.4v-1.6h1.6v-0.4H436V123.7z M419,123.7h-0.4v1.6H417v0.4h1.6v1.6h0.4v-1.6h1.6 v-0.4H419V123.7z M402,123.7h-0.4v1.6H400v0.4h1.6v1.6h0.4v-1.6h1.6v-0.4H402V123.7z M385,123.7h-0.4v1.6h-1.6v0.4h1.6v1.6h0.4v-1.6 h1.6v-0.4H385V123.7z M400,142.6h1.6v-0.4H400V142.6z M427.5,133.8v-1.6h-0.4v1.6h-1.6v0.4h0.6h0.9h0.4h1.6v-0.4L427.5,133.8 L427.5,133.8z M410.5,132.2h-0.4v1.6h-1.6v0.4h1.6v1.6h0.4v-1.6h1.6v-0.4h-1.6V132.2z M393.5,132.2h-0.4v1.6h-1.6v0.4h1.6v1.6h0.4 v-1.6h1.6v-0.4h-1.6V132.2z M401.6,141.4v0.8h0.4v-1v-0.6h-0.4V141.4z M385,140.7h-0.4v1.6h-1.6v0.4h1.6v1.6h0.4v-1.6h1.6v-0.4H385 V140.7z M316.7,40.4h-0.1h-1.5v0.4h1.6v1.6h0.4v-1.6h0.1h1.5v-0.4H317H316.7z M325.5,47.3h-0.4v1.6h-1.6v0.4h1.6v1.6h0.4v-1.6h1.6 v-0.4h-1.6V47.3z M334,55.8h-0.4v1.6h-1.6v0.4h1.6v1.6h0.4v-1.6h1.6v-0.4H334V55.8z M317,55.8h-0.4v1.6h-1.6v0.4h1.6v1.6h0.4v-1.6 h1.6v-0.4H317V55.8z M342.5,64.3h-0.4v1.6h-1.6v0.4h1.6v1.6h0.4v-1.6h1.6v-0.4h-1.6V64.3z M325.5,64.3h-0.4v1.6h-1.6v0.4h1.6v1.6 h0.4v-1.6h1.6v-0.4h-1.6V64.3z M368,72.7h-0.4v1.6h-1.6v0.4h1.6v1.6h0.4v-1.6h1.6v-0.4H368V72.7z M351,72.7h-0.4v1.6h-1.6v0.4h1.6 v1.6h0.4v-1.6h1.6v-0.4H351V72.7z M334,72.7h-0.4v1.6h-1.6v0.4h1.6v1.6h0.4v-1.6h1.6v-0.4H334V72.7z M317,72.7h-0.4v1.6h-1.6v0.4 h1.6v1.6h0.4v-1.6h1.6v-0.4H317V72.7z M376.5,81.2h-0.4v1.6h-1.6v0.4h1.6v1.6h0.4v-1.6h1.6v-0.4h-1.6V81.2z M359.5,81.2h-0.4v1.6 h-1.6v0.4h1.6v1.6h0.4v-1.6h1.6v-0.4h-1.6V81.2z M342.5,81.2h-0.4v1.6h-1.6v0.4h1.6v1.6h0.4v-1.6h1.6v-0.4h-1.6V81.2z M325.5,81.2 h-0.4v1.6h-1.6v0.4h1.6v1.6h0.4v-1.6h1.6v-0.4h-1.6V81.2z M368,89.7h-0.4v1.6h-1.6v0.4h1.6v1.6h0.4v-1.6h1.6v-0.4H368V89.7z M351,89.7h-0.4v1.6h-1.6v0.4h1.6v1.6h0.4v-1.6h1.6v-0.4H351V89.7z M334,89.7h-0.4v1.6h-1.6v0.4h1.6v1.6h0.4v-1.6h1.6v-0.4H334V89.7 z M317,89.7h-0.4v1.6h-1.6v0.4h1.6v1.6h0.4v-1.6h1.6v-0.4H317V89.7z M376.5,98.2h-0.4v1.6h-1.6v0.4h1.6v1.6h0.4v-1.6h1.6v-0.4h-1.6 V98.2z M359.5,98.2h-0.4v1.6h-1.6v0.4h1.6v1.6h0.4v-1.6h1.6v-0.4h-1.6V98.2z M342.5,98.2h-0.4v1.6h-1.6v0.4h1.6v1.6h0.4v-1.6h1.6 v-0.4h-1.6V98.2z M325.5,98.2h-0.4v1.6h-1.6v0.4h1.6v1.6h0.4v-1.6h1.6v-0.4h-1.6V98.2z M368,106.7h-0.4v1.6h-1.6v0.4h1.6v1.6h0.4 v-1.6h1.6v-0.4H368V106.7z M351,106.7h-0.4v1.6h-1.6v0.4h1.6v1.6h0.4v-1.6h1.6v-0.4H351V106.7z M334,106.7h-0.4v1.6h-1.6v0.4h1.6 v1.6h0.4v-1.6h1.6v-0.4H334V106.7z M317,106.7h-0.4v1.6h-1.6v0.4h1.6v1.6h0.4v-1.6h1.6v-0.4H317V106.7z M376.5,115.2h-0.4v1.6h-1.6 v0.4h1.6v1.6h0.4v-1.6h1.6v-0.4h-1.6V115.2z M359.5,115.2h-0.4v1.6h-1.6v0.4h1.6v1.6h0.4v-1.6h1.6v-0.4h-1.6V115.2z M342.5,115.2 h-0.4v1.6h-1.6v0.4h1.6v1.6h0.4v-1.6h1.6v-0.4h-1.6V115.2z M325.5,115.2h-0.4v1.6h-1.6v0.4h1.6v1.6h0.4v-1.6h1.6v-0.4h-1.6V115.2z M368,123.7h-0.4v1.6h-1.6v0.4h1.6v1.6h0.4v-1.6h1.6v-0.4H368V123.7z M351,123.7h-0.4v1.6h-1.6v0.4h1.6v1.6h0.4v-1.6h1.6v-0.4H351 V123.7z M334,123.7h-0.4v1.6h-1.6v0.4h1.6v1.6h0.4v-1.6h1.6v-0.4H334V123.7z M317,123.7h-0.4v1.6h-1.6v0.4h1.6v1.6h0.4v-1.6h1.6 v-0.4H317V123.7z M376.5,150.8v-1.6h-0.4v1.6h-1.6v0.4h1.6v0.6v1h0.4v-1.4l0.1-0.2h1.5v-0.4H377H376.5z M368,159.3v-1.6h-0.4v1.6 h-1.6v0.4h1.6v1.6h0.1h0.3v-0.3l1.2-1.3h0.4v-0.4h-0.1H368z M376.5,132.2h-0.4v1.6h-1.6v0.4h1.6v1.6h0.4v-1.6h1.6v-0.4h-1.6V132.2z M359.5,132.2h-0.4v1.6h-1.6v0.4h1.6v1.6h0.4v-1.6h1.6v-0.4h-1.6V132.2z M342.5,132.2h-0.4v1.6h-1.6v0.4h1.6v1.6h0.4v-1.6h1.6v-0.4 h-1.6V132.2z M325.5,132.2h-0.4v1.6h-1.6v0.4h1.6v1.6h0.4v-1.6h1.6v-0.4h-1.6V132.2z M368,140.7h-0.4v1.6h-1.6v0.4h1.6v1.6h0.4v-1.6 h1.6v-0.4H368V140.7z M351,140.7h-0.4v1.6h-1.6v0.4h1.6v1.6h0.4v-1.6h1.6v-0.4H351V140.7z M334,140.7h-0.4v1.6h-1.6v0.4h1.6v1.6h0.4 v-1.6h1.6v-0.4H334V140.7z M317,140.7h-0.4v1.6h-1.6v0.4h1.6v1.6h0.4v-1.6h1.6v-0.4H317V140.7z M359.5,149.2h-0.4v1.6h-1.6v0.4h1.6 v1.6h0.4v-1.6h1.6v-0.4h-1.6V149.2z M342.5,149.2h-0.4v1.6h-1.6v0.4h1.6v1.6h0.4v-1.6h1.6v-0.4h-1.6V149.2z M325.5,149.2h-0.4v1.6 h-1.6v0.4h1.6v1.6h0.4v-1.6h1.6v-0.4h-1.6V149.2z M351,157.7h-0.4v1.6h-1.6v0.4h1.6v1.6h0.4v-1.6h1.6v-0.4H351V157.7z M334,157.7 h-0.4v1.6h-1.6v0.4h1.6v1.6h0.4v-1.6h1.6v-0.4H334V157.7z M317,157.7h-0.4v1.6h-1.6v0.4h1.6v1.6h0.4v-1.6h1.6v-0.4H317V157.7z M359.5,166.2h-0.4v1.6h-1.6v0.4h1.6v1.6h0.4v-1.6h1.6v-0.4h-1.6V166.2z M342.5,166.2h-0.4v1.6h-1.6v0.4h1.6v1.6h0.4v-1.6h1.6v-0.4 h-1.6V166.2z M325.5,166.2h-0.4v1.6h-1.6v0.4h1.6v1.6h0.4v-1.6h1.6v-0.4h-1.6V166.2z M351,174.7h-0.4v1.6h-1.6v0.4h1.6v1.6h0.4v-1.6 h1.6v-0.4H351V174.7z M334,174.7h-0.4v1.6h-1.6v0.4h1.6v1.6h0.4v-1.6h1.6v-0.4H334V174.7z M317,174.7h-0.4v1.6h-1.6v0.4h1.6v1.6h0.4 v-1.6h1.6v-0.4H317V174.7z M342.5,183.2h-0.4v1.6h-1.6v0.4h1.6v1.6h0.4v-1.6h1.6v-0.4h-1.6V183.2z M325.5,183.2h-0.4v1.6h-1.6v0.4 h1.6v1.6h0.4v-1.6h1.6v-0.4h-1.6V183.2z M334,191.7h-0.4v1.6h-1.6v0.4h1.6v1.6h0.4v-1.6h1.6v-0.4H334V191.7z M317,191.7h-0.4v1.6 h-1.6v0.4h1.6v1.6h0.4v-1.6h1.6v-0.4H317V191.7z M325.5,200.2h-0.4v1.6h-1.6v0.4h1.6v1.6h0.4v-1.6h1.6v-0.4h-1.6V200.2z M300.1,38.8 h-0.4v1.6h-1.6v0.4h1.6v1.6h0.4v-1.6h1.6v-0.4h-1.6V38.8z M283.1,39.1v-0.3h-0.4v0.4v1.2h-1.6v0.4h1.6v1.6h0.4v-1.6h1.6v-0.4h-1.6 V39.1z M308.6,47.3h-0.4v1.6h-1.6v0.4h1.6v1.6h0.4v-1.6h1.6v-0.4h-1.6V47.3z M291.6,47.3h-0.4v1.6h-1.6v0.4h1.6v1.6h0.4v-1.6h1.6 v-0.4h-1.6V47.3z M274.6,47.3h-0.4v1.6h-1.6v0.4h1.6v1.6h0.4v-1.6h1.6v-0.4h-1.6V47.3z M257.6,47.3h-0.4v1.6h-1.6v0.4h1.6v1.6h0.4 v-1.6h1.6v-0.4h-1.6V47.3z M300.1,55.8h-0.4v1.6h-1.6v0.4h1.6v1.6h0.4v-1.6h1.6v-0.4h-1.6V55.8z M283.1,55.8h-0.4v1.6h-1.6v0.4h1.6 v1.6h0.4v-1.6h1.6v-0.4h-1.6V55.8z M266.1,55.8h-0.4v1.6h-1.6v0.4h1.6v1.6h0.4v-1.6h1.6v-0.4h-1.6V55.8z M249.1,55.8h-0.4v1.6h-1.6 v0.4h1.6v1.6h0.4v-1.6h1.6v-0.4h-1.6V55.8z M308.6,64.3h-0.4v1.6h-1.6v0.4h1.6v1.6h0.4v-1.6h1.6v-0.4h-1.6V64.3z M291.6,64.3h-0.4 v1.6h-1.6v0.4h1.6v1.6h0.4v-1.6h1.6v-0.4h-1.6V64.3z M274.6,64.3h-0.4v1.6h-1.6v0.4h1.6v1.6h0.4v-1.6h1.6v-0.4h-1.6V64.3z M257.6,64.3h-0.4v1.6h-1.6v0.4h1.6v1.6h0.4v-1.6h1.6v-0.4h-1.6V64.3z M300.1,72.7h-0.4v1.6h-1.6v0.4h1.6v1.6h0.4v-1.6h1.6v-0.4 h-1.6V72.7z M283.1,72.7h-0.4v1.6h-1.6v0.4h1.6v1.6h0.4v-1.6h1.6v-0.4h-1.6V72.7z M266.1,72.7h-0.4v1.6h-1.6v0.4h1.6v1.6h0.4v-1.6 h1.6v-0.4h-1.6V72.7z M249.1,72.7h-0.4v1.6h-1.6v0.4h1.6v1.6h0.4v-1.6h1.6v-0.4h-1.6V72.7z M308.6,81.2h-0.4v1.6h-1.6v0.4h1.6v1.6 h0.4v-1.6h1.6v-0.4h-1.6V81.2z M291.6,81.2h-0.4v1.6h-1.6v0.4h1.6v1.6h0.4v-1.6h1.6v-0.4h-1.6V81.2z M274.6,81.2h-0.4v1.6h-1.6v0.4 h1.6v1.6h0.4v-1.6h1.6v-0.4h-1.6V81.2z M257.6,81.2h-0.4v1.6h-1.6v0.4h1.6v1.6h0.4v-1.6h1.6v-0.4h-1.6V81.2z M300.1,89.7h-0.4v1.6 h-1.6v0.4h1.6v1.6h0.4v-1.6h1.6v-0.4h-1.6V89.7z M283.1,89.7h-0.4v1.6h-1.6v0.4h1.6v1.6h0.4v-1.6h1.6v-0.4h-1.6V89.7z M266.1,89.7 h-0.4v1.6h-1.6v0.4h1.6v1.6h0.4v-1.6h1.6v-0.4h-1.6V89.7z M249.1,89.7h-0.4v1.6h-1.6v0.4h1.6v1.6h0.4v-1.6h1.6v-0.4h-1.6V89.7z M308.6,98.2h-0.4v1.6h-1.6v0.4h1.6v1.6h0.4v-1.6h1.6v-0.4h-1.6V98.2z M291.6,98.2h-0.4v1.6h-1.6v0.4h1.6v1.6h0.4v-1.6h1.6v-0.4 h-1.6V98.2z M274.6,98.2h-0.4v1.6h-1.6v0.4h1.6v1.6h0.4v-1.6h1.6v-0.4h-1.6V98.2z M257.6,98.2h-0.4v1.6h-1.6v0.4h1.6v1.6h0.4v-1.6 h1.6v-0.4h-1.6V98.2z M300.1,106.7h-0.4v1.6h-1.6v0.4h1.6v1.6h0.4v-1.6h1.6v-0.4h-1.6V106.7z M283.1,106.7h-0.4v1.6h-1.6v0.4h1.6 v1.6h0.4v-1.6h1.6v-0.4h-1.6V106.7z M266.1,106.7h-0.4v1.6h-1.6v0.4h1.6v1.6h0.4v-1.6h1.6v-0.4h-1.6V106.7z M249.1,106.7h-0.4v1.6 h-1.6v0.4h1.6v1.6h0.4v-1.6h1.6v-0.4h-1.6V106.7z M308.6,115.2h-0.4v1.6h-1.6v0.4h1.6v1.6h0.4v-1.6h1.6v-0.4h-1.6V115.2z M291.6,115.2h-0.4v1.6h-1.6v0.4h1.6v1.6h0.4v-1.6h1.6v-0.4h-1.6V115.2z M274.6,115.2h-0.4v1.6h-1.6v0.4h1.6v1.6h0.4v-1.6h1.6v-0.4 h-1.6V115.2z M257.6,115.2h-0.4v1.6h-1.6v0.4h1.6v1.6h0.4v-1.6h1.6v-0.4h-1.6V115.2z M300.1,123.7h-0.4v1.6h-1.6v0.4h1.6v1.6h0.4 v-1.6h1.6v-0.4h-1.6V123.7z M283.1,123.7h-0.4v1.6h-1.6v0.4h1.6v1.6h0.4v-1.6h1.6v-0.4h-1.6V123.7z M266.1,123.7h-0.4v1.6h-1.6v0.4 h1.6v1.6h0.4v-1.6h1.6v-0.4h-1.6V123.7z M249.1,123.7h-0.4v1.6h-1.6v0.4h1.6v1.6h0.4v-1.6h1.6v-0.4h-1.6V123.7z M308.6,132.2h-0.4 v1.6h-1.6v0.4h1.6v1.6h0.4v-1.6h1.6v-0.4h-1.6V132.2z M291.6,132.2h-0.4v1.6h-1.6v0.4h1.6v1.6h0.4v-1.6h1.6v-0.4h-1.6V132.2z M274.6,132.2h-0.4v1.6h-1.6v0.4h1.6v1.6h0.4v-1.6h1.6v-0.4h-1.6V132.2z M257.6,132.2h-0.4v1.6h-1.6v0.4h1.6v1.6h0.4v-1.6h1.6v-0.4 h-1.6V132.2z M300.1,140.7h-0.4v1.6h-1.6v0.4h1.6v1.6h0.4v-1.6h1.6v-0.4h-1.6V140.7z M283.1,140.7h-0.4v1.6h-1.6v0.4h1.6v1.6h0.4 v-1.6h1.6v-0.4h-1.6V140.7z M266.1,140.7h-0.4v1.6h-1.6v0.4h1.6v1.6h0.4v-1.6h1.6v-0.4h-1.6V140.7z M249.1,140.7h-0.4v1.6h-1.6v0.4 h1.6v1.6h0.4v-1.6h1.6v-0.4h-1.6V140.7z M308.6,149.2h-0.4v1.6h-1.6v0.4h1.6v1.6h0.4v-1.6h1.6v-0.4h-1.6V149.2z M291.6,149.2h-0.4 v1.6h-1.6v0.4h1.6v1.6h0.4v-1.6h1.6v-0.4h-1.6V149.2z M274.6,149.2h-0.4v1.6h-1.6v0.4h1.6v1.6h0.4v-1.6h1.6v-0.4h-1.6V149.2z M257.6,149.2h-0.4v1.6h-1.6v0.4h1.6v1.6h0.4v-1.6h1.6v-0.4h-1.6V149.2z M300.1,157.7h-0.4v1.6h-1.6v0.4h1.6v1.6h0.4v-1.6h1.6v-0.4 h-1.6V157.7z M283.1,157.7h-0.4v1.6h-1.6v0.4h1.6v1.6h0.4v-1.6h1.6v-0.4h-1.6V157.7z M266.1,157.7h-0.4v1.6h-1.6v0.4h1.6v1.6h0.4 v-1.6h1.6v-0.4h-1.6V157.7z M249.1,157.7h-0.4v1.6h-1.6v0.4h1.6v1.6h0.4v-1.6h1.6v-0.4h-1.6V157.7z M308.6,166.2h-0.4v1.6h-1.6v0.4 h1.6v1.6h0.4v-1.6h1.6v-0.4h-1.6V166.2z M291.6,166.2h-0.4v1.6h-1.6v0.4h1.6v1.6h0.4v-1.6h1.6v-0.4h-1.6V166.2z M274.6,166.2h-0.4 v1.6h-1.6v0.4h1.6v1.6h0.4v-1.6h1.6v-0.4h-1.6V166.2z M257.6,166.2h-0.4v1.6h-1.6v0.4h1.6v1.6h0.4v-1.6h1.6v-0.4h-1.6V166.2z M300.1,174.7h-0.4v1.6h-1.6v0.4h1.6v1.6h0.4v-1.6h1.6v-0.4h-1.6V174.7z M283.1,174.7h-0.4v1.6h-1.6v0.4h1.6v1.6h0.4v-1.6h1.6v-0.4 h-1.6V174.7z M266.1,174.7h-0.4v1.6h-1.6v0.4h1.6v1.6h0.4v-1.6h1.6v-0.4h-1.6V174.7z M249.1,174.7h-0.4v1.6h-1.6v0.4h1.6v1.6h0.4 v-1.6h1.6v-0.4h-1.6V174.7z M308.6,183.2h-0.4v1.6h-1.6v0.4h1.6v1.6h0.4v-1.6h1.6v-0.4h-1.6V183.2z M291.6,183.2h-0.4v1.6h-1.6v0.4 h1.6v1.6h0.4v-1.6h1.6v-0.4h-1.6V183.2z M274.6,183.2h-0.4v1.6h-1.6v0.4h1.6v1.6h0.4v-1.6h1.6v-0.4h-1.6V183.2z M257.6,183.2h-0.4 v1.6h-1.6v0.4h1.6v1.6h0.4v-1.6h1.6v-0.4h-1.6V183.2z M300.1,191.7h-0.4v1.6h-1.6v0.4h1.6v1.6h0.4v-1.6h1.6v-0.4h-1.6V191.7z M283.1,191.7h-0.4v1.6h-1.6v0.4h1.6v1.6h0.4v-1.6h1.6v-0.4h-1.6V191.7z M266.1,191.7h-0.4v1.6h-1.6v0.4h1.6v1.6h0.4v-1.6h1.6v-0.4 h-1.6V191.7z M249.1,191.7h-0.4v1.6h-1.6v0.4h1.6v1.6h0.4v-1.6h1.6v-0.4h-1.6V191.7z M300.1,210.2v-1.6h-0.4v1.6h-1.6v0.4h1.2h0.4 h0.4h1.6v-0.4h-0.3H300.1z M308.6,200.2h-0.4v1.6h-1.6v0.4h1.6v1.6h0.4v-1.6h1.6v-0.4h-1.6V200.2z M291.6,200.2h-0.4v1.6h-1.6v0.4 h1.6v1.6h0.4v-1.6h1.6v-0.4h-1.6V200.2z M274.6,200.2h-0.4v1.6h-1.6v0.4h1.6v1.6h0.4v-1.6h1.6v-0.4h-1.6V200.2z M257.6,200.2h-0.4 v1.6h-1.6v0.4h1.6v1.6h0.4v-1.6h1.6v-0.4h-1.6V200.2z M283.1,208.7h-0.4v1.6h-1.6v0.4h1.6v1.6h0.4v-1.6h1.6v-0.4h-1.6V208.7z M266.1,208.7h-0.4v1.6h-1.6v0.4h1.6v1.6h0.4v-1.6h1.6v-0.4h-1.6V208.7z M249.1,208.7h-0.4v1.6h-1.6v0.4h1.6v1.6h0.4v-1.6h1.6v-0.4 h-1.6V208.7z M257.2,218.2v0.6h-1.6v0.4h1.6h0.4v-0.4v-0.6v-1h-0.4V218.2z M232.1,55.8h-0.4v1.6h-1.6v0.4h1.6v1.6h0.4v-1.6h1.6v-0.4 h-1.6V55.8z M240.6,64.3h-0.4v1.6h-1.6v0.4h1.6v1.6h0.4v-1.6h1.6v-0.4h-1.6V64.3z M223.6,64.3h-0.4v1.6h-1.6v0.4h1.6v1.6h0.4v-1.6 h1.6v-0.4h-1.6V64.3z M232.1,72.7h-0.4v1.6h-1.6v0.4h1.6v1.6h0.4v-1.6h1.6v-0.4h-1.6V72.7z M215.1,72.7h-0.4v1.6h-1.6v0.4h1.6v1.6 h0.4v-1.6h1.6v-0.4h-1.6V72.7z M240.6,81.2h-0.4v1.6h-1.6v0.4h1.6v1.6h0.4v-1.6h1.6v-0.4h-1.6V81.2z M223.6,81.2h-0.4v1.6h-1.6v0.4 h1.6v1.6h0.4v-1.6h1.6v-0.4h-1.6V81.2z M206.6,81.2h-0.4v1.6h-1.6v0.4h1.6v1.6h0.4v-1.6h1.6v-0.4h-1.6V81.2z M232.1,89.7h-0.4v1.6 h-1.6v0.4h1.6v1.6h0.4v-1.6h1.6v-0.4h-1.6V89.7z M215.1,89.7h-0.4v1.6h-1.6v0.4h1.6v1.6h0.4v-1.6h1.6v-0.4h-1.6V89.7z M198.1,89.7 h-0.4v1.6h-1.6v0.4h1.6v1.6h0.4v-1.6h1.6v-0.4h-1.6V89.7z M240.6,98.2h-0.4v1.6h-1.6v0.4h1.6v1.6h0.4v-1.6h1.6v-0.4h-1.6V98.2z M223.6,98.2h-0.4v1.6h-1.6v0.4h1.6v1.6h0.4v-1.6h1.6v-0.4h-1.6V98.2z M206.6,98.2h-0.4v1.6h-1.6v0.4h1.6v1.6h0.4v-1.6h1.6v-0.4 h-1.6V98.2z M189.6,98.2h-0.4v1.6h-1.6v0.4h1.6v1.6h0.4v-1.6h1.6v-0.4h-1.6V98.2z M232.1,106.7h-0.4v1.6h-1.6v0.4h1.6v1.6h0.4v-1.6 h1.6v-0.4h-1.6V106.7z M215.1,106.7h-0.4v1.6h-1.6v0.4h1.6v1.6h0.4v-1.6h1.6v-0.4h-1.6V106.7z M198.1,106.7h-0.4v1.6h-1.6v0.4h1.6 v1.6h0.4v-1.6h1.6v-0.4h-1.6V106.7z M181.1,106.7h-0.4v1.6h-1.6v0.4h1.6v1.6h0.4v-1.6h1.6v-0.4h-1.6V106.7z M240.6,115.2h-0.4v1.6 h-1.6v0.4h1.6v1.6h0.4v-1.6h1.6v-0.4h-1.6V115.2z M223.6,115.2h-0.4v1.6h-1.6v0.4h1.6v1.6h0.4v-1.6h1.6v-0.4h-1.6V115.2z M206.6,115.2h-0.4v1.6h-1.6v0.4h1.6v1.6h0.4v-1.6h1.6v-0.4h-1.6V115.2z M189.6,115.2h-0.4v1.6h-1.6v0.4h1.6v1.6h0.4v-1.6h1.6v-0.4 h-1.6V115.2z M232.1,123.7h-0.4v1.6h-1.6v0.4h1.6v1.6h0.4v-1.6h1.6v-0.4h-1.6V123.7z M215.1,123.7h-0.4v1.6h-1.6v0.4h1.6v1.6h0.4 v-1.6h1.6v-0.4h-1.6V123.7z M198.1,123.7h-0.4v1.6h-1.6v0.4h1.6v1.6h0.4v-1.6h1.6v-0.4h-1.6V123.7z M181.1,123.7h-0.4v1.6h-1.6v0.4 h1.6v1.6h0.4v-1.6h1.6v-0.4h-1.6V123.7z M240.6,132.2h-0.4v1.6h-1.6v0.4h1.6v1.6h0.4v-1.6h1.6v-0.4h-1.6V132.2z M223.6,132.2h-0.4 v1.6h-1.6v0.4h1.6v1.6h0.4v-1.6h1.6v-0.4h-1.6V132.2z M206.6,132.2h-0.4v1.6h-1.6v0.4h1.6v1.6h0.4v-1.6h1.6v-0.4h-1.6V132.2z M189.6,132.2h-0.4v1.6h-1.6v0.4h1.6v1.6h0.4v-1.6h1.6v-0.4h-1.6V132.2z M232.1,140.7h-0.4v1.6h-1.6v0.4h1.6v1.6h0.4v-1.6h1.6v-0.4 h-1.6V140.7z M215.1,140.7h-0.4v1.6h-1.6v0.4h1.6v1.6h0.4v-1.6h1.6v-0.4h-1.6V140.7z M198.1,140.7h-0.4v1.6h-1.6v0.4h1.6v1.6h0.4 v-1.6h1.6v-0.4h-1.6V140.7z M181.1,140.7h-0.4v1.6h-1.6v0.4h1.6v1.6h0.4v-1.6h1.6v-0.4h-1.6V140.7z M240.6,149.2h-0.4v1.6h-1.6v0.4 h1.6v1.6h0.4v-1.6h1.6v-0.4h-1.6V149.2z M223.6,149.2h-0.4v1.6h-1.6v0.4h1.6v1.6h0.4v-1.6h1.6v-0.4h-1.6V149.2z M206.6,149.2h-0.4 v1.6h-1.6v0.4h1.6v1.6h0.4v-1.6h1.6v-0.4h-1.6V149.2z M189.6,149.2h-0.4v1.6h-1.6v0.4h1.6v1.6h0.4v-1.6h1.6v-0.4h-1.6V149.2z M232.1,157.7h-0.4v1.6h-1.6v0.4h1.6v1.6h0.4v-1.6h1.6v-0.4h-1.6V157.7z M215.1,157.7h-0.4v1.6h-1.6v0.4h1.6v1.6h0.4v-1.6h1.6v-0.4 h-1.6V157.7z M198.1,157.7h-0.4v1.6h-1.6v0.4h1.6v1.6h0.4v-1.6h1.6v-0.4h-1.6V157.7z M181.1,157.7h-0.4v1.6h-1.6v0.4h1.6v1.6h0.4 v-1.6h1.6v-0.4h-1.6V157.7z M240.6,166.2h-0.4v1.6h-1.6v0.4h1.6v1.6h0.4v-1.6h1.6v-0.4h-1.6V166.2z M223.6,166.2h-0.4v1.6h-1.6v0.4 h1.6v1.6h0.4v-1.6h1.6v-0.4h-1.6V166.2z M206.6,166.2h-0.4v1.6h-1.6v0.4h1.6v1.6h0.4v-1.6h1.6v-0.4h-1.6V166.2z M189.6,166.2h-0.4 v1.6h-1.6v0.4h1.6v1.6h0.4v-1.6h1.6v-0.4h-1.6V166.2z M232.1,174.7h-0.4v1.6h-1.6v0.4h1.6v1.6h0.4v-1.6h1.6v-0.4h-1.6V174.7z M215.1,174.7h-0.4v1.6h-1.6v0.4h1.6v1.6h0.4v-1.6h1.6v-0.4h-1.6V174.7z M198.1,174.7h-0.4v1.6h-1.6v0.4h1.6v1.6h0.4v-1.6h1.6v-0.4 h-1.6V174.7z M181.1,174.7h-0.4v1.6h-1.6v0.4h1.6v1.6h0.4v-1.6h1.6v-0.4h-1.6V174.7z M240.6,183.2h-0.4v1.6h-1.6v0.4h1.6v1.6h0.4 v-1.6h1.6v-0.4h-1.6V183.2z M223.6,183.2h-0.4v1.6h-1.6v0.4h1.6v1.6h0.4v-1.6h1.6v-0.4h-1.6V183.2z M206.6,183.2h-0.4v1.6h-1.6v0.4 h1.6v1.6h0.4v-1.6h1.6v-0.4h-1.6V183.2z M189.6,183.2h-0.4v1.6h-1.6v0.4h1.6v1.6h0.4v-1.6h1.6v-0.4h-1.6V183.2z M232.1,191.7h-0.4 v1.6h-1.6v0.4h1.6v1.6h0.4v-1.6h1.6v-0.4h-1.6V191.7z M215.1,191.7h-0.4v1.6h-1.6v0.4h1.6v1.6h0.4v-1.6h1.6v-0.4h-1.6V191.7z M198.1,191.7h-0.4v1.6h-1.6v0.4h1.6v1.6h0.4v-1.6h1.6v-0.4h-1.6V191.7z M181.1,191.7h-0.4v1.6h-1.6v0.4h1.6v1.6h0.4v-1.6h1.6v-0.4 h-1.6V191.7z M240.6,200.2h-0.4v1.6h-1.6v0.4h1.6v1.6h0.4v-1.6h1.6v-0.4h-1.6V200.2z M223.6,200.2h-0.4v1.6h-1.6v0.4h1.6v1.6h0.4 v-1.6h1.6v-0.4h-1.6V200.2z M206.6,200.2h-0.4v1.6h-1.6v0.4h1.6v1.6h0.4v-1.6h1.6v-0.4h-1.6V200.2z M189.6,200.2h-0.4v1.6h-1.6v0.4 h1.6v1.6h0.4v-1.6h1.6v-0.4h-1.6V200.2z M232.1,208.7h-0.4v1.6h-1.6v0.4h1.6v1.6h0.4v-1.6h1.6v-0.4h-1.6V208.7z M215.1,208.7h-0.4 v1.6h-1.6v0.4h1.6v1.6h0.4v-1.6h1.6v-0.4h-1.6V208.7z M198.1,208.7h-0.4v1.6h-1.6v0.4h1.6v1.6h0.4v-1.6h1.6v-0.4h-1.6V208.7z M181.1,208.7h-0.4v1.6h-1.6v0.4h1.6v1.6h0.4v-1.6h1.6v-0.4h-1.6V208.7z M240.6,217.1h-0.4v1.6h-1.6v0.4h1.6v1.6h0.4v-1.6h1.6v-0.4 h-1.6V217.1z M223.6,217.1h-0.4v1.6h-1.6v0.4h1.6v1.6h0.4v-1.6h1.6v-0.4h-1.6V217.1z M206.6,217.1h-0.4v1.6h-1.6v0.4h1.6v1.6h0.4 v-1.6h1.6v-0.4h-1.6V217.1z M189.6,217.1h-0.4v1.6h-1.6v0.4h1.6v1.6h0.4v-1.6h1.6v-0.4h-1.6V217.1z M214.8,225.8l0.4-0.1v-0.1h-0.4 V225.8z M198.1,225.6h-0.4v1.6h-1.6v0.4h1.6v1.6h0.4v-1.6h1.6v-0.4h-1.6V225.6z M181.1,225.6h-0.4v1.6h-1.6v0.4h1.6v1.6h0.4v-1.6 h1.6v-0.4h-1.6V225.6z M206.3,235.7h-1.6v0.4h1.6h0h0.4v-0.4v-0.4v-1.2h-0.4V235.7z M189.6,234.1h-0.4v1.6h-1.6v0.4h1.6v1.6h0.4 v-1.6h1.6v-0.4h-1.6V234.1z M198.1,242.6h-0.4v1.6h-1.6v0.4h1.6v1.6h0.4v-1.6h1.6v-0.4h-1.6V242.6z M181.1,242.6h-0.4v1.6h-1.6v0.4 h1.6v1.6h0.4v-1.6h1.6v-0.4h-1.6V242.6z M189.6,251.1h-0.4v1.6h-1.6v0.4h1.6v1.6h0.4v-1.6h1.6v-0.4h-1.6V251.1z M181.1,259.6h-0.4 v1.6h-1.6v0.4h1.6v1.6h0.4v-1.6h1.6v-0.4h-1.6V259.6z M189.3,269.7h-0.9h-0.7v0.4h0.5h1.1h0.4v-0.4v-1.6h-0.4V269.7z M181.1,276.6 h-0.4v1.6h-1.6v0.4h1.6v1.6h0.4v-1.6h1.6v-0.4h-1.6V276.6z M172.6,115.2h-0.4v1.6h-1.6v0.4h1.6v1.6h0.4v-1.6h1.6v-0.4h-1.6V115.2z M164.2,123.7h-0.4v1.6h-1.6v0.4h1.6v1.6h0.4v-1.6h1.6v-0.4h-1.6V123.7z M147.2,123.7h-0.4v1.6h-1.6v0.4h1.6v1.6h0.4v-1.6h1.6v-0.4 h-1.6V123.7z M130.2,123.7h-0.4v1.6h-1.6v0.4h1.6v1.6h0.4v-1.6h1.6v-0.4h-1.6V123.7z M112.8,125.3h-1.6v0.4h1.6v0.8v0.8h0.4v-0.8 v-0.7h1.6v-0.4h-1.6H112.8z M172.6,132.2h-0.4v1.6h-1.6v0.4h1.6v1.6h0.4v-1.6h1.6v-0.4h-1.6V132.2z M155.7,132.2h-0.4v1.6h-1.6v0.4 h1.6v1.6h0.4v-1.6h1.6v-0.4h-1.6V132.2z M138.7,132.2h-0.4v1.6h-1.6v0.4h1.6v1.6h0.4v-1.6h1.6v-0.4h-1.6V132.2z M121.7,132.2h-0.4 v1.6h-1.6v0.4h1.6v1.6h0.4v-1.6h1.6v-0.4h-1.6V132.2z M164.2,140.7h-0.4v1.6h-1.6v0.4h1.6v1.6h0.4v-1.6h1.6v-0.4h-1.6V140.7z M147.2,140.7h-0.4v1.6h-1.6v0.4h1.6v1.6h0.4v-1.6h1.6v-0.4h-1.6V140.7z M130.2,140.7h-0.4v1.6h-1.6v0.4h1.6v1.6h0.4v-1.6h1.6v-0.4 h-1.6V140.7z M113.2,140.7h-0.4v1.6h-1.6v0.4h1.6v1.6h0.4v-1.6h1.6v-0.4h-1.6V140.7z M172.6,149.2h-0.4v1.6h-1.6v0.4h1.6v1.6h0.4 v-1.6h1.6v-0.4h-1.6V149.2z M155.7,149.2h-0.4v1.6h-1.6v0.4h1.6v1.6h0.4v-1.6h1.6v-0.4h-1.6V149.2z M138.7,149.2h-0.4v1.6h-1.6v0.4 h1.6v1.6h0.4v-1.6h1.6v-0.4h-1.6V149.2z M121.7,149.2h-0.4v1.6h-1.6v0.4h1.6v1.6h0.4v-1.6h1.6v-0.4h-1.6V149.2z M164.2,157.7h-0.4 v1.6h-1.6v0.4h1.6v1.6h0.4v-1.6h1.6v-0.4h-1.6V157.7z M147.2,157.7h-0.4v1.6h-1.6v0.4h1.6v1.6h0.4v-1.6h1.6v-0.4h-1.6V157.7z M130.2,157.7h-0.4v1.6h-1.6v0.4h1.6v1.6h0.4v-1.6h1.6v-0.4h-1.6V157.7z M113.2,157.7h-0.4v1.6h-1.6v0.4h1.6v1.6h0.4v-1.6h1.6v-0.4 h-1.6V157.7z M172.6,166.2h-0.4v1.6h-1.6v0.4h1.6v1.6h0.4v-1.6h1.6v-0.4h-1.6V166.2z M155.7,166.2h-0.4v1.6h-1.6v0.4h1.6v1.6h0.4 v-1.6h1.6v-0.4h-1.6V166.2z M138.7,166.2h-0.4v1.6h-1.6v0.4h1.6v1.6h0.4v-1.6h1.6v-0.4h-1.6V166.2z M121.7,166.2h-0.4v1.6h-1.6v0.4 h1.6v1.6h0.4v-1.6h1.6v-0.4h-1.6V166.2z M164.2,174.7h-0.4v1.6h-1.6v0.4h1.6v1.6h0.4v-1.6h1.6v-0.4h-1.6V174.7z M147.2,174.7h-0.4 v1.6h-1.6v0.4h1.6v1.6h0.4v-1.6h1.6v-0.4h-1.6V174.7z M130.2,174.7h-0.4v1.6h-1.6v0.4h1.6v1.6h0.4v-1.6h1.6v-0.4h-1.6V174.7z M113.2,174.7h-0.4v1.6h-1.6v0.4h1.6v1.6h0.4v-1.6h1.6v-0.4h-1.6V174.7z M172.6,183.2h-0.4v1.6h-1.6v0.4h1.6v1.6h0.4v-1.6h1.6v-0.4 h-1.6V183.2z M155.7,183.2h-0.4v1.6h-1.6v0.4h1.6v1.6h0.4v-1.6h1.6v-0.4h-1.6V183.2z M138.7,183.2h-0.4v1.6h-1.6v0.4h1.6v1.6h0.4 v-1.6h1.6v-0.4h-1.6V183.2z M121.7,183.2h-0.4v1.6h-1.6v0.4h1.6v1.6h0.4v-1.6h1.6v-0.4h-1.6V183.2z M164.2,191.7h-0.4v1.6h-1.6v0.4 h1.6v1.6h0.4v-1.6h1.6v-0.4h-1.6V191.7z M147.2,191.7h-0.4v1.6h-1.6v0.4h1.6v1.6h0.4v-1.6h1.6v-0.4h-1.6V191.7z M130.2,191.7h-0.4 v1.6h-1.6v0.4h1.6v1.6h0.4v-1.6h1.6v-0.4h-1.6V191.7z M113.2,191.7h-0.4v1.6h-1.6v0.4h1.6v1.6h0.4v-1.6h1.6v-0.4h-1.6V191.7z M172.6,200.2h-0.4v1.6h-1.6v0.4h1.6v1.6h0.4v-1.6h1.6v-0.4h-1.6V200.2z M155.7,200.2h-0.4v1.6h-1.6v0.4h1.6v1.6h0.4v-1.6h1.6v-0.4 h-1.6V200.2z M138.7,200.2h-0.4v1.6h-1.6v0.4h1.6v1.6h0.4v-1.6h1.6v-0.4h-1.6V200.2z M121.7,200.2h-0.4v1.6h-1.6v0.4h1.6v1.6h0.4 v-1.6h1.6v-0.4h-1.6V200.2z M164.2,208.7h-0.4v1.6h-1.6v0.4h1.6v1.6h0.4v-1.6h1.6v-0.4h-1.6V208.7z M147.2,208.7h-0.4v1.6h-1.6v0.4 h1.6v1.6h0.4v-1.6h1.6v-0.4h-1.6V208.7z M130.2,208.7h-0.4v1.6h-1.6v0.4h1.6v1.6h0.4v-1.6h1.6v-0.4h-1.6V208.7z M113.2,208.7h-0.4 v1.6h-1.6v0.4h1.6v1.6h0.4v-1.6h1.6v-0.4h-1.6V208.7z M172.6,217.1h-0.4v1.6h-1.6v0.4h1.6v1.6h0.4v-1.6h1.6v-0.4h-1.6V217.1z M155.7,217.1h-0.4v1.6h-1.6v0.4h1.6v1.6h0.4v-1.6h1.6v-0.4h-1.6V217.1z M138.7,217.1h-0.4v1.6h-1.6v0.4h1.6v1.6h0.4v-1.6h1.6v-0.4 h-1.6V217.1z M121.7,217.1h-0.4v1.6h-1.6v0.4h1.6v1.6h0.4v-1.6h1.6v-0.4h-1.6V217.1z M164.2,225.6h-0.4v1.6h-1.6v0.4h1.6v1.6h0.4 v-1.6h1.6v-0.4h-1.6V225.6z M147.2,225.6h-0.4v1.6h-1.6v0.4h1.6v1.6h0.4v-1.6h1.6v-0.4h-1.6V225.6z M130.2,225.6h-0.4v1.6h-1.6v0.4 h1.6v1.6h0.4v-1.6h1.6v-0.4h-1.6V225.6z M113.2,225.6h-0.4v1.6h-1.6v0.4h1.6v1.6h0.4v-1.6h1.6v-0.4h-1.6V225.6z M172.6,234.1h-0.4 v1.6h-1.6v0.4h1.6v1.6h0.4v-1.6h1.6v-0.4h-1.6V234.1z M155.7,234.1h-0.4v1.6h-1.6v0.4h1.6v1.6h0.4v-1.6h1.6v-0.4h-1.6V234.1z M138.7,234.1h-0.4v1.6h-1.6v0.4h1.6v1.6h0.4v-1.6h1.6v-0.4h-1.6V234.1z M121.7,234.1h-0.4v1.6h-1.6v0.4h1.6v1.6h0.4v-1.6h1.6v-0.4 h-1.6V234.1z M164.2,242.6h-0.4v1.6h-1.6v0.4h1.6v1.6h0.4v-1.6h1.6v-0.4h-1.6V242.6z M147.2,242.6h-0.4v1.6h-1.6v0.4h1.6v1.6h0.4 v-1.6h1.6v-0.4h-1.6V242.6z M130.2,242.6h-0.4v1.6h-1.6v0.4h1.6v1.6h0.4v-1.6h1.6v-0.4h-1.6V242.6z M172.6,251.1h-0.4v1.6h-1.6v0.4 h1.6v1.6h0.4v-1.6h1.6v-0.4h-1.6V251.1z M155.7,251.1h-0.4v1.6h-1.6v0.4h1.6v1.6h0.4v-1.6h1.6v-0.4h-1.6V251.1z M138.7,251.1h-0.4 v1.6h-1.6v0.4h1.6v1.6h0.4v-1.6h1.6v-0.4h-1.6V251.1z M164.2,259.6h-0.4v1.6h-1.6v0.4h1.6v1.6h0.4v-1.6h1.6v-0.4h-1.6V259.6z M172.6,268.1h-0.4v1.6h-1.6v0.4h1.6v1.6h0.4v-1.6h1.6v-0.4h-1.6V268.1z M70.7,133.8h-0.4h-1.6v0.4h1.3h0.3v1.6h0.4v-1.6h1.6v-0.4 h-0.3H70.7z M104.7,132.2h-0.4v1.6h-1.6v0.4h1.6v1.6h0.4v-1.6h1.6v-0.4h-1.6V132.2z M87.7,132.2h-0.4v1.6h-1.6v0.4h1.6v1.6h0.4v-1.6 h1.6v-0.4h-1.6V132.2z M96.2,140.7h-0.4v1.6h-1.6v0.4h1.6v1.6h0.4v-1.6h1.6v-0.4h-1.6V140.7z M79.2,140.7h-0.4v1.6h-1.6v0.4h1.6v1.6 h0.4v-1.6h1.6v-0.4h-1.6V140.7z M62.2,140.7h-0.4v1.6h-1.6v0.4h1.6v1.6h0.4v-1.6h1.6v-0.4h-1.6V140.7z M104.7,149.2h-0.4v1.6h-1.6 v0.4h1.6v1.6h0.4v-1.6h1.6v-0.4h-1.6V149.2z M87.7,149.2h-0.4v1.6h-1.6v0.4h1.6v1.6h0.4v-1.6h1.6v-0.4h-1.6V149.2z M70.7,149.2h-0.4 v1.6h-1.6v0.4h1.6v1.6h0.4v-1.6h1.6v-0.4h-1.6V149.2z M53.7,149.2h-0.4v1.6h-1.6v0.4h1.6v1.6h0.4v-1.6h1.6v-0.4h-1.6V149.2z M96.2,157.7h-0.4v1.6h-1.6v0.4h1.6v1.6h0.4v-1.6h1.6v-0.4h-1.6V157.7z M79.2,157.7h-0.4v1.6h-1.6v0.4h1.6v1.6h0.4v-1.6h1.6v-0.4 h-1.6V157.7z M62.2,157.7h-0.4v1.6h-1.6v0.4h1.6v1.6h0.4v-1.6h1.6v-0.4h-1.6V157.7z M45.2,157.7h-0.4v1.6h-1.4h-0.2v0.4h0h1.6v1.6 h0.4v-1.6h1.6v-0.4h-1.6V157.7z M104.7,166.2h-0.4v1.6h-1.6v0.4h1.6v1.6h0.4v-1.6h1.6v-0.4h-1.6V166.2z M87.7,166.2h-0.4v1.6h-1.6 v0.4h1.6v1.6h0.4v-1.6h1.6v-0.4h-1.6V166.2z M70.7,166.2h-0.4v1.6h-1.6v0.4h1.6v1.6h0.4v-1.6h1.6v-0.4h-1.6V166.2z M53.7,166.2h-0.4 v1.6h-1.6v0.4h1.6v1.6h0.4v-1.6h1.6v-0.4h-1.6V166.2z M96.2,174.7h-0.4v1.6h-1.6v0.4h1.6v1.6h0.4v-1.6h1.6v-0.4h-1.6V174.7z M79.2,174.7h-0.4v1.6h-1.6v0.4h1.6v1.6h0.4v-1.6h1.6v-0.4h-1.6V174.7z M62.2,174.7h-0.4v1.6h-1.6v0.4h1.6v1.6h0.4v-1.6h1.6v-0.4 h-1.6V174.7z M45.2,174.7h-0.4v1.6h-1.6v0.4h1.6v1.6h0.4v-1.6h1.6v-0.4h-1.6V174.7z M104.7,183.2h-0.4v1.6h-1.6v0.4h1.6v1.6h0.4 v-1.6h1.6v-0.4h-1.6V183.2z M87.7,183.2h-0.4v1.6h-1.6v0.4h1.6v1.6h0.4v-1.6h1.6v-0.4h-1.6V183.2z M70.7,183.2h-0.4v1.6h-1.6v0.4 h1.6v1.6h0.4v-1.6h1.6v-0.4h-1.6V183.2z M53.7,183.2h-0.4v1.6h-1.6v0.4h1.6v1.6h0.4v-1.6h1.6v-0.4h-1.6V183.2z M96.2,191.7h-0.4v1.6 h-1.6v0.4h1.6v1.6h0.4v-1.6h1.6v-0.4h-1.6V191.7z M79.2,191.7h-0.4v1.6h-1.6v0.4h1.6v1.6h0.4v-1.6h1.6v-0.4h-1.6V191.7z M62.2,191.7 h-0.4v1.6h-1.6v0.4h1.6v1.6h0.4v-1.6h1.6v-0.4h-1.6V191.7z M45.2,191.7h-0.4v1.6h-1.6v0.4h1.6v1.6h0.4v-1.6h1.6v-0.4h-1.6V191.7z M104.7,200.2h-0.4v1.6h-1.6v0.4h1.6v1.6h0.4v-1.6h1.6v-0.4h-1.6V200.2z M87.7,200.2h-0.4v1.6h-1.6v0.4h1.6v1.6h0.4v-1.6h1.6v-0.4 h-1.6V200.2z M70.7,200.2h-0.4v1.6h-1.6v0.4h1.6v1.6h0.4v-1.6h1.6v-0.4h-1.6V200.2z M53.7,200.2h-0.4v1.6h-1.6v0.4h1.6v1.6h0.4v-1.6 h1.6v-0.4h-1.6V200.2z M96.2,208.7h-0.4v1.6h-1.6v0.4h1.6v1.6h0.4v-1.6h1.6v-0.4h-1.6V208.7z M79.2,208.7h-0.4v1.6h-1.6v0.4h1.6v1.6 h0.4v-1.6h1.6v-0.4h-1.6V208.7z M62.2,208.7h-0.4v1.6h-1.6v0.4h1.6v1.5v0.1H62h0.2v-1.6h1.6v-0.4h-1.6V208.7z M104.7,217.1h-0.4v1.6 h-1.6v0.4h1.6v1.6h0.4v-1.6h1.6v-0.4h-1.6V217.1z M87.7,217.1h-0.4v1.6h-1.6v0.4h1.6v1.6h0.4v-1.6h1.6v-0.4h-1.6V217.1z M70.7,217.2 L70.7,217.2L70.7,217.2L70.7,217.2z M96.2,225.6h-0.4v1.6h-1.6v0.4h1.6v1.6h0.4v-1.6h1.6v-0.4h-1.6V225.6z M104.7,234.1h-0.4v1.6 H103l0.6,0.4l0.8,0.4l0.4,0.2v-0.6h1.6v-0.4h-1.6V234.1z M29.7,193.6h0.2v-0.4H29L29.7,193.6z M36.7,183.2h-0.4v1.6h-1.6v0.4h1.6 v1.6h0.4v-1.6h1.6v-0.4h-1.6V183.2z M27.9,192.6l0.4,0.2v-1.1h-0.4V192.6z" fill="#2b4b82"/></g><g id="change3_1"><path d="M410.3,138.4l-9.2,2.7c-11.2-6.1-22.4-12.2-33.6-18.3c-8.5-4.6-17.3-9.2-23.7-14.8 c-4.2-3.7-7-7.6-9.4-11.6c-3.7,5.7-1.3,13.5-11.6,17c-6.6,2.2-16.2,1.4-21.3,4.9c-5.4,3.7-5.6,9.6-6.6,14.5 c-1.8,8.7-8,18.4-26.2,17.5c-12.6-0.6-24.6-6.1-34.6-11.3c-1.6,1.7-3.2,3.3-4.9,4.9c-4.6,4.3-9.4,8.4-13.2,13 c-4.5,5.4-6.6,11.2-7.3,17.6c-0.1,0.4-0.1,0.9-0.1,1.3c0,0,0.1,0.1,0.1,0.1c9.2,6.3,25.2,5.5,35.9,10.7c2.8,1.4,5,3,6.6,4.9 c2.1,2.5,3.1,4.6,7.5,6.3c7.9,3.1,18.5,3.2,26.2,2.1c16.5-2.3,20.5-14,37.8-15.4c7.3-0.6,14.7,0.7,21.7,2.9l-4.5,5.1 c-1.1-0.3-2.2-0.6-3.3-0.9c-9.2-2.1-15.8-0.4-21.2,2.9c-5.4,3.3-9.8,7-16.8,9.3c-6.6,2.1-14.6,3-22.8,2.8c-8.2-0.2-17.1-1.7-24.3-5 c-3.3-1.5-5.8-3.3-7.7-5.4c-1.8-2.1-2.5-4.1-6-5.6c-5.5-2.4-12.7-3.1-18.7-4.4c-3.9-0.8-7.8-1.9-11.4-3.3c-1,9.9-3.2,19.9-15.9,26.1 c-7.6,3.6-17.5,4.8-28.4,3.7c-10.8-1.1-21.2-3.9-31.9-5.6c-10-1.5-24.8-2.4-27.3,4.1c-2.2,5.7,5.5,12.5,13.2,16.8 c10.4,5.9,23.4,10.1,35.3,14.6c12.2,4.6,24.8,9,36.4,14.1c1.6,0.7,3.2,1.4,4.7,2.2l-3.1,5.8c-11.5-6.1-25.7-10.7-38.6-15.5 c-21.8-8.2-51.4-17.1-58-32.8c-2.3-5.4-0.8-10.8,6-13.9c7.4-3.3,18.2-3.2,28.2-2c20.4,2.5,44.4,11.5,58.8,1.4 c13.3-9.4,8.6-24.3,11.9-36.3c0.2-0.6,0.3-1.1,0.5-1.7c-4.6-0.9-9.2-1.4-13.6-1.1c-4.2,0.3-7.8,1.4-11.7,2.1 c-7.5,1.2-15.7-0.2-23.3-2.7c-7.1-2.3-13.6-5.4-20.4-8c-7.6-2.9-15.6-4.8-24-5.5c-17.9-1.6-33.9,1.3-49.4,4.2 c-3.9,0.7-7.7,1.4-11.6,2l3.9-7.3c20.8-3.6,41.1-7.9,65.6-3.9c8,1.3,15.5,3.7,22.6,6.5c6.6,2.6,13.1,5.8,20.4,7.7 c8.6,2.3,13.7,0.1,21.2-0.9c7.3-1,15.4-0.4,23.2,1.3c4.6-7.3,12.1-13.6,18.9-20.1c4.3-4.1,8.4-8.5,10.3-13.4 c2.1-5.3,0.7-10.5-2.2-16.2c-3-6-4.3-11.5,0.4-16.5c4.6-4.9,12.8-7.9,17.9-12.5c9.4-8.4,7.8-20.2,0.7-30.7l9-2.7 c9.2,12.5,11.3,27.3-0.2,37.3c-5.3,4.6-14.1,7.8-18.2,12.9c-4.4,5.5,1.8,12.2,3.7,18.3c2.2,6.9-0.1,13.2-4.3,18.9 c10.2,5.4,28.2,14.5,38.7,8.4c5.3-3,6.3-8.1,7.1-12.5c0.9-4.4,1.7-8.9,5-12.8c3.2-3.8,8.4-6.1,15.6-7.2c6.8-1,13.6-1.2,15.6-5.6 c1.6-3.7,1.3-7.7,3.5-11.2c2.5-3.9,8.1-6.3,14.5-8c7.3-1.9,15.3-3,21.9-5.5c4.9-1.9,8.8-4.5,11.8-7.4l8.5,4.9 c-3.7,3.3-8.4,6-14.1,8.2c-7.4,2.8-16.7,3.8-24.5,6.2c2.8,5.4,5.9,10.9,12.2,15.7c6.5,5.1,15.3,9.4,23.3,13.7 C388.6,126.6,399.4,132.5,410.3,138.4z" fill="#f7b4a7"/></g><g id="change4_1"><path d="M340.3,37.7V23.5c-1,0.3-2.1,0.5-3.3,0.5c-1.1,0-2.2-0.2-3.3-0.5V34l-29.3-16.8L204.2,46.9 L153,105L37.1,125.8l-35.5,67l192.5,110.6l35.5-67l115.9-20.8l51.1-58.1L497,127.8L340.3,37.7z M384,146.2l-4.7,1.4l-2.4,2.7 l-48,54.5l-109.2,19.6l-8.4,1.5l-2.6,4.8l-26.5,50.1l-156-89.6l29.1-54.9L163,117l6.7-1.2l3.1-3.5l48.8-55.4l82.1-24.4l30.1,17.3 v41.3h0l0,0c0,0.9,1.5,1.6,3.3,1.6c1.8,0,3.3-0.7,3.3-1.6V53.5l121.2,69.7L384,146.2z" fill="#fefefe"/></g><g id="change5_1"><path d="M348.4,12.6c0,6.3-5.1,11.4-11.4,11.4s-11.4-5.1-11.4-11.4S330.7,1.2,337,1.2 S348.4,6.3,348.4,12.6z" fill="#f0abc1"/></g><g id="change2_2"><path d="M500,128.1L341.5,37V24.3c4.7-1.8,8.1-6.4,8.1-11.7C349.6,5.6,344,0,337,0 c-6.9,0-12.6,5.6-12.6,12.6c0,5.4,3.4,9.9,8.1,11.7v7.6l-27.5-15.8l-0.4-0.3l-101.1,30l0,0l-31.4,35.6l-19.7,22.4l-46.9,8.4 l-69.2,12.4l0,0L0,193.3l194.6,111.8l35.8-67.6l115.8-20.8l51.2-58.1L500,128.1z M326.8,12.6c0-5.6,4.6-10.2,10.2-10.2 c5.6,0,10.2,4.6,10.2,10.2s-4.6,10.2-10.2,10.2C331.4,22.8,326.8,18.2,326.8,12.6z M366.3,83.9c-4,1.5-8.7,2.5-13.3,3.5 c-3.7,0.8-7.6,1.6-11.1,2.7l-0.5,0.1v-4.9c1.7-0.4,3.5-0.8,5.2-1.2c4.8-1,9.8-2.1,14.2-3.8c4.6-1.8,8.4-4.1,11.5-7l6.3,3.6 C375.4,79.7,371.2,82,366.3,83.9z M380.9,78.2l77.6,44.6l-48.1,14.3l-32.1-17.5c-1.6-0.9-3.2-1.7-4.8-2.6c-6.5-3.5-13.2-7-18.4-11.1 c-5.6-4.4-8.7-9.3-11.2-14.1c3-0.9,6.3-1.6,9.5-2.2c4.6-1,9.4-2,13.6-3.6C372.6,84,377.2,81.4,380.9,78.2z M360,78.2 c-4.2,1.6-9.1,2.7-13.8,3.7c-1.6,0.3-3.2,0.7-4.8,1V55.6l28.8,16.6C367.5,74.6,364,76.6,360,78.2z M339.1,24.9v66 c-0.2,0.2-0.9,0.5-2.1,0.5c-1.2,0-1.9-0.4-2.1-0.5v-66c0.7,0.1,1.4,0.2,2.1,0.2C337.7,25.1,338.4,25.1,339.1,24.9z M337,93.9 c2.1,0,3.7-0.8,4.2-2v0c2.8,5.4,6,11,12.4,16c5.3,4.2,12.2,7.8,18.7,11.3c1.6,0.9,3.2,1.7,4.7,2.5l30.1,16.4l-6,1.8L366,120.7 c-7.7-4.2-15.7-8.5-21.5-13.6c-3.6-3.1-6.4-6.6-9.1-11.3l-1-1.6l-1,1.6c-1.3,2-1.9,4.2-2.5,6.4c-1.2,4.3-2.2,8-8.5,10.2 c-0.5,0.2-0.9,0.3-1.4,0.4l-6.1-3.5c3.1-0.8,5.5-2.1,6.7-4.7c0.8-1.7,1.1-3.4,1.5-5.1c0.4-2.1,0.8-4.1,2-5.9 c1.3-2.1,3.9-3.9,7.6-5.4v3C332.6,92.7,334.5,93.9,337,93.9z M341.5,91.1c0,0.2,0,0.3-0.1,0.5C341.4,91.4,341.5,91.2,341.5,91.1z M187.9,202.9c9.6-6.8,10.3-16.3,10.9-25.4c0.3-4.1,0.5-7.9,1.5-11.5c0.2-0.5,0.3-1.1,0.5-1.6l0.5-1.3l-1.3-0.3 c-5.1-1-9.7-1.4-14-1.1c-2.7,0.2-5.2,0.7-7.6,1.2c-1.4,0.3-2.8,0.6-4.3,0.8c-6.5,1-14.1,0.2-22.7-2.6c-4.4-1.4-8.6-3.2-12.7-4.9 c-2.5-1-5.1-2.1-7.7-3.1c-7.8-3-16-4.9-24.3-5.6c-10-0.9-19.3-0.4-28.2,0.7l-5.8-3.3c13.1-1.8,26.9-2.6,42.2,0 c7.2,1.2,14.6,3.3,22.4,6.4c1.8,0.7,3.5,1.5,5.3,2.2c4.8,2.1,9.8,4.2,15.2,5.6c6.8,1.8,11.6,0.9,16.7-0.1c1.6-0.3,3.2-0.6,4.9-0.8 c6.7-0.9,14.6-0.5,22.8,1.3l0.8,0.2l0.4-0.7c3.5-5.5,8.8-10.6,14.1-15.5l6.3,3.6c-3.1,2.9-6.2,5.8-8.8,9c-4.3,5.1-6.7,10.9-7.6,18.2 c-0.1,0.4-0.1,0.9-0.1,1.3l0.1,0.8l0.6,0.4c5.2,3.6,12.5,5,19.6,6.3c5.8,1.1,11.7,2.2,16.5,4.5c2.6,1.3,4.7,2.8,6.2,4.6 c0.4,0.5,0.7,0.9,1.1,1.3c1.5,2,3,3.8,6.9,5.3c8.3,3.2,19.3,3.3,26.8,2.2c8.2-1.2,13.4-4.5,18.5-7.8c0.1-0.1,0.2-0.1,0.3-0.2 l6.3,3.6c-3.6,2.4-7.1,4.6-11.9,6.1c-6.2,2-14,2.9-22.4,2.7c-9.2-0.3-17.6-2-23.8-4.9c-3.2-1.5-5.6-3.2-7.3-5.1 c-0.4-0.5-0.7-0.9-1.1-1.4c-1.2-1.6-2.4-3.2-5.3-4.5c-4.1-1.8-8.9-2.7-13.7-3.5c-1.9-0.3-3.6-0.6-5.3-1c-4.6-1-8.2-2-11.2-3.2 l-1.5-0.6l-0.2,1.6c-1,9.5-2.9,19.2-15.3,25.1c-1.7,0.8-3.6,1.5-5.5,2.1l-5.9-3.4C182.8,205.7,185.5,204.6,187.9,202.9z M176.9,204.8l-94.9-54.5c7.8-0.8,16-1.1,24.6-0.3c8.1,0.7,16,2.6,23.7,5.5c2.6,1,5.1,2.1,7.6,3.1c4.1,1.7,8.4,3.5,12.9,4.9 c9,2.9,17,3.8,23.8,2.7c1.5-0.2,3-0.6,4.4-0.9c2.4-0.5,4.7-1,7.2-1.2c3.7-0.3,7.6,0,12,0.8c0,0.2-0.1,0.3-0.1,0.5 c-1.1,3.8-1.3,8-1.6,12c-0.6,9-1.1,17.5-9.9,23.7C183.7,202.9,180.4,204.1,176.9,204.8z M284.7,198.6c-7.2,1-17.7,1-25.6-2.1 c-3.3-1.3-4.5-2.8-5.9-4.6c-0.4-0.4-0.7-0.9-1.1-1.4c-1.7-2-4.1-3.8-7-5.2c-5-2.4-11.1-3.6-17.1-4.7c-6.9-1.3-13.5-2.6-18.3-5.6 c0-0.2,0-0.4,0.1-0.6c0.8-6.8,3.1-12.2,7.1-16.9c2.7-3.2,5.9-6.3,9.2-9.2l75.5,43.4C296.7,194.7,292,197.6,284.7,198.6z M225.7,145.4l-6.4-3.7c1-0.9,1.9-1.8,2.8-2.7c4-3.9,8.5-8.5,10.6-13.8c2.4-6.3,0.2-12.2-2.2-17.1c-3.5-7-3.4-11.3,0.2-15.2 c2.4-2.5,5.9-4.6,9.3-6.6c3-1.8,6.1-3.6,8.5-5.8c1.5-1.4,2.8-2.9,3.9-4.5l6.8,3.9c-0.8,0.9-1.7,1.9-2.7,2.7 c-2.2,1.9-5.1,3.6-7.9,5.3c-3.9,2.3-8,4.7-10.5,7.8c-3.6,4.5-1.1,9.7,1.2,14.2c0.9,1.7,1.8,3.5,2.3,5.2v0c1.8,5.8,0.5,11.5-4.1,17.8 l-0.8,1.1l1.2,0.6c8.5,4.5,28.3,15.1,39.9,8.4c5.7-3.3,6.8-8.9,7.7-13.3c0.8-4.2,1.7-8.6,4.7-12.2c2.9-3.4,7.9-5.7,14.9-6.8 c1-0.2,2.1-0.3,3.1-0.4c1.1-0.1,2.2-0.3,3.2-0.4l6.1,3.5c-1.3,0.2-2.7,0.4-4,0.5c-4.6,0.6-9.4,1.2-12.6,3.4c-5,3.4-5.9,8.5-6.7,13 c-0.1,0.8-0.3,1.5-0.4,2.2c-1.7,8-7.4,17.4-25,16.6c-12.4-0.6-24.2-6-34.1-11.2l-0.8-0.4l-0.6,0.7c-1.4,1.5-2.9,3-4.9,4.8 C227.4,143.7,226.6,144.6,225.7,145.4z M243.9,114.4c-0.6-1.9-1.5-3.8-2.4-5.6c-2.1-4.3-4.2-8.3-1.5-11.7c2.2-2.8,6.1-5.1,9.8-7.3 c2.9-1.7,5.9-3.5,8.2-5.5c1.2-1,2.3-2.2,3.2-3.3L308,108c-0.1,0-0.1,0-0.2,0c-1,0.1-2.1,0.3-3.2,0.4c-7.7,1.2-13,3.7-16.3,7.6 c-3.4,4.1-4.3,8.7-5.2,13.3c-0.8,4.2-1.8,8.9-6.6,11.7c-10,5.7-27.8-3.2-36.4-7.8C244.6,126.7,245.8,120.6,243.9,114.4z M262.6,79.2 c5.8-8.9,4.7-20.6-3.3-32.2l44.2-13.1l29.1,16.7v35c-4.7,1.8-7.8,4-9.6,6.7c-1.4,2.2-1.9,4.5-2.3,6.7c-0.3,1.6-0.6,3.2-1.3,4.6 c-1,2.3-3.9,3.3-7.6,3.9L262.6,79.2z M260.6,78l-7.1-4.1c3.4-7,2.3-15.5-3.2-24.3l6.7-2C263.3,56.6,266.9,68.4,260.6,78z M251.4,72.7l-26.9-15.5l23.4-7C253.2,58.5,254.4,66.4,251.4,72.7z M250.3,74.8c-0.9,1.4-2,2.7-3.4,3.9c-2.3,2-5.3,3.8-8.2,5.5 c-3.6,2.1-7.2,4.3-9.8,7.1c-5.4,5.8-3.3,12.3-0.6,17.8c3.2,6.4,3.8,10.8,2.1,15.2c-1.9,4.8-6.1,9.2-10,13c-1.1,1.1-2.2,2.1-3.3,3.2 l-44.9-25.8l49.6-56.2L250.3,74.8z M215.4,142.2c-5,4.7-10,9.5-13.5,14.8c-8.2-1.7-16-2.1-22.8-1.1c-1.8,0.2-3.4,0.6-5,0.9 c-5,0.9-9.4,1.8-15.7,0.1c-5.2-1.4-10.1-3.5-14.9-5.5c-1.8-0.8-3.6-1.5-5.3-2.2c-8-3.2-15.5-5.3-22.9-6.6 c-16.7-2.8-31.7-1.7-45.9,0.5l-10.6-6.1l104.4-18.8l7.1-1.3l0.4-0.4L215.4,142.2z M65.6,143.6c-3.8,0.6-7.6,1.3-11.4,1.9 c-0.9,0.2-1.8,0.3-2.7,0.5l4.3-8L65.6,143.6z M54.7,147.8c4.7-0.8,9.4-1.7,14.2-2.4l5.7,3.3c-6,0.9-11.9,1.9-17.7,3 c-2.9,0.5-6,1.1-9.2,1.6l2.5-4.7C51.7,148.4,53.2,148.1,54.7,147.8z M57.4,154.1c6.7-1.2,13.5-2.5,20.6-3.4l95,54.6 c-8.6,0.6-18.6-1.3-28.4-3.2c-5.3-1-10.8-2.1-16-2.7c-12.6-1.6-22.3-0.9-28.8,2.1c-6.9,3.1-9.4,8.9-6.6,15.5 c5.9,14.1,29.4,22.7,50.1,30.3c2.9,1.1,5.8,2.1,8.5,3.1c3,1.1,6.2,2.3,9.3,3.4c9.7,3.5,19.6,7.1,28.1,11.5l-7.4,14L27.9,190.8 L46.3,156C50.2,155.4,53.9,154.7,57.4,154.1z M161.9,251.4c-3.1-1.1-6.2-2.3-9.3-3.4c-2.7-1-5.6-2.1-8.5-3.1 c-20.3-7.4-43.3-15.8-48.8-29c-2.2-5.3-0.3-9.8,5.4-12.4c3.9-1.8,9.2-2.7,15.7-2.7c3.6,0,7.5,0.3,11.8,0.8 c5.1,0.6,10.5,1.7,15.8,2.7c11.2,2.2,22.7,4.4,32.3,2.9l6.1,3.5c-5.6,1.2-12,1.4-18.9,0.7c-6.4-0.7-12.7-1.9-18.9-3.2 c-4.2-0.8-8.6-1.7-13-2.4c-9.4-1.5-25.7-2.8-28.6,4.8c-3,8,9.7,16,13.7,18.3c8.4,4.8,18.5,8.5,28.2,12c2.4,0.9,4.9,1.8,7.3,2.7 c3,1.1,6.1,2.3,9.1,3.4c9.1,3.4,18.5,6.8,27.2,10.7c1.3,0.5,2.4,1.1,3.6,1.6l-2,3.7C181.7,258.7,171.7,255,161.9,251.4z M189.7,255.6c-8.8-3.8-18.2-7.3-27.4-10.7c-3.1-1.1-6.1-2.3-9.1-3.4c-2.4-0.9-4.8-1.8-7.3-2.7c-9.7-3.5-19.7-7.2-27.9-11.9 c-7-4-14.5-10.4-12.6-15.4c1.7-4.4,11.4-5.6,26-3.3c4.3,0.7,8.7,1.5,12.9,2.4c6.2,1.2,12.6,2.5,19.1,3.2c8.2,0.9,15.7,0.4,22.1-1.3 l24.3,14l-16.4,30.9C192.2,256.7,191,256.2,189.7,255.6z M188.6,211.5c1.3-0.5,2.6-1,3.8-1.5c12.7-6.1,15.3-16.2,16.4-25.5 c2.8,1,6.1,1.9,10.1,2.8c1.7,0.4,3.6,0.7,5.4,1c4.6,0.8,9.3,1.7,13.1,3.3c2.4,1,3.3,2.3,4.4,3.8c0.4,0.5,0.7,1,1.2,1.5 c1.9,2.2,4.5,4.1,8.1,5.7c6.5,3,15.2,4.8,24.7,5.1c8.6,0.3,16.6-0.7,23.1-2.8c5.4-1.8,9.4-4.4,13.2-6.9c0.1-0.1,0.2-0.1,0.2-0.2 l11.6,6.7l-112.3,20.2L188.6,211.5z M314.5,196.4c0.5-0.3,0.9-0.6,1.4-0.9c6-3.7,12.5-4.6,20.3-2.8c0.5,0.1,1,0.2,1.4,0.4l-9.4,10.7 l-0.8,0.2L314.5,196.4z M336.8,190.4c-8.5-1.9-15.5-1-22.1,3.1c-0.9,0.5-1.7,1.1-2.5,1.6l-6.2-3.6c4.6-2.9,9.4-5.4,16.7-5.9 c6.6-0.5,13.2,0.5,19.5,2.3l-2.8,3.2C338.6,190.8,337.7,190.6,336.8,190.4z M322.5,183.2c-8.4,0.7-13.9,3.8-18.9,7l-75.9-43.6 c0.7-0.7,1.4-1.3,2.1-2c1.7-1.6,3.1-3,4.4-4.3c10,5.2,21.8,10.4,34.3,11c20.3,1,25.9-11.1,27.4-18.4c0.2-0.8,0.3-1.5,0.4-2.3 c0.8-4.2,1.5-8.6,5.7-11.4c2.8-1.9,7.3-2.4,11.6-3c2.3-0.3,4.7-0.6,6.8-1.1l56.9,32.7L344,186C337.1,183.9,329.8,182.6,322.5,183.2z M323.7,114.3c7-2.6,8.3-7.3,9.4-11.5c0.4-1.4,0.7-2.7,1.3-4c2.5,4,5.3,7.3,8.5,10.1c6,5.2,14.1,9.6,21.9,13.9l33.2,18.1l-18.6,5.5 L323.7,114.3z M304.3,18.4l28.3,16.2v13.1l-28.3-16.3l-0.4-0.3l-82.1,24.4l-6.3-3.6l-8.2-4.7L304.3,18.4z M173.5,83.5l30.9-35.1 l15.3,8.8l-49.6,56.2l-15.3-8.8L173.5,83.5z M152.8,106.2l3.9,2.2l11.2,6.5L55.6,135.1l-15.1-8.7L152.8,106.2z M193.6,301.9 L3.2,192.4l34.4-64.9l16.2,9.3l-29.1,54.9l158,90.8l29.1-54.9l16.2,9.3L193.6,301.9z M229.9,235.2l-15.1-8.7l112.3-20.2l15.1,8.7 L229.9,235.2z M345.3,214.1l-15.3-8.8l49.6-56.2l15.3,8.8L345.3,214.1z M382.3,147.9l82.1-24.4l-123-70.7V39.7l152.6,87.7 l-97.2,28.9L382.3,147.9z" fill="#2b4b82"/></g></svg>