<?xml version="1.0" encoding="UTF-8" standalone="no"?><svg xmlns="http://www.w3.org/2000/svg" xmlns:xlink="http://www.w3.org/1999/xlink" fill="#000000" height="499.3" preserveAspectRatio="xMidYMid meet" version="1" viewBox="-67.3 1.2 364.7 499.3" width="364.7" zoomAndPan="magnify"><g id="change1_1"><path d="M-52.4,478.8c-7.2-3.7-13.9-10.8-13.9-17.4V218.5c0-11.4,6.9-24.7,15.5-29.7L269.3,4 c2-1.2,4.6-1.8,7.5-1.8c6.5,0,13.4,3.1,16,8.5c-2.9-2.3-6.9-2.4-11.4,0.2L-38.8,195.6c-8.8,5.1-16,18.8-16,30.5V469 C-54.8,473.1-53.9,476.4-52.4,478.8z M209.1,418l-60.4-18.1c-7-2.1-11.1-9.5-9.1-16.5l1.8-6.3l-71.9,41.5l-2,7.3 c-2.2,7.8-0.3,16,4.9,22.1l28.1,32.6c4.6,5.3,11.2,8.3,18.2,8.3l0,0c4.2,0,8.3-1.1,12-3.2l80.9-46.7c4-2.3,6.2-6.7,5.7-11.3 C216.7,423,213.6,419.3,209.1,418z" fill="#94ddde"/></g><g id="change2_1"><path d="M90.2,406.6l37.6-21.7l0,0L90.2,406.6z M211.6,439l-80.9,46.7c-3.6,2.1-7.8,3.2-12,3.2l0,0 c-7,0-13.6-3-18.2-8.3L72.4,448c-5.3-6.1-7.1-14.4-4.9-22.1l2-7.3l-8.4,4.9l-1.4,4.7c-2.2,7.8-0.3,16,4.9,22.1l35.6,41 c4.6,5.3,11.2,8.3,18.2,8.3c4.2,0,8.3-1.1,12-3.2l80.9-46.7c3.4-1.9,5.4-5.2,5.7-9.1v-0.3v-9.1C216.5,434.4,214.6,437.3,211.6,439z M297.3,265.8v-58.4l-37.8,21.8L-54.8,410.6V469c0,11.8,7.2,17.2,16,12.1l320.2-184.8C290.2,291.2,297.3,277.5,297.3,265.8z" fill="#f0abc1"/></g><g id="change3_1"><path d="M147.4,336.6c0,10.2-7.2,22.7-16.2,27.9c-8.9,5.2-16.2,1-16.2-9.2s7.2-22.7,16.2-27.9 C140.1,322.2,147.4,326.3,147.4,336.6z M259.5,229.2l20.8-12V49.3c0-10.6-6.5-15.5-14.4-10.9l-289.2,167c-8,4.6-14.4,16.9-14.4,27.6 v167.9L259.5,229.2z" fill="#f7b4a7"/></g><g id="change4_1"><path d="M143.2,325.5c-3.4-2-7.8-1.6-12.5,1.1c-9.2,5.3-16.7,18.2-16.7,28.7c0,5.3,1.9,9.3,5.2,11.2 c1.4,0.8,3,1.2,4.7,1.2c2.4,0,5.1-0.8,7.8-2.4c9.2-5.3,16.7-18.2,16.7-28.7C148.4,331.3,146.5,327.3,143.2,325.5z M130.7,363.6 c-4,2.4-7.7,2.8-10.5,1.2c-2.7-1.5-4.2-4.9-4.2-9.5c0-10,7-22.1,15.7-27.1c2.4-1.4,4.7-2.1,6.8-2.1c1.3,0,2.6,0.4,3.7,1 c2.7,1.5,4.2,4.9,4.2,9.5C146.4,346.5,139.4,358.6,130.7,363.6z M294.5,12.4c-1.8-7.1-10.2-11.2-17.7-11.2c-2.9,0-5.7,0.6-8,1.9 L-51.3,188c-8.8,5.1-16,18.7-16,30.5v242.9c0,7.5,8,15.5,16.2,19l-0.1-0.1c1.6,1.7,3.7,2.7,6.1,2.7c1.9,0,4-0.6,6.3-1.9l98.7-57 l-1.1,3.7c-2.3,8-0.4,16.7,5.1,23l35.6,41c4.8,5.7,11.8,8.7,18.9,8.7c4.3,0,8.6-1,12.5-3.3l81-46.6c3.9-2.2,5.9-6,6.2-9.8v-9.5 c1-5.8-2.1-12.2-8.7-14.2L149,399c-5.4-1.7-9-6.7-8.9-12.1c0-0.4,0.1-0.9,0.1-1.3c0.1-0.2,0.1-0.3,0.1-0.5c0-0.1,0.1-0.3,0.1-0.4 c0-0.3,0.1-0.7,0.2-1l2-7.3l138.7-80.2c8.8-5.1,16-18.7,16-30.5v-58.4l0.1-184.4C297.4,18.4,296.3,14.8,294.5,12.4z M-65.4,461.3 V218.4c0-11.1,6.7-24,15-28.8L269.8,4.8c1.9-1.1,4.3-1.7,7-1.7c3.9,0,8.1,1.3,11.1,3.4c1.1,0.8,2.3,1.8,3.2,3.1 c-2.7-1.2-6.1-0.9-9.7,1.2L-38.8,195.7c-8.8,5.1-16,18.7-16,30.5v185.2v57.5c0,3.3,0.5,6,1.5,8.2C-59.7,473.4-65.4,467.1-65.4,461.3 z M267.1,223.9v0.9l-0.7,0.4h-0.6v0.3h0.1l-6.5,3.7l-20.1,11.6v-1.3h1.3v-0.3h-1.3v-1.3h-0.3v1.3h-1.3v0.3h1.3v1.3h0.2l-7.1,4.1 h-0.2v0.1l-26.4,15.3v0h-1.3v-1.3H204v1.3h-1.3v0.3h1.3v0.7l-34.8,20.1V280h-0.3v1.3h-1.3v0.3h1.1l-34.5,19.9V301h-0.3v0.7l-1.1,0.6 h-0.2v0.1l-26.4,15.3v-1.1h1.3v-0.3h-1.3V315h-0.3v1.3h-1.3v0.3h1.3v1.2L72,337.4H71v-1.3h-0.3v1.3h-1.3v0.3h1.3v0.4L36,358.2v-1.1 h-0.3v1.2l-0.1,0.1h-1.2v0.3H35L0.9,378.4v-0.3H0.6v0.4l-27.8,16v-0.8h1.3v-0.3h-1.3v-1.3h-0.3v1.3h-1.3v0.3h1.3v1l-10.4,6 l0.1-167.8c0-4.7,1.2-9.7,3.3-14.2v1h0.3v-1.3h1.3v-0.3h-1.3v0c2.6-5.5,6.5-10.3,10.8-12.8l1.7-1h1.3v1.3h0.3v-1.3h1.3v-0.3h-1.3 v-0.6l34.8-20.1v1.3h0.3v-1.3h1.3v-0.3h-1l34.5-19.9v0.5H50V163l1.2-0.7h0.1v-0.1L77.8,147v1h-1.3v0.3h1.3v1.3h0.3v-1.3h1.3V148 h-1.3v-1.2l33.9-19.6h0.9v1.3h0.3v-1.3h1.3V127h-1.3v-0.4l34.8-20.1v1.1h0.3v-1.2l0.2-0.1h1.2V106h-0.6L183,86.3v0.3h0.3v-0.4 l27.8-16v0.8h-1.3v0.3h1.3v1.3h0.3v-1.3h1.3v-0.3h-1.3v-1l34.2-19.8h0.6v1.3h0.3v-1.3h1.3v-0.3h-1.3v-0.2l19.5-11.2 c3.1-1.8,5.9-2.1,8.3-1.3v0.3h0.3v-0.2c3.5,1.5,5.8,5.7,5.8,12v7.6h-0.4v0.3h0.4v13.7h-0.4v0.3h0.4v13.7h-0.4v0.3h0.4v13.7h-0.4v0.3 h0.4V113h-0.4v0.3h0.4V127h-0.4v0.3h0.4V141h-0.4v0.3h0.4v13.7h-0.4v0.3h0.4v13.7h-0.4v0.3h0.4v13.7h-0.4v0.3h0.4v13.7h-0.4v0.3h0.4 v13.7h-0.4v0.3h0.4v5.7l-12.8,7.4v-0.7H267.1z M-21.2,204.1l0.8-0.4v0.4H-21.2z M112.4,127l0.4-0.2v0.2H112.4z M216.1,440v0.5 c-0.2,3.5-2.1,6.5-5.2,8.3L130,495.5c-3.5,2-7.5,3.1-11.5,3.1c-6.7,0-13.1-2.9-17.5-8l-35.6-41c-5-5.8-6.8-13.8-4.7-21.2l1.6-5.7 l6.1-3.5l-1.8,6.3c-2.3,8-0.4,16.7,5.1,23l28,32.6c4.8,5.7,11.8,8.7,18.9,8.7c4.3,0,8.6-1,12.5-3.3l80.9-46.7c1.7-1,3.1-2.3,4.1-3.8 V440z M148.2,400.7l60.4,18.1c4.1,1.2,7,4.6,7.5,8.9s-1.5,8.3-5.2,10.4L130,484.8c-3.5,2-7.5,3.1-11.5,3.1c-6.7,0-13.1-2.9-17.5-8 l-28-32.6c-5-5.8-6.8-13.8-4.7-21.2l2.3-8.2l15.3-8.8l52-21.5C138.2,393.5,142.2,398.9,148.2,400.7z M295.5,265.8 c0,11.1-6.7,24-15,28.8L-39.7,479.4c-1.9,1.1-3.7,1.7-5.4,1.7c-4.7,0-7.7-4.8-7.7-12.1v-57.3l313.3-180.8l34.9-20.2h0.1V265.8z M267.1,43.1h-1.3v-0.3h1.3v-1.3h0.3v1.3h1.3v0.3h-1.3v1.3h-0.3V43.1z M274.1,50.1h-1.3v-0.3h1.3v-1.3h0.3v1.3h1.3v0.3h-1.3v1.3 h-0.3V50.1z M260.4,49.9h1.3v0.3h-1.3v1.3h-0.3v-1.3h-1.3v-0.3h1.3v-1.3h0.3V49.9z M267.1,57.2h-1.3v-0.3h1.3v-1.3h0.3v1.3h1.3v0.3 h-1.3v1.3h-0.3V57.2z M253.4,56.9h1.3v0.3h-1.3v1.3h-0.3v-1.3h-1.3v-0.3h1.3v-1.3h0.3V56.9z M239.4,56.9h1.3v0.3h-1.3v1.3h-0.3v-1.3 h-1.3v-0.3h1.3v-1.3h0.3V56.9z M274.1,64.2h-1.3v-0.3h1.3v-1.3h0.3v1.3h1.3v0.3h-1.3v1.3h-0.3V64.2z M260.4,63.9h1.3v0.3h-1.3v1.3 h-0.3v-1.3h-1.3v-0.3h1.3v-1.3h0.3V63.9z M246.4,63.9h1.3v0.3h-1.3v1.3h-0.3v-1.3h-1.3v-0.3h1.3v-1.3h0.3V63.9z M267.1,71.2h-1.3 v-0.3h1.3v-1.3h0.3v1.3h1.3v0.3h-1.3v1.3h-0.3V71.2z M253.4,70.9h1.3v0.3h-1.3v1.3h-0.3v-1.3h-1.3v-0.3h1.3v-1.3h0.3V70.9z M239.4,70.9h1.3v0.3h-1.3v1.3h-0.3v-1.3h-1.3v-0.3h1.3v-1.3h0.3V70.9z M274.1,78.2h-1.3v-0.3h1.3v-1.3h0.3v1.3h1.3v0.3h-1.3v1.3 h-0.3V78.2z M260.4,77.9h1.3v0.3h-1.3v1.3h-0.3v-1.3h-1.3v-0.3h1.3v-1.3h0.3V77.9z M246.4,77.9h1.3v0.3h-1.3v1.3h-0.3v-1.3h-1.3 v-0.3h1.3v-1.3h0.3V77.9z M267.1,85.2h-1.3v-0.3h1.3v-1.3h0.3v1.3h1.3v0.3h-1.3v1.3h-0.3V85.2z M253.4,84.9h1.3v0.3h-1.3v1.3h-0.3 v-1.3h-1.3v-0.3h1.3v-1.3h0.3V84.9z M239.4,84.9h1.3v0.3h-1.3v1.3h-0.3v-1.3h-1.3v-0.3h1.3v-1.3h0.3V84.9z M274.1,92.2h-1.3v-0.3 h1.3v-1.3h0.3v1.3h1.3v0.3h-1.3v1.3h-0.3V92.2z M260.4,91.9h1.3v0.3h-1.3v1.3h-0.3v-1.3h-1.3v-0.3h1.3v-1.3h0.3V91.9z M246.4,91.9 h1.3v0.3h-1.3v1.3h-0.3v-1.3h-1.3v-0.3h1.3v-1.3h0.3V91.9z M267.1,99.2h-1.3v-0.3h1.3v-1.3h0.3v1.3h1.3v0.3h-1.3v1.3h-0.3V99.2z M253.4,98.9h1.3v0.3h-1.3v1.3h-0.3v-1.3h-1.3v-0.3h1.3v-1.3h0.3V98.9z M239.4,98.9h1.3v0.3h-1.3v1.3h-0.3v-1.3h-1.3v-0.3h1.3v-1.3 h0.3V98.9z M274.1,106.2h-1.3V106h1.3v-1.3h0.3v1.3h1.3v0.3h-1.3v1.3h-0.3V106.2z M260.4,106h1.3v0.3h-1.3v1.3h-0.3v-1.3h-1.3V106 h1.3v-1.3h0.3V106z M246.4,106h1.3v0.3h-1.3v1.3h-0.3v-1.3h-1.3V106h1.3v-1.3h0.3V106z M267.1,113.3h-1.3V113h1.3v-1.3h0.3v1.3h1.3 v0.3h-1.3v1.3h-0.3V113.3z M253.4,113h1.3v0.3h-1.3v1.3h-0.3v-1.3h-1.3V113h1.3v-1.3h0.3V113z M239.4,113h1.3v0.3h-1.3v1.3h-0.3 v-1.3h-1.3V113h1.3v-1.3h0.3V113z M274.1,120.3h-1.3V120h1.3v-1.3h0.3v1.3h1.3v0.3h-1.3v1.3h-0.3V120.3z M260.4,120h1.3v0.3h-1.3 v1.3h-0.3v-1.3h-1.3V120h1.3v-1.3h0.3V120z M246.4,120h1.3v0.3h-1.3v1.3h-0.3v-1.3h-1.3V120h1.3v-1.3h0.3V120z M267.1,127.3h-1.3 V127h1.3v-1.3h0.3v1.3h1.3v0.3h-1.3v1.3h-0.3V127.3z M253.4,127h1.3v0.3h-1.3v1.3h-0.3v-1.3h-1.3V127h1.3v-1.3h0.3V127z M239.4,127 h1.3v0.3h-1.3v1.3h-0.3v-1.3h-1.3V127h1.3v-1.3h0.3V127z M274.1,134.3h-1.3V134h1.3v-1.3h0.3v1.3h1.3v0.3h-1.3v1.3h-0.3V134.3z M260.4,134h1.3v0.3h-1.3v1.3h-0.3v-1.3h-1.3V134h1.3v-1.3h0.3V134z M246.4,134h1.3v0.3h-1.3v1.3h-0.3v-1.3h-1.3V134h1.3v-1.3h0.3 V134z M267.1,141.3h-1.3V141h1.3v-1.3h0.3v1.3h1.3v0.3h-1.3v1.3h-0.3V141.3z M253.4,141h1.3v0.3h-1.3v1.3h-0.3v-1.3h-1.3V141h1.3 v-1.3h0.3V141z M239.4,141h1.3v0.3h-1.3v1.3h-0.3v-1.3h-1.3V141h1.3v-1.3h0.3V141z M274.1,148.3h-1.3V148h1.3v-1.3h0.3v1.3h1.3v0.3 h-1.3v1.3h-0.3V148.3z M260.4,148h1.3v0.3h-1.3v1.3h-0.3v-1.3h-1.3V148h1.3v-1.3h0.3V148z M246.4,148h1.3v0.3h-1.3v1.3h-0.3v-1.3 h-1.3V148h1.3v-1.3h0.3V148z M267.1,155.3h-1.3v-0.3h1.3v-1.3h0.3v1.3h1.3v0.3h-1.3v1.3h-0.3V155.3z M253.4,155.1h1.3v0.3h-1.3v1.3 h-0.3v-1.3h-1.3v-0.3h1.3v-1.3h0.3V155.1z M239.4,155.1h1.3v0.3h-1.3v1.3h-0.3v-1.3h-1.3v-0.3h1.3v-1.3h0.3V155.1z M274.1,162.4 h-1.3v-0.3h1.3v-1.3h0.3v1.3h1.3v0.3h-1.3v1.3h-0.3V162.4z M260.4,162.1h1.3v0.3h-1.3v1.3h-0.3v-1.3h-1.3v-0.3h1.3v-1.3h0.3V162.1z M246.4,162.1h1.3v0.3h-1.3v1.3h-0.3v-1.3h-1.3v-0.3h1.3v-1.3h0.3V162.1z M267.1,169.4h-1.3v-0.3h1.3v-1.3h0.3v1.3h1.3v0.3h-1.3v1.3 h-0.3V169.4z M253.4,169.1h1.3v0.3h-1.3v1.3h-0.3v-1.3h-1.3v-0.3h1.3v-1.3h0.3V169.1z M239.4,169.1h1.3v0.3h-1.3v1.3h-0.3v-1.3h-1.3 v-0.3h1.3v-1.3h0.3V169.1z M274.1,176.4h-1.3v-0.3h1.3v-1.3h0.3v1.3h1.3v0.3h-1.3v1.3h-0.3V176.4z M260.4,176.1h1.3v0.3h-1.3v1.3 h-0.3v-1.3h-1.3v-0.3h1.3v-1.3h0.3V176.1z M246.4,176.1h1.3v0.3h-1.3v1.3h-0.3v-1.3h-1.3v-0.3h1.3v-1.3h0.3V176.1z M267.1,183.4 h-1.3v-0.3h1.3v-1.3h0.3v1.3h1.3v0.3h-1.3v1.3h-0.3V183.4z M253.4,183.1h1.3v0.3h-1.3v1.3h-0.3v-1.3h-1.3v-0.3h1.3v-1.3h0.3V183.1z M239.4,183.1h1.3v0.3h-1.3v1.3h-0.3v-1.3h-1.3v-0.3h1.3v-1.3h0.3V183.1z M274.1,190.4h-1.3v-0.3h1.3v-1.3h0.3v1.3h1.3v0.3h-1.3v1.3 h-0.3V190.4z M260.4,190.1h1.3v0.3h-1.3v1.3h-0.3v-1.3h-1.3v-0.3h1.3v-1.3h0.3V190.1z M246.4,190.1h1.3v0.3h-1.3v1.3h-0.3v-1.3h-1.3 v-0.3h1.3v-1.3h0.3V190.1z M267.1,197.4h-1.3v-0.3h1.3v-1.3h0.3v1.3h1.3v0.3h-1.3v1.3h-0.3V197.4z M253.4,197.1h1.3v0.3h-1.3v1.3 h-0.3v-1.3h-1.3v-0.3h1.3v-1.3h0.3V197.1z M239.4,197.1h1.3v0.3h-1.3v1.3h-0.3v-1.3h-1.3v-0.3h1.3v-1.3h0.3V197.1z M274.1,204.4 h-1.3v-0.3h1.3v-1.3h0.3v1.3h1.3v0.3h-1.3v1.3h-0.3V204.4z M260.4,204.1h1.3v0.3h-1.3v1.3h-0.3v-1.3h-1.3v-0.3h1.3v-1.3h0.3V204.1z M246.4,204.1h1.3v0.3h-1.3v1.3h-0.3v-1.3h-1.3v-0.3h1.3v-1.3h0.3V204.1z M267.4,212.8h-0.3v-1.3h-1.3v-0.3h1.3v-1.3h0.3v1.3h1.3 v0.3h-1.3V212.8z M253.4,211.2h1.3v0.3h-1.3v1.3h-0.3v-1.3h-1.3v-0.3h1.3v-1.3h0.3V211.2z M239.4,211.2h1.3v0.3h-1.3v1.3h-0.3v-1.3 h-1.3v-0.3h1.3v-1.3h0.3V211.2z M274.1,218.5h-1.3v-0.3h1.3v-1.3h0.3v1.3h1.3v0.3h-1.3v1.3h-0.3V218.5z M260.4,218.2h1.3v0.3h-1.3 v1.3h-0.3v-1.3h-1.3v-0.3h1.3v-1.3h0.3V218.2z M246.4,218.2h1.3v0.3h-1.3v1.3h-0.3v-1.3h-1.3v-0.3h1.3v-1.3h0.3V218.2z M253.4,225.2 h1.3v0.3h-1.3v1.3h-0.3v-1.3h-1.3v-0.3h1.3v-1.3h0.3V225.2z M239.4,225.2h1.3v0.3h-1.3v1.3h-0.3v-1.3h-1.3v-0.3h1.3v-1.3h0.3V225.2z M246.4,232.2h1.3v0.3h-1.3v1.3h-0.3v-1.3h-1.3v-0.3h1.3v-1.3h0.3V232.2z M232.4,63.9h1.3v0.3h-1.3v1.3h-0.3v-1.3h-1.3v-0.3h1.3 v-1.3h0.3V63.9z M225.3,70.9h1.3v0.3h-1.3v1.3H225v-1.3h-1.3v-0.3h1.3v-1.3h0.3V70.9z M232.4,77.9h1.3v0.3h-1.3v1.3h-0.3v-1.3h-1.3 v-0.3h1.3v-1.3h0.3V77.9z M218.3,77.9h1.3v0.3h-1.3v1.3H218v-1.3h-1.3v-0.3h1.3v-1.3h0.3V77.9z M204.3,77.9h1.3v0.3h-1.3v1.3H204 v-1.3h-1.3v-0.3h1.3v-1.3h0.3V77.9z M225.3,84.9h1.3v0.3h-1.3v1.3H225v-1.3h-1.3v-0.3h1.3v-1.3h0.3V84.9z M211.3,84.9h1.3v0.3h-1.3 v1.3H211v-1.3h-1.3v-0.3h1.3v-1.3h0.3V84.9z M197.3,84.9h1.3v0.3h-1.3v1.3H197v-1.3h-1.3v-0.3h1.3v-1.3h0.3V84.9z M232.4,91.9h1.3 v0.3h-1.3v1.3h-0.3v-1.3h-1.3v-0.3h1.3v-1.3h0.3V91.9z M218.3,91.9h1.3v0.3h-1.3v1.3H218v-1.3h-1.3v-0.3h1.3v-1.3h0.3V91.9z M204.3,91.9h1.3v0.3h-1.3v1.3H204v-1.3h-1.3v-0.3h1.3v-1.3h0.3V91.9z M190.3,91.9h1.3v0.3h-1.3v1.3H190v-1.3h-1.3v-0.3h1.3v-1.3 h0.3V91.9z M225.3,98.9h1.3v0.3h-1.3v1.3H225v-1.3h-1.3v-0.3h1.3v-1.3h0.3V98.9z M211.3,98.9h1.3v0.3h-1.3v1.3H211v-1.3h-1.3v-0.3 h1.3v-1.3h0.3V98.9z M197.3,98.9h1.3v0.3h-1.3v1.3H197v-1.3h-1.3v-0.3h1.3v-1.3h0.3V98.9z M183.3,98.9h1.3v0.3h-1.3v1.3H183v-1.3 h-1.3v-0.3h1.3v-1.3h0.3V98.9z M232.4,106h1.3v0.3h-1.3v1.3h-0.3v-1.3h-1.3V106h1.3v-1.3h0.3V106z M218.3,106h1.3v0.3h-1.3v1.3H218 v-1.3h-1.3V106h1.3v-1.3h0.3V106z M204.3,106h1.3v0.3h-1.3v1.3H204v-1.3h-1.3V106h1.3v-1.3h0.3V106z M190.3,106h1.3v0.3h-1.3v1.3 H190v-1.3h-1.3V106h1.3v-1.3h0.3V106z M225.3,113h1.3v0.3h-1.3v1.3H225v-1.3h-1.3V113h1.3v-1.3h0.3V113z M211.3,113h1.3v0.3h-1.3 v1.3H211v-1.3h-1.3V113h1.3v-1.3h0.3V113z M197.3,113h1.3v0.3h-1.3v1.3H197v-1.3h-1.3V113h1.3v-1.3h0.3V113z M183.3,113h1.3v0.3 h-1.3v1.3H183v-1.3h-1.3V113h1.3v-1.3h0.3V113z M232.4,120h1.3v0.3h-1.3v1.3h-0.3v-1.3h-1.3V120h1.3v-1.3h0.3V120z M218.3,120h1.3 v0.3h-1.3v1.3H218v-1.3h-1.3V120h1.3v-1.3h0.3V120z M204.3,120h1.3v0.3h-1.3v1.3H204v-1.3h-1.3V120h1.3v-1.3h0.3V120z M190.3,120 h1.3v0.3h-1.3v1.3H190v-1.3h-1.3V120h1.3v-1.3h0.3V120z M225.3,127h1.3v0.3h-1.3v1.3H225v-1.3h-1.3V127h1.3v-1.3h0.3V127z M211.3,127h1.3v0.3h-1.3v1.3H211v-1.3h-1.3V127h1.3v-1.3h0.3V127z M197.3,127h1.3v0.3h-1.3v1.3H197v-1.3h-1.3V127h1.3v-1.3h0.3V127 z M183.3,127h1.3v0.3h-1.3v1.3H183v-1.3h-1.3V127h1.3v-1.3h0.3V127z M232.4,134h1.3v0.3h-1.3v1.3h-0.3v-1.3h-1.3V134h1.3v-1.3h0.3 V134z M218.3,134h1.3v0.3h-1.3v1.3H218v-1.3h-1.3V134h1.3v-1.3h0.3V134z M204.3,134h1.3v0.3h-1.3v1.3H204v-1.3h-1.3V134h1.3v-1.3 h0.3V134z M190.3,134h1.3v0.3h-1.3v1.3H190v-1.3h-1.3V134h1.3v-1.3h0.3V134z M225.3,141h1.3v0.3h-1.3v1.3H225v-1.3h-1.3V141h1.3 v-1.3h0.3V141z M211.3,141h1.3v0.3h-1.3v1.3H211v-1.3h-1.3V141h1.3v-1.3h0.3V141z M197.3,141h1.3v0.3h-1.3v1.3H197v-1.3h-1.3V141 h1.3v-1.3h0.3V141z M183.3,141h1.3v0.3h-1.3v1.3H183v-1.3h-1.3V141h1.3v-1.3h0.3V141z M232.4,148h1.3v0.3h-1.3v1.3h-0.3v-1.3h-1.3 V148h1.3v-1.3h0.3V148z M218.3,148h1.3v0.3h-1.3v1.3H218v-1.3h-1.3V148h1.3v-1.3h0.3V148z M204.3,148h1.3v0.3h-1.3v1.3H204v-1.3 h-1.3V148h1.3v-1.3h0.3V148z M190.3,148h1.3v0.3h-1.3v1.3H190v-1.3h-1.3V148h1.3v-1.3h0.3V148z M225.3,155.1h1.3v0.3h-1.3v1.3H225 v-1.3h-1.3v-0.3h1.3v-1.3h0.3V155.1z M211.3,155.1h1.3v0.3h-1.3v1.3H211v-1.3h-1.3v-0.3h1.3v-1.3h0.3V155.1z M197.3,155.1h1.3v0.3 h-1.3v1.3H197v-1.3h-1.3v-0.3h1.3v-1.3h0.3V155.1z M183.3,155.1h1.3v0.3h-1.3v1.3H183v-1.3h-1.3v-0.3h1.3v-1.3h0.3V155.1z M232.4,162.1h1.3v0.3h-1.3v1.3h-0.3v-1.3h-1.3v-0.3h1.3v-1.3h0.3V162.1z M218.3,162.1h1.3v0.3h-1.3v1.3H218v-1.3h-1.3v-0.3h1.3 v-1.3h0.3V162.1z M204.3,162.1h1.3v0.3h-1.3v1.3H204v-1.3h-1.3v-0.3h1.3v-1.3h0.3V162.1z M190.3,162.1h1.3v0.3h-1.3v1.3H190v-1.3 h-1.3v-0.3h1.3v-1.3h0.3V162.1z M225.3,169.1h1.3v0.3h-1.3v1.3H225v-1.3h-1.3v-0.3h1.3v-1.3h0.3V169.1z M211.3,169.1h1.3v0.3h-1.3 v1.3H211v-1.3h-1.3v-0.3h1.3v-1.3h0.3V169.1z M197.3,169.1h1.3v0.3h-1.3v1.3H197v-1.3h-1.3v-0.3h1.3v-1.3h0.3V169.1z M183.3,169.1 h1.3v0.3h-1.3v1.3H183v-1.3h-1.3v-0.3h1.3v-1.3h0.3V169.1z M232.4,176.1h1.3v0.3h-1.3v1.3h-0.3v-1.3h-1.3v-0.3h1.3v-1.3h0.3V176.1z M218.3,176.1h1.3v0.3h-1.3v1.3H218v-1.3h-1.3v-0.3h1.3v-1.3h0.3V176.1z M204.3,176.1h1.3v0.3h-1.3v1.3H204v-1.3h-1.3v-0.3h1.3v-1.3 h0.3V176.1z M190.3,176.1h1.3v0.3h-1.3v1.3H190v-1.3h-1.3v-0.3h1.3v-1.3h0.3V176.1z M225.3,183.1h1.3v0.3h-1.3v1.3H225v-1.3h-1.3 v-0.3h1.3v-1.3h0.3V183.1z M211.3,183.1h1.3v0.3h-1.3v1.3H211v-1.3h-1.3v-0.3h1.3v-1.3h0.3V183.1z M197.3,183.1h1.3v0.3h-1.3v1.3 H197v-1.3h-1.3v-0.3h1.3v-1.3h0.3V183.1z M183.3,183.1h1.3v0.3h-1.3v1.3H183v-1.3h-1.3v-0.3h1.3v-1.3h0.3V183.1z M232.4,190.1h1.3 v0.3h-1.3v1.3h-0.3v-1.3h-1.3v-0.3h1.3v-1.3h0.3V190.1z M218.3,190.1h1.3v0.3h-1.3v1.3H218v-1.3h-1.3v-0.3h1.3v-1.3h0.3V190.1z M204.3,190.1h1.3v0.3h-1.3v1.3H204v-1.3h-1.3v-0.3h1.3v-1.3h0.3V190.1z M190.3,190.1h1.3v0.3h-1.3v1.3H190v-1.3h-1.3v-0.3h1.3v-1.3 h0.3V190.1z M225.3,197.1h1.3v0.3h-1.3v1.3H225v-1.3h-1.3v-0.3h1.3v-1.3h0.3V197.1z M211.3,197.1h1.3v0.3h-1.3v1.3H211v-1.3h-1.3 v-0.3h1.3v-1.3h0.3V197.1z M197.3,197.1h1.3v0.3h-1.3v1.3H197v-1.3h-1.3v-0.3h1.3v-1.3h0.3V197.1z M183.3,197.1h1.3v0.3h-1.3v1.3 H183v-1.3h-1.3v-0.3h1.3v-1.3h0.3V197.1z M232.4,204.1h1.3v0.3h-1.3v1.3h-0.3v-1.3h-1.3v-0.3h1.3v-1.3h0.3V204.1z M218.3,204.1h1.3 v0.3h-1.3v1.3H218v-1.3h-1.3v-0.3h1.3v-1.3h0.3V204.1z M204.3,204.1h1.3v0.3h-1.3v1.3H204v-1.3h-1.3v-0.3h1.3v-1.3h0.3V204.1z M190.3,204.1h1.3v0.3h-1.3v1.3H190v-1.3h-1.3v-0.3h1.3v-1.3h0.3V204.1z M225.3,211.2h1.3v0.3h-1.3v1.3H225v-1.3h-1.3v-0.3h1.3v-1.3 h0.3V211.2z M211.3,211.2h1.3v0.3h-1.3v1.3H211v-1.3h-1.3v-0.3h1.3v-1.3h0.3V211.2z M197.3,211.2h1.3v0.3h-1.3v1.3H197v-1.3h-1.3 v-0.3h1.3v-1.3h0.3V211.2z M183.3,211.2h1.3v0.3h-1.3v1.3H183v-1.3h-1.3v-0.3h1.3v-1.3h0.3V211.2z M232.4,218.2h1.3v0.3h-1.3v1.3 h-0.3v-1.3h-1.3v-0.3h1.3v-1.3h0.3V218.2z M218.3,218.2h1.3v0.3h-1.3v1.3H218v-1.3h-1.3v-0.3h1.3v-1.3h0.3V218.2z M204.3,218.2h1.3 v0.3h-1.3v1.3H204v-1.3h-1.3v-0.3h1.3v-1.3h0.3V218.2z M190.3,218.2h1.3v0.3h-1.3v1.3H190v-1.3h-1.3v-0.3h1.3v-1.3h0.3V218.2z M225.3,225.2h1.3v0.3h-1.3v1.3H225v-1.3h-1.3v-0.3h1.3v-1.3h0.3V225.2z M211.3,225.2h1.3v0.3h-1.3v1.3H211v-1.3h-1.3v-0.3h1.3v-1.3 h0.3V225.2z M197.3,225.2h1.3v0.3h-1.3v1.3H197v-1.3h-1.3v-0.3h1.3v-1.3h0.3V225.2z M183.3,225.2h1.3v0.3h-1.3v1.3H183v-1.3h-1.3 v-0.3h1.3v-1.3h0.3V225.2z M232.4,232.2h1.3v0.3h-1.3v1.3h-0.3v-1.3h-1.3v-0.3h1.3v-1.3h0.3V232.2z M218.3,232.2h1.3v0.3h-1.3v1.3 H218v-1.3h-1.3v-0.3h1.3v-1.3h0.3V232.2z M204.3,232.2h1.3v0.3h-1.3v1.3H204v-1.3h-1.3v-0.3h1.3v-1.3h0.3V232.2z M190.3,232.2h1.3 v0.3h-1.3v1.3H190v-1.3h-1.3v-0.3h1.3v-1.3h0.3V232.2z M225.3,239.2h1.3v0.3h-1.3v1.3H225v-1.3h-1.3v-0.3h1.3v-1.3h0.3V239.2z M211.3,239.2h1.3v0.3h-1.3v1.3H211v-1.3h-1.3v-0.3h1.3v-1.3h0.3V239.2z M197.3,239.2h1.3v0.3h-1.3v1.3H197v-1.3h-1.3v-0.3h1.3v-1.3 h0.3V239.2z M183.3,239.2h1.3v0.3h-1.3v1.3H183v-1.3h-1.3v-0.3h1.3v-1.3h0.3V239.2z M218.3,246.2h1.3v0.3h-1.3v1.3H218v-1.3h-1.3 v-0.3h1.3v-1.3h0.3V246.2z M204.3,246.2h1.3v0.3h-1.3v1.3H204v-1.3h-1.3v-0.3h1.3v-1.3h0.3V246.2z M190.3,246.2h1.3v0.3h-1.3v1.3 H190v-1.3h-1.3v-0.3h1.3v-1.3h0.3V246.2z M211.3,253.2h1.3v0.3h-1.3v1.3H211v-1.3h-1.3v-0.3h1.3v-1.3h0.3V253.2z M197.3,253.2h1.3 v0.3h-1.3v1.3H197v-1.3h-1.3v-0.3h1.3v-1.3h0.3V253.2z M183.3,253.2h1.3v0.3h-1.3v1.3H183v-1.3h-1.3v-0.3h1.3v-1.3h0.3V253.2z M190.3,260.3h1.3v0.3h-1.3v1.3H190v-1.3h-1.3v-0.3h1.3v-1.3h0.3V260.3z M183.3,267.3h1.3v0.3h-1.3v1.3H183v-1.3h-1.3v-0.3h1.3V266 h0.3V267.3z M176.2,91.9h1.3v0.3h-1.3v1.3H176v-1.3h-1.3v-0.3h1.3v-1.3h0.3V91.9z M169.2,98.9h1.3v0.3h-1.3v1.3h-0.3v-1.3h-1.3v-0.3 h1.3v-1.3h0.3V98.9z M176.2,106h1.3v0.3h-1.3v1.3H176v-1.3h-1.3V106h1.3v-1.3h0.3V106z M162.2,106h1.3v0.3h-1.3v1.3h-0.3v-1.3h-1.3 V106h1.3v-1.3h0.3V106z M169.2,113h1.3v0.3h-1.3v1.3h-0.3v-1.3h-1.3V113h1.3v-1.3h0.3V113z M155.2,113h1.3v0.3h-1.3v1.3h-0.3v-1.3 h-1.3V113h1.3v-1.3h0.3V113z M141.2,113h1.3v0.3h-1.3v1.3h-0.3v-1.3h-1.3V113h1.3v-1.3h0.3V113z M176.2,120h1.3v0.3h-1.3v1.3H176 v-1.3h-1.3V120h1.3v-1.3h0.3V120z M162.2,120h1.3v0.3h-1.3v1.3h-0.3v-1.3h-1.3V120h1.3v-1.3h0.3V120z M148.2,120h1.3v0.3h-1.3v1.3 h-0.3v-1.3h-1.3V120h1.3v-1.3h0.3V120z M134.2,120h1.3v0.3h-1.3v1.3h-0.3v-1.3h-1.3V120h1.3v-1.3h0.3V120z M169.2,127h1.3v0.3h-1.3 v1.3h-0.3v-1.3h-1.3V127h1.3v-1.3h0.3V127z M155.2,127h1.3v0.3h-1.3v1.3h-0.3v-1.3h-1.3V127h1.3v-1.3h0.3V127z M141.2,127h1.3v0.3 h-1.3v1.3h-0.3v-1.3h-1.3V127h1.3v-1.3h0.3V127z M127.2,127h1.3v0.3h-1.3v1.3h-0.3v-1.3h-1.3V127h1.3v-1.3h0.3V127z M176.2,134h1.3 v0.3h-1.3v1.3H176v-1.3h-1.3V134h1.3v-1.3h0.3V134z M162.2,134h1.3v0.3h-1.3v1.3h-0.3v-1.3h-1.3V134h1.3v-1.3h0.3V134z M148.2,134 h1.3v0.3h-1.3v1.3h-0.3v-1.3h-1.3V134h1.3v-1.3h0.3V134z M134.2,134h1.3v0.3h-1.3v1.3h-0.3v-1.3h-1.3V134h1.3v-1.3h0.3V134z M169.2,141h1.3v0.3h-1.3v1.3h-0.3v-1.3h-1.3V141h1.3v-1.3h0.3V141z M155.2,141h1.3v0.3h-1.3v1.3h-0.3v-1.3h-1.3V141h1.3v-1.3h0.3 V141z M141.2,141h1.3v0.3h-1.3v1.3h-0.3v-1.3h-1.3V141h1.3v-1.3h0.3V141z M127.2,141h1.3v0.3h-1.3v1.3h-0.3v-1.3h-1.3V141h1.3v-1.3 h0.3V141z M176.2,148h1.3v0.3h-1.3v1.3H176v-1.3h-1.3V148h1.3v-1.3h0.3V148z M162.2,148h1.3v0.3h-1.3v1.3h-0.3v-1.3h-1.3V148h1.3 v-1.3h0.3V148z M148.2,148h1.3v0.3h-1.3v1.3h-0.3v-1.3h-1.3V148h1.3v-1.3h0.3V148z M134.2,148h1.3v0.3h-1.3v1.3h-0.3v-1.3h-1.3V148 h1.3v-1.3h0.3V148z M169.2,155.1h1.3v0.3h-1.3v1.3h-0.3v-1.3h-1.3v-0.3h1.3v-1.3h0.3V155.1z M155.2,155.1h1.3v0.3h-1.3v1.3h-0.3 v-1.3h-1.3v-0.3h1.3v-1.3h0.3V155.1z M141.2,155.1h1.3v0.3h-1.3v1.3h-0.3v-1.3h-1.3v-0.3h1.3v-1.3h0.3V155.1z M127.2,155.1h1.3v0.3 h-1.3v1.3h-0.3v-1.3h-1.3v-0.3h1.3v-1.3h0.3V155.1z M176.2,162.1h1.3v0.3h-1.3v1.3H176v-1.3h-1.3v-0.3h1.3v-1.3h0.3V162.1z M162.2,162.1h1.3v0.3h-1.3v1.3h-0.3v-1.3h-1.3v-0.3h1.3v-1.3h0.3V162.1z M148.2,162.1h1.3v0.3h-1.3v1.3h-0.3v-1.3h-1.3v-0.3h1.3 v-1.3h0.3V162.1z M134.2,162.1h1.3v0.3h-1.3v1.3h-0.3v-1.3h-1.3v-0.3h1.3v-1.3h0.3V162.1z M169.2,169.1h1.3v0.3h-1.3v1.3h-0.3v-1.3 h-1.3v-0.3h1.3v-1.3h0.3V169.1z M155.2,169.1h1.3v0.3h-1.3v1.3h-0.3v-1.3h-1.3v-0.3h1.3v-1.3h0.3V169.1z M141.2,169.1h1.3v0.3h-1.3 v1.3h-0.3v-1.3h-1.3v-0.3h1.3v-1.3h0.3V169.1z M127.2,169.1h1.3v0.3h-1.3v1.3h-0.3v-1.3h-1.3v-0.3h1.3v-1.3h0.3V169.1z M176.2,176.1 h1.3v0.3h-1.3v1.3H176v-1.3h-1.3v-0.3h1.3v-1.3h0.3V176.1z M162.2,176.1h1.3v0.3h-1.3v1.3h-0.3v-1.3h-1.3v-0.3h1.3v-1.3h0.3V176.1z M148.2,176.1h1.3v0.3h-1.3v1.3h-0.3v-1.3h-1.3v-0.3h1.3v-1.3h0.3V176.1z M134.2,176.1h1.3v0.3h-1.3v1.3h-0.3v-1.3h-1.3v-0.3h1.3 v-1.3h0.3V176.1z M169.2,183.1h1.3v0.3h-1.3v1.3h-0.3v-1.3h-1.3v-0.3h1.3v-1.3h0.3V183.1z M155.2,183.1h1.3v0.3h-1.3v1.3h-0.3v-1.3 h-1.3v-0.3h1.3v-1.3h0.3V183.1z M141.2,183.1h1.3v0.3h-1.3v1.3h-0.3v-1.3h-1.3v-0.3h1.3v-1.3h0.3V183.1z M127.2,183.1h1.3v0.3h-1.3 v1.3h-0.3v-1.3h-1.3v-0.3h1.3v-1.3h0.3V183.1z M176.2,190.1h1.3v0.3h-1.3v1.3H176v-1.3h-1.3v-0.3h1.3v-1.3h0.3V190.1z M162.2,190.1 h1.3v0.3h-1.3v1.3h-0.3v-1.3h-1.3v-0.3h1.3v-1.3h0.3V190.1z M148.2,190.1h1.3v0.3h-1.3v1.3h-0.3v-1.3h-1.3v-0.3h1.3v-1.3h0.3V190.1z M134.2,190.1h1.3v0.3h-1.3v1.3h-0.3v-1.3h-1.3v-0.3h1.3v-1.3h0.3V190.1z M169.2,197.1h1.3v0.3h-1.3v1.3h-0.3v-1.3h-1.3v-0.3h1.3 v-1.3h0.3V197.1z M155.2,197.1h1.3v0.3h-1.3v1.3h-0.3v-1.3h-1.3v-0.3h1.3v-1.3h0.3V197.1z M141.2,197.1h1.3v0.3h-1.3v1.3h-0.3v-1.3 h-1.3v-0.3h1.3v-1.3h0.3V197.1z M127.2,197.1h1.3v0.3h-1.3v1.3h-0.3v-1.3h-1.3v-0.3h1.3v-1.3h0.3V197.1z M176.2,204.1h1.3v0.3h-1.3 v1.3H176v-1.3h-1.3v-0.3h1.3v-1.3h0.3V204.1z M162.2,204.1h1.3v0.3h-1.3v1.3h-0.3v-1.3h-1.3v-0.3h1.3v-1.3h0.3V204.1z M148.2,204.1 h1.3v0.3h-1.3v1.3h-0.3v-1.3h-1.3v-0.3h1.3v-1.3h0.3V204.1z M134.2,204.1h1.3v0.3h-1.3v1.3h-0.3v-1.3h-1.3v-0.3h1.3v-1.3h0.3V204.1z M169.2,211.2h1.3v0.3h-1.3v1.3h-0.3v-1.3h-1.3v-0.3h1.3v-1.3h0.3V211.2z M155.2,211.2h1.3v0.3h-1.3v1.3h-0.3v-1.3h-1.3v-0.3h1.3 v-1.3h0.3V211.2z M141.2,211.2h1.3v0.3h-1.3v1.3h-0.3v-1.3h-1.3v-0.3h1.3v-1.3h0.3V211.2z M127.2,211.2h1.3v0.3h-1.3v1.3h-0.3v-1.3 h-1.3v-0.3h1.3v-1.3h0.3V211.2z M176.2,218.2h1.3v0.3h-1.3v1.3H176v-1.3h-1.3v-0.3h1.3v-1.3h0.3V218.2z M162.2,218.2h1.3v0.3h-1.3 v1.3h-0.3v-1.3h-1.3v-0.3h1.3v-1.3h0.3V218.2z M148.2,218.2h1.3v0.3h-1.3v1.3h-0.3v-1.3h-1.3v-0.3h1.3v-1.3h0.3V218.2z M134.2,218.2 h1.3v0.3h-1.3v1.3h-0.3v-1.3h-1.3v-0.3h1.3v-1.3h0.3V218.2z M169.2,225.2h1.3v0.3h-1.3v1.3h-0.3v-1.3h-1.3v-0.3h1.3v-1.3h0.3V225.2z M155.2,225.2h1.3v0.3h-1.3v1.3h-0.3v-1.3h-1.3v-0.3h1.3v-1.3h0.3V225.2z M141.2,225.2h1.3v0.3h-1.3v1.3h-0.3v-1.3h-1.3v-0.3h1.3 v-1.3h0.3V225.2z M127.2,225.2h1.3v0.3h-1.3v1.3h-0.3v-1.3h-1.3v-0.3h1.3v-1.3h0.3V225.2z M176.2,232.2h1.3v0.3h-1.3v1.3H176v-1.3 h-1.3v-0.3h1.3v-1.3h0.3V232.2z M162.2,232.2h1.3v0.3h-1.3v1.3h-0.3v-1.3h-1.3v-0.3h1.3v-1.3h0.3V232.2z M148.2,232.2h1.3v0.3h-1.3 v1.3h-0.3v-1.3h-1.3v-0.3h1.3v-1.3h0.3V232.2z M134.2,232.2h1.3v0.3h-1.3v1.3h-0.3v-1.3h-1.3v-0.3h1.3v-1.3h0.3V232.2z M169.2,239.2 h1.3v0.3h-1.3v1.3h-0.3v-1.3h-1.3v-0.3h1.3v-1.3h0.3V239.2z M155.2,239.2h1.3v0.3h-1.3v1.3h-0.3v-1.3h-1.3v-0.3h1.3v-1.3h0.3V239.2z M141.2,239.2h1.3v0.3h-1.3v1.3h-0.3v-1.3h-1.3v-0.3h1.3v-1.3h0.3V239.2z M127.2,239.2h1.3v0.3h-1.3v1.3h-0.3v-1.3h-1.3v-0.3h1.3 v-1.3h0.3V239.2z M176.2,246.2h1.3v0.3h-1.3v1.3H176v-1.3h-1.3v-0.3h1.3v-1.3h0.3V246.2z M162.2,246.2h1.3v0.3h-1.3v1.3h-0.3v-1.3 h-1.3v-0.3h1.3v-1.3h0.3V246.2z M148.2,246.2h1.3v0.3h-1.3v1.3h-0.3v-1.3h-1.3v-0.3h1.3v-1.3h0.3V246.2z M134.2,246.2h1.3v0.3h-1.3 v1.3h-0.3v-1.3h-1.3v-0.3h1.3v-1.3h0.3V246.2z M169.2,253.2h1.3v0.3h-1.3v1.3h-0.3v-1.3h-1.3v-0.3h1.3v-1.3h0.3V253.2z M155.2,253.2 h1.3v0.3h-1.3v1.3h-0.3v-1.3h-1.3v-0.3h1.3v-1.3h0.3V253.2z M141.2,253.2h1.3v0.3h-1.3v1.3h-0.3v-1.3h-1.3v-0.3h1.3v-1.3h0.3V253.2z M127.2,253.2h1.3v0.3h-1.3v1.3h-0.3v-1.3h-1.3v-0.3h1.3v-1.3h0.3V253.2z M176.2,260.3h1.3v0.3h-1.3v1.3H176v-1.3h-1.3v-0.3h1.3 v-1.3h0.3V260.3z M162.2,260.3h1.3v0.3h-1.3v1.3h-0.3v-1.3h-1.3v-0.3h1.3v-1.3h0.3V260.3z M148.2,260.3h1.3v0.3h-1.3v1.3h-0.3v-1.3 h-1.3v-0.3h1.3v-1.3h0.3V260.3z M134.2,260.3h1.3v0.3h-1.3v1.3h-0.3v-1.3h-1.3v-0.3h1.3v-1.3h0.3V260.3z M169.2,267.3h1.3v0.3h-1.3 v1.3h-0.3v-1.3h-1.3v-0.3h1.3V266h0.3V267.3z M155.2,267.3h1.3v0.3h-1.3v1.3h-0.3v-1.3h-1.3v-0.3h1.3V266h0.3V267.3z M141.2,267.3 h1.3v0.3h-1.3v1.3h-0.3v-1.3h-1.3v-0.3h1.3V266h0.3V267.3z M127.2,267.3h1.3v0.3h-1.3v1.3h-0.3v-1.3h-1.3v-0.3h1.3V266h0.3V267.3z M176.2,274.3h1.3v0.3h-1.3v1.3H176v-1.3h-1.3v-0.3h1.3V273h0.3V274.3z M162.2,274.3h1.3v0.3h-1.3v1.3h-0.3v-1.3h-1.3v-0.3h1.3V273 h0.3V274.3z M148.2,274.3h1.3v0.3h-1.3v1.3h-0.3v-1.3h-1.3v-0.3h1.3V273h0.3V274.3z M134.2,274.3h1.3v0.3h-1.3v1.3h-0.3v-1.3h-1.3 v-0.3h1.3V273h0.3V274.3z M155.2,281.3h1.3v0.3h-1.3v1.3h-0.3v-1.3h-1.3v-0.3h1.3V280h0.3V281.3z M141.2,281.3h1.3v0.3h-1.3v1.3 h-0.3v-1.3h-1.3v-0.3h1.3V280h0.3V281.3z M127.2,281.3h1.3v0.3h-1.3v1.3h-0.3v-1.3h-1.3v-0.3h1.3V280h0.3V281.3z M148.2,288.3h1.3 v0.3h-1.3v1.3h-0.3v-1.3h-1.3v-0.3h1.3V287h0.3V288.3z M134.2,288.3h1.3v0.3h-1.3v1.3h-0.3v-1.3h-1.3v-0.3h1.3V287h0.3V288.3z M141.2,295.3h1.3v0.3h-1.3v1.3h-0.3v-1.3h-1.3v-0.3h1.3V294h0.3V295.3z M127.2,295.3h1.3v0.3h-1.3v1.3h-0.3v-1.3h-1.3v-0.3h1.3V294 h0.3V295.3z M120.1,134h1.3v0.3h-1.3v1.3h-0.3v-1.3h-1.3V134h1.3v-1.3h0.3V134z M106.1,134h1.3v0.3h-1.3v1.3h-0.3v-1.3h-1.3V134h1.3 v-1.3h0.3V134z M113.1,141h1.3v0.3h-1.3v1.3h-0.3v-1.3h-1.3V141h1.3v-1.3h0.3V141z M99.1,141h1.3v0.3h-1.3v1.3h-0.3v-1.3h-1.3V141 h1.3v-1.3h0.3V141z M120.1,148h1.3v0.3h-1.3v1.3h-0.3v-1.3h-1.3V148h1.3v-1.3h0.3V148z M106.1,148h1.3v0.3h-1.3v1.3h-0.3v-1.3h-1.3 V148h1.3v-1.3h0.3V148z M92.1,148h1.3v0.3h-1.3v1.3h-0.3v-1.3h-1.3V148h1.3v-1.3h0.3V148z M113.1,155.1h1.3v0.3h-1.3v1.3h-0.3v-1.3 h-1.3v-0.3h1.3v-1.3h0.3V155.1z M99.1,155.1h1.3v0.3h-1.3v1.3h-0.3v-1.3h-1.3v-0.3h1.3v-1.3h0.3V155.1z M85.1,155.1h1.3v0.3h-1.3 v1.3h-0.3v-1.3h-1.3v-0.3h1.3v-1.3h0.3V155.1z M71,155.1h1.3v0.3H71v1.3h-0.3v-1.3h-1.3v-0.3h1.3v-1.3H71V155.1z M120.1,162.1h1.3 v0.3h-1.3v1.3h-0.3v-1.3h-1.3v-0.3h1.3v-1.3h0.3V162.1z M106.1,162.1h1.3v0.3h-1.3v1.3h-0.3v-1.3h-1.3v-0.3h1.3v-1.3h0.3V162.1z M92.1,162.1h1.3v0.3h-1.3v1.3h-0.3v-1.3h-1.3v-0.3h1.3v-1.3h0.3V162.1z M78.1,162.1h1.3v0.3h-1.3v1.3h-0.3v-1.3h-1.3v-0.3h1.3v-1.3 h0.3V162.1z M113.1,169.1h1.3v0.3h-1.3v1.3h-0.3v-1.3h-1.3v-0.3h1.3v-1.3h0.3V169.1z M99.1,169.1h1.3v0.3h-1.3v1.3h-0.3v-1.3h-1.3 v-0.3h1.3v-1.3h0.3V169.1z M85.1,169.1h1.3v0.3h-1.3v1.3h-0.3v-1.3h-1.3v-0.3h1.3v-1.3h0.3V169.1z M71,169.1h1.3v0.3H71v1.3h-0.3 v-1.3h-1.3v-0.3h1.3v-1.3H71V169.1z M120.1,176.1h1.3v0.3h-1.3v1.3h-0.3v-1.3h-1.3v-0.3h1.3v-1.3h0.3V176.1z M106.1,176.1h1.3v0.3 h-1.3v1.3h-0.3v-1.3h-1.3v-0.3h1.3v-1.3h0.3V176.1z M92.1,176.1h1.3v0.3h-1.3v1.3h-0.3v-1.3h-1.3v-0.3h1.3v-1.3h0.3V176.1z M78.1,176.1h1.3v0.3h-1.3v1.3h-0.3v-1.3h-1.3v-0.3h1.3v-1.3h0.3V176.1z M113.1,183.1h1.3v0.3h-1.3v1.3h-0.3v-1.3h-1.3v-0.3h1.3 v-1.3h0.3V183.1z M99.1,183.1h1.3v0.3h-1.3v1.3h-0.3v-1.3h-1.3v-0.3h1.3v-1.3h0.3V183.1z M85.1,183.1h1.3v0.3h-1.3v1.3h-0.3v-1.3 h-1.3v-0.3h1.3v-1.3h0.3V183.1z M71,183.1h1.3v0.3H71v1.3h-0.3v-1.3h-1.3v-0.3h1.3v-1.3H71V183.1z M120.1,190.1h1.3v0.3h-1.3v1.3 h-0.3v-1.3h-1.3v-0.3h1.3v-1.3h0.3V190.1z M106.1,190.1h1.3v0.3h-1.3v1.3h-0.3v-1.3h-1.3v-0.3h1.3v-1.3h0.3V190.1z M92.1,190.1h1.3 v0.3h-1.3v1.3h-0.3v-1.3h-1.3v-0.3h1.3v-1.3h0.3V190.1z M78.1,190.1h1.3v0.3h-1.3v1.3h-0.3v-1.3h-1.3v-0.3h1.3v-1.3h0.3V190.1z M113.1,197.1h1.3v0.3h-1.3v1.3h-0.3v-1.3h-1.3v-0.3h1.3v-1.3h0.3V197.1z M99.1,197.1h1.3v0.3h-1.3v1.3h-0.3v-1.3h-1.3v-0.3h1.3 v-1.3h0.3V197.1z M85.1,197.1h1.3v0.3h-1.3v1.3h-0.3v-1.3h-1.3v-0.3h1.3v-1.3h0.3V197.1z M71,197.1h1.3v0.3H71v1.3h-0.3v-1.3h-1.3 v-0.3h1.3v-1.3H71V197.1z M120.1,204.1h1.3v0.3h-1.3v1.3h-0.3v-1.3h-1.3v-0.3h1.3v-1.3h0.3V204.1z M106.1,204.1h1.3v0.3h-1.3v1.3 h-0.3v-1.3h-1.3v-0.3h1.3v-1.3h0.3V204.1z M92.1,204.1h1.3v0.3h-1.3v1.3h-0.3v-1.3h-1.3v-0.3h1.3v-1.3h0.3V204.1z M78.1,204.1h1.3 v0.3h-1.3v1.3h-0.3v-1.3h-1.3v-0.3h1.3v-1.3h0.3V204.1z M113.1,211.2h1.3v0.3h-1.3v1.3h-0.3v-1.3h-1.3v-0.3h1.3v-1.3h0.3V211.2z M99.1,211.2h1.3v0.3h-1.3v1.3h-0.3v-1.3h-1.3v-0.3h1.3v-1.3h0.3V211.2z M85.1,211.2h1.3v0.3h-1.3v1.3h-0.3v-1.3h-1.3v-0.3h1.3v-1.3 h0.3V211.2z M71,211.2h1.3v0.3H71v1.3h-0.3v-1.3h-1.3v-0.3h1.3v-1.3H71V211.2z M120.1,218.2h1.3v0.3h-1.3v1.3h-0.3v-1.3h-1.3v-0.3 h1.3v-1.3h0.3V218.2z M106.1,218.2h1.3v0.3h-1.3v1.3h-0.3v-1.3h-1.3v-0.3h1.3v-1.3h0.3V218.2z M92.1,218.2h1.3v0.3h-1.3v1.3h-0.3 v-1.3h-1.3v-0.3h1.3v-1.3h0.3V218.2z M78.1,218.2h1.3v0.3h-1.3v1.3h-0.3v-1.3h-1.3v-0.3h1.3v-1.3h0.3V218.2z M113.1,225.2h1.3v0.3 h-1.3v1.3h-0.3v-1.3h-1.3v-0.3h1.3v-1.3h0.3V225.2z M99.1,225.2h1.3v0.3h-1.3v1.3h-0.3v-1.3h-1.3v-0.3h1.3v-1.3h0.3V225.2z M85.1,225.2h1.3v0.3h-1.3v1.3h-0.3v-1.3h-1.3v-0.3h1.3v-1.3h0.3V225.2z M71,225.2h1.3v0.3H71v1.3h-0.3v-1.3h-1.3v-0.3h1.3v-1.3H71 V225.2z M120.1,232.2h1.3v0.3h-1.3v1.3h-0.3v-1.3h-1.3v-0.3h1.3v-1.3h0.3V232.2z M106.1,232.2h1.3v0.3h-1.3v1.3h-0.3v-1.3h-1.3v-0.3 h1.3v-1.3h0.3V232.2z M92.1,232.2h1.3v0.3h-1.3v1.3h-0.3v-1.3h-1.3v-0.3h1.3v-1.3h0.3V232.2z M78.1,232.2h1.3v0.3h-1.3v1.3h-0.3 v-1.3h-1.3v-0.3h1.3v-1.3h0.3V232.2z M113.1,239.2h1.3v0.3h-1.3v1.3h-0.3v-1.3h-1.3v-0.3h1.3v-1.3h0.3V239.2z M99.1,239.2h1.3v0.3 h-1.3v1.3h-0.3v-1.3h-1.3v-0.3h1.3v-1.3h0.3V239.2z M85.1,239.2h1.3v0.3h-1.3v1.3h-0.3v-1.3h-1.3v-0.3h1.3v-1.3h0.3V239.2z M71,239.2h1.3v0.3H71v1.3h-0.3v-1.3h-1.3v-0.3h1.3v-1.3H71V239.2z M120.1,246.2h1.3v0.3h-1.3v1.3h-0.3v-1.3h-1.3v-0.3h1.3v-1.3h0.3 V246.2z M106.1,246.2h1.3v0.3h-1.3v1.3h-0.3v-1.3h-1.3v-0.3h1.3v-1.3h0.3V246.2z M92.1,246.2h1.3v0.3h-1.3v1.3h-0.3v-1.3h-1.3v-0.3 h1.3v-1.3h0.3V246.2z M78.1,246.2h1.3v0.3h-1.3v1.3h-0.3v-1.3h-1.3v-0.3h1.3v-1.3h0.3V246.2z M113.1,253.2h1.3v0.3h-1.3v1.3h-0.3 v-1.3h-1.3v-0.3h1.3v-1.3h0.3V253.2z M99.1,253.2h1.3v0.3h-1.3v1.3h-0.3v-1.3h-1.3v-0.3h1.3v-1.3h0.3V253.2z M85.1,253.2h1.3v0.3 h-1.3v1.3h-0.3v-1.3h-1.3v-0.3h1.3v-1.3h0.3V253.2z M71,253.2h1.3v0.3H71v1.3h-0.3v-1.3h-1.3v-0.3h1.3v-1.3H71V253.2z M120.1,260.3 h1.3v0.3h-1.3v1.3h-0.3v-1.3h-1.3v-0.3h1.3v-1.3h0.3V260.3z M106.1,260.3h1.3v0.3h-1.3v1.3h-0.3v-1.3h-1.3v-0.3h1.3v-1.3h0.3V260.3z M92.1,260.3h1.3v0.3h-1.3v1.3h-0.3v-1.3h-1.3v-0.3h1.3v-1.3h0.3V260.3z M78.1,260.3h1.3v0.3h-1.3v1.3h-0.3v-1.3h-1.3v-0.3h1.3v-1.3 h0.3V260.3z M113.1,267.3h1.3v0.3h-1.3v1.3h-0.3v-1.3h-1.3v-0.3h1.3V266h0.3V267.3z M99.1,267.3h1.3v0.3h-1.3v1.3h-0.3v-1.3h-1.3 v-0.3h1.3V266h0.3V267.3z M85.1,267.3h1.3v0.3h-1.3v1.3h-0.3v-1.3h-1.3v-0.3h1.3V266h0.3V267.3z M71,267.3h1.3v0.3H71v1.3h-0.3v-1.3 h-1.3v-0.3h1.3V266H71V267.3z M120.1,274.3h1.3v0.3h-1.3v1.3h-0.3v-1.3h-1.3v-0.3h1.3V273h0.3V274.3z M106.1,274.3h1.3v0.3h-1.3v1.3 h-0.3v-1.3h-1.3v-0.3h1.3V273h0.3V274.3z M92.1,274.3h1.3v0.3h-1.3v1.3h-0.3v-1.3h-1.3v-0.3h1.3V273h0.3V274.3z M78.1,274.3h1.3v0.3 h-1.3v1.3h-0.3v-1.3h-1.3v-0.3h1.3V273h0.3V274.3z M113.1,281.3h1.3v0.3h-1.3v1.3h-0.3v-1.3h-1.3v-0.3h1.3V280h0.3V281.3z M99.1,281.3h1.3v0.3h-1.3v1.3h-0.3v-1.3h-1.3v-0.3h1.3V280h0.3V281.3z M85.1,281.3h1.3v0.3h-1.3v1.3h-0.3v-1.3h-1.3v-0.3h1.3V280 h0.3V281.3z M71,281.3h1.3v0.3H71v1.3h-0.3v-1.3h-1.3v-0.3h1.3V280H71V281.3z M120.1,288.3h1.3v0.3h-1.3v1.3h-0.3v-1.3h-1.3v-0.3 h1.3V287h0.3V288.3z M106.1,288.3h1.3v0.3h-1.3v1.3h-0.3v-1.3h-1.3v-0.3h1.3V287h0.3V288.3z M92.1,288.3h1.3v0.3h-1.3v1.3h-0.3v-1.3 h-1.3v-0.3h1.3V287h0.3V288.3z M78.1,288.3h1.3v0.3h-1.3v1.3h-0.3v-1.3h-1.3v-0.3h1.3V287h0.3V288.3z M113.1,295.3h1.3v0.3h-1.3v1.3 h-0.3v-1.3h-1.3v-0.3h1.3V294h0.3V295.3z M99.1,295.3h1.3v0.3h-1.3v1.3h-0.3v-1.3h-1.3v-0.3h1.3V294h0.3V295.3z M85.1,295.3h1.3v0.3 h-1.3v1.3h-0.3v-1.3h-1.3v-0.3h1.3V294h0.3V295.3z M71,295.3h1.3v0.3H71v1.3h-0.3v-1.3h-1.3v-0.3h1.3V294H71V295.3z M120.1,302.3 h1.3v0.3h-1.3v1.3h-0.3v-1.3h-1.3v-0.3h1.3V301h0.3V302.3z M106.1,302.3h1.3v0.3h-1.3v1.3h-0.3v-1.3h-1.3v-0.3h1.3V301h0.3V302.3z M92.1,302.3h1.3v0.3h-1.3v1.3h-0.3v-1.3h-1.3v-0.3h1.3V301h0.3V302.3z M78.1,302.3h1.3v0.3h-1.3v1.3h-0.3v-1.3h-1.3v-0.3h1.3V301 h0.3V302.3z M113.1,309.3h1.3v0.3h-1.3v1.3h-0.3v-1.3h-1.3v-0.3h1.3V308h0.3V309.3z M99.1,309.3h1.3v0.3h-1.3v1.3h-0.3v-1.3h-1.3 v-0.3h1.3V308h0.3V309.3z M85.1,309.3h1.3v0.3h-1.3v1.3h-0.3v-1.3h-1.3v-0.3h1.3V308h0.3V309.3z M71,309.3h1.3v0.3H71v1.3h-0.3v-1.3 h-1.3v-0.3h1.3V308H71V309.3z M92.1,316.4h1.3v0.3h-1.3v1.3h-0.3v-1.3h-1.3v-0.3h1.3V315h0.3V316.4z M78.1,316.4h1.3v0.3h-1.3v1.3 h-0.3v-1.3h-1.3v-0.3h1.3V315h0.3V316.4z M85.1,323.4h1.3v0.3h-1.3v1.3h-0.3v-1.3h-1.3v-0.3h1.3v-1.3h0.3V323.4z M71,323.4h1.3v0.3 H71v1.3h-0.3v-1.3h-1.3v-0.3h1.3v-1.3H71V323.4z M78.1,330.4h1.3v0.3h-1.3v1.3h-0.3v-1.3h-1.3v-0.3h1.3v-1.3h0.3V330.4z M64,162.1 h1.3v0.3H64v1.3h-0.3v-1.3h-1.3v-0.3h1.3v-1.3H64V162.1z M57,169.1h1.3v0.3H57v1.3h-0.3v-1.3h-1.3v-0.3h1.3v-1.3H57V169.1z M43,169.1h1.3v0.3H43v1.3h-0.3v-1.3h-1.3v-0.3h1.3v-1.3H43V169.1z M64,176.1h1.3v0.3H64v1.3h-0.3v-1.3h-1.3v-0.3h1.3v-1.3H64V176.1 z M50,176.1h1.3v0.3H50v1.3h-0.3v-1.3h-1.3v-0.3h1.3v-1.3H50V176.1z M36,176.1h1.3v0.3H36v1.3h-0.3v-1.3h-1.3v-0.3h1.3v-1.3H36 V176.1z M57,183.1h1.3v0.3H57v1.3h-0.3v-1.3h-1.3v-0.3h1.3v-1.3H57V183.1z M43,183.1h1.3v0.3H43v1.3h-0.3v-1.3h-1.3v-0.3h1.3v-1.3 H43V183.1z M29,183.1h1.3v0.3H29v1.3h-0.3v-1.3h-1.3v-0.3h1.3v-1.3H29V183.1z M64,190.1h1.3v0.3H64v1.3h-0.3v-1.3h-1.3v-0.3h1.3 v-1.3H64V190.1z M50,190.1h1.3v0.3H50v1.3h-0.3v-1.3h-1.3v-0.3h1.3v-1.3H50V190.1z M36,190.1h1.3v0.3H36v1.3h-0.3v-1.3h-1.3v-0.3 h1.3v-1.3H36V190.1z M22,190.1h1.3v0.3H22v1.3h-0.3v-1.3h-1.3v-0.3h1.3v-1.3H22V190.1z M57,197.1h1.3v0.3H57v1.3h-0.3v-1.3h-1.3 v-0.3h1.3v-1.3H57V197.1z M43,197.1h1.3v0.3H43v1.3h-0.3v-1.3h-1.3v-0.3h1.3v-1.3H43V197.1z M29,197.1h1.3v0.3H29v1.3h-0.3v-1.3 h-1.3v-0.3h1.3v-1.3H29V197.1z M14.9,197.1h1.3v0.3h-1.3v1.3h-0.3v-1.3h-1.3v-0.3h1.3v-1.3h0.3V197.1z M64,204.1h1.3v0.3H64v1.3 h-0.3v-1.3h-1.3v-0.3h1.3v-1.3H64V204.1z M50,204.1h1.3v0.3H50v1.3h-0.3v-1.3h-1.3v-0.3h1.3v-1.3H50V204.1z M36,204.1h1.3v0.3H36 v1.3h-0.3v-1.3h-1.3v-0.3h1.3v-1.3H36V204.1z M22,204.1h1.3v0.3H22v1.3h-0.3v-1.3h-1.3v-0.3h1.3v-1.3H22V204.1z M57,211.2h1.3v0.3 H57v1.3h-0.3v-1.3h-1.3v-0.3h1.3v-1.3H57V211.2z M43,211.2h1.3v0.3H43v1.3h-0.3v-1.3h-1.3v-0.3h1.3v-1.3H43V211.2z M29,211.2h1.3 v0.3H29v1.3h-0.3v-1.3h-1.3v-0.3h1.3v-1.3H29V211.2z M14.9,211.2h1.3v0.3h-1.3v1.3h-0.3v-1.3h-1.3v-0.3h1.3v-1.3h0.3V211.2z M64,218.2h1.3v0.3H64v1.3h-0.3v-1.3h-1.3v-0.3h1.3v-1.3H64V218.2z M50,218.2h1.3v0.3H50v1.3h-0.3v-1.3h-1.3v-0.3h1.3v-1.3H50V218.2 z M36,218.2h1.3v0.3H36v1.3h-0.3v-1.3h-1.3v-0.3h1.3v-1.3H36V218.2z M22,218.2h1.3v0.3H22v1.3h-0.3v-1.3h-1.3v-0.3h1.3v-1.3H22 V218.2z M57,225.2h1.3v0.3H57v1.3h-0.3v-1.3h-1.3v-0.3h1.3v-1.3H57V225.2z M43,225.2h1.3v0.3H43v1.3h-0.3v-1.3h-1.3v-0.3h1.3v-1.3 H43V225.2z M29,225.2h1.3v0.3H29v1.3h-0.3v-1.3h-1.3v-0.3h1.3v-1.3H29V225.2z M14.9,225.2h1.3v0.3h-1.3v1.3h-0.3v-1.3h-1.3v-0.3h1.3 v-1.3h0.3V225.2z M64,232.2h1.3v0.3H64v1.3h-0.3v-1.3h-1.3v-0.3h1.3v-1.3H64V232.2z M50,232.2h1.3v0.3H50v1.3h-0.3v-1.3h-1.3v-0.3 h1.3v-1.3H50V232.2z M36,232.2h1.3v0.3H36v1.3h-0.3v-1.3h-1.3v-0.3h1.3v-1.3H36V232.2z M22,232.2h1.3v0.3H22v1.3h-0.3v-1.3h-1.3 v-0.3h1.3v-1.3H22V232.2z M57,239.2h1.3v0.3H57v1.3h-0.3v-1.3h-1.3v-0.3h1.3v-1.3H57V239.2z M43,239.2h1.3v0.3H43v1.3h-0.3v-1.3 h-1.3v-0.3h1.3v-1.3H43V239.2z M29,239.2h1.3v0.3H29v1.3h-0.3v-1.3h-1.3v-0.3h1.3v-1.3H29V239.2z M14.9,239.2h1.3v0.3h-1.3v1.3h-0.3 v-1.3h-1.3v-0.3h1.3v-1.3h0.3V239.2z M64,246.2h1.3v0.3H64v1.3h-0.3v-1.3h-1.3v-0.3h1.3v-1.3H64V246.2z M50,246.2h1.3v0.3H50v1.3 h-0.3v-1.3h-1.3v-0.3h1.3v-1.3H50V246.2z M36,246.2h1.3v0.3H36v1.3h-0.3v-1.3h-1.3v-0.3h1.3v-1.3H36V246.2z M22,246.2h1.3v0.3H22 v1.3h-0.3v-1.3h-1.3v-0.3h1.3v-1.3H22V246.2z M57,253.2h1.3v0.3H57v1.3h-0.3v-1.3h-1.3v-0.3h1.3v-1.3H57V253.2z M43,253.2h1.3v0.3 H43v1.3h-0.3v-1.3h-1.3v-0.3h1.3v-1.3H43V253.2z M29,253.2h1.3v0.3H29v1.3h-0.3v-1.3h-1.3v-0.3h1.3v-1.3H29V253.2z M14.9,253.2h1.3 v0.3h-1.3v1.3h-0.3v-1.3h-1.3v-0.3h1.3v-1.3h0.3V253.2z M64,260.3h1.3v0.3H64v1.3h-0.3v-1.3h-1.3v-0.3h1.3v-1.3H64V260.3z M50,260.3 h1.3v0.3H50v1.3h-0.3v-1.3h-1.3v-0.3h1.3v-1.3H50V260.3z M36,260.3h1.3v0.3H36v1.3h-0.3v-1.3h-1.3v-0.3h1.3v-1.3H36V260.3z M22,260.3h1.3v0.3H22v1.3h-0.3v-1.3h-1.3v-0.3h1.3v-1.3H22V260.3z M57,267.3h1.3v0.3H57v1.3h-0.3v-1.3h-1.3v-0.3h1.3V266H57V267.3z M43,267.3h1.3v0.3H43v1.3h-0.3v-1.3h-1.3v-0.3h1.3V266H43V267.3z M29,267.3h1.3v0.3H29v1.3h-0.3v-1.3h-1.3v-0.3h1.3V266H29V267.3z M14.9,267.3h1.3v0.3h-1.3v1.3h-0.3v-1.3h-1.3v-0.3h1.3V266h0.3V267.3z M64,274.3h1.3v0.3H64v1.3h-0.3v-1.3h-1.3v-0.3h1.3V273H64 V274.3z M50,274.3h1.3v0.3H50v1.3h-0.3v-1.3h-1.3v-0.3h1.3V273H50V274.3z M36,274.3h1.3v0.3H36v1.3h-0.3v-1.3h-1.3v-0.3h1.3V273H36 V274.3z M22,274.3h1.3v0.3H22v1.3h-0.3v-1.3h-1.3v-0.3h1.3V273H22V274.3z M57,281.3h1.3v0.3H57v1.3h-0.3v-1.3h-1.3v-0.3h1.3V280H57 V281.3z M43,281.3h1.3v0.3H43v1.3h-0.3v-1.3h-1.3v-0.3h1.3V280H43V281.3z M29,281.3h1.3v0.3H29v1.3h-0.3v-1.3h-1.3v-0.3h1.3V280H29 V281.3z M14.9,281.3h1.3v0.3h-1.3v1.3h-0.3v-1.3h-1.3v-0.3h1.3V280h0.3V281.3z M64,288.3h1.3v0.3H64v1.3h-0.3v-1.3h-1.3v-0.3h1.3 V287H64V288.3z M50,288.3h1.3v0.3H50v1.3h-0.3v-1.3h-1.3v-0.3h1.3V287H50V288.3z M36,288.3h1.3v0.3H36v1.3h-0.3v-1.3h-1.3v-0.3h1.3 V287H36V288.3z M22,288.3h1.3v0.3H22v1.3h-0.3v-1.3h-1.3v-0.3h1.3V287H22V288.3z M57,295.3h1.3v0.3H57v1.3h-0.3v-1.3h-1.3v-0.3h1.3 V294H57V295.3z M43,295.3h1.3v0.3H43v1.3h-0.3v-1.3h-1.3v-0.3h1.3V294H43V295.3z M29,295.3h1.3v0.3H29v1.3h-0.3v-1.3h-1.3v-0.3h1.3 V294H29V295.3z M14.9,295.3h1.3v0.3h-1.3v1.3h-0.3v-1.3h-1.3v-0.3h1.3V294h0.3V295.3z M64,302.3h1.3v0.3H64v1.3h-0.3v-1.3h-1.3v-0.3 h1.3V301H64V302.3z M50,302.3h1.3v0.3H50v1.3h-0.3v-1.3h-1.3v-0.3h1.3V301H50V302.3z M36,302.3h1.3v0.3H36v1.3h-0.3v-1.3h-1.3v-0.3 h1.3V301H36V302.3z M22,302.3h1.3v0.3H22v1.3h-0.3v-1.3h-1.3v-0.3h1.3V301H22V302.3z M57,309.3h1.3v0.3H57v1.3h-0.3v-1.3h-1.3v-0.3 h1.3V308H57V309.3z M43,309.3h1.3v0.3H43v1.3h-0.3v-1.3h-1.3v-0.3h1.3V308H43V309.3z M29,309.3h1.3v0.3H29v1.3h-0.3v-1.3h-1.3v-0.3 h1.3V308H29V309.3z M14.9,309.3h1.3v0.3h-1.3v1.3h-0.3v-1.3h-1.3v-0.3h1.3V308h0.3V309.3z M64,316.4h1.3v0.3H64v1.3h-0.3v-1.3h-1.3 v-0.3h1.3V315H64V316.4z M50,316.4h1.3v0.3H50v1.3h-0.3v-1.3h-1.3v-0.3h1.3V315H50V316.4z M36,316.4h1.3v0.3H36v1.3h-0.3v-1.3h-1.3 v-0.3h1.3V315H36V316.4z M22,316.4h1.3v0.3H22v1.3h-0.3v-1.3h-1.3v-0.3h1.3V315H22V316.4z M57,323.4h1.3v0.3H57v1.3h-0.3v-1.3h-1.3 v-0.3h1.3v-1.3H57V323.4z M43,323.4h1.3v0.3H43v1.3h-0.3v-1.3h-1.3v-0.3h1.3v-1.3H43V323.4z M29,323.4h1.3v0.3H29v1.3h-0.3v-1.3 h-1.3v-0.3h1.3v-1.3H29V323.4z M14.9,323.4h1.3v0.3h-1.3v1.3h-0.3v-1.3h-1.3v-0.3h1.3v-1.3h0.3V323.4z M64,330.4h1.3v0.3H64v1.3 h-0.3v-1.3h-1.3v-0.3h1.3v-1.3H64V330.4z M50,330.4h1.3v0.3H50v1.3h-0.3v-1.3h-1.3v-0.3h1.3v-1.3H50V330.4z M36,330.4h1.3v0.3H36 v1.3h-0.3v-1.3h-1.3v-0.3h1.3v-1.3H36V330.4z M22,330.4h1.3v0.3H22v1.3h-0.3v-1.3h-1.3v-0.3h1.3v-1.3H22V330.4z M57,337.4h1.3v0.3 H57v1.3h-0.3v-1.3h-1.3v-0.3h1.3v-1.3H57V337.4z M43,337.4h1.3v0.3H43v1.3h-0.3v-1.3h-1.3v-0.3h1.3v-1.3H43V337.4z M29,337.4h1.3 v0.3H29v1.3h-0.3v-1.3h-1.3v-0.3h1.3v-1.3H29V337.4z M14.9,337.4h1.3v0.3h-1.3v1.3h-0.3v-1.3h-1.3v-0.3h1.3v-1.3h0.3V337.4z M50,344.4h1.3v0.3H50v1.3h-0.3v-1.3h-1.3v-0.3h1.3v-1.3H50V344.4z M36,344.4h1.3v0.3H36v1.3h-0.3v-1.3h-1.3v-0.3h1.3v-1.3H36V344.4 z M22,344.4h1.3v0.3H22v1.3h-0.3v-1.3h-1.3v-0.3h1.3v-1.3H22V344.4z M43,351.4h1.3v0.3H43v1.3h-0.3v-1.3h-1.3v-0.3h1.3v-1.3H43 V351.4z M29,351.4h1.3v0.3H29v1.3h-0.3v-1.3h-1.3v-0.3h1.3v-1.3H29V351.4z M14.9,351.4h1.3v0.3h-1.3v1.3h-0.3v-1.3h-1.3v-0.3h1.3 v-1.3h0.3V351.4z M22,358.4h1.3v0.3H22v1.3h-0.3v-1.3h-1.3v-0.3h1.3v-1.3H22V358.4z M14.9,365.5h1.3v0.3h-1.3v1.3h-0.3v-1.3h-1.3 v-0.3h1.3v-1.3h0.3V365.5z M7.9,190.1h1.3v0.3H7.9v1.3H7.6v-1.3H6.3v-0.3h1.3v-1.3h0.3V190.1z M0.9,197.1h1.3v0.3H0.9v1.3H0.6v-1.3 h-1.3v-0.3h1.3v-1.3h0.3V197.1z M7.9,204.1h1.3v0.3H7.9v1.3H7.6v-1.3H6.3v-0.3h1.3v-1.3h0.3V204.1z M-6.1,204.1h1.3v0.3h-1.3v1.3 h-0.3v-1.3h-1.3v-0.3h1.3v-1.3h0.3V204.1z M0.9,211.2h1.3v0.3H0.9v1.3H0.6v-1.3h-1.3v-0.3h1.3v-1.3h0.3V211.2z M-13.1,211.2h1.3v0.3 h-1.3v1.3h-0.3v-1.3h-1.3v-0.3h1.3v-1.3h0.3V211.2z M-27.1,211.2h1.3v0.3h-1.3v1.3h-0.3v-1.3h-1.3v-0.3h1.3v-1.3h0.3V211.2z M7.9,218.2h1.3v0.3H7.9v1.3H7.6v-1.3H6.3v-0.3h1.3v-1.3h0.3V218.2z M-6.1,218.2h1.3v0.3h-1.3v1.3h-0.3v-1.3h-1.3v-0.3h1.3v-1.3h0.3 V218.2z M-20.1,218.2h1.3v0.3h-1.3v1.3h-0.3v-1.3h-1.3v-0.3h1.3v-1.3h0.3V218.2z M0.9,225.2h1.3v0.3H0.9v1.3H0.6v-1.3h-1.3v-0.3h1.3 v-1.3h0.3V225.2z M-13.1,225.2h1.3v0.3h-1.3v1.3h-0.3v-1.3h-1.3v-0.3h1.3v-1.3h0.3V225.2z M-27.1,225.2h1.3v0.3h-1.3v1.3h-0.3v-1.3 h-1.3v-0.3h1.3v-1.3h0.3V225.2z M7.9,232.2h1.3v0.3H7.9v1.3H7.6v-1.3H6.3v-0.3h1.3v-1.3h0.3V232.2z M-6.1,232.2h1.3v0.3h-1.3v1.3 h-0.3v-1.3h-1.3v-0.3h1.3v-1.3h0.3V232.2z M-20.1,232.2h1.3v0.3h-1.3v1.3h-0.3v-1.3h-1.3v-0.3h1.3v-1.3h0.3V232.2z M-34.2,232.2h1.3 v0.3h-1.3v1.3h-0.3v-1.3h-1.3v-0.3h1.3v-1.3h0.3V232.2z M0.9,239.2h1.3v0.3H0.9v1.3H0.6v-1.3h-1.3v-0.3h1.3v-1.3h0.3V239.2z M-13.1,239.2h1.3v0.3h-1.3v1.3h-0.3v-1.3h-1.3v-0.3h1.3v-1.3h0.3V239.2z M-27.1,239.2h1.3v0.3h-1.3v1.3h-0.3v-1.3h-1.3v-0.3h1.3 v-1.3h0.3V239.2z M7.9,246.2h1.3v0.3H7.9v1.3H7.6v-1.3H6.3v-0.3h1.3v-1.3h0.3V246.2z M-6.1,246.2h1.3v0.3h-1.3v1.3h-0.3v-1.3h-1.3 v-0.3h1.3v-1.3h0.3V246.2z M-20.1,246.2h1.3v0.3h-1.3v1.3h-0.3v-1.3h-1.3v-0.3h1.3v-1.3h0.3V246.2z M-34.2,246.2h1.3v0.3h-1.3v1.3 h-0.3v-1.3h-1.3v-0.3h1.3v-1.3h0.3V246.2z M0.9,253.2h1.3v0.3H0.9v1.3H0.6v-1.3h-1.3v-0.3h1.3v-1.3h0.3V253.2z M-13.1,253.2h1.3v0.3 h-1.3v1.3h-0.3v-1.3h-1.3v-0.3h1.3v-1.3h0.3V253.2z M-27.1,253.2h1.3v0.3h-1.3v1.3h-0.3v-1.3h-1.3v-0.3h1.3v-1.3h0.3V253.2z M7.9,260.3h1.3v0.3H7.9v1.3H7.6v-1.3H6.3v-0.3h1.3v-1.3h0.3V260.3z M-6.1,260.3h1.3v0.3h-1.3v1.3h-0.3v-1.3h-1.3v-0.3h1.3v-1.3h0.3 V260.3z M-20.1,260.3h1.3v0.3h-1.3v1.3h-0.3v-1.3h-1.3v-0.3h1.3v-1.3h0.3V260.3z M-34.2,260.3h1.3v0.3h-1.3v1.3h-0.3v-1.3h-1.3v-0.3 h1.3v-1.3h0.3V260.3z M0.9,267.3h1.3v0.3H0.9v1.3H0.6v-1.3h-1.3v-0.3h1.3V266h0.3V267.3z M-13.1,267.3h1.3v0.3h-1.3v1.3h-0.3v-1.3 h-1.3v-0.3h1.3V266h0.3V267.3z M-27.1,267.3h1.3v0.3h-1.3v1.3h-0.3v-1.3h-1.3v-0.3h1.3V266h0.3V267.3z M7.9,274.3h1.3v0.3H7.9v1.3 H7.6v-1.3H6.3v-0.3h1.3V273h0.3V274.3z M-6.1,274.3h1.3v0.3h-1.3v1.3h-0.3v-1.3h-1.3v-0.3h1.3V273h0.3V274.3z M-20.1,274.3h1.3v0.3 h-1.3v1.3h-0.3v-1.3h-1.3v-0.3h1.3V273h0.3V274.3z M-34.2,274.3h1.3v0.3h-1.3v1.3h-0.3v-1.3h-1.3v-0.3h1.3V273h0.3V274.3z M0.9,281.3h1.3v0.3H0.9v1.3H0.6v-1.3h-1.3v-0.3h1.3V280h0.3V281.3z M-13.1,281.3h1.3v0.3h-1.3v1.3h-0.3v-1.3h-1.3v-0.3h1.3V280h0.3 V281.3z M-27.1,281.3h1.3v0.3h-1.3v1.3h-0.3v-1.3h-1.3v-0.3h1.3V280h0.3V281.3z M7.9,288.3h1.3v0.3H7.9v1.3H7.6v-1.3H6.3v-0.3h1.3 V287h0.3V288.3z M-6.1,288.3h1.3v0.3h-1.3v1.3h-0.3v-1.3h-1.3v-0.3h1.3V287h0.3V288.3z M-20.1,288.3h1.3v0.3h-1.3v1.3h-0.3v-1.3 h-1.3v-0.3h1.3V287h0.3V288.3z M-34.2,288.3h1.3v0.3h-1.3v1.3h-0.3v-1.3h-1.3v-0.3h1.3V287h0.3V288.3z M0.9,295.3h1.3v0.3H0.9v1.3 H0.6v-1.3h-1.3v-0.3h1.3V294h0.3V295.3z M-13.1,295.3h1.3v0.3h-1.3v1.3h-0.3v-1.3h-1.3v-0.3h1.3V294h0.3V295.3z M-27.1,295.3h1.3 v0.3h-1.3v1.3h-0.3v-1.3h-1.3v-0.3h1.3V294h0.3V295.3z M7.9,302.3h1.3v0.3H7.9v1.3H7.6v-1.3H6.3v-0.3h1.3V301h0.3V302.3z M-6.1,302.3h1.3v0.3h-1.3v1.3h-0.3v-1.3h-1.3v-0.3h1.3V301h0.3V302.3z M-20.1,302.3h1.3v0.3h-1.3v1.3h-0.3v-1.3h-1.3v-0.3h1.3V301 h0.3V302.3z M-34.2,302.3h1.3v0.3h-1.3v1.3h-0.3v-1.3h-1.3v-0.3h1.3V301h0.3V302.3z M0.9,309.3h1.3v0.3H0.9v1.3H0.6v-1.3h-1.3v-0.3 h1.3V308h0.3V309.3z M-13.1,309.3h1.3v0.3h-1.3v1.3h-0.3v-1.3h-1.3v-0.3h1.3V308h0.3V309.3z M-27.1,309.3h1.3v0.3h-1.3v1.3h-0.3 v-1.3h-1.3v-0.3h1.3V308h0.3V309.3z M7.9,316.4h1.3v0.3H7.9v1.3H7.6v-1.3H6.3v-0.3h1.3V315h0.3V316.4z M-6.1,316.4h1.3v0.3h-1.3v1.3 h-0.3v-1.3h-1.3v-0.3h1.3V315h0.3V316.4z M-20.1,316.4h1.3v0.3h-1.3v1.3h-0.3v-1.3h-1.3v-0.3h1.3V315h0.3V316.4z M-34.2,316.4h1.3 v0.3h-1.3v1.3h-0.3v-1.3h-1.3v-0.3h1.3V315h0.3V316.4z M0.9,323.4h1.3v0.3H0.9v1.3H0.6v-1.3h-1.3v-0.3h1.3v-1.3h0.3V323.4z M-13.1,323.4h1.3v0.3h-1.3v1.3h-0.3v-1.3h-1.3v-0.3h1.3v-1.3h0.3V323.4z M-27.1,323.4h1.3v0.3h-1.3v1.3h-0.3v-1.3h-1.3v-0.3h1.3 v-1.3h0.3V323.4z M7.9,330.4h1.3v0.3H7.9v1.3H7.6v-1.3H6.3v-0.3h1.3v-1.3h0.3V330.4z M-6.1,330.4h1.3v0.3h-1.3v1.3h-0.3v-1.3h-1.3 v-0.3h1.3v-1.3h0.3V330.4z M-20.1,330.4h1.3v0.3h-1.3v1.3h-0.3v-1.3h-1.3v-0.3h1.3v-1.3h0.3V330.4z M-34.2,330.4h1.3v0.3h-1.3v1.3 h-0.3v-1.3h-1.3v-0.3h1.3v-1.3h0.3V330.4z M0.9,337.4h1.3v0.3H0.9v1.3H0.6v-1.3h-1.3v-0.3h1.3v-1.3h0.3V337.4z M-13.1,337.4h1.3v0.3 h-1.3v1.3h-0.3v-1.3h-1.3v-0.3h1.3v-1.3h0.3V337.4z M-27.1,337.4h1.3v0.3h-1.3v1.3h-0.3v-1.3h-1.3v-0.3h1.3v-1.3h0.3V337.4z M7.9,344.4h1.3v0.3H7.9v1.3H7.6v-1.3H6.3v-0.3h1.3v-1.3h0.3V344.4z M-6.1,344.4h1.3v0.3h-1.3v1.3h-0.3v-1.3h-1.3v-0.3h1.3v-1.3h0.3 V344.4z M-20.1,344.4h1.3v0.3h-1.3v1.3h-0.3v-1.3h-1.3v-0.3h1.3v-1.3h0.3V344.4z M-34.2,344.4h1.3v0.3h-1.3v1.3h-0.3v-1.3h-1.3v-0.3 h1.3v-1.3h0.3V344.4z M0.9,351.4h1.3v0.3H0.9v1.3H0.6v-1.3h-1.3v-0.3h1.3v-1.3h0.3V351.4z M-13.1,351.4h1.3v0.3h-1.3v1.3h-0.3v-1.3 h-1.3v-0.3h1.3v-1.3h0.3V351.4z M-27.1,351.4h1.3v0.3h-1.3v1.3h-0.3v-1.3h-1.3v-0.3h1.3v-1.3h0.3V351.4z M7.9,358.4h1.3v0.3H7.9v1.3 H7.6v-1.3H6.3v-0.3h1.3v-1.3h0.3V358.4z M-6.1,358.4h1.3v0.3h-1.3v1.3h-0.3v-1.3h-1.3v-0.3h1.3v-1.3h0.3V358.4z M-20.1,358.4h1.3 v0.3h-1.3v1.3h-0.3v-1.3h-1.3v-0.3h1.3v-1.3h0.3V358.4z M-34.2,358.4h1.3v0.3h-1.3v1.3h-0.3v-1.3h-1.3v-0.3h1.3v-1.3h0.3V358.4z M0.9,365.5h1.3v0.3H0.9v1.3H0.6v-1.3h-1.3v-0.3h1.3v-1.3h0.3V365.5z M-13.1,365.5h1.3v0.3h-1.3v1.3h-0.3v-1.3h-1.3v-0.3h1.3v-1.3 h0.3V365.5z M-27.1,365.5h1.3v0.3h-1.3v1.3h-0.3v-1.3h-1.3v-0.3h1.3v-1.3h0.3V365.5z M7.9,372.5h1.3v0.3H7.9v1.3H7.6v-1.3H6.3v-0.3 h1.3v-1.3h0.3V372.5z M-6.1,372.5h1.3v0.3h-1.3v1.3h-0.3v-1.3h-1.3v-0.3h1.3v-1.3h0.3V372.5z M-20.1,372.5h1.3v0.3h-1.3v1.3h-0.3 v-1.3h-1.3v-0.3h1.3v-1.3h0.3V372.5z M-34.2,372.5h1.3v0.3h-1.3v1.3h-0.3v-1.3h-1.3v-0.3h1.3v-1.3h0.3V372.5z M-13.1,379.5h1.3v0.3 h-1.3v1.3h-0.3v-1.3h-1.3v-0.3h1.3v-1.3h0.3V379.5z M-27.1,379.5h1.3v0.3h-1.3v1.3h-0.3v-1.3h-1.3v-0.3h1.3v-1.3h0.3V379.5z M-20.1,386.5h1.3v0.3h-1.3v1.3h-0.3v-1.3h-1.3v-0.3h1.3v-1.3h0.3V386.5z M-34.2,386.5h1.3v0.3h-1.3v1.3h-0.3v-1.3h-1.3v-0.3h1.3 v-1.3h0.3V386.5z" fill="#2b4b82"/></g></svg>