<?xml version="1.0" encoding="UTF-8" standalone="no"?><svg xmlns="http://www.w3.org/2000/svg" xmlns:xlink="http://www.w3.org/1999/xlink" fill="#000000" height="409.5" preserveAspectRatio="xMidYMid meet" version="1" viewBox="0.0 45.3 499.3 409.5" width="499.3" zoomAndPan="magnify"><g id="change1_1"><path d="M475.5,257.3v96.9c0,30.7-21.7,43.1-48.5,27.6l-1-0.6L402.2,422l-23.8-68.2L243.6,276 c-26.9-15.5-48.6-53-48.6-83.7V95.4c0-30.7,21.7-43.1,48.5-27.6l183.4,105.9C453.7,189.1,475.5,226.6,475.5,257.3z" fill="#f0abc1"/></g><g id="change2_1"><path d="M61.3,237l154.9-89.5c22.7-13.1,41-2.6,41,23.3v81.9c0,26-18.4,57.6-41,70.7l-113.9,65.8 l-20.1,57.7l-20.1-34.5l-0.9,0.5c-22.7,13.1-41,2.6-41-23.3v-81.9C20.3,281.7,38.7,250.1,61.3,237z" fill="#94ddde"/></g><g id="change3_1"><path d="M376,266.6l-35.5,8.7l-5.3,1.3l-5.3-7.4l-35.5-49.7c-11.5-16.2-15.5-36.1-9.4-47.2l0,0 c9.1-16.6,34.8-5.8,48.7,20.5l1.5,2.8l1.5-1.1c13.9-10.3,39.6,8.5,48.7,35.7l0,0C391.5,248.4,387.6,263.7,376,266.6z M134.7,232 l-12.1,35.2l-27.2,20.2c-3.7,2.8-5.2,8.9-2.5,10.3l19.6,10.6l-4.6,33.7c-0.6,4.6,3.3,5.6,6.6,1.7l24.3-28.7l24.3,0.6 c3.3,0.1,7.2-5.4,6.6-9.3l-4.6-28.3l19.6-33.3c2.7-4.6,1.2-9-2.5-7.4L155,248.5l-12.1-21.2C141.2,224.4,136.4,227.2,134.7,232z" fill="#fefefe"/></g><g id="change4_1"><path d="M449,160.5L265.7,54.7c-14.1-8.2-27.6-9.4-37.8-3.4l-20.4,10.2c-3.2,1.8-5.9,4.3-8.1,7.3 c-5,6.6-7.7,15.6-7.7,26.7l0,0V140l-26.8,15.5L42.7,225.8C19.2,239.4,0,272.5,0,299.5v81.9c0,13.7,4.8,24.1,13.6,29.1l16.9,8.2l0,0 l0,0l0,0c0.9,0.5,1.9,1,2.8,1.3c0.3,0.1,0.7,0.3,1,0.4c0.7,0.2,1.3,0.4,2,0.6c0.4,0.1,0.8,0.2,1.2,0.3c0.9,0.2,1.7,0.3,2.6,0.4 c0.7,0.1,1.4,0.1,2.1,0.1c0.3,0,0.6,0,0.8,0c2.5,0,5.2-0.4,7.9-1.1L66,446.6l16.9,8.2l0,0l22.1-63.4l113-65 c14.4-8.3,27.2-24,35-41.1l122.6,70.8l15.4,44.4l10.3,29.6l20.4-10.2l17.1-29.4c3.2,0.8,6.3,1.3,9.3,1.3c0.3,0,0.7,0,1,0 c0.8,0,1.6,0,2.4-0.1c1.1-0.1,2.1-0.2,3.1-0.4c0.5-0.1,0.9-0.2,1.4-0.3c0.8-0.2,1.6-0.4,2.4-0.7c0.4-0.1,0.8-0.3,1.2-0.4 c1.1-0.5,2.2-1,3.3-1.6l0,0l0,0l20.4-10.2c10.2-5.9,15.8-18,15.8-34v-96.9C499.3,215.4,476.7,176.5,449,160.5z M214.6,320.5 l-113.9,65.8l-1.1,0.6l-18.1,51.9l-18.1-31l-3.8,2.2c-9.9,5.7-19,6.8-25.7,2.9c-6.6-3.8-10.2-12.1-10.2-23.3v-81.9 c0-24.8,17.6-55.2,39.3-67.7l155-89.5c9.9-5.7,19-6.8,25.7-2.9c6.6,3.8,10.2,12.1,10.2,23.3v81.9C253.9,277.6,236.3,308,214.6,320.5 z M472.1,354.2c0,13.5-4.4,23.5-12.4,28.1c-8.1,4.7-19.1,3.4-31-3.4l-4-2.3l-21.8,37.3l-21.8-62.4L255.5,279 c3.3-8.8,5.1-17.8,5.1-26.2l0,0v-81.9l0,0c0-1-0.1-2-0.1-3c-0.6-11.8-5.1-20.8-12.7-25.7c-0.3-0.2-0.5-0.4-0.8-0.5l0,0l0,0 l-16.8-8.2c-8.7-5-19.9-4.1-31.7,2.5V95.4c0-13.5,4.4-23.5,12.4-28.1c3.2-1.9,6.9-2.8,11-2.8c6.1,0,12.9,2.1,20.1,6.2l183.4,105.9 c25.8,14.9,46.8,51.1,46.8,80.7L472.1,354.2L472.1,354.2z M353.2,189.4c-6.3-2-12.1-1.6-16.8,1.2c-9.5-17.7-24.7-29.6-38-29.7 c-7.2,0-12.9,3.4-16.4,9.7c-6.7,12.3-2.7,33.6,9.6,50.8l42.1,59l43-10.6c4.9-1.2,8.9-4.3,11.5-9.1c4.3-7.8,4.4-19.4,0.3-31.7 C382.3,210.3,367.8,194,353.2,189.4z M382.4,257.5c-1.7,3-4.1,5-7.2,5.7l-38.6,9.5l-39.4-55.2c-10.7-14.9-14.6-33.7-9.2-43.6 c2.2-4.1,5.7-6.2,10.2-6.2h0.1c8.9,0.1,22.8,8.4,32.4,26.7l3.3,6.3l4.7-3.5c4-3,9-2.4,12.5-1.3c10.6,3.3,24.7,16.5,31,35.3 C385.7,241.6,385.7,251.5,382.4,257.5z M180.9,234.2l-24.4,10l-10.7-18.6c-1.2-2-3.2-3.1-5.6-2.9c-3.6,0.3-7.2,3.7-8.8,8.2 l-11.8,34.2l-26.3,19.6c-3.3,2.5-5.5,7-5.2,10.8c0.2,2.4,1.3,4.3,3.1,5.3l17.6,9.5l-4.3,31.3c-0.6,4.1,1.4,6.6,3.4,7.5 c0.8,0.3,1.6,0.5,2.4,0.5c2.3,0,4.7-1.3,6.7-3.7l23.2-27.4l22.7,0.6c2.3,0,4.8-1.2,6.8-3.5s3.9-6,3.3-9.8l-4.4-27.1l19-32.2 c2.4-4,2.5-8.4,0.3-10.9C186.2,233.6,183.5,233.1,180.9,234.2z M181.8,243.1l-20.3,34.4l4.8,29.5c0.1,0.8-0.2,2.3-1.3,3.7 c-0.8,1.1-1.6,1.6-1.8,1.6l-25.9-0.7L112,341.5c-0.2,0.2-0.4,0.4-0.6,0.6l4.9-35.6L95,295c-0.1-1,0.7-3.5,2.5-4.8l28-20.8l12.5-36.2 c0.6-1.8,1.7-2.9,2.4-3.4l13.2,23l29.1-11.9C182.5,241.4,182.3,242.2,181.8,243.1z" fill="#2b4b82"/></g></svg>